<svg id="OBJECTS" xmlns="http://www.w3.org/2000/svg" viewBox="0 0 628.36 218.44"><defs><style>.cls-1{fill:#f2ede7;}.cls-2{fill:#331e10;}</style></defs><path class="cls-1" d="M480.51,303.67c0,2-2.09,3.49-3.62,2.68a11.59,11.59,0,0,1-3.39-2.89,3.08,3.08,0,0,1-.26-2.47c.9-2.95,4.28-4.82,6.89-4a5.63,5.63,0,0,1,3.51,7.28,7,7,0,0,1-5.37,5.27c-3.31.71-6.07-.54-8.31-2.92a10.12,10.12,0,0,1-2.57-5.21c-.14-.81-.5-1.08-1.3-.94-2,.39-3.92.91-4.54,3.28-.25.93-.93,1.06-1.68.58a5,5,0,0,0-5.24-.12c-1.39.69-2.16.4-2.67-1.13-1.89-5.66-6.21-8.32-11.72-9.12-5.87-.86-11,1.21-15.74,5.07,3.1.41,5.72,1.14,6.94,4.22a6.74,6.74,0,0,1,5.74-.94c3.2.78,5,3.25,5.1,6.93,0,.76-.1,1.52-.16,2.28-.29,3.08,1.46,4.82,4.52,4.44.67-.08,1.32-.32,2-.44.32-.05.81-.1,1,.07s.06.65,0,1a14.56,14.56,0,0,0-.5,3.7,6,6,0,0,0,3.43,4.53c3.86,2,7.83,2.39,11.83.36.6-.31,1-.33,1.43.27,2.48,3.66,6.15,4.64,10.27,4.41,5.13-.29,8.6-3,10.82-7.54,1.5-3.09,3.08-6.16,4.86-9.09,6.63-10.88,23.26-14.07,33.37-6.34,2.22,1.7,3.84,4.2,5.76,6.31a16.89,16.89,0,0,1,3.69,6.79,12.58,12.58,0,0,1,.11,7.09,10,10,0,0,1-9,7.66c-4.52.56-8.53-.6-11.4-4.37a7.24,7.24,0,0,1-.44-8.13,9.3,9.3,0,0,1,1.32-1.26l.35.3a4.54,4.54,0,0,1-.36.77,6.39,6.39,0,0,0,.62,8.7c2.93,2.9,6.49,3.68,10.5,3,7-1.21,8.75-8.32,7.55-13-2.29-8.84-10.63-13.69-19.67-11.48-6.74,1.64-10.06,6.2-10.58,10.87a18.43,18.43,0,0,0,6.57,16.72c5,4.36,11,5.83,17.54,5.26,5.5-.48,10.53-2.29,14.48-6.23,11.19-11.15,10.46-28.93-5.95-37.4a10.3,10.3,0,0,0-9.27-.42,1.69,1.69,0,0,1-2.23-.55c-3.44-4.36-8-4.67-12.81-3.26a12,12,0,0,0-3.37,2c-.77.55-1.09.43-1.37-.4-1.43-4.18-5-5.81-9.15-4.15-2.81,1.13-2.8,1.12-4.8-1.2-3.53-4.1-7.92-5.52-13.16-4.09a18.79,18.79,0,0,0-9,5.09,10.93,10.93,0,0,0-1,13.9,8.12,8.12,0,0,0,8.33,3.22,6.66,6.66,0,0,0,4.6-6.93,4.39,4.39,0,0,0-2.86-3.7,3.73,3.73,0,0,0-4.2.86l-.18.16c-2.81,2.53-2.2,4.52,1.19,6.36a1.8,1.8,0,0,0,2.26-.57C479.58,304.45,480,304.13,480.51,303.67Z" transform="translate(-60.09 -141.31)"/><path class="cls-1" d="M465.1,325.87a13.62,13.62,0,0,1-12.13.05,11.13,11.13,0,0,1-3.66-3.14,5.55,5.55,0,0,1-.59-6.22c-1,.11-1.94.26-2.84.28a4.36,4.36,0,0,1-4.62-4.68,24.18,24.18,0,0,0,0-4.17c-.78-4.56-5.25-6.51-9.21-4.09-.62.38-1.24.67-1.49-.28-.61-2.38-2.54-3-4.55-3.52s-4-.87-6-1.44a20.14,20.14,0,0,0-12.26.25,81,81,0,0,1-9.26,2.36,13.2,13.2,0,0,1-9.57-1.79,4.34,4.34,0,0,0-.62-.28l-.29.29a10.25,10.25,0,0,0,1.76,1.67,15.7,15.7,0,0,0,9.95,1.85c3.37-.35,6.75-.72,10.13-.85a12.23,12.23,0,0,1,8.39,3,18.59,18.59,0,0,0,8.09,4.25c.41.09,1,.52,1,.83a1.62,1.62,0,0,1-.7,1.22c-3.24,2-3,7.68,0,9.81.23.16.44.34.67.5,1.42,1,2.22,1.13,1.31,3.47a4.86,4.86,0,0,0,.13,3c1.53,4.79,7.21,8.52,12.23,8.2.61,0,.86-.23.89-.84a6.11,6.11,0,0,1,.3-1.52c.87-2.72,3.84-4.63,6.19-4a5.64,5.64,0,0,1,4.05,6.88,3.4,3.4,0,0,1-3.28,2.82,3.84,3.84,0,0,1-3.89-2.93,2.5,2.5,0,0,1,2.57-3.11,3.52,3.52,0,0,1,1.14.52l-.15.35a1.65,1.65,0,0,1-.44.05c-.92-.17-1.88.06-2.09.92a3.2,3.2,0,0,0,.47,2.4,2.66,2.66,0,0,0,4.63-.86A4.81,4.81,0,0,0,450,332a3.83,3.83,0,0,0-4.24-.62,4.79,4.79,0,0,0-3,4.45,8,8,0,0,0,7.41,8.16c3.94.4,7.45-1.82,7.14-6.16-.27-3.89,3.47-7.68,7.57-6.66a4.86,4.86,0,0,0,1.32,0c7.43-.49,11.29,6.35,10.17,11.73-.37,1.74-.34,1.76,1.43,2a9.37,9.37,0,0,0,9.65-4.69,17.08,17.08,0,0,0,2.82-8.8,28.29,28.29,0,0,1,3.12-13.18,17.33,17.33,0,0,1,17.63-9.33,4.52,4.52,0,0,0,1.64-.1c6-1.73,10.27-1.17,15.75,2.05a6.49,6.49,0,0,0-.39-.62A18.72,18.72,0,0,0,514,303.31c-8.8-.45-16.34,2.28-21.38,10-1.37,2.1-2.48,4.38-3.69,6.59-1,1.78-1.83,3.65-2.89,5.38-4.07,6.6-16,7.35-20.63,1Z" transform="translate(-60.09 -141.31)"/><path class="cls-1" d="M467.2,332a24.17,24.17,0,0,1,2.17,2,9.92,9.92,0,0,1,.2,12,2.51,2.51,0,0,0-.35,2.45,14.38,14.38,0,0,0,9.13,9.05,19.13,19.13,0,0,0,13.17.32,20,20,0,0,0,5.2-2.85,41.1,41.1,0,0,0,4.38-4.08,3.58,3.58,0,0,1,3.48-1.07,12.81,12.81,0,0,0,10.07-2,18.88,18.88,0,0,0,3.48-3.7,3.76,3.76,0,0,0,.5-1.41,60.55,60.55,0,0,1-7-3.57c-6.78-4.65-9.9-11.21-8.92-19.39a12.59,12.59,0,0,1,6.78-9.64,4.78,4.78,0,0,0,1-.64c-4.39-.3-8.49.55-11.93,3.43-4.65,3.9-6.72,9.11-7.31,15-.13,1.35-.12,2.72-.24,4.07a16.52,16.52,0,0,1-5.23,11.37c-2.77,2.52-6.09,2.78-9.57,2-1-.23-1-1-.78-1.82a9.45,9.45,0,0,0-.88-7.19A8.19,8.19,0,0,0,467.2,332Z" transform="translate(-60.09 -141.31)"/><path class="cls-2" d="M483.06,284.91a48.88,48.88,0,0,0-6.51,1.94,23.69,23.69,0,0,0-5.41,3.46,11.14,11.14,0,0,0-3.93,8.21c0,.39-.06.78-.09,1.2-2.88.26-5.57.72-6.38,4.06a2.7,2.7,0,0,1-.58-.15,5.46,5.46,0,0,0-5.71-.16c-.9.45-1.5.23-1.73-.72-1.64-6.9-10.89-11.3-18.79-9.36a22.41,22.41,0,0,0-9.13,4.33,3.06,3.06,0,0,1-3.41.51,19.43,19.43,0,0,0-14.29,0,34.41,34.41,0,0,1-10.25,2.34,12.74,12.74,0,0,1-7.46-1.81,6.17,6.17,0,0,0-.95-.5c-.94-.32-1.67.29-1.23,1.15a6.42,6.42,0,0,0,2.08,2.49,15.82,15.82,0,0,0,11,1.89c3.68-.55,7.37-1.28,11.08-.57a14.37,14.37,0,0,1,5,1.9c3.12,2.05,5.87,4.71,9.52,5.2a22.21,22.21,0,0,0-2.29,4.27c-.91,3.24.34,6.14,3.25,8.08.94.63,1.3,1.17.8,2.3a5.21,5.21,0,0,0,.27,4.09,13.46,13.46,0,0,0,13.21,8.31c.2,0,.39,0,.69,0,.43,3.15,2.45,5.14,5,6.66,3.23,1.94,8.14,1.07,10.27-1.68a6.7,6.7,0,0,0,1.25-4.05,8.74,8.74,0,0,1,.35-2.71,5.18,5.18,0,0,1,7.87-2.66c4.19,2.52,5.31,8,2.34,12.41a3.87,3.87,0,0,0-.39,4c2.15,5.36,6.3,8.32,11.7,9.73a20.06,20.06,0,0,0,11.71-.35,18.88,18.88,0,0,0,5-2.7,48.63,48.63,0,0,0,4.82-4.49,2.77,2.77,0,0,1,2.7-.87,14.2,14.2,0,0,0,9.65-1.41,10,10,0,0,0,5.46-6.53c1.25.15,2.51.37,3.77.43,7.46.37,14.34-1.29,19.71-6.72,11.48-11.61,10.46-30.15-6.72-38.69a11,11,0,0,0-9.54-.37,1.17,1.17,0,0,1-1.56-.42c-3.9-4.77-8.88-4.81-14.18-3.12a18,18,0,0,0-3.09,1.71c-.07-.17-.2-.43-.31-.71-1.31-3.4-5.49-5.63-8.81-4.18-2.61,1.14-4.11.8-5.8-1.48-1.83-2.47-4.7-3.5-7.7-4l-1.05-.21Zm-2.55,18.76c-.52.46-.93.78-1.3,1.14a1.8,1.8,0,0,1-2.26.57c-3.39-1.84-4-3.83-1.19-6.36l.18-.16a3.73,3.73,0,0,1,4.2-.86,4.39,4.39,0,0,1,2.86,3.7,6.66,6.66,0,0,1-4.6,6.93,8.12,8.12,0,0,1-8.33-3.22,10.93,10.93,0,0,1,1-13.9,18.79,18.79,0,0,1,9-5.09c5.24-1.43,9.63,0,13.16,4.09,2,2.32,2,2.33,4.8,1.2,4.11-1.66,7.72,0,9.15,4.15.28.83.6.95,1.37.4a12,12,0,0,1,3.37-2c4.86-1.41,9.37-1.1,12.81,3.26a1.69,1.69,0,0,0,2.23.55,10.3,10.3,0,0,1,9.27.42c16.41,8.47,17.14,26.25,5.95,37.4-3.95,3.94-9,5.75-14.48,6.23-6.53.57-12.51-.9-17.54-5.26a18.43,18.43,0,0,1-6.57-16.72c.52-4.67,3.84-9.23,10.58-10.87,9-2.21,17.38,2.64,19.67,11.48,1.2,4.65-.58,11.76-7.55,13-4,.7-7.57-.08-10.5-3a6.39,6.39,0,0,1-.62-8.7,4.54,4.54,0,0,0,.36-.77l-.35-.3a9.3,9.3,0,0,0-1.32,1.26,7.24,7.24,0,0,0,.44,8.13c2.87,3.77,6.88,4.93,11.4,4.37a10,10,0,0,0,9-7.66,12.58,12.58,0,0,0-.11-7.09,16.89,16.89,0,0,0-3.69-6.79c-1.92-2.11-3.54-4.61-5.76-6.31-10.11-7.73-26.74-4.54-33.37,6.34-1.78,2.93-3.36,6-4.86,9.09-2.22,4.57-5.69,7.25-10.82,7.54-4.12.23-7.79-.75-10.27-4.41-.41-.6-.83-.58-1.43-.27-4,2-8,1.65-11.83-.36a6,6,0,0,1-3.43-4.53,14.56,14.56,0,0,1,.5-3.7c0-.34.15-.8,0-1s-.64-.12-1-.07c-.67.12-1.32.36-2,.44-3.06.38-4.81-1.36-4.52-4.44.06-.76.17-1.52.16-2.28-.07-3.68-1.9-6.15-5.1-6.93a6.74,6.74,0,0,0-5.74.94c-1.22-3.08-3.84-3.81-6.94-4.22,4.77-3.86,9.87-5.93,15.74-5.07,5.51.8,9.83,3.46,11.72,9.12.51,1.53,1.28,1.82,2.67,1.13a5,5,0,0,1,5.24.12c.75.48,1.43.35,1.68-.58.62-2.37,2.51-2.89,4.54-3.28.8-.14,1.16.13,1.3.94a10.12,10.12,0,0,0,2.57,5.21c2.24,2.38,5,3.63,8.31,2.92a7,7,0,0,0,5.37-5.27,5.63,5.63,0,0,0-3.51-7.28c-2.61-.86-6,1-6.89,4a3.08,3.08,0,0,0,.26,2.47,11.59,11.59,0,0,0,3.39,2.89C478.42,307.16,480.48,305.65,480.51,303.67Zm-15.41,22.2.26.39c4.64,6.38,16.56,5.63,20.63-1,1.06-1.73,1.91-3.6,2.89-5.38,1.21-2.21,2.32-4.49,3.69-6.59,5-7.73,12.58-10.46,21.38-10a18.72,18.72,0,0,1,14.11,6.94,6.49,6.49,0,0,1,.39.62c-5.48-3.22-9.73-3.78-15.75-2.05a4.52,4.52,0,0,1-1.64.1,17.33,17.33,0,0,0-17.63,9.33,28.29,28.29,0,0,0-3.12,13.18,17.08,17.08,0,0,1-2.82,8.8,9.37,9.37,0,0,1-9.65,4.69c-1.77-.21-1.8-.23-1.43-2,1.12-5.38-2.74-12.22-10.17-11.73a4.86,4.86,0,0,1-1.32,0c-4.1-1-7.84,2.77-7.57,6.66.31,4.34-3.2,6.56-7.14,6.16a8,8,0,0,1-7.41-8.16,4.79,4.79,0,0,1,3-4.45A3.83,3.83,0,0,1,450,332a4.81,4.81,0,0,1,1.32,5.15,2.66,2.66,0,0,1-4.63.86,3.2,3.2,0,0,1-.47-2.4c.21-.86,1.17-1.09,2.09-.92a1.65,1.65,0,0,0,.44-.05l.15-.35a3.52,3.52,0,0,0-1.14-.52,2.5,2.5,0,0,0-2.57,3.11,3.84,3.84,0,0,0,3.89,2.93,3.4,3.4,0,0,0,3.28-2.82,5.64,5.64,0,0,0-4.05-6.88c-2.35-.63-5.32,1.28-6.19,4a6.11,6.11,0,0,0-.3,1.52c0,.61-.28.8-.89.84-5,.32-10.7-3.41-12.23-8.2a4.86,4.86,0,0,1-.13-3c.91-2.34.11-2.5-1.31-3.47-.23-.16-.44-.34-.67-.5-2.94-2.13-3.22-7.82,0-9.81a1.62,1.62,0,0,0,.7-1.22c0-.31-.62-.74-1-.83a18.59,18.59,0,0,1-8.09-4.25,12.23,12.23,0,0,0-8.39-3c-3.38.13-6.76.5-10.13.85a15.7,15.7,0,0,1-9.95-1.85,10.25,10.25,0,0,1-1.76-1.67l.29-.29a4.34,4.34,0,0,1,.62.28,13.2,13.2,0,0,0,9.57,1.79,81,81,0,0,0,9.26-2.36,20.14,20.14,0,0,1,12.26-.25c2,.57,4,.93,6,1.44s3.94,1.14,4.55,3.52c.25.95.87.66,1.49.28,4-2.42,8.43-.47,9.21,4.09a24.18,24.18,0,0,1,0,4.17,4.36,4.36,0,0,0,4.62,4.68c.9,0,1.8-.17,2.84-.28a5.55,5.55,0,0,0,.59,6.22,11.13,11.13,0,0,0,3.66,3.14A13.62,13.62,0,0,0,465.1,325.87Zm2.1,6.17a8.19,8.19,0,0,1,7.37,4.32,9.45,9.45,0,0,1,.88,7.19c-.23.79-.23,1.59.78,1.82,3.48.78,6.8.52,9.57-2A16.52,16.52,0,0,0,491,332c.12-1.35.11-2.72.24-4.07.59-5.9,2.66-11.11,7.31-15,3.44-2.88,7.54-3.73,11.93-3.43a4.78,4.78,0,0,1-1,.64,12.59,12.59,0,0,0-6.78,9.64c-1,8.18,2.14,14.74,8.92,19.39a60.55,60.55,0,0,0,7,3.57,3.76,3.76,0,0,1-.5,1.41,18.88,18.88,0,0,1-3.48,3.7,12.81,12.81,0,0,1-10.07,2,3.58,3.58,0,0,0-3.48,1.07,41.1,41.1,0,0,1-4.38,4.08,20,20,0,0,1-5.2,2.85,19.13,19.13,0,0,1-13.17-.32,14.38,14.38,0,0,1-9.13-9.05,2.51,2.51,0,0,1,.35-2.45,9.92,9.92,0,0,0-.2-12A24.17,24.17,0,0,0,467.2,332Z" transform="translate(-60.09 -141.31)"/><path class="cls-1" d="M137.14,200.52c-.25-2.12,1.72-4,3.47-3.38a12.27,12.27,0,0,1,4,2.59,3.28,3.28,0,0,1,.64,2.59c-.54,3.27-3.87,5.75-6.77,5.21a6,6,0,0,1-4.79-7.24c.5-3,2-5.34,5-6.4,3.43-1.23,6.55-.29,9.28,1.92a10.79,10.79,0,0,1,3.48,5.18c.27.84.7,1.09,1.52.81,2.1-.7,4.05-1.53,4.37-4.14.13-1,.84-1.26,1.71-.86a5.33,5.33,0,0,0,5.59-.62c1.38-.94,2.24-.74,3,.81,2.83,5.76,7.81,8,13.8,8,6.36.06,11.51-2.87,16-7.67-3.35,0-6.25-.38-8-3.49a7.26,7.26,0,0,1-6,1.82c-3.52-.37-5.82-2.73-6.43-6.65-.12-.8-.11-1.63-.15-2.44-.14-3.33-2.25-4.93-5.46-4.09-.7.19-1.36.54-2.05.75-.34.11-.85.24-1,.07s-.16-.68-.16-1.05c0-1.34.34-2.77,0-4a6.51,6.51,0,0,0-4.3-4.34c-4.4-1.58-8.69-1.41-12.66,1.33-.59.41-1,.49-1.56-.09-3.16-3.54-7.21-4.06-11.57-3.22-5.42,1-8.73,4.4-10.44,9.59-1.15,3.5-2.39,7-3.87,10.37-5.5,12.55-22.75,18.33-34.63,11.55-2.61-1.49-4.7-3.92-7-5.89a18.18,18.18,0,0,1-4.91-6.7,13.52,13.52,0,0,1-1.13-7.55,10.73,10.73,0,0,1,8.48-9.45c4.74-1.24,9.17-.58,12.78,3A7.8,7.8,0,0,1,99,185.49,9.27,9.27,0,0,1,97.74,187l-.41-.27a4.89,4.89,0,0,1,.27-.87,6.86,6.86,0,0,0-1.91-9.17c-3.53-2.67-7.44-3-11.61-1.67-7.25,2.29-8.13,10.12-6.18,14.89,3.71,9.1,13.29,13.06,22.6,9.41,6.94-2.72,9.83-8.05,9.71-13.1a19.81,19.81,0,0,0-9.4-16.87c-6-3.92-12.57-4.62-19.44-3.08-5.79,1.3-10.89,4-14.53,8.72-10.31,13.49-7,32.32,11.71,39a11.08,11.08,0,0,0,9.94-.89,1.82,1.82,0,0,1,2.45.27c4.29,4.15,9.14,3.83,14.11,1.63a12.64,12.64,0,0,0,3.31-2.56c.74-.71,1.1-.63,1.52.22,2.12,4.25,6.2,5.46,10.34,3.11,2.83-1.61,2.82-1.6,5.28.59,4.35,3.85,9.24,4.73,14.6,2.46a20.09,20.09,0,0,0,8.82-6.71,11.74,11.74,0,0,0-.91-15c-2.39-2.54-6.45-3.51-9.34-2.23a7.16,7.16,0,0,0-3.9,8,4.73,4.73,0,0,0,3.58,3.53A4,4,0,0,0,142.7,205l.17-.2c2.62-3.09,1.69-5.12-2.18-6.6-1-.39-1.73.16-2.33.93C138,199.55,137.63,200,137.14,200.52Z" transform="translate(-60.09 -141.31)"/><path class="cls-1" d="M150.36,174.65a14.65,14.65,0,0,1,12.91-1.79,11.91,11.91,0,0,1,4.36,2.82,6,6,0,0,1,1.52,6.53c1.09-.26,2-.55,3-.7a4.69,4.69,0,0,1,5.6,4.32,25.12,25.12,0,0,0,.62,4.44c1.49,4.75,6.52,6.17,10.39,3,.61-.5,1.23-.89,1.63.08,1,2.45,3.14,2.84,5.35,3.1s4.43.35,6.63.67a21.74,21.74,0,0,0,13-2,85.34,85.34,0,0,1,9.52-3.85,14.11,14.11,0,0,1,10.45.53,4.44,4.44,0,0,0,.71.21c.09-.11.17-.23.26-.35a11.31,11.31,0,0,0-2.11-1.53,16.84,16.84,0,0,0-10.86-.54c-3.55.86-7.09,1.74-10.67,2.37a13.18,13.18,0,0,1-9.38-2,20,20,0,0,0-9.22-3.37c-.45,0-1.15-.41-1.21-.73a1.71,1.71,0,0,1,.56-1.4c3.17-2.58,2.05-8.61-1.38-10.45-.27-.14-.52-.3-.79-.44-1.65-.83-2.53-.89-1.89-3.51a5.33,5.33,0,0,0-.57-3.21c-2.32-4.87-8.91-8-14.22-7-.63.13-.87.36-.82,1a7.1,7.1,0,0,1-.1,1.66c-.54,3-3.42,5.48-6,5.15a6.05,6.05,0,0,1-5.31-6.75,3.63,3.63,0,0,1,3.08-3.46A4.13,4.13,0,0,1,170,160a2.69,2.69,0,0,1-2.29,3.68,3.65,3.65,0,0,1-1.3-.39c0-.13.07-.26.11-.39a1.54,1.54,0,0,1,.46-.11c1,0,2-.34,2.1-1.29a3.43,3.43,0,0,0-.85-2.49,2.86,2.86,0,0,0-4.81,1.58,5.19,5.19,0,0,0,2.15,5.31,4.12,4.12,0,0,0,4.6,0,5.14,5.14,0,0,0,2.52-5.16,8.58,8.58,0,0,0-9.07-7.63c-4.25.15-7.67,3-6.72,7.59.85,4.1-2.59,8.68-7.11,8.18a4.79,4.79,0,0,0-1.39.18c-7.85,1.59-12.95-5.14-12.52-11,.14-1.91.1-1.93-1.81-1.9a10.09,10.09,0,0,0-9.61,6.39,18.46,18.46,0,0,0-1.74,9.78,30.24,30.24,0,0,1-1.43,14.48,18.62,18.62,0,0,1-17.43,12.47,4.86,4.86,0,0,0-1.74.34c-6.16,2.71-10.76,2.72-17.07.09a7.19,7.19,0,0,0,.51.59,20.05,20.05,0,0,0,16,5.37c9.45-.79,17.08-4.78,21.34-13.73,1.16-2.44,2-5,3-7.55.78-2,1.42-4.15,2.31-6.14,3.38-7.62,16-10.13,21.83-4Z" transform="translate(-60.09 -141.31)"/><path class="cls-1" d="M147.24,168.39a28.08,28.08,0,0,1-2.61-1.88,10.66,10.66,0,0,1-1.93-12.71,2.64,2.64,0,0,0,0-2.65c-2.29-4.62-6.13-7.21-11-8.34a20.6,20.6,0,0,0-14.07,1.55,21.3,21.3,0,0,0-5.13,3.79,42.74,42.74,0,0,0-4.08,5,3.84,3.84,0,0,1-3.55,1.63,13.81,13.81,0,0,0-10.44,3.61,20.79,20.79,0,0,0-3.18,4.44,4.34,4.34,0,0,0-.33,1.58,63.62,63.62,0,0,1,7.94,2.79c7.89,4,12.16,10.52,12.29,19.37a13.52,13.52,0,0,1-5.84,11.25,5.71,5.71,0,0,0-1,.82c4.72-.31,9-1.8,12.21-5.36,4.39-4.82,5.85-10.68,5.63-17,0-1.46-.25-2.92-.33-4.37A17.76,17.76,0,0,1,125.8,159c2.59-3.08,6.08-3.83,9.91-3.5,1.11.09,1.22.94,1.09,1.82a10.1,10.1,0,0,0,2,7.53A8.82,8.82,0,0,0,147.24,168.39Z" transform="translate(-60.09 -141.31)"/><path class="cls-2" d="M137.12,220.86a52.49,52.49,0,0,0,6.65-3A25.76,25.76,0,0,0,149,213.4a12,12,0,0,0,3-9.31c0-.42,0-.84-.07-1.3,3-.69,5.83-1.56,6.21-5.24a3.16,3.16,0,0,1,.64.08,5.87,5.87,0,0,0,6.11-.65c.89-.6,1.56-.46,1.94.52,2.74,7.11,13.23,10.47,21.36,7.27a23.83,23.83,0,0,0,9.1-5.93,3.3,3.3,0,0,1,3.56-1,20.85,20.85,0,0,0,15.23-2,37,37,0,0,1,10.58-4,13.65,13.65,0,0,1,8.2.87,5.22,5.22,0,0,0,1.09.38c1,.22,1.73-.54,1.14-1.39a6.83,6.83,0,0,0-2.58-2.35,16.94,16.94,0,0,0-12-.44c-3.84,1.12-7.67,2.43-11.72,2.2a15.19,15.19,0,0,1-5.57-1.31c-3.62-1.74-6.93-4.17-10.88-4.17.65-1.68,1.59-3.23,1.82-4.88.5-3.58-1.24-6.49-4.62-8.14-1.1-.53-1.55-1.06-1.18-2.33a5.7,5.7,0,0,0-.87-4.32A14.5,14.5,0,0,0,174.27,159a6.81,6.81,0,0,1-.73.1c-.91-3.29-3.35-5.12-6.28-6.37-3.72-1.6-8.82,0-10.7,3.27a7.14,7.14,0,0,0-.74,4.49,9.6,9.6,0,0,1,0,2.93,5.56,5.56,0,0,1-8,4c-4.84-2.08-6.81-7.77-4.28-12.87a4.17,4.17,0,0,0-.17-4.34c-3.06-5.4-7.9-7.95-13.85-8.68a21.52,21.52,0,0,0-12.42,2.06,19.74,19.74,0,0,0-5,3.6,51.72,51.72,0,0,0-4.5,5.47,2.94,2.94,0,0,1-2.74,1.31,15.27,15.27,0,0,0-10.08,2.89A10.73,10.73,0,0,0,90,164.56c-1.36,0-2.73,0-4.09.08-8,.68-15.09,3.44-20,10-10.55,14-6.8,33.61,12.73,40.23a11.81,11.81,0,0,0,10.21-1,1.26,1.26,0,0,1,1.72.22c4.84,4.52,10.15,3.85,15.55,1.29a19.26,19.26,0,0,0,3-2.27c.1.17.27.43.42.71,1.89,3.44,6.67,5.21,10,3.19,2.61-1.59,4.27-1.44,6.4.75,2.29,2.36,5.5,3.05,8.77,3.17.38,0,.76,0,1.15.07Zm0-20.34c.49-.57.88-1,1.22-1.41.6-.77,1.33-1.32,2.33-.93,3.87,1.48,4.8,3.51,2.18,6.6l-.17.2a4,4,0,0,1-4.35,1.52,4.73,4.73,0,0,1-3.58-3.53,7.16,7.16,0,0,1,3.9-8c2.89-1.28,7-.31,9.34,2.23a11.74,11.74,0,0,1,.91,15,20.09,20.09,0,0,1-8.82,6.71c-5.36,2.27-10.25,1.39-14.6-2.46-2.46-2.19-2.45-2.2-5.28-.59-4.14,2.35-8.22,1.14-10.34-3.11-.42-.85-.78-.93-1.52-.22a12.64,12.64,0,0,1-3.31,2.56c-5,2.2-9.82,2.52-14.11-1.63a1.82,1.82,0,0,0-2.45-.27,11.08,11.08,0,0,1-9.94.89c-18.69-6.66-22-25.49-11.71-39,3.64-4.77,8.74-7.42,14.53-8.72,6.87-1.54,13.45-.84,19.44,3.08a19.81,19.81,0,0,1,9.4,16.87c.12,5-2.77,10.38-9.71,13.1-9.31,3.65-18.89-.31-22.6-9.41-2-4.77-1.07-12.6,6.18-14.89,4.17-1.32,8.08-1,11.61,1.67a6.86,6.86,0,0,1,1.91,9.17,4.89,4.89,0,0,0-.27.87l.41.27A9.27,9.27,0,0,0,99,185.49a7.8,7.8,0,0,0-1.63-8.59c-3.61-3.61-8-4.27-12.78-3a10.73,10.73,0,0,0-8.48,9.45,13.52,13.52,0,0,0,1.13,7.55,18.18,18.18,0,0,0,4.91,6.7c2.34,2,4.43,4.4,7,5.89,11.88,6.78,29.13,1,34.63-11.55,1.48-3.37,2.72-6.87,3.87-10.37,1.71-5.19,5-8.55,10.44-9.59,4.36-.84,8.41-.32,11.57,3.22.52.58,1,.5,1.56.09,4-2.74,8.26-2.91,12.66-1.33a6.51,6.51,0,0,1,4.3,4.34c.34,1.24,0,2.67,0,4,0,.37,0,.87.16,1.05s.7,0,1-.07c.69-.21,1.35-.56,2.05-.75,3.21-.84,5.32.76,5.46,4.09,0,.81,0,1.64.15,2.44.61,3.92,2.91,6.28,6.43,6.65a7.26,7.26,0,0,0,6-1.82c1.74,3.11,4.64,3.51,8,3.49-4.51,4.8-9.66,7.73-16,7.67-6-.07-11-2.28-13.8-8-.77-1.55-1.63-1.75-3-.81a5.33,5.33,0,0,1-5.59.62c-.87-.4-1.58-.16-1.71.86-.32,2.61-2.27,3.44-4.37,4.14-.82.28-1.25,0-1.52-.81a10.79,10.79,0,0,0-3.48-5.18c-2.73-2.21-5.85-3.15-9.28-1.92-2.93,1.06-4.46,3.38-5,6.4a6,6,0,0,0,4.79,7.24c2.9.54,6.23-1.94,6.77-5.21a3.28,3.28,0,0,0-.64-2.59,12.27,12.27,0,0,0-4-2.59C138.86,196.5,136.89,198.4,137.14,200.52Zm13.22-25.87-.33-.38c-5.85-6.12-18.45-3.61-21.83,4-.89,2-1.53,4.1-2.31,6.14-1,2.53-1.82,5.11-3,7.55-4.26,8.95-11.89,12.94-21.34,13.73a20.05,20.05,0,0,1-16-5.37,7.19,7.19,0,0,1-.51-.59c6.31,2.63,10.91,2.62,17.07-.09a4.86,4.86,0,0,1,1.74-.34,18.62,18.62,0,0,0,17.43-12.47,30.24,30.24,0,0,0,1.43-14.48,18.46,18.46,0,0,1,1.74-9.78,10.09,10.09,0,0,1,9.61-6.39c1.91,0,1.95,0,1.81,1.9-.43,5.89,4.67,12.62,12.52,11a4.79,4.79,0,0,1,1.39-.18c4.52.5,8-4.08,7.11-8.18-.95-4.58,2.47-7.44,6.72-7.59a8.58,8.58,0,0,1,9.07,7.63,5.14,5.14,0,0,1-2.52,5.16,4.12,4.12,0,0,1-4.6,0,5.19,5.19,0,0,1-2.15-5.31,2.86,2.86,0,0,1,4.81-1.58,3.43,3.43,0,0,1,.85,2.49c-.11.95-1.09,1.33-2.1,1.29a1.54,1.54,0,0,0-.46.11c0,.13-.07.26-.11.39a3.65,3.65,0,0,0,1.3.39A2.69,2.69,0,0,0,170,160a4.13,4.13,0,0,0-4.58-2.55,3.63,3.63,0,0,0-3.08,3.46,6.05,6.05,0,0,0,5.31,6.75c2.59.33,5.47-2.12,6-5.15a7.1,7.1,0,0,0,.1-1.66c-.05-.66.19-.89.82-1,5.31-1.06,11.9,2.1,14.22,7a5.33,5.33,0,0,1,.57,3.21c-.64,2.62.24,2.68,1.89,3.51.27.14.52.3.79.44,3.43,1.84,4.55,7.87,1.38,10.45a1.71,1.71,0,0,0-.56,1.4c.06.32.76.7,1.21.73a20,20,0,0,1,9.22,3.37,13.18,13.18,0,0,0,9.38,2c3.58-.63,7.12-1.51,10.67-2.37a16.84,16.84,0,0,1,10.86.54,11.31,11.31,0,0,1,2.11,1.53c-.09.12-.17.24-.26.35a4.44,4.44,0,0,1-.71-.21,14.11,14.11,0,0,0-10.45-.53,85.34,85.34,0,0,0-9.52,3.85,21.74,21.74,0,0,1-13,2c-2.2-.32-4.42-.41-6.63-.67s-4.36-.65-5.35-3.1c-.4-1-1-.58-1.63-.08-3.87,3.14-8.9,1.72-10.39-3a25.12,25.12,0,0,1-.62-4.44,4.69,4.69,0,0,0-5.6-4.32c-1,.15-1.89.44-3,.7a6,6,0,0,0-1.52-6.53,11.91,11.91,0,0,0-4.36-2.82A14.65,14.65,0,0,0,150.36,174.65Zm-3.12-6.26a8.82,8.82,0,0,1-8.47-3.55,10.1,10.1,0,0,1-2-7.53c.13-.88,0-1.73-1.09-1.82-3.83-.33-7.32.42-9.91,3.5a17.76,17.76,0,0,0-3.94,12.86c.08,1.45.28,2.91.33,4.37.22,6.36-1.24,12.22-5.63,17-3.25,3.56-7.49,5.05-12.21,5.36a5.71,5.71,0,0,1,1-.82,13.52,13.52,0,0,0,5.84-11.25c-.13-8.85-4.4-15.39-12.29-19.37a63.62,63.62,0,0,0-7.94-2.79,4.34,4.34,0,0,1,.33-1.58,20.79,20.79,0,0,1,3.18-4.44,13.81,13.81,0,0,1,10.44-3.61,3.84,3.84,0,0,0,3.55-1.63,42.74,42.74,0,0,1,4.08-5,21.3,21.3,0,0,1,5.13-3.79,20.6,20.6,0,0,1,14.07-1.55c4.89,1.13,8.73,3.72,11,8.34a2.64,2.64,0,0,1,0,2.65,10.66,10.66,0,0,0,1.93,12.71A28.08,28.08,0,0,0,147.24,168.39Z" transform="translate(-60.09 -141.31)"/><path class="cls-1" d="M469.52,202.09c.06.33.09.67.17,1a20.17,20.17,0,0,0,8,12,37.13,37.13,0,0,0,17,6.68,38.39,38.39,0,0,0,13.18-.35,11.39,11.39,0,0,0,4.38-2c1.85-1.32,3.68-2.68,5.58-3.92,5.82-3.82,11.9-3.86,18.12-1.1a11.28,11.28,0,0,1,5.4,5.42c.58,1.12,1.08,2.29,1.71,3.39,2.29,4,6,5.44,10.31,5.52a9.92,9.92,0,0,0,9.78-8.42c.2-1.9.23-3.82.46-5.72a8.73,8.73,0,0,1,8-8,6.11,6.11,0,0,1,6.72,7.46,12.65,12.65,0,0,1-1.43,3.27c-1.38,2.48-2.54,5-2.17,7.94a8.43,8.43,0,0,0,2.51,5.25,25.85,25.85,0,0,0,21.65,7.38,43.77,43.77,0,0,0,10.33-2.38,15.5,15.5,0,0,0,9.65-9.89c2-5.75,1.92-11.29-1.22-16.61a9.48,9.48,0,0,0-6.42-5c-.88-.17-1.06-.66-.5-1.31,5.28-6.19,11.19-11.53,19.23-13.91a34.24,34.24,0,0,1,19.8-.31,25.12,25.12,0,0,1,12.34,8l.06.08c1.91,3.37,4.39,6.52,4.89,10.49a9.38,9.38,0,0,1-4.36,9.47,9.26,9.26,0,0,1-10.49.18,9.72,9.72,0,0,1-1.31-1.19c.1-.11.19-.23.28-.34a3.66,3.66,0,0,1,.68.36c4.87,4,12.77,1.53,14.3-5.44.8-3.64-.54-6.76-2.88-9.44-4.57-5.24-12.53-6-18.61-1.78-5.56,3.84-7.21,9.28-6.23,15.7,1.61,10.46,9.82,17,19,18.08A22.37,22.37,0,0,0,670,230.34c10.14-5,16.17-13,17.47-24.24.86-7.41-1.33-14.15-5.39-20.3a33.6,33.6,0,0,0-20.5-14.55c-6.94-1.73-13.46-.2-19.58,3.34-.62.36-1.06,1.4-1.95.76.31-1.75.74-3.45.91-5.18,1-10.17-3.32-18.55-12.37-23.33-9.5-5-19.21-5.14-28.48.34s-13.53,14.22-12.54,25.09c.47,5.23,3.73,8.9,8,11.66A26.64,26.64,0,0,0,608,187.71a16.44,16.44,0,0,0,10.45-2.4c4.26-2.69,5.86-6.29,4.84-11.22a18.69,18.69,0,0,0-1-3.44,7.64,7.64,0,0,0-10.15-4.46c-.67.24-1.36.46-2,.69l-.16-.3a3.67,3.67,0,0,1,.61-.51c5.67-2.85,10-.39,12.1,3.66a14.54,14.54,0,0,1,1.56,8.79,9.36,9.36,0,0,1-3.43,6,15.7,15.7,0,0,1-9,3.82,26.85,26.85,0,0,1-16.94-4.09A17.33,17.33,0,0,1,587,173.63a1.83,1.83,0,0,0-.51-.91A18.79,18.79,0,0,0,571,167.59a11.94,11.94,0,0,0-5.54,2.29,16.49,16.49,0,0,0-2,2.12c.06.1.12.2.17.3.4,0,.8,0,1.21,0a9.17,9.17,0,0,1,6.78,2.92,14,14,0,0,1,1,18.81A11.4,11.4,0,0,1,561.43,198a5.87,5.87,0,0,1-1.28-.44c-.42-.18-.8-.43-1.33-.72-.12.41-.21.76-.31,1.11-.55,2.12-1.66,3.72-4,4.22a.89.89,0,0,0-.52.37c-2.1,3.57-5.48,5.16-9.34,5.92a22.59,22.59,0,0,1-14.37-1.57,14.33,14.33,0,0,1-7.42-7.79,2.17,2.17,0,0,0-1.41-1.33,10.18,10.18,0,0,0-9.74,1.22,22.29,22.29,0,0,0-6.38,6.49c-.14.22-.3.43-.42.66-4.78,9.14-16,10-22.61,6.81a35.88,35.88,0,0,1-7.94-4.91,18.34,18.34,0,0,1-4.33-5.34c-.12-.22-.26-.42-.38-.64Z" transform="translate(-60.09 -141.31)"/><path class="cls-1" d="M663.29,199.13a19.06,19.06,0,0,0-1.2-1.94,24,24,0,0,0-14.68-8.74c-12.41-2.32-23,1.24-32,10.05-1.41,1.4-2.72,2.89-4.07,4.34a2.82,2.82,0,0,0-.26.37,2,2,0,0,0,.41.23,9.48,9.48,0,0,1,6,4.25,17.93,17.93,0,0,1,3,13.9,22.87,22.87,0,0,1-2.94,8.11,13.43,13.43,0,0,1-5.57,5.18c-7.5,3.51-15.32,5-23.49,2.9a25,25,0,0,1-12-7.09,9.29,9.29,0,0,1-2-9.8,29.37,29.37,0,0,1,2.39-4.88c1.57-2.88,1.08-6.07-1.44-7.84a5.28,5.28,0,0,0-2.87-1,8,8,0,0,0-8.15,6.59,32.58,32.58,0,0,0-.49,5,10.54,10.54,0,0,1-5.6,9.33,10.66,10.66,0,0,1-8.6.79,12,12,0,0,1-8.22-7.15,18.33,18.33,0,0,0-2-3.57c-2.12-3-5.36-4-8.76-4.75a16,16,0,0,0-11.89,2.15c-2,1.22-3.92,2.63-5.88,4l.12.23c.38-.13.75-.28,1.14-.38,2-.55,4-1.18,6.11-1.61a9.81,9.81,0,0,1,5.73.67,5.52,5.52,0,0,1,3.11,3.54c-2.21,0-3.38,1.31-4.28,3a5.89,5.89,0,0,0-.1,5.79c1.61,3.17,6.4,5.54,9.91,4.93a5.44,5.44,0,0,0,4.57-6c-.26-2.92-1.36-4.39-3.78-5a4.48,4.48,0,0,0-5.3,4c0,1.42,1.6,2.89,3.39,3.08.53.06,1.07.07,1.61.11l.06.32a4.6,4.6,0,0,1-1.16.33,4.68,4.68,0,0,1-4.34-2.47c-.73-1.26-.21-3.32,1.14-4.62a4.78,4.78,0,0,1,5-1.41,5.22,5.22,0,0,1,3.91,4,7.5,7.5,0,0,1-.47,5.13c-.37.73-.08,1.08.47,1.43a5.8,5.8,0,0,0,6.2-.71c.22-.22.31-.57.66-.77,1.45,4.63,4,8.12,8.18,10.21a15.28,15.28,0,0,0,12.94.85,5.71,5.71,0,0,1-.51,1,3.19,3.19,0,0,0-.32,3.66,4.77,4.77,0,0,0,6,2.52c2-.83,3.69-2.07,4-4.5a7.36,7.36,0,0,1,.44-1.59c.07-.19.36-.29.55-.43.07.2.23.4.22.59a4.32,4.32,0,0,1-.21,1.34c-1,2.65-.58,5.34-.12,8,1.13,6.44,4.59,11.12,10.68,13.77a37.08,37.08,0,0,0,22.69,2.39c3.06-.62,6.13-1.17,8.92-2.67,9.06-4.84,12.06-13.6,10-22.76a6.71,6.71,0,0,0-1.91-3.66.87.87,0,0,1,.51-1.57,5,5,0,0,1,1.92.09c7.4,1.76,12.6-2,15.5-6.23a18,18,0,0,0,1.49-3.05,1,1,0,0,0-.48-1.4,21.51,21.51,0,0,1-9.5-15.46C636.08,203.3,643,196.87,651,195.53a13.9,13.9,0,0,1,11.32,3.11l.74.63Z" transform="translate(-60.09 -141.31)"/><path class="cls-1" d="M554.76,201.49a5,5,0,0,0,3.08-3.61c.07-.29.1-.58.18-.86.24-.86.66-1,1.44-.65a10.7,10.7,0,0,0,14.16-5.06,13.76,13.76,0,0,0-2-15.13,8.88,8.88,0,0,0-7-3.25,7.37,7.37,0,0,1-1.63-.37,5.75,5.75,0,0,1,.62-1.64,10.87,10.87,0,0,1,7.6-3.91,19,19,0,0,1,14.22,4.16l1.25,1c0-2.61,0-5.09,0-7.57a3,3,0,0,0-.38-1.3,12.33,12.33,0,0,0-9.84-6.8,7,7,0,0,0-4.55,1,4,4,0,0,1-.27-.63,9.35,9.35,0,0,0-9.14-7.39c-4.53-.14-7.52,2-8.7,6.24a6.64,6.64,0,0,0,3.32,7.34,9,9,0,0,0,4.85.77,4.31,4.31,0,0,0,3.76-3.22,5.26,5.26,0,0,0-3-6.74,3.18,3.18,0,0,0-2.8.3,13.73,13.73,0,0,1-1.35.56,3.61,3.61,0,0,1,3.85-1.63,5.75,5.75,0,0,1,4.19,6.59c-.49,3.25-2.58,5-5.83,4.91-3.08-.09-5.54-1.23-7-4.07a1.24,1.24,0,0,0-1-.53,16.9,16.9,0,0,0-4.11,1,14,14,0,0,0-7.46,8.83,58.51,58.51,0,0,0-1.61,6.71c-.29,1.47-.33,1.58-1.79,1.19a9.66,9.66,0,0,0-7.18.89c-5.64,2.95-11.07,13.79-6.34,21.74a14.44,14.44,0,0,0,6.93,6.17,22.58,22.58,0,0,0,16.28.46c7.65-2.49,10.2-12.92,6-19.33-2.56-3.91-5.9-6.07-10.66-5.58a10.28,10.28,0,0,0-9.25,9.33,6.88,6.88,0,0,0,4.7,7.53c.23.08.44.2.66.3,0,.11,0,.23-.08.34a10.2,10.2,0,0,1-1.76-.38c-3-1.23-4.73-4.89-4.1-8.38a10.74,10.74,0,0,1,8.64-9.19,11.1,11.1,0,0,1,11.6,4.59,14.18,14.18,0,0,1,1.75,14.4c-.08.21-.17.42-.24.63C554.72,201.25,554.74,201.31,554.76,201.49Z" transform="translate(-60.09 -141.31)"/><path class="cls-2" d="M528,221.35a7,7,0,0,0-2.35,11.71,11.07,11.07,0,0,0,8.81,3.4c1.5-.11,2.2-.47,4.12-2,1.94,1.62,5.08,1.86,7.88,0a15.33,15.33,0,0,0,7.53,9.27,17.31,17.31,0,0,0,11.88,1.88c-.35,2.95.76,5.11,3.52,6.24s5-.28,7-2.21c.18,1.73.27,3.38.55,5,1.09,6.33,4.28,11.17,10.17,14a37.3,37.3,0,0,0,23.57,3c1.65-.31,3.33-.59,4.95-1.06,8.52-2.47,14-7.8,15.46-16.79a19.87,19.87,0,0,0-.76-9.34,23.43,23.43,0,0,0-1.86-3.6c.44,0,.91,0,1.39,0,2.16.11,4.4.65,6.47.27,6-1.08,10-4.78,12-10.6a2.87,2.87,0,0,1,.35.13c7.89,4.15,15.73,3.7,23.39-.53,9-5,14.46-12.59,16-22.84a29.91,29.91,0,0,0-3.71-19.08,34.62,34.62,0,0,0-21.62-17.32c-7.55-2.17-14.67-.64-21.34,3.31-.19.11-.37.24-.65.42.25-1.53.56-3,.7-4.38,1-10.28-2.9-18.23-11.77-23.44-9.21-5.42-18.86-5.74-28.45-1.05a25.39,25.39,0,0,0-13.75,16.95c-.09.31-.17.63-.26.94,0,0,0,0-.06.05-3.34-5.81-7.94-9-15-7.38,0,0-.07-.05-.1-.13a10.54,10.54,0,0,0-11.51-7.3,8.64,8.64,0,0,0-7.41,10.49,9.82,9.82,0,0,0-5.41,1.32,15.06,15.06,0,0,0-6.65,7.52,28.62,28.62,0,0,0-2.19,8c0,.32-.12.63-.19,1l-1.18-.26a9.77,9.77,0,0,0-8.48,1.87c-5.66,4.68-8.18,10.67-6.93,18,0,.12,0,.25,0,.48l-1-.34a10.2,10.2,0,0,0-9.15,1,22,22,0,0,0-7.18,7c-.21.33-.45.64-.64,1-4.25,8-14.38,9.32-20.63,6.66a32.64,32.64,0,0,1-8.91-5.33,17.5,17.5,0,0,1-4.19-5.33,2,2,0,0,0-.27-.52c-.33-.3-.69-.56-1-.84a3.88,3.88,0,0,0-.26,1.25,20.73,20.73,0,0,0,8.69,13.92,38.46,38.46,0,0,0,17.56,6.76,41.75,41.75,0,0,0,13.48-.47,50.34,50.34,0,0,0,5.45-1.8c2-.64,4.09-1.26,6.18-1.73a9.59,9.59,0,0,1,5.37.51A4.6,4.6,0,0,1,528,221.35Zm-58.51-19.26.18-.06c.12.22.26.42.38.64a18.34,18.34,0,0,0,4.33,5.34,35.88,35.88,0,0,0,7.94,4.91c6.6,3.22,17.83,2.33,22.61-6.81.12-.23.28-.44.42-.66a22.29,22.29,0,0,1,6.38-6.49,10.18,10.18,0,0,1,9.74-1.22,2.17,2.17,0,0,1,1.41,1.33,14.33,14.33,0,0,0,7.42,7.79,22.59,22.59,0,0,0,14.37,1.57c3.86-.76,7.24-2.35,9.34-5.92a.89.89,0,0,1,.52-.37c2.29-.5,3.4-2.1,4-4.22.1-.35.19-.7.31-1.11.53.29.91.54,1.33.72a5.87,5.87,0,0,0,1.28.44,11.4,11.4,0,0,0,11.14-3.89,14,14,0,0,0-1-18.81,9.17,9.17,0,0,0-6.78-2.92c-.41,0-.81,0-1.21,0-.05-.1-.11-.2-.17-.3a16.49,16.49,0,0,1,2-2.12,11.94,11.94,0,0,1,5.54-2.29,18.79,18.79,0,0,1,15.48,5.13,1.83,1.83,0,0,1,.51.91,17.33,17.33,0,0,0,7.82,10.67,26.85,26.85,0,0,0,16.94,4.09,15.7,15.7,0,0,0,9-3.82,9.36,9.36,0,0,0,3.43-6,14.54,14.54,0,0,0-1.56-8.79c-2.06-4-6.43-6.51-12.1-3.66a3.67,3.67,0,0,0-.61.51l.16.3c.67-.23,1.36-.45,2-.69a7.64,7.64,0,0,1,10.15,4.46,18.69,18.69,0,0,1,1,3.44c1,4.93-.58,8.53-4.84,11.22a16.44,16.44,0,0,1-10.45,2.4,26.64,26.64,0,0,1-12.47-3.78c-4.25-2.76-7.51-6.43-8-11.66-1-10.87,3.14-19.53,12.54-25.09s19-5.36,28.48-.34c9,4.78,13.42,13.16,12.37,23.33-.17,1.73-.6,3.43-.91,5.18.89.64,1.33-.4,1.95-.76,6.12-3.54,12.64-5.07,19.58-3.34a33.6,33.6,0,0,1,20.5,14.55c4.06,6.15,6.25,12.89,5.39,20.3-1.3,11.28-7.33,19.29-17.47,24.24a22.37,22.37,0,0,1-12.69,2.28c-9.14-1.13-17.35-7.62-19-18.08-1-6.42.67-11.86,6.23-15.7,6.08-4.19,14-3.46,18.61,1.78,2.34,2.68,3.68,5.8,2.88,9.44-1.53,7-9.43,9.44-14.3,5.44a3.66,3.66,0,0,0-.68-.36c-.09.11-.18.23-.28.34a9.72,9.72,0,0,0,1.31,1.19,9.26,9.26,0,0,0,10.49-.18A9.38,9.38,0,0,0,667,207c-.5-4-3-7.12-4.89-10.49l-.06-.08a25.12,25.12,0,0,0-12.34-8,34.24,34.24,0,0,0-19.8.31c-8,2.38-13.95,7.72-19.23,13.91-.56.65-.38,1.14.5,1.31a9.48,9.48,0,0,1,6.42,5c3.14,5.32,3.25,10.86,1.22,16.61a15.5,15.5,0,0,1-9.65,9.89,43.77,43.77,0,0,1-10.33,2.38,25.85,25.85,0,0,1-21.65-7.38,8.43,8.43,0,0,1-2.51-5.25c-.37-3,.79-5.46,2.17-7.94a12.65,12.65,0,0,0,1.43-3.27,6.11,6.11,0,0,0-6.72-7.46,8.73,8.73,0,0,0-8,8c-.23,1.9-.26,3.82-.46,5.72a9.92,9.92,0,0,1-9.78,8.42c-4.29-.08-8-1.56-10.31-5.52-.63-1.1-1.13-2.27-1.71-3.39a11.28,11.28,0,0,0-5.4-5.42c-6.22-2.76-12.3-2.72-18.12,1.1-1.9,1.24-3.73,2.6-5.58,3.92a11.39,11.39,0,0,1-4.38,2,38.39,38.39,0,0,1-13.18.35,37.13,37.13,0,0,1-17-6.68,20.17,20.17,0,0,1-8-12C469.61,202.76,469.58,202.42,469.52,202.09Zm193.77-3-.22.14-.74-.63A13.9,13.9,0,0,0,651,195.53c-8,1.34-14.93,7.77-13.47,18.59a21.51,21.51,0,0,0,9.5,15.46,1,1,0,0,1,.48,1.4A18,18,0,0,1,646,234c-2.9,4.2-8.1,8-15.5,6.23a5,5,0,0,0-1.92-.09.87.87,0,0,0-.51,1.57A6.71,6.71,0,0,1,630,245.4c2.07,9.16-.93,17.92-10,22.76-2.79,1.5-5.86,2-8.92,2.67a37.08,37.08,0,0,1-22.69-2.39c-6.09-2.65-9.55-7.33-10.68-13.77-.46-2.65-.88-5.34.12-8a4.32,4.32,0,0,0,.21-1.34c0-.19-.15-.39-.22-.59-.19.14-.48.24-.55.43a7.36,7.36,0,0,0-.44,1.59c-.27,2.43-1.94,3.67-4,4.5a4.77,4.77,0,0,1-6-2.52,3.19,3.19,0,0,1,.32-3.66,5.71,5.71,0,0,0,.51-1,15.28,15.28,0,0,1-12.94-.85c-4.16-2.09-6.73-5.58-8.18-10.21-.35.2-.44.55-.66.77a5.8,5.8,0,0,1-6.2.71c-.55-.35-.84-.7-.47-1.43a7.5,7.5,0,0,0,.47-5.13,5.22,5.22,0,0,0-3.91-4,4.78,4.78,0,0,0-5,1.41c-1.35,1.3-1.87,3.36-1.14,4.62a4.68,4.68,0,0,0,4.34,2.47,4.6,4.6,0,0,0,1.16-.33l-.06-.32c-.54,0-1.08-.05-1.61-.11-1.79-.19-3.41-1.66-3.39-3.08a4.48,4.48,0,0,1,5.3-4c2.42.65,3.52,2.12,3.78,5a5.44,5.44,0,0,1-4.57,6c-3.51.61-8.3-1.76-9.91-4.93a5.89,5.89,0,0,1,.1-5.79c.9-1.64,2.07-3,4.28-3a5.52,5.52,0,0,0-3.11-3.54,9.81,9.81,0,0,0-5.73-.67c-2.06.43-4.08,1.06-6.11,1.61-.39.1-.76.25-1.14.38l-.12-.23c2-1.33,3.86-2.74,5.88-4a16,16,0,0,1,11.89-2.15c3.4.73,6.64,1.74,8.76,4.75a18.33,18.33,0,0,1,2,3.57,12,12,0,0,0,8.22,7.15,10.66,10.66,0,0,0,8.6-.79,10.54,10.54,0,0,0,5.6-9.33,32.58,32.58,0,0,1,.49-5,8,8,0,0,1,8.15-6.59,5.28,5.28,0,0,1,2.87,1c2.52,1.77,3,5,1.44,7.84a29.37,29.37,0,0,0-2.39,4.88,9.29,9.29,0,0,0,2,9.8,25,25,0,0,0,12,7.09c8.17,2.12,16,.61,23.49-2.9a13.43,13.43,0,0,0,5.57-5.18,22.87,22.87,0,0,0,2.94-8.11,17.93,17.93,0,0,0-3-13.9,9.48,9.48,0,0,0-6-4.25,2,2,0,0,1-.41-.23,2.82,2.82,0,0,1,.26-.37c1.35-1.45,2.66-2.94,4.07-4.34,8.93-8.81,19.57-12.37,32-10.05a24,24,0,0,1,14.68,8.74A19.06,19.06,0,0,1,663.29,199.13Zm-108.53,2.36c0-.18,0-.24,0-.3.07-.21.16-.42.24-.63a14.18,14.18,0,0,0-1.75-14.4,11.1,11.1,0,0,0-11.6-4.59,10.74,10.74,0,0,0-8.64,9.19c-.63,3.49,1.14,7.15,4.1,8.38a10.2,10.2,0,0,0,1.76.38c0-.11.06-.23.08-.34-.22-.1-.43-.22-.66-.3a6.88,6.88,0,0,1-4.7-7.53,10.28,10.28,0,0,1,9.25-9.33c4.76-.49,8.1,1.67,10.66,5.58,4.18,6.41,1.63,16.84-6,19.33a22.58,22.58,0,0,1-16.28-.46,14.44,14.44,0,0,1-6.93-6.17c-4.73-8,.7-18.79,6.34-21.74a9.66,9.66,0,0,1,7.18-.89c1.46.39,1.5.28,1.79-1.19a58.51,58.51,0,0,1,1.61-6.71,14,14,0,0,1,7.46-8.83,16.9,16.9,0,0,1,4.11-1,1.24,1.24,0,0,1,1,.53c1.51,2.84,4,4,7,4.07,3.25.11,5.34-1.66,5.83-4.91a5.75,5.75,0,0,0-4.19-6.59,3.61,3.61,0,0,0-3.85,1.63,13.73,13.73,0,0,0,1.35-.56,3.18,3.18,0,0,1,2.8-.3,5.26,5.26,0,0,1,3,6.74,4.31,4.31,0,0,1-3.76,3.22,9,9,0,0,1-4.85-.77,6.64,6.64,0,0,1-3.32-7.34c1.18-4.24,4.17-6.38,8.7-6.24a9.35,9.35,0,0,1,9.14,7.39,4,4,0,0,0,.27.63,7,7,0,0,1,4.55-1,12.33,12.33,0,0,1,9.84,6.8,3,3,0,0,1,.38,1.3c0,2.48,0,5,0,7.57l-1.25-1A19,19,0,0,0,571.18,167a10.87,10.87,0,0,0-7.6,3.91,5.75,5.75,0,0,0-.62,1.64,7.37,7.37,0,0,0,1.63.37,8.88,8.88,0,0,1,7,3.25,13.76,13.76,0,0,1,2,15.13,10.7,10.7,0,0,1-14.16,5.06c-.78-.39-1.2-.21-1.44.65-.08.28-.11.57-.18.86A5,5,0,0,1,554.76,201.49Z" transform="translate(-60.09 -141.31)"/></svg>