<svg id="OBJECTS" xmlns="http://www.w3.org/2000/svg" viewBox="0 0 342.04 340.36"><defs><style>.cls-1{fill:#331e10;}.cls-2{fill:#f2ede7;}</style></defs><path class="cls-1" d="M363.3,412.54c-.77-1.69-1.52-3.32-2.27-5l.41-.23a5.34,5.34,0,0,1,.59.76,35.58,35.58,0,0,1,1.93,3.73c1,2.39,2.79,3.54,5.12,4.28a32.19,32.19,0,0,0,12.8,1.18c3.44-.32,6.93-.79,10.37.23a1,1,0,0,0,.92-.29,1.32,1.32,0,0,0,.1-1.08,2.13,2.13,0,0,0-2.27-1.41c-1.56.11-3.11.21-4.67.3a39.23,39.23,0,0,1-11.06-1.14,17.87,17.87,0,0,1-3.35-1,53.83,53.83,0,0,0,19.61.75,2.14,2.14,0,0,0-2.4-1c-5.39,1.09-10.67-.06-16-.74a6.82,6.82,0,0,1-4.77-2.73,28.9,28.9,0,0,1-3.62-5.46,18.63,18.63,0,0,1-.95-5.52c-1.39-14.93-2.7-29.86-4.15-44.78A98.5,98.5,0,0,0,357.84,342c-.86-3.93-.44-7.78,0-11.68,1.15-9.81,2.23-19.62,3.34-29.43.16-1.47.31-2.93.47-4.45-2.07.25-3.63-.72-5.18-2a2.74,2.74,0,0,0-.14.57A202.89,202.89,0,0,1,354,321.42c-.92,6.65-1.88,13.29-2.72,19.95a16.92,16.92,0,0,0,.76,8.51c.75,1.89,1,4,1.79,5.84,2.36,5.34,1.91,11.13,2.76,16.7,1.55,10.19,2.73,20.43,4,30.67a14.25,14.25,0,0,1-.25,4.11,9.29,9.29,0,0,0,.33,5.64c.61,1.36,1,1.42,2,.35Z" transform="translate(-137.68 -90.55)"/><path class="cls-2" d="M435.29,163c-.1-.6-.37-.81-1-1.06a5.49,5.49,0,0,1-2.14-1.73c-1-1.26-1.76-2.66-2.66-4A28.05,28.05,0,0,1,425.33,145c-.64-3.69-.83-7.45-1.25-11.18-.34-2.94-.87-5.86-1.08-8.8a21.78,21.78,0,0,1,2.69-12.83,14,14,0,0,1,5.23-5,7,7,0,0,0,3.43-3.73,2.25,2.25,0,0,1-3.08-.65c-.79-1.08.24-2,.81-3a8.75,8.75,0,0,0-6.36.3,44.89,44.89,0,0,0-4.34,2.52c-1.72,1-3.36,2.28-5.71,1.61-.07.48-.15.93-.2,1.38-.49,4.26.53,8.37,1.29,12.48,1.68,9.2,3.55,18.37,5.29,27.55a63.58,63.58,0,0,1-.83,29.22c-3.42,12.34-11.33,20.44-22.94,25.34A149.76,149.76,0,0,1,368.42,209c-10.9,2.13-21.75,4.49-32.6,6.88-8,1.78-15.42,5.5-23.09,8.36a58.54,58.54,0,0,0-10.62,5.24q-2.4,1.5-4.71,3.09l-1.47,1a84,84,0,0,0-17.4,16.25,6.65,6.65,0,0,0-1.36,5.18c.3,2,1,2.39,3,2.08a7.17,7.17,0,0,1,1.46.06,12.22,12.22,0,0,1-.26,1.47,24.71,24.71,0,0,0-.92,2.84c-.35,2,.37,3.44,1.77,4a3.37,3.37,0,0,0,1,.24,4.79,4.79,0,0,0,1.35-.05,32,32,0,0,0,10.46-4c.76-.44,1.48-1,2.24-1.39a2.82,2.82,0,0,1,.89-.17,5.58,5.58,0,0,1,.12,1,2.92,2.92,0,0,1-.2.68,3.16,3.16,0,0,0,3.15,4.17c2.71-.11,5.46-.35,7.66-2.28a1,1,0,0,1,.31-.18c.06,0,.14,0,.42.11-.24.31-.37.66-.63.78a14.5,14.5,0,0,1-3.76,1.69,22.79,22.79,0,0,0-7,2.74,56.71,56.71,0,0,0-14.57,11.62,20,20,0,0,0-4.52,7.67c-.44,1.42,0,2.07,1.44,1.91a12.19,12.19,0,0,0,4.25-1.06c3.16-1.62,6.24-3.41,9.27-5.27a194.22,194.22,0,0,1,21.23-11.86c.4-.18.82-.32,1.24-.47l.16.31c-.38.24-.76.49-1.15.7-4.69,2.59-9.42,5.12-14.06,7.78a75.32,75.32,0,0,0-6.28,4.19c-.39.28-.48,1-.7,1.5.51.13,1.1.49,1.51.35a83.06,83.06,0,0,0,8.84-3.32c3.52-1.71,6.85-3.79,10.25-5.74.91-.53,1.55-.55,2.22.42a2.07,2.07,0,0,0,1.61.73,32.55,32.55,0,0,0,5.3-.87c2.58-.7,5.1-1.63,7.65-2.45.47-.15,1-.24,1.46-.35,0,.1.09.19.14.29a4.35,4.35,0,0,1-.89.6c-4.17,1.62-8.35,3.27-12.87,3.64a14.14,14.14,0,0,1-3.18-.47c0-.13,0-.25-.05-.38-.27.53-.58,1-.8,1.58-.58,1.5-.18,2.39,1.34,2.85a4.3,4.3,0,0,1,2.92,2.06c.24.46,1.34.74,2,.67,2.5-.28,5-.86,7.47-1.11a107.82,107.82,0,0,1,12.54-1c6.11.11,10.7-2.71,14.88-6.65.27-.25.31-.73.46-1.11l.73.63a5.72,5.72,0,0,1-.92,1.28c-2.46,1.94-5,3.84-7.61,5.87.73,1,1.69,2.24,2.61,3.52,1.23,1.7,2.43,3.43,3.65,5.15a19.84,19.84,0,0,0,1.85,2.49,3.24,3.24,0,0,0,4.23.56,6.4,6.4,0,0,0,3.61-4.38c.24-1.09.63-2.15.84-3.24a9.94,9.94,0,0,1,4.19-6.62c2.21-1.51,4.52-2.87,6.85-4.16a77.51,77.51,0,0,0,20-15.18c3.22-3.52,5.24-7.82,7.46-12,3-5.57,5.68-11.28,9-16.66,2.19-3.6,5.1-6.76,7.79-10a64.31,64.31,0,0,0,14.59-35.76A90,90,0,0,0,435.29,163Zm-90.41,106.9c.08-.29.2-.57.34-.94-1.83.79-3.49,1.66-5.25,2.24-2.76.92-3.68.43-4.69-1.88-2.4.88-4.76,1.84-7.19,2.56a5.58,5.58,0,0,1-2.79-.19,1.28,1.28,0,0,1-.89-1.81c.92-2.56,3-3.89,5.28-5.1a2.41,2.41,0,0,1-.7.87,27.73,27.73,0,0,0-2.77,2.64,9,9,0,0,0-1,2.33c.94.18,2,.7,2.81.49,2.34-.61,4.74-1.19,6.71-2.77a5.14,5.14,0,0,1,1.12-.51c.08.49.14.79.18,1.1.2,1.54.78,2.07,2.31,1.86a7.86,7.86,0,0,0,2.4-.67c1.75-.87,3.43-1.87,5.14-2.8a4.93,4.93,0,0,1,.86-.22,3.48,3.48,0,0,1-.15.93,14,14,0,0,0-.84,2c-.34,1.51.54,2.44,2,2a30.57,30.57,0,0,0,4.2-1.93,5.11,5.11,0,0,0,1-.79l.35.28a3.46,3.46,0,0,1-.5.83,9.3,9.3,0,0,1-5.7,2.52A2.28,2.28,0,0,1,344.88,269.92Zm50.71-14.46c-3.8,3.49-7.55,7-11.52,10.33a58.31,58.31,0,0,1-8.35,5.78,19.07,19.07,0,0,1-5.9,1.79,5.09,5.09,0,0,1-3.09-.58c-.68-.36-1-1.35-1.56-2.13a5.33,5.33,0,0,1-.66.44,70.43,70.43,0,0,1-6.58,3.38,6.36,6.36,0,0,1-3.62,0,1.79,1.79,0,0,1-1-3.12c2.13-2.47,4.45-4.78,6.71-7.15.13-.13.39-.14.6-.2l.21.26c-.8.83-1.64,1.64-2.41,2.49-1.48,1.63-3,3.22-4.34,5-.8,1-.36,2,.94,2.14a6.87,6.87,0,0,0,3.6-.43c2.6-1.37,5-3.05,7.53-4.61.41-.26.79-.58,1.18-.87l.26.22a4.3,4.3,0,0,0-.41.87c-.21.85-.71,1.83-.47,2.55.34,1,1.58,1,2.59,1.06a7.54,7.54,0,0,0,.83-.06,15,15,0,0,0,6.8-2.5c7.58-4.82,13.93-11.09,20.34-17.28.21-.2.46-.37.69-.55l.29.31A37.92,37.92,0,0,1,395.59,255.46Z" transform="translate(-137.68 -90.55)"/><path class="cls-1" d="M319.51,285.9a3.54,3.54,0,0,0-2.2-2.33c-1.67-.83-2.87-.23-4.34.53A206.37,206.37,0,0,1,283.32,297a46.2,46.2,0,0,0-6.61,2.78c-2.31,1.21-2.65,2.09-2,4.61s1.53,5.13,2.25,7.71q6.26,22.53,10.84,45.47,1,4.81,2.25,9.57a10.37,10.37,0,0,1-2,9.25c-.53.7-1.1,1.38-1.56,2.13a3.7,3.7,0,0,0-.25,1.19,3.26,3.26,0,0,0,1.28-.18,25.3,25.3,0,0,0,2.15-1.72c.22-.19.45-.36.67-.54l.28.18a3.39,3.39,0,0,1-.38,1c-1.66,2.11-2.12,4.61-2.43,7.17a13.63,13.63,0,0,1-5.34,10.2c-.68.6-1.26,1.19-.82,2.14s1.24.81,2.08.72c1.94-.22,2.75-1.46,3.42-3.18,1.83-4.64,3.84-9.21,5.79-13.8a7.35,7.35,0,0,1,.51-.85l.28.12c-.11.34-.22.68-.35,1q-2.65,6.67-5.29,13.36a23.41,23.41,0,0,0-2,6.72c-.05.62-.64,1.19-.88,1.82-.14.37-.24,1,0,1.21a1.57,1.57,0,0,0,1.28.27,5.2,5.2,0,0,0,3.89-4c.77-2.93,1.34-5.93,2.24-8.83a56.42,56.42,0,0,1,3.38-8.81,11.34,11.34,0,0,0,.7-8.79.53.53,0,0,0,0-.12c-3.78-7.55-4.29-15.91-5.87-24q-2.13-10.87-4.32-21.75c-1.29-6.3-2.4-12.66-4.06-18.86-.9-3.35.48-5.57,2.68-7.16a68.86,68.86,0,0,1,10.72-6.29c5.51-2.63,11.23-4.83,16.82-7.31C314.94,288.4,317.19,287.1,319.51,285.9Z" transform="translate(-137.68 -90.55)"/><path class="cls-2" d="M297.4,374.22a11.91,11.91,0,0,1-.68,9.62,59.53,59.53,0,0,0-3.29,8.73c-.93,3.05-1.52,6.2-2.32,9.3a6,6,0,0,1-4.9,4.37c-1.64.12-2.41-.83-1.91-2.39.09-.3.28-.58.38-.88.4-1.21.79-2.43,1.26-3.88-1,.19-1.54.32-2.12.41-1.47.21-2.52-.25-3-1.25a2.44,2.44,0,0,1,1.13-3.11,8.63,8.63,0,0,0,3.53-4.57c1-3.21,1.69-6.52,2.43-9.47-1-.33-2.07-.36-2.55-.9-.85-.92,0-1.85.57-2.66s1-1.35,1.5-2a9.26,9.26,0,0,0,1.71-7.68,5.45,5.45,0,0,0,1,0,7.09,7.09,0,0,0,2.08-.45,6.59,6.59,0,0,0,1.4-.73,5.51,5.51,0,0,0,.79-.61,39.33,39.33,0,0,0,2.92,8.06S297.38,374.18,297.4,374.22Z" transform="translate(-137.68 -90.55)"/><path class="cls-2" d="M394,417.74a1.7,1.7,0,0,1-2,.66c-3-.85-6-.48-8.94-.3-3.47.21-6.94.67-10.39-.16s-6.85-1.19-8.94-4.49a3.52,3.52,0,0,0-.39.33c-1.53,1.63-2.63,1.43-3.52-.64a10.05,10.05,0,0,1-.42-5.54,18,18,0,0,0,.27-4.39l-.09-.8a4.66,4.66,0,0,0,1,.54,4.49,4.49,0,0,0,2.44.27,4.24,4.24,0,0,0,1.4-.49,3.78,3.78,0,0,0,.9-.64,14.15,14.15,0,0,0,3.11,6.24,7,7,0,0,0,4,2.54c5.42,1,10.84,2.2,16.41,1.07a3.13,3.13,0,0,1,3.1.85A27.41,27.41,0,0,1,394,415.5,1.83,1.83,0,0,1,394,417.74Z" transform="translate(-137.68 -90.55)"/><path class="cls-1" d="M434.87,161.11c-.12-.56-.21-1.14-.37-1.69-1-3.42-2-6.85-3.08-10.22a45.68,45.68,0,0,1-2.24-21.62,10.17,10.17,0,0,0,.13-1.91c-.21-5.88,2.61-10.37,6.71-14.16,1.21-1.11,2.92-1.69,4.46-2.55-.79-1.38-.28-2.81.4-4.27.77-1.67,1.45-3.38,2.16-5.07a2,2,0,0,0-.75-2.61c-1.26-.91-2.37-2.06-3.69-2.86-1.65-1-3.44-1.78-5.4-2.76-.14,2.07-1.29,2.65-2.72,3.09a42.19,42.19,0,0,0-4.23,1.67,6.37,6.37,0,0,1-5.57,0,1.11,1.11,0,0,0-1.45.3,11.8,11.8,0,0,0-3.35,6c-.26,1.09.36,1.43,1.11,1.26a14.44,14.44,0,0,0,3.33-1.26,31.31,31.31,0,0,0,2.7-1.77,10.82,10.82,0,0,1,7.05-1.9,6.64,6.64,0,0,1,4.38,1.93,2.94,2.94,0,0,1,.19,3.79,7.65,7.65,0,0,1-2.52,2.79c-6.83,3.73-8.45,10-8.28,17,.08,3.1.74,6.19,1.1,9.28.45,4,.62,8,1.36,11.89.81,4.28,2.1,8.46,5.05,11.91.66.77,1,1.82,1.61,2.65a10.36,10.36,0,0,0,1.54,1.41Z" transform="translate(-137.68 -90.55)"/><path class="cls-1" d="M294.46,263c-1.78.75-3.41,1.5-5.09,2.12a37.09,37.09,0,0,1-4,1.15c-1.78.43-3.51.46-4.88-1.12a43.74,43.74,0,0,0-7.73,8.44,55,55,0,0,0-7.54,15.73,66.4,66.4,0,0,0-2,8.35,17.25,17.25,0,0,0,.29,4.2c1.59-3.24,3.1-6.33,4.63-9.42a66.65,66.65,0,0,1,15.37-19.77C287,269.49,290.71,266.34,294.46,263Z" transform="translate(-137.68 -90.55)"/><path class="cls-1" d="M297.19,262.12a11.39,11.39,0,0,0-1.07.74c-5.35,4.75-10.77,9.42-16,14.28-5.86,5.41-9.6,12.33-13.17,19.33-.86,1.7-1.45,3.54-2.14,5.32a5.62,5.62,0,0,0-.17,1,5.14,5.14,0,0,0,3.19-2.51,63.51,63.51,0,0,0,3.9-6.05,52.24,52.24,0,0,1,9.87-12.89c4.85-4.84,9.76-9.58,15.77-13,.94-.53,1.89-1,3-1.67A4.42,4.42,0,0,1,297.19,262.12Z" transform="translate(-137.68 -90.55)"/><path class="cls-2" d="M478.27,111.61a8.22,8.22,0,0,0-1.06-.35l-32.51-6.81-.24,0c-2.44-.5-2.63-.39-3.36,2-.58,1.84.06,2.66,2,2.62a153.48,153.48,0,0,1,23,1.36c3.68.47,7.36,1,11.05,1.45.37,0,.74,0,1.12,0Z" transform="translate(-137.68 -90.55)"/><path class="cls-2" d="M444.15,98.49c-.47,1.49-1,3.08-1.53,4.84l30.62,6.49c0-.11.07-.22.1-.33-4.89-1.82-9.79-3.62-14.67-5.46S449,100.33,444.15,98.49Z" transform="translate(-137.68 -90.55)"/><path class="cls-1" d="M264.41,288.71c.54-1.41,1.07-2.83,1.64-4.23a49.7,49.7,0,0,1,13.39-19.34c.24-.2.56-.64.48-.83a7.29,7.29,0,0,1,.28-5.37l-.28-.18c-1.56,1.58-3.14,3.15-4.69,4.75-.8.82-1.49,1.76-2.34,2.52a12.53,12.53,0,0,0-3.47,5.54c-1.83,5.45-3.43,11-5.12,16.47a2.78,2.78,0,0,0-.06.58Z" transform="translate(-137.68 -90.55)"/><path class="cls-1" d="M279.38,258.17c-2.33-.31-3.05-1.33-3.23-4.67-.16.1-.32.14-.37.24-1.44,3-2.89,6-4.3,8.95-.25.55-.46,1.19.37,1.5s1.33.69,2.09-.21C275.64,262,277.52,260.13,279.38,258.17Z" transform="translate(-137.68 -90.55)"/><path class="cls-2" d="M420.64,95.18a5.5,5.5,0,0,0,4.69.49l6-2.08a1.59,1.59,0,0,0,.72-.4c.24-.33.58-.78.51-1.09s-.65-.51-1-.53A12.4,12.4,0,0,0,424.57,93C423.32,93.67,422.09,94.38,420.64,95.18Z" transform="translate(-137.68 -90.55)"/><path class="cls-1" d="M478.78,110.85a36.31,36.31,0,0,0-3.74-1.61c-8.44-3.11-16.88-6.24-25.35-9.27a28.45,28.45,0,0,1-9.45-5.51c-3.69-3.26-8.09-4.79-12.9-3.38-6,1.75-11.2,4.74-12.43,11.58a25.82,25.82,0,0,0-.27,8.45c1.45,8.87,3.29,17.68,4.94,26.51,1.25,6.68,2.68,13.33,2.82,20.17a57.23,57.23,0,0,1-3,19.46c-3.54,10.58-10.93,17.44-20.93,21.79a142.35,142.35,0,0,1-29.93,8.9c-10.63,2.06-21.2,4.45-31.81,6.64-6.12,1.27-11.75,3.86-17.49,6.2-2.55,1-5.16,1.92-7.7,3a85.3,85.3,0,0,0-13.21,7c-.52.33-1,.67-1.54,1A89.36,89.36,0,0,0,277,250.3a40.69,40.69,0,0,0-6.33,11.79c-.66,1.86-.51,2.21,1.24,3.21a2.66,2.66,0,0,1-.16.39,49.13,49.13,0,0,0-3.45,6.15,96.31,96.31,0,0,0-5,16.3c-.11.57-.21,1.13-.32,1.7-.23,1.42-.43,2.85-.56,4.29a35.9,35.9,0,0,0,.16,7.4c.26,2.25,2,2.87,3.85,1.54a8.45,8.45,0,0,0,2.14-2.24c1.88-2.87,3.62-5.84,5.49-8.72,1.49-2.3,3.09-4.52,4.64-6.78l.43.25c-.25.72-.54,1.42-.76,2.15-.66,2.13.18,3.4,2.4,3.19a15.16,15.16,0,0,0,4.8-1.31c2.39-1.1,4.65-2.5,7-3.77.28-.16.56-.3.84-.44.91,1.73,1.54,2.13,3.38,1.5a82.26,82.26,0,0,0,8.92-3.46c3.35-1.59,6.52-3.54,9.59-5.23-.14,1.18-.24,2.49-.47,3.77,0,.29-.51.58-.85.75-3.78,1.9-7.54,3.86-11.38,5.65a190.47,190.47,0,0,1-21.48,8.6,35.5,35.5,0,0,0-5.33,2.43,3.89,3.89,0,0,0-2,5c.7,2.41,1.57,4.77,2.23,7.19q6.21,22.76,10.84,45.86c.67,3.33,1.47,6.64,2.31,9.93,0,.16.08.32.11.48a9.26,9.26,0,0,1-1.71,7.68c-.49.68-1,1.34-1.5,2s-1.42,1.74-.57,2.66c.48.54,1.52.57,2.55.9-.74,2.95-1.42,6.26-2.43,9.47a8.63,8.63,0,0,1-3.53,4.57,2.44,2.44,0,0,0-1.13,3.11c.44,1,1.49,1.46,3,1.25.58-.09,1.15-.22,2.12-.41-.47,1.45-.86,2.67-1.26,3.88-.1.3-.29.58-.38.88-.5,1.56.27,2.51,1.91,2.39a6,6,0,0,0,4.9-4.37c.8-3.1,1.39-6.25,2.32-9.3a59.53,59.53,0,0,1,3.29-8.73,11.91,11.91,0,0,0,.68-9.62s0-.08,0-.12a39.33,39.33,0,0,1-2.92-8.06c-1.38-5.5-1.91-11.22-3.05-16.78-1.32-6.42-2.66-12.83-3.94-19.26-.75-3.76-1.31-7.57-2.1-11.32a70.09,70.09,0,0,0-2.1-8.12c-1.05-3.09.23-5.39,2.48-7a70.09,70.09,0,0,1,9.87-5.86c4.93-2.39,10.06-4.34,15-6.62,3.05-1.4,6-3.07,8.94-4.62a2.09,2.09,0,0,1,.65-.29c3.36-.41,6.71-.87,10.08-1.19,3.86-.37,7.73-.61,11.59-.92,2.26-.18,4.52-.38,6.66-.56,1.49,1.81,3.05,3.67,4.57,5.56a11.17,11.17,0,0,1,2.61,7.92,255.91,255.91,0,0,1-3.3,28.83c-.94,5.67-1.56,11.4-2.23,17.11a14.42,14.42,0,0,0,.81,6.84c1.12,3,2.21,5.92,3.07,9a34.51,34.51,0,0,1,.7,5.22q1.44,11.35,2.88,22.72c.66,5.24,1.33,10.49,1.89,15.75l.09.8a18,18,0,0,1-.27,4.39,10.05,10.05,0,0,0,.42,5.54c.89,2.07,2,2.27,3.52.64a3.52,3.52,0,0,1,.39-.33c2.09,3.3,5.63,3.69,8.94,4.49s6.92.37,10.39.16c3-.18,6-.55,8.94.3a1.7,1.7,0,0,0,2-.66,1.83,1.83,0,0,0,0-2.24,27.41,27.41,0,0,0-2.08-2.71,3.13,3.13,0,0,0-3.1-.85c-5.57,1.13-11-.09-16.41-1.07a7,7,0,0,1-4-2.54,14.15,14.15,0,0,1-3.11-6.24,25.29,25.29,0,0,1-.5-3.21c-1-10.82-2.06-21.64-3.12-32.47-.69-7.16-1.37-14.32-2.15-21.48-.21-1.85-.85-3.65-1.2-5.49-.62-3.25.17-6.45.5-9.66q1.61-15.63,3.26-31.25a8,8,0,0,0,.08-.84,2.68,2.68,0,0,1,1.47-2.61,5.62,5.62,0,0,0,2.65-3.57c.36-1.4.79-2.77,1.11-4.17a8.34,8.34,0,0,1,3.26-5.3c2.36-1.62,4.81-3.13,7.31-4.54,7.36-4.15,14.21-8.94,20-15.19,3.09-3.37,5.05-7.47,7.19-11.45,1.39-2.6,2.81-5.2,4.18-7.82.78-1.48,1.45-3,2.21-4.51a57.32,57.32,0,0,1,7.6-11.19c4.69-5.48,9-11.21,12.07-17.82a72.19,72.19,0,0,0,6.33-28.84,85.9,85.9,0,0,0-4.9-30.86,54.26,54.26,0,0,1-3.11-14.26,13.24,13.24,0,0,1,0-2.27c.27-3.3.59-6.61.85-9.91s2-6.07,4-8.73c2.48-3.44,5.85-4.85,10-4.85A202.57,202.57,0,0,1,474,112.3a34.38,34.38,0,0,0,4.42.38c.44,0,.89-.48,1.33-.73C479.41,111.57,479.18,111,478.78,110.85ZM458.67,104c4.88,1.84,9.78,3.64,14.67,5.46,0,.11-.07.22-.1.33l-30.63-6.49c.56-1.76,1.06-3.35,1.54-4.84C449,100.33,453.81,102.2,458.67,104Zm-34.1-11a12.36,12.36,0,0,1,6.93-1.43c.37,0,1,.28,1,.53s-.26.76-.51,1.09a1.5,1.5,0,0,1-.71.4l-6,2.08a5.48,5.48,0,0,1-4.68-.49C422.08,94.38,423.32,93.67,424.57,93ZM271.85,264.19c-.83-.31-.63-.95-.37-1.5q2.11-4.49,4.3-8.95c.05-.1.21-.14.36-.24.18,3.34.91,4.36,3.23,4.67-1.85,2-3.73,3.81-5.43,5.81C273.17,264.88,272.57,264.46,271.85,264.19ZM264.29,288c.13-.42.26-.84.38-1.26,1.56-5.08,3.06-10.18,4.74-15.21a12.62,12.62,0,0,1,3.47-5.54c.86-.76,1.55-1.7,2.35-2.52,1.55-1.6,3.12-3.17,4.68-4.75l.29.18a7.24,7.24,0,0,0-.28,5.37c.07.19-.24.63-.48.83a49.57,49.57,0,0,0-13.39,19.34c-.21.5-.41,1-.6,1.52-.3.75-.58,1.51-.88,2.26-.05.15-.11.3-.17.45l-.16-.09v0A2.59,2.59,0,0,1,264.29,288Zm-.84,13.87a17.25,17.25,0,0,1-.29-4.2,66.4,66.4,0,0,1,2-8.35q.4-1.32.87-2.61c.26-.75.54-1.49.83-2.23a50.39,50.39,0,0,1,5.84-10.89,43.68,43.68,0,0,1,7.72-8.44,3.79,3.79,0,0,0,1.26,1,3.37,3.37,0,0,0,1.05.33,6.52,6.52,0,0,0,2.58-.19,37.57,37.57,0,0,0,4-1.15c1.68-.62,3.32-1.37,5.1-2.12-3.76,3.3-7.42,6.45-11,9.68a66.65,66.65,0,0,0-15.37,19.77C266.54,295.58,265,298.67,263.45,301.91Zm8.25-7.64a61.61,61.61,0,0,1-3.9,6.05,5.09,5.09,0,0,1-3.19,2.51,5.52,5.52,0,0,1,.18-1,55.72,55.72,0,0,1,2.14-5.32c3.56-7,7.3-13.92,13.16-19.33,5.26-4.86,10.67-9.53,16-14.28a12.45,12.45,0,0,1,1.06-.74,4.43,4.43,0,0,0,3.21,4.59c-1.15.63-2.1,1.14-3,1.67-6,3.42-10.92,8.16-15.78,13A52.49,52.49,0,0,0,271.7,294.27Zm40.87-4.82c-5.59,2.48-11.31,4.68-16.83,7.31A69.32,69.32,0,0,0,285,303.05a6.18,6.18,0,0,0-2.67,7.16c1.66,6.2,2.77,12.56,4,18.86q2.22,10.88,4.33,21.75c1,5.26,1.6,10.64,2.92,15.83a39.2,39.2,0,0,0,3,8.17l0,.12a11.3,11.3,0,0,1-.71,8.79,55.4,55.4,0,0,0-3.37,8.81c-.91,2.9-1.47,5.9-2.24,8.83a5.21,5.21,0,0,1-3.9,4,1.58,1.58,0,0,1-1.28-.27c-.2-.2-.09-.84.05-1.21.23-.63.82-1.2.87-1.82a23.73,23.73,0,0,1,2-6.72c1.75-4.46,3.53-8.91,5.29-13.36.13-.33.24-.67.36-1l-.28-.12a6.24,6.24,0,0,0-.52.85c-1.94,4.59-4,9.16-5.78,13.8-.67,1.72-1.48,3-3.43,3.18-.83.09-1.65.2-2.08-.72s.14-1.54.82-2.14a15.17,15.17,0,0,0,2.45-2.42,16,16,0,0,0,2.89-7.78c.31-2.56.77-5.06,2.44-7.17a4.08,4.08,0,0,0,.38-1l-.28-.18c-.23.18-.46.35-.68.54a26.84,26.84,0,0,1-2.14,1.72,3.28,3.28,0,0,1-1.29.18,3.7,3.7,0,0,1,.26-1.19c.46-.75,1-1.43,1.55-2.13a10.35,10.35,0,0,0,2.14-8.59q-.06-.33-.15-.66c-.84-3.17-1.6-6.36-2.24-9.57q-4.62-22.94-10.85-45.47c-.71-2.58-1.6-5.11-2.24-7.71s-.3-3.4,2-4.61a45.84,45.84,0,0,1,6.62-2.78A206.26,206.26,0,0,0,313,284.1c1.48-.76,2.67-1.36,4.34-.53a3.53,3.53,0,0,1,2.21,2.33C317.18,287.1,314.93,288.4,312.57,289.45Zm48.61,11.47c-1.1,9.81-2.19,19.62-3.33,29.43-.46,3.9-.88,7.75,0,11.68a98.47,98.47,0,0,1,1.82,11.45c1.46,14.92,2.76,29.85,4.16,44.78a25.56,25.56,0,0,0,.59,4.47,6.51,6.51,0,0,0,.36,1,28.84,28.84,0,0,0,3.61,5.46,6.84,6.84,0,0,0,4.78,2.73c5.3.68,10.57,1.83,16,.74a2.15,2.15,0,0,1,2.4,1,53.82,53.82,0,0,1-19.61-.75,18.44,18.44,0,0,0,3.35,1,39.59,39.59,0,0,0,11.06,1.13c1.55-.09,3.11-.19,4.66-.3a2.15,2.15,0,0,1,2.28,1.41,1.32,1.32,0,0,1-.1,1.08,1,1,0,0,1-.93.29c-3.44-1-6.92-.55-10.37-.23a32.14,32.14,0,0,1-12.79-1.18c-2.34-.74-4.18-1.89-5.13-4.28a33.77,33.77,0,0,0-1.93-3.73,5.27,5.27,0,0,0-.58-.76l-.42.23,2.28,5c-.27.26-.47.45-.66.65-1,1.07-1.35,1-2-.35a9.29,9.29,0,0,1-.32-5.64,14.24,14.24,0,0,0,.24-4.11s0-.09,0-.14c-1.25-10.19-2.43-20.39-4-30.53-.85-5.57-.39-11.36-2.76-16.7-.82-1.85-1-4-1.78-5.84a17,17,0,0,1-.77-8.51c.85-6.66,1.8-13.3,2.73-19.95A206.45,206.45,0,0,0,356.34,295a2.74,2.74,0,0,1,.14-.57c1.55,1.29,3.1,2.26,5.17,2C361.49,298,361.35,299.45,361.18,300.92ZM435.29,163a90,90,0,0,1,.89,24,64.31,64.31,0,0,1-14.59,35.76c-2.69,3.28-5.6,6.44-7.79,10-3.28,5.38-6,11.09-9,16.66-2.22,4.17-4.24,8.47-7.46,12a77.51,77.51,0,0,1-20,15.18c-2.33,1.29-4.64,2.65-6.85,4.16a9.94,9.94,0,0,0-4.19,6.62c-.21,1.09-.6,2.15-.84,3.24a6.4,6.4,0,0,1-3.61,4.38,3.24,3.24,0,0,1-4.23-.56,19.84,19.84,0,0,1-1.85-2.49c-1.22-1.72-2.42-3.45-3.65-5.15-.92-1.28-1.88-2.53-2.61-3.52,2.64-2,5.15-3.93,7.61-5.87a5.72,5.72,0,0,0,.92-1.28l-.73-.63c-.15.38-.19.86-.46,1.11-4.18,3.94-8.77,6.76-14.88,6.65a107.82,107.82,0,0,0-12.54,1c-2.5.25-5,.83-7.47,1.11-.66.07-1.76-.21-2-.67a4.3,4.3,0,0,0-2.92-2.06c-1.52-.46-1.92-1.35-1.34-2.85.22-.55.53-1.05.8-1.58,0,.13,0,.25.05.38a14.14,14.14,0,0,0,3.18.47c4.52-.37,8.7-2,12.87-3.64a4.35,4.35,0,0,0,.89-.6c-.05-.1-.1-.19-.14-.29-.49.11-1,.2-1.46.35-2.55.82-5.07,1.75-7.65,2.45a32.55,32.55,0,0,1-5.3.87,2.07,2.07,0,0,1-1.61-.73c-.67-1-1.31-.95-2.22-.42-3.4,1.95-6.73,4-10.25,5.74a83.06,83.06,0,0,1-8.84,3.32c-.41.14-1-.22-1.51-.35.22-.51.31-1.22.7-1.5a75.32,75.32,0,0,1,6.28-4.19c4.64-2.66,9.37-5.19,14.06-7.78.39-.21.77-.46,1.15-.7l-.16-.31c-.42.15-.84.29-1.24.47a194.22,194.22,0,0,0-21.23,11.86c-3,1.86-6.11,3.65-9.27,5.27a12.19,12.19,0,0,1-4.25,1.06c-1.48.16-1.88-.49-1.44-1.91a20,20,0,0,1,4.52-7.67,56.71,56.71,0,0,1,14.57-11.62,22.79,22.79,0,0,1,7-2.74,14.5,14.5,0,0,0,3.76-1.69c.26-.12.39-.47.63-.78-.28-.08-.36-.13-.42-.11a1,1,0,0,0-.31.18c-2.2,1.93-4.95,2.17-7.66,2.28a3.16,3.16,0,0,1-3.15-4.17,2.92,2.92,0,0,0,.2-.68,5.58,5.58,0,0,0-.12-1,2.82,2.82,0,0,0-.89.17c-.76.43-1.48.95-2.24,1.39a32,32,0,0,1-10.46,4,4.79,4.79,0,0,1-1.35.05,3.37,3.37,0,0,1-1-.24c-1.4-.58-2.12-2-1.77-4a24.71,24.71,0,0,1,.92-2.84,12.22,12.22,0,0,0,.26-1.47,7.17,7.17,0,0,0-1.46-.06c-2,.31-2.69-.12-3-2.08a6.65,6.65,0,0,1,1.36-5.18,84,84,0,0,1,17.4-16.25l1.47-1q2.31-1.59,4.71-3.09a58.54,58.54,0,0,1,10.62-5.24c7.67-2.86,15-6.58,23.09-8.36,10.85-2.39,21.7-4.75,32.6-6.88a149.76,149.76,0,0,0,29.86-8.75c11.61-4.9,19.52-13,22.94-25.34a63.58,63.58,0,0,0,.83-29.22c-1.74-9.18-3.61-18.35-5.29-27.55-.76-4.11-1.78-8.22-1.29-12.48,0-.45.13-.9.2-1.38,2.35.67,4-.59,5.71-1.61a44.89,44.89,0,0,1,4.34-2.52,8.75,8.75,0,0,1,6.36-.3c-.57,1-1.6,1.9-.81,3a2.25,2.25,0,0,0,3.08.65,7,7,0,0,1-3.43,3.73,14,14,0,0,0-5.23,5A21.78,21.78,0,0,0,423,125c.21,2.94.74,5.86,1.08,8.8.42,3.73.61,7.49,1.25,11.18a28.05,28.05,0,0,0,4.17,11.27c.9,1.32,1.68,2.72,2.66,4A5.49,5.49,0,0,0,434.3,162C434.92,162.21,435.19,162.42,435.29,163ZM440.48,109c-1.55.86-3.26,1.44-4.47,2.55-4.09,3.79-6.91,8.28-6.71,14.16a11.08,11.08,0,0,1-.12,1.91,45.56,45.56,0,0,0,2.24,21.62c1.12,3.37,2.06,6.8,3.07,10.22.17.55.26,1.13.38,1.69l-.37.28A9.88,9.88,0,0,1,433,160c-.61-.83-.95-1.88-1.62-2.65-2.94-3.45-4.23-7.63-5-11.91-.74-3.91-.91-7.92-1.37-11.89-.35-3.09-1-6.18-1.09-9.28-.18-7,1.44-13.27,8.27-17a7.59,7.59,0,0,0,2.53-2.79,3,3,0,0,0-.19-3.79,6.66,6.66,0,0,0-4.38-1.93,10.8,10.8,0,0,0-7.05,1.9,31.46,31.46,0,0,1-2.71,1.77,14.2,14.2,0,0,1-3.32,1.26c-.76.17-1.38-.17-1.11-1.26a11.76,11.76,0,0,1,3.35-6,1.11,1.11,0,0,1,1.45-.3,6.37,6.37,0,0,0,5.57,0,40.38,40.38,0,0,1,4.23-1.67c1.43-.44,2.58-1,2.71-3.09,2,1,3.75,1.75,5.4,2.76,1.32.8,2.43,1.95,3.69,2.86a2,2,0,0,1,.76,2.61c-.71,1.69-1.39,3.4-2.17,5.07C440.19,106.15,439.68,107.58,440.48,109Zm37.74,2.89c-.37,0-.75,0-1.12,0-3.68-.48-7.36-1-11.05-1.45a153.27,153.27,0,0,0-23-1.36c-1.93,0-2.58-.78-2-2.62.74-2.35.92-2.46,3.37-2l.23,0q16.26,3.4,32.51,6.81a7.87,7.87,0,0,1,1.07.35C478.25,111.69,478.24,111.77,478.22,111.85Z" transform="translate(-137.68 -90.55)"/><path class="cls-1" d="M367.3,268c-.4.29-.78.61-1.19.87-2.49,1.56-4.92,3.24-7.52,4.61a6.89,6.89,0,0,1-3.6.43c-1.31-.1-1.75-1.11-.95-2.14,1.34-1.73,2.87-3.32,4.34-5,.78-.85,1.61-1.66,2.42-2.49l-.22-.26c-.2.06-.47.07-.6.2-2.26,2.37-4.58,4.68-6.71,7.15a1.8,1.8,0,0,0,1.05,3.12,6.33,6.33,0,0,0,3.61,0,70.43,70.43,0,0,0,6.58-3.38,4.13,4.13,0,0,0,.66-.44c.54.78.89,1.77,1.57,2.13a5.06,5.06,0,0,0,3.08.58,19,19,0,0,0,5.9-1.79,57.85,57.85,0,0,0,8.36-5.78c4-3.29,7.71-6.84,11.52-10.33.95-.87,1.75-1.92,2.62-2.89l-.3-.31c-.23.18-.48.35-.69.55-6.41,6.19-12.75,12.46-20.33,17.28a15,15,0,0,1-6.8,2.5,7.91,7.91,0,0,1-.84.06c-1,0-2.24,0-2.59-1.06-.24-.72.26-1.7.47-2.55a4.92,4.92,0,0,1,.41-.87Z" transform="translate(-137.68 -90.55)"/><path class="cls-1" d="M353,269.27a5.44,5.44,0,0,1-1,.79,31.24,31.24,0,0,1-4.21,1.93c-1.45.47-2.33-.46-2-2a14.11,14.11,0,0,1,.85-2,4.52,4.52,0,0,0,.15-.93,4.51,4.51,0,0,0-.86.22c-1.72.93-3.4,1.93-5.14,2.8a8,8,0,0,1-2.41.67c-1.52.21-2.11-.32-2.31-1.86,0-.31-.1-.61-.18-1.1a5.14,5.14,0,0,0-1.12.51c-2,1.58-4.36,2.16-6.7,2.77-.84.21-1.87-.31-2.81-.49a8.67,8.67,0,0,1,1-2.33,26.58,26.58,0,0,1,2.76-2.64,2.31,2.31,0,0,0,.7-.87c-2.22,1.21-4.36,2.54-5.27,5.1a1.28,1.28,0,0,0,.89,1.81,5.54,5.54,0,0,0,2.78.19c2.43-.72,4.79-1.68,7.2-2.56,1,2.31,1.93,2.8,4.69,1.88,1.75-.58,3.42-1.45,5.24-2.24-.13.37-.26.65-.33.94a2.28,2.28,0,0,0,2.21,3,9.27,9.27,0,0,0,5.7-2.52,3.46,3.46,0,0,0,.5-.83Z" transform="translate(-137.68 -90.55)"/><path class="cls-2" d="M302.55,181.09c-.06-.39-.13-.78-.2-1.16-2.81.31-5.88-1.73-7.21-4.89a10.48,10.48,0,0,1-.19-8.73,10.5,10.5,0,0,0,.79-5.13,14.93,14.93,0,0,1,3.17-10.32c1.27-1.65,2.68-3.18,4-4.78.91-1.09,1.77-2.23,2.71-3.41-2.63-.85-3-1.64-1.84-3.7a5.06,5.06,0,0,0-4.42,1.35,19.94,19.94,0,0,0-2.9,3.3,42.45,42.45,0,0,1-2.89,3.94c-1.72,1.75-3.19,1.82-5.53.52a44.15,44.15,0,0,0-.17,6.76c.53,4.35,1.33,8.68,2.15,13,1.21,6.36,2.79,12.65,3.74,19a62.12,62.12,0,0,1-.47,22.78c-.89,4-3.3,6.92-6.32,9.36a28,28,0,0,1-5.16,2.77,108.34,108.34,0,0,1-19.29,7.2c-5.31,1.48-10.47,3.46-15.7,5.18-7.37,2.43-14.69,5-22.14,7.17A85.64,85.64,0,0,0,201.59,252a140.43,140.43,0,0,0-20.4,15.51,24.66,24.66,0,0,1-6.36,3.95c-4.29,2.13-8.54,4.4-12.59,6.94a29.93,29.93,0,0,0-10.08,10.91,6.63,6.63,0,0,0-.29,5.13,1.78,1.78,0,0,0,1.34,1.05c1.08,0,2.26-.1,2.87-1.32,1-2,2-4,3.08-6,.86-1.48,2-2.83,3-4.23a7.31,7.31,0,0,1,.76-.82l.25.19a47,47,0,0,0-5.54,9.46l.2.28c.92-.43,1.84-.85,2.74-1.31s1.25-.39,1.35.72c.14,1.67.76,2.59,1.91,2.85a3.19,3.19,0,0,0,3.22-1.59c3.32-5.33,6.64-10.66,11-15.25.46-.49.86-1,1.29-1.54l.37.31c-.31.39-.59.8-.92,1.17a83.16,83.16,0,0,0-14.42,23.1c-1.77,4.4-2.85,9.06-4.27,13.6a33.92,33.92,0,0,1-1.33,3.7,2.27,2.27,0,0,0,1.93,3.38,5.32,5.32,0,0,0,2.68-.77,9.59,9.59,0,0,0,3.74-5c1.95-5.33,3.92-10.65,6-15.95a20.14,20.14,0,0,1,2.36-4.3,2,2,0,0,1,0,.49q-3.68,9.94-7.38,19.89c-.32.85-.81,1.65-1.11,2.51a3.07,3.07,0,0,0-.2,1.78c.06.22,1,.4,1.5.26a38.36,38.36,0,0,0,6.33-2.15,50.52,50.52,0,0,0,13-9.32c1.08-1.07,2.22-2.09,3.32-3.14a2.7,2.7,0,0,1,2.64-.73,15.66,15.66,0,0,0,9.17-.84c1.24-.45,2.5-.86,3.77-1.19a56.49,56.49,0,0,0,16-7.19.76.76,0,0,1,.69-.1c-4.9,4-10.58,6.49-16.66,8.38.27.07.53.15.81.2a63.47,63.47,0,0,0,15,.91,43.86,43.86,0,0,1,7,.54,2.23,2.23,0,0,1,1.93,1.54c1.21,2.86,2.52,5.69,3.82,8.52.56,1.23,1.17,2.44,1.8,3.64.44.83,4.51,2.19,5.21,1.65a4.35,4.35,0,0,0,1.55-1.92c1.26-3.83,2.43-7.69,3.55-11.56a40.78,40.78,0,0,0,.94-4.55,6.27,6.27,0,0,1,3.25-4.22,90.92,90.92,0,0,0,14.5-11.47c.47-.44.93-.89,1.39-1.36q.4-.37.78-.78c.49-.49,1-1,1.44-1.48a166,166,0,0,0,14.82-18.35l.29-.4.21-.31c2.7-3.93,4.14-8.44,5.63-12.92,1.05-3.15,2.08-6.31,3.36-9.37s2.69-5.79,4.2-8.59c.18-.34.36-.68.53-1,.31-.58.6-1.16.89-1.75A61,61,0,0,0,305,214.06c1.23-8.23.34-16.34-1.06-24.45C303.43,186.78,303,183.93,302.55,181.09ZM181.87,283.79c-1.54,2.44-2.89,5-4.33,7.51l-.39-.25c2.2-5.52,5.9-10.09,9.41-14.78l.27.21C185.17,278.91,183.43,281.29,181.87,283.79ZM228,290a38.58,38.58,0,0,1-10.33,6.22,12.31,12.31,0,0,1-3.12.78c-1.83.24-2.87-1-2-2.65a21.09,21.09,0,0,1,2.78-3.52c.13-.15.46-.12.69-.18a5.06,5.06,0,0,1-.94,1.44,13.59,13.59,0,0,0-1.57,2.09,2,2,0,0,0-.17,1.64,1.88,1.88,0,0,0,1.58.41,11.24,11.24,0,0,0,3.2-.93c2.58-1.35,5.08-2.83,7.59-4.31.95-.56,1.83-1.25,2.74-1.88l.38.4A6.32,6.32,0,0,0,228,290Zm7.63,1.91a6.44,6.44,0,0,1-3,.34c-1.19-.08-1.85-1-1.93-2.36a2.73,2.73,0,0,1,1.72-2.91c-.25.66-.45,1.18-.64,1.72-.65,1.81.18,3,2.07,2.79a5.87,5.87,0,0,0,2.48-.82c3-1.9,5.91-3.91,8.85-5.89.5-.34,1-.76,1.43-1.14l.24.28a3.72,3.72,0,0,1-.39.56A36.11,36.11,0,0,1,235.63,291.87Zm27.83-18.58c-3,4.38-7.19,7.58-11.43,10.66-2.25,1.63-4.67,3.06-7.06,4.5a6.23,6.23,0,0,1-1.83.47c7.77-4.64,15-9.75,20.94-16.49C263.88,272.71,263.66,273,263.46,273.29Z" transform="translate(-137.68 -90.55)"/><path class="cls-2" d="M178.84,364.66c-2.33-.38-2.37-3.3-4.46-4.33-1.2,2-2.55,4-3.75,6.15-3.39,6-6.56,12.18-10.13,18.1-4.22,7-8.77,13.84-13.18,20.75-.47.74-.95,1.48-1.4,2.23-1.19,2-2.25,3.92-4.33,5.33a7,7,0,0,0-3,7.14c.12.87.52,1.3,1.43,1.19.05-1,.09-2.06.14-3.1h.4a3.83,3.83,0,0,1,.1.82,8.76,8.76,0,0,0,1.81,6,4.31,4.31,0,0,0,2.31,1.54c2.32.53,4.7.88,7.08,1.18,2.1.26,4.21.39,6.33.53.77.05,1.83.24,2-.76s-.95-1.18-1.64-1.37a10.88,10.88,0,0,0-3-.32c-4.14.1-7.26-2.14-10.35-4.46a.8.8,0,0,1-.22-.69,4.41,4.41,0,0,1,.64.36,16.42,16.42,0,0,0,11,4c1.78,0,3.52.25,4.55,2.06.11.2.66.28.94.2s.49-.55.42-.72a3.58,3.58,0,0,0-1-1.7,6.12,6.12,0,0,0-4-1.23,10.5,10.5,0,0,1-6.11-1.36c-2.45-1.34-3.17-3.77-4.15-6.09a3.24,3.24,0,0,1,.38-3.24c3.67-6.28,7.05-12.74,10.91-18.9,5.32-8.5,10.94-16.82,16.52-25.16A37.55,37.55,0,0,1,178.84,364.66Z" transform="translate(-137.68 -90.55)"/><path class="cls-2" d="M274.13,420.88c6.22,2.84,12.43,5.56,19.32,6.07l.22-.51a14.22,14.22,0,0,0-3.12-1.41c-5.2-.93-9.85-3.22-14.49-5.57a10.7,10.7,0,0,1-3.38-2.16,17.6,17.6,0,0,1-2.52-4.33c-2.06-4.46-4-9-6-13.46q-7.06-15.43-14.19-30.83c-.36-.8-.71-1.6-1.13-2.57-1,1.17-2,.83-3.19.54a14.67,14.67,0,0,0-3.16,0c2,4.12,3.71,7.94,5.67,11.62,6.38,12,12.88,23.85,19.25,35.81.82,1.54,1.1,3.37,1.78,5,1,2.35,2.07,4.67,3.23,6.93a3.64,3.64,0,0,0,1.68,1.4c3,1.41,6.37,1.45,9.61,1.83,3.45.4,6.92.65,10.38.89.47,0,1-.35,1.44-.54a5.21,5.21,0,0,0-1-1.37,3.09,3.09,0,0,0-1.48-.36c-6.41-.64-12.22-3-17.8-6.07A10.31,10.31,0,0,1,274.13,420.88Z" transform="translate(-137.68 -90.55)"/><path class="cls-1" d="M303.15,133.19c-6-.12-12.39,4.76-14.24,11.15-.14.46-.25.93-.36,1.39a1.85,1.85,0,0,0,2.52,2.3,9.26,9.26,0,0,0,3-2.29,21.86,21.86,0,0,0,2-3,10.8,10.8,0,0,1,4.08-3.8,5.62,5.62,0,0,1,5.71.15c1.13.63,1.23,1.51.78,2.72-1.24,3.34-3.92,5.61-6,8.29a16.83,16.83,0,0,0-3.87,12.59,9.69,9.69,0,0,1-.95,4,9.61,9.61,0,0,0,3.08,11.39,3.43,3.43,0,0,0,1.2.76,3.28,3.28,0,0,0,1.81,0c.2-.07.23-1,.13-1.47a39.19,39.19,0,0,1,.4-16.07,27.31,27.31,0,0,1,1.94-4.87c1.2-2.74,3.46-4.84,4.47-7.76.53-1.55,1.89-2.72,1.76-4.69,0-.82,1-1.78,1.73-2.56a19.12,19.12,0,0,1,1.83-1.34c1.28-1.07,1.18-2.19-.07-3.3C311,134.1,307.28,133.34,303.15,133.19Z" transform="translate(-137.68 -90.55)"/><path class="cls-1" d="M212,322.12l-1.16-2c-1.07,0-2.07,0-3.06,0a1.05,1.05,0,0,0-.67.35c-3.27,3.5-6.51,7.05-9.8,10.54-5.5,5.85-10.87,11.85-16.64,17.43-2.71,2.62-4.61,5.26-5.19,9-.24,1.56-.25,2.65.92,3.73A10.31,10.31,0,0,1,177.6,363a1.74,1.74,0,0,0,2.86.31,9.22,9.22,0,0,0,2.22-3.47c1.68-7.16,6.19-12.62,10.51-18.23a102.35,102.35,0,0,1,12.32-12.92C207.77,326.6,209.84,324.32,212,322.12Z" transform="translate(-137.68 -90.55)"/><path class="cls-1" d="M242.4,323.13l-4.29-1.19c0,.41,0,.79,0,1.16q.67,14.81,1.37,29.6a68.86,68.86,0,0,0,.29,7.06,29.27,29.27,0,0,0,1.83,5.67,1.4,1.4,0,0,0,1.27.46,4.52,4.52,0,0,1,3.37.25c1.48.57,2.29.08,2.32-1.48,0-2.28,0-4.6-1.26-6.62-2.08-3.2-2.6-6.78-2.87-10.5-.57-8-1.3-16-2-24A2.26,2.26,0,0,0,242.4,323.13Z" transform="translate(-137.68 -90.55)"/><path class="cls-1" d="M166,295.8c-3.12.4-3.87,0-4.83-2.67-.08.08-.18.12-.22.2A203.13,203.13,0,0,0,147.69,338c-.14.8-.72,1.89.28,2.34.32.15,1.41-.79,1.77-1.45a52.51,52.51,0,0,0,3-6.35c1.63-4.34,2.78-8.87,4.68-13.06,1.64-3.63,2.07-7.54,3.49-11.17,1.51-3.86,3.07-7.71,4.61-11.56C165.65,296.47,165.8,296.16,166,295.8Z" transform="translate(-137.68 -90.55)"/><path class="cls-2" d="M228.64,306.92l-6.78-.19c-3.67-.11-7.34-.15-11-.34-.93,0-1.45.13-1.68,1-.31,1.24-.64,2.47-.94,3.71-.43,1.78-.76,3.59-1.29,5.34-.62,2,0,2.93,2.09,2.84a.89.89,0,0,0,.23,0c1.45-.5,2.34-.11,2.93,1.42.45,1.17,1.35,1.2,1.92.14,1.75-3.25,4.64-5.33,7.45-7.52,2.09-1.62,4.13-3.28,6.21-4.91.37-.29.79-.52,1.18-.78Z" transform="translate(-137.68 -90.55)"/><path class="cls-1" d="M142.45,334.29c1.46-2.55,2.9-4.76,4-7.13a14,14,0,0,0,.66-4,90.67,90.67,0,0,1,7.55-25.93c.18-.39.33-.8.53-1.3l-3,.28c-3.72,10-7.48,20-9.36,30.63A20,20,0,0,0,142.45,334.29Z" transform="translate(-137.68 -90.55)"/><path class="cls-1" d="M146.94,335.84a219.45,219.45,0,0,1,13.52-42.93c-1.2.3-2.19.52-3.15.83-.24.08-.44.43-.57.7-4.49,9.71-7.8,19.78-8.92,30.48q-.47,4.41-.87,8.82C146.88,334.44,146.94,335.14,146.94,335.84Z" transform="translate(-137.68 -90.55)"/><path class="cls-2" d="M338.59,145.08c-1.49-.2-3-.45-4.47-.58q-10.44-.9-20.89-1.74c-1.85-.14-2.6,1.19-1.85,3,6.41-1,12.82.18,19.22,0l6.83-.18c.38,0,.76-.08,1.13-.12Z" transform="translate(-137.68 -90.55)"/><path class="cls-2" d="M315.68,138.5c0,1.55-1.4,2.32-2.81,3.37l21.18,2v-.08Z" transform="translate(-137.68 -90.55)"/><path class="cls-1" d="M150.52,292.54a98.36,98.36,0,0,0-6.11,24l.93-2.72q3-8.78,6.07-17.56a1.42,1.42,0,0,0,.14-.79C151.26,294.59,150.92,293.67,150.52,292.54Z" transform="translate(-137.68 -90.55)"/><path class="cls-2" d="M266.5,414.93c0,2.16.18,4.26,2.32,6-.67-2.22-1.26-4.16-1.85-6.1Z" transform="translate(-137.68 -90.55)"/><path class="cls-1" d="M339,144.4c-3.16-1-6.34-1.94-9.52-2.87s-6.6-1.92-9.91-2.85a13.21,13.21,0,0,1-5.06-2.64c-5.92-5-16.76-5.16-22.93,1.82-2.73,3.09-3.84,6.76-4.38,10.7-.9,6.55.35,12.88,1.79,19.23s2.82,12.48,3.79,18.79a65.87,65.87,0,0,1,.07,20.55c-1,6.41-4.6,10.7-10.24,13.55A112,112,0,0,1,260,228.85c-3.74,1-7.37,2.39-11,3.62-7.89,2.62-15.71,5.5-23.69,7.81a89.62,89.62,0,0,0-24.62,11.32,143.28,143.28,0,0,0-19.83,15.1,21.27,21.27,0,0,1-4.08,3.13c-1.91,1.05-4.06,1.65-6,2.66-2.93,1.54-5.86,3.14-8.63,4.95-7.56,4.93-12,12.15-14.56,20.63a154.4,154.4,0,0,0-5,23.18c-.53,3.59-.8,7.22-1.14,10.84a6.75,6.75,0,0,0,.21,2.14c.09.36.5.91.77.91a1.49,1.49,0,0,0,1.09-.68c.75-1.32,1.4-2.7,2.09-4,.17-.33.35-.66.52-1l.19.09c-.06,1.3-.21,2.6-.17,3.9.07,2.23.21,4.47.4,6.69a1.44,1.44,0,0,0,2.46,1,7.58,7.58,0,0,0,2-2.35c1.21-2.64,2.3-5.35,3.31-8.07s2-5.75,2.94-8.62a9.74,9.74,0,0,1,.51-1.11c1.65,2.92,4.61,2.92,7.62.14,1.72,1.69,3.64,1,5.52.38,7.88-2.71,14.11-7.87,19.89-13.65a3.24,3.24,0,0,1,3.42-1,13.64,13.64,0,0,0,7.79-.67c2.29-.81,4.48-.32,6.74-.1-.86,3.48-1.63,6.84-2.52,10.17a3.32,3.32,0,0,0,.64,3.55c-1.1,1.21-2.18,2.43-3.3,3.61-6,6.37-12,12.75-18.08,19.06-2.6,2.71-5.33,5.31-8,7.9a5.92,5.92,0,0,0-1.91,3.36c-.32,1.81-.72,3.61-1.2,5.38a8.37,8.37,0,0,1-1,1.69c-3.92,6.83-7.7,13.75-11.79,20.48-4.79,7.89-9.85,15.62-14.8,23.42-1.13,1.79-2.21,3.61-3.42,5.35a3,3,0,0,1-.27.35,15.25,15.25,0,0,1-1.76,1.64c-2.4,2-3.79,4.54-3.45,7.76.13,1.2.37,2.46,2.07,2.42.17,0,.39.33.51.55.38.67.72,1.35,1.07,2a4.61,4.61,0,0,0,3.31,2.54c2.39.44,4.8.84,7.22,1.14,2,.25,4.06.32,6.09.48a3.29,3.29,0,0,0,2.91-.74c.16-.17.57-.15.87-.15,1.13,0,1.91-.67,1.58-1.69a5.85,5.85,0,0,0-1.69-2.59,6.24,6.24,0,0,0-4.53-1.2,9.11,9.11,0,0,1-2.5-.16,8.08,8.08,0,0,1-6.81-7.1,2.08,2.08,0,0,1,.32-1.21c.16-.29.32-.59.49-.88a296.77,296.77,0,0,1,18.09-29.63c3.17-4.46,5.81-9.29,8.85-13.85a17.4,17.4,0,0,1,3.88-4.15,11.12,11.12,0,0,0,4.52-6.41c1-4.4,3.33-8.1,5.92-11.68a109.15,109.15,0,0,1,16.48-18.67c2.06-1.79,3.78-4,5.68-6,.2-.21.56-.25.84-.39.61-.3,1.51-.45,1.78-.94,1.71-3.13,4.46-5.19,7.16-7.33s5.2-4.24,7.95-6.5a8,8,0,0,1,1.07,1.44,49.21,49.21,0,0,1,2.31,5.27,30.24,30.24,0,0,0,3.51,6.92,4.59,4.59,0,0,1,.75,2.19c.49,11.83.91,23.66,1.38,35.49a14,14,0,0,0,3,8.28A9.89,9.89,0,0,1,243,369.2c5,11.1,10.89,21.73,16.77,32.37,1.74,3.15,3.36,6.37,5.1,9.52a7.17,7.17,0,0,1,1,3.24c0,.21,0,.43,0,.65a8.33,8.33,0,0,0,2.9,7.15,10.4,10.4,0,0,1,2.44,3.6c1,2.31,3,3,5.1,3.3,4.17.66,8.4,1,12.61,1.48,1.66.18,3.34.23,5,.37.95.07,1.95.15,2.43-.85s-.25-1.6-.72-2.36c-1.62-2.66-4.22-3.41-7-4a43.24,43.24,0,0,1-14.81-6.6c-1.18-.8-1.91-2.42-2.57-3.87l-.18-.38c-2.1-4.44-4-9-6.1-13.43-3.86-8.39-7.77-16.76-11.64-25.14a80.6,80.6,0,0,1-3.28-7.6c-.52-1.54-.4-3.3-.66-4.94a8.17,8.17,0,0,0-.75-3.1c-2.36-3.72-3-7.83-3.32-12.11-.58-7.65-1.37-15.29-2-22.94a4.61,4.61,0,0,1,.47-2c.8-2,1.84-3.92,2.44-6,.88-2.95,1.51-6,2.15-9a10.47,10.47,0,0,1,4.95-7.14,72,72,0,0,0,12.2-9.6c.43-.4.86-.82,1.28-1.24.12-.11.23-.23.33-.34.51-.5,1-1,1.49-1.51,1.79-1.86,3.53-3.79,5.23-5.76a137,137,0,0,0,11.33-14.27l.14-.22c.17-.26.34-.53.49-.8,2.76-4.52,4.38-9.48,6-14.46.87-2.62,1.83-5.2,2.71-7.82a57.4,57.4,0,0,1,5.37-10.82l0-.07q.51-.85,1-1.74a53.19,53.19,0,0,0,4.65-14.17c1.83-9.07.92-18.06-.6-27.06-1-5.75-1.92-11.51-2.54-17.3a29.34,29.34,0,0,1,1.17-11.88,33.05,33.05,0,0,1,3-5.79,37.47,37.47,0,0,0,2.3-4c1.32-3.27,2.66-4.32,6.23-4.28,6.6.07,13.2.2,19.8.28a25.72,25.72,0,0,0,3.82-.26c.47-.07.89-.52,1.33-.79C339.7,145.14,339.41,144.54,339,144.4Zm-4.91-.62s0,.05,0,.08l-21.18-2c1.41-1.05,2.79-1.82,2.81-3.37ZM150.52,292.54c.4,1.13.75,2,1,3a1.42,1.42,0,0,1-.14.79q-3,8.79-6.06,17.56c-.32.91-.63,1.82-.94,2.72A98.36,98.36,0,0,1,150.52,292.54Zm-4.06,34.62c-1.1,2.37-2.55,4.58-4,7.13a20.23,20.23,0,0,1,.36-7.45c1.89-10.62,5.64-20.68,9.36-30.63l3-.28c-.21.5-.36.91-.54,1.3a91,91,0,0,0-7.54,25.93A14,14,0,0,1,146.46,327.16Zm.48,8.68c0-.7-.05-1.4,0-2.1.27-2.94.57-5.88.88-8.82,1.12-10.7,4.42-20.77,8.92-30.48.12-.27.32-.62.57-.7,1-.31,1.94-.53,3.14-.83A220.13,220.13,0,0,0,146.94,335.84Zm10.49-16.32c-1.9,4.19-3.06,8.72-4.69,13.06a52.51,52.51,0,0,1-3,6.35c-.35.66-1.44,1.6-1.76,1.45-1-.45-.42-1.54-.28-2.34a202.59,202.59,0,0,1,13.21-44.71c0-.08.13-.12.21-.2,1,2.66,1.71,3.07,4.83,2.67-.15.36-.29.67-.42,1-1.54,3.85-3.1,7.7-4.62,11.56C159.49,312,159.07,315.89,157.43,319.52Zm17.73,49.24c-5.58,8.34-11.2,16.66-16.52,25.16-3.85,6.16-7.24,12.62-10.91,18.9-.06.1-.12.2-.17.3a3.09,3.09,0,0,0-.21,2.94c1,2.32,1.71,4.75,4.16,6.09a10.47,10.47,0,0,0,6.1,1.36,6.14,6.14,0,0,1,4,1.23,3.65,3.65,0,0,1,1,1.7c.07.17-.21.66-.41.72s-.83,0-.94-.2c-1-1.81-2.78-2.08-4.55-2.06a16.42,16.42,0,0,1-11-4,4.52,4.52,0,0,0-.65-.36.77.77,0,0,0,.23.69c3.09,2.32,6.2,4.56,10.35,4.46a10.88,10.88,0,0,1,3,.32c.69.19,1.84.31,1.64,1.37s-1.26.81-2,.76c-2.11-.14-4.23-.27-6.33-.53-2.37-.3-4.75-.65-7.08-1.18a4.38,4.38,0,0,1-2.31-1.54,8.81,8.81,0,0,1-1.81-6,3.83,3.83,0,0,0-.1-.82h-.4c0,1-.09,2.07-.14,3.1-.9.11-1.3-.32-1.43-1.19a7,7,0,0,1,3-7.14,10,10,0,0,0,2-1.78,26,26,0,0,0,2.36-3.55c.45-.75.93-1.49,1.4-2.23,4.41-6.91,9-13.73,13.19-20.75,3.56-5.92,6.73-12.07,10.13-18.1,1.2-2.13,2.54-4.18,3.75-6.15,2.09,1,2.12,3.95,4.45,4.33A38.61,38.61,0,0,0,175.16,368.76Zm30.35-40.09a103.06,103.06,0,0,0-12.32,12.92c-4.32,5.61-8.83,11.07-10.51,18.23a9.19,9.19,0,0,1-2.21,3.47,1.74,1.74,0,0,1-2.86-.31,10.31,10.31,0,0,0-1.19-1.79c-1.18-1.08-1.16-2.17-.92-3.73.57-3.77,2.47-6.41,5.18-9,5.77-5.58,11.14-11.58,16.65-17.43,3.29-3.49,6.52-7,9.79-10.54a1.07,1.07,0,0,1,.68-.35c1,0,2,0,3,0l1.16,2C209.84,324.32,207.78,326.6,205.51,328.67Zm22.27-20.25c-2.07,1.63-4.12,3.29-6.2,4.91-2.81,2.19-5.7,4.27-7.46,7.52-.57,1.06-1.46,1-1.91-.14-.59-1.53-1.48-1.92-2.93-1.42a1,1,0,0,1-.24,0c-2.11.09-2.7-.81-2.08-2.84.53-1.75.86-3.56,1.29-5.34.3-1.24.62-2.47.94-3.71.22-.89.75-1.06,1.68-1,3.66.19,7.33.23,11,.34l6.77.19.33.72C228.57,307.9,228.15,308.13,227.78,308.42ZM266.5,414.93l.48-.13c.58,1.94,1.17,3.88,1.85,6.1C266.68,419.19,266.5,417.09,266.5,414.93ZM250,368.68q7.09,15.4,14.18,30.83c2.05,4.47,4,9,6,13.46.12.25.23.51.36.76a15.34,15.34,0,0,0,2.17,3.57,10.65,10.65,0,0,0,3.37,2.16c4.64,2.35,9.3,4.64,14.5,5.57a14.22,14.22,0,0,1,3.12,1.41l-.23.51c-6.89-.51-13.09-3.23-19.32-6.07a11.5,11.5,0,0,0,1.13.85c5.57,3.06,11.38,5.43,17.79,6.07a3.13,3.13,0,0,1,1.49.36,5.18,5.18,0,0,1,1,1.37c-.48.19-1,.58-1.43.54-3.47-.24-6.94-.49-10.39-.89-3.24-.38-6.57-.42-9.61-1.83a3.66,3.66,0,0,1-1.67-1.4c-1.17-2.26-2.24-4.58-3.23-6.93-.6-1.4-.88-3-1.48-4.35-.09-.22-.19-.43-.3-.64-6.38-12-12.88-23.85-19.26-35.81-2-3.68-3.67-7.5-5.67-11.62a14.64,14.64,0,0,1,3.16,0c1.17.29,2.24.63,3.19-.54C249.25,367.08,249.59,367.88,250,368.68Zm-5.51-21.14c.26,3.72.78,7.3,2.86,10.5,1.31,2,1.3,4.34,1.26,6.62,0,1.56-.83,2-2.32,1.48a4.52,4.52,0,0,0-3.37-.25,1.38,1.38,0,0,1-1.26-.46,28.64,28.64,0,0,1-1.84-5.67,66.14,66.14,0,0,1-.28-7.06q-.67-14.81-1.38-29.6c0-.37,0-.75,0-1.16l4.28,1.19a1.76,1.76,0,0,1,.07.38C243.14,331.52,243.87,339.52,244.45,347.54Zm57.9-167.61c.07.38.14.77.2,1.16.45,2.84.88,5.69,1.36,8.52,1.4,8.11,2.29,16.22,1.06,24.45a61,61,0,0,1-5.66,17.75c-.29.59-.58,1.17-.89,1.75-.17.34-.35.68-.53,1-1.51,2.8-3,5.66-4.2,8.59s-2.31,6.22-3.36,9.37c-1.49,4.48-2.93,9-5.63,12.92l-.21.31-.29.4a166,166,0,0,1-14.82,18.35c-.47.5-.95,1-1.44,1.48q-.37.4-.78.78c-.46.47-.92.92-1.39,1.36a90.92,90.92,0,0,1-14.5,11.47,6.27,6.27,0,0,0-3.25,4.22,40.78,40.78,0,0,1-.94,4.55c-1.12,3.87-2.29,7.73-3.55,11.56a4.35,4.35,0,0,1-1.55,1.92c-.7.54-4.77-.82-5.21-1.65-.63-1.2-1.24-2.41-1.8-3.64-1.3-2.83-2.61-5.66-3.82-8.52a2.23,2.23,0,0,0-1.93-1.54,43.86,43.86,0,0,0-7-.54,63.47,63.47,0,0,1-15-.91c-.28-.05-.54-.13-.81-.2,6.08-1.89,11.76-4.37,16.66-8.38a.76.76,0,0,0-.69.1,56.49,56.49,0,0,1-16,7.19c-1.27.33-2.53.74-3.77,1.19a15.66,15.66,0,0,1-9.17.84,2.7,2.7,0,0,0-2.64.73c-1.1,1.05-2.24,2.07-3.32,3.14a50.52,50.52,0,0,1-13,9.32,38.36,38.36,0,0,1-6.33,2.15c-.46.14-1.44,0-1.5-.26a3.07,3.07,0,0,1,.2-1.78c.3-.86.79-1.66,1.11-2.51q3.72-9.94,7.38-19.89a2,2,0,0,0,0-.49,20.14,20.14,0,0,0-2.36,4.3c-2,5.3-4,10.62-6,15.95a9.59,9.59,0,0,1-3.74,5,5.32,5.32,0,0,1-2.68.77,2.27,2.27,0,0,1-1.93-3.38,33.92,33.92,0,0,0,1.33-3.7c1.42-4.54,2.5-9.2,4.27-13.6a83.16,83.16,0,0,1,14.42-23.1c.33-.37.61-.78.92-1.17l-.37-.31c-.43.51-.83,1.05-1.29,1.54-4.34,4.59-7.66,9.92-11,15.25a3.19,3.19,0,0,1-3.22,1.59c-1.15-.26-1.77-1.18-1.91-2.85-.1-1.11-.34-1.23-1.35-.72s-1.82.88-2.74,1.31l-.2-.28a47,47,0,0,1,5.54-9.46l-.25-.19a7.31,7.31,0,0,0-.76.82c-1,1.4-2.09,2.75-3,4.23-1.12,1.93-2.08,4-3.08,6-.61,1.22-1.79,1.31-2.87,1.32a1.78,1.78,0,0,1-1.34-1.05,6.63,6.63,0,0,1,.29-5.13,29.93,29.93,0,0,1,10.08-10.91c4-2.54,8.3-4.81,12.59-6.94a24.66,24.66,0,0,0,6.36-3.95A140.43,140.43,0,0,1,201.59,252a85.64,85.64,0,0,1,23.1-10.65c7.45-2.16,14.77-4.74,22.14-7.17,5.23-1.72,10.39-3.7,15.7-5.18a108.34,108.34,0,0,0,19.29-7.2A28,28,0,0,0,287,219c3-2.44,5.43-5.37,6.32-9.36a62.12,62.12,0,0,0,.47-22.78c-.95-6.39-2.53-12.68-3.74-19-.82-4.31-1.62-8.64-2.15-13a44.15,44.15,0,0,1,.17-6.76c2.34,1.3,3.81,1.23,5.53-.52a42.45,42.45,0,0,0,2.89-3.94,19.94,19.94,0,0,1,2.9-3.3,5.06,5.06,0,0,1,4.42-1.35c-1.15,2.06-.79,2.85,1.84,3.7-.94,1.18-1.8,2.32-2.71,3.41-1.33,1.6-2.74,3.13-4,4.78a14.93,14.93,0,0,0-3.17,10.32,10.5,10.5,0,0,1-.79,5.13,10.48,10.48,0,0,0,.19,8.73C296.47,178.2,299.54,180.24,302.35,179.93Zm6.42-31.21c-1,2.92-3.27,5-4.46,7.76a26.58,26.58,0,0,0-1.94,4.87,38.85,38.85,0,0,0-.4,16.07c.1.49.06,1.4-.14,1.47a3.24,3.24,0,0,1-1.8,0,3.47,3.47,0,0,1-1.21-.76,9.61,9.61,0,0,1-3.08-11.39,9.54,9.54,0,0,0,.95-4,16.83,16.83,0,0,1,3.87-12.59c2.11-2.68,4.78-4.95,6-8.29.46-1.21.35-2.09-.77-2.72a5.63,5.63,0,0,0-5.72-.15,10.8,10.8,0,0,0-4.08,3.8,21.8,21.8,0,0,1-2,3,9.41,9.41,0,0,1-3,2.29,1.85,1.85,0,0,1-2.52-2.3c.11-.46.23-.93.36-1.39,1.86-6.39,8.19-11.27,14.24-11.15,4.14.15,7.83.91,10.88,3.64,1.24,1.11,1.34,2.23.07,3.3a16.9,16.9,0,0,0-1.83,1.34c-.7.78-1.79,1.74-1.73,2.56C310.67,146,309.31,147.17,308.77,148.72Zm29.8-3.25c-.38,0-.76.11-1.14.12-2.27.07-4.55.11-6.82.18-6.41.19-12.82-1-19.23,0-.75-1.83,0-3.16,1.86-3q10.44.83,20.88,1.74c1.5.13,3,.38,4.48.58Z" transform="translate(-137.68 -90.55)"/><path class="cls-1" d="M264.08,272.43c-6,6.74-13.18,11.85-20.94,16.49a6.39,6.39,0,0,0,1.83-.47c2.39-1.44,4.8-2.87,7.06-4.5,4.24-3.08,8.39-6.28,11.42-10.66C263.65,273,263.87,272.71,264.08,272.43Z" transform="translate(-137.68 -90.55)"/><path class="cls-1" d="M246.57,283.6c-.48.38-.93.8-1.43,1.14-2.94,2-5.87,4-8.86,5.89a5.92,5.92,0,0,1-2.47.82c-1.89.21-2.72-1-2.08-2.79.19-.54.4-1.06.64-1.72a2.74,2.74,0,0,0-1.72,2.91c.08,1.33.75,2.28,1.94,2.36a6.38,6.38,0,0,0,3-.34,36.15,36.15,0,0,0,10.8-7.43,4.63,4.63,0,0,0,.39-.56Z" transform="translate(-137.68 -90.55)"/><path class="cls-1" d="M228.41,289.07c-.91.63-1.78,1.32-2.73,1.88-2.51,1.48-5,3-7.59,4.31a11.24,11.24,0,0,1-3.2.93,1.9,1.9,0,0,1-1.59-.41,2,2,0,0,1,.17-1.64,15,15,0,0,1,1.57-2.09,5.08,5.08,0,0,0,1-1.44c-.24.06-.56,0-.69.18a20.1,20.1,0,0,0-2.78,3.52c-.85,1.62.2,2.89,2,2.65a12.38,12.38,0,0,0,3.13-.78A38.53,38.53,0,0,0,228,290a7.26,7.26,0,0,1,.81-.49Z" transform="translate(-137.68 -90.55)"/><path class="cls-1" d="M186.56,276.27c-3.51,4.69-7.21,9.26-9.41,14.78l.39.25c1.43-2.51,2.79-5.07,4.32-7.51s3.3-4.88,5-7.31Z" transform="translate(-137.68 -90.55)"/></svg>