<svg id="OBJECTS" xmlns="http://www.w3.org/2000/svg" xmlns:xlink="http://www.w3.org/1999/xlink" viewBox="0 0 447.95 288.32"><defs><style>.cls-1{fill:none;}.cls-2{clip-path:url(#clip-path);}.cls-3{fill:#f2ede7;}.cls-4{fill:#331e10;}</style><clipPath id="clip-path" transform="translate(-172.49 -204.7)"><rect class="cls-1" width="750" height="500"/></clipPath></defs><g class="cls-2"><path class="cls-3" d="M198.5,394.37l3.34-5.67c.7-1.2.71-1.25,2.1-.92A91.45,91.45,0,0,1,229.57,398c.16.1.3.22.5.36-1.53,2.45-3,4.88-4.57,7.32C216.93,400.85,207.64,397.82,198.5,394.37Z" transform="translate(-172.49 -204.7)"/><path class="cls-3" d="M230.91,408.16a2.13,2.13,0,0,0,1.37,2.44c.46.23.93.42,1.4.62a4.64,4.64,0,0,1,3.07,5.1c-.33,3.56-2.35,5.79-5.64,6.93-1.09.37-2.25.52-3.36.83a14,14,0,0,0-2.65.91,3.66,3.66,0,0,0-2.2,4c-.47-.51-.9-.9-1.25-1.36-1.74-2.26-3.11-4.71-3-7.65a11.05,11.05,0,0,1,.9-4c2-4.35,5.31-7.15,10.2-7.82a3.43,3.43,0,0,1,.56,0C230.5,408.12,230.66,408.14,230.91,408.16Z" transform="translate(-172.49 -204.7)"/><path class="cls-3" d="M263.42,383.9l.82-.28a61.38,61.38,0,0,1,16-2.72,2.52,2.52,0,0,1,2.08.8,8.64,8.64,0,0,1,2.37,4.13c.54,2.24,1.08,4.5,2.69,6.4-2.14.14-4.15.22-6.14.42a51.84,51.84,0,0,0-5.59.78,3.11,3.11,0,0,1-3.14-1.1c-.79-.84-1.5-1.76-2.25-2.64-.58-.68-1.13-1.37-1.76-2C267,386.18,265.59,384.59,263.42,383.9Z" transform="translate(-172.49 -204.7)"/><path class="cls-3" d="M273.28,393.69c-2.48.78-5,1.57-7.49,2.38a9.56,9.56,0,0,0-1.71.73,3.41,3.41,0,0,1-3.6-.14c-.75-.43-1.42-1-2.13-1.46a22.93,22.93,0,0,0-9.2-3.84.64.64,0,0,1,.14-.22c3.83-2.56,7.65-5.13,12.09-6.57a3.33,3.33,0,0,1,2.35.08c2.41.92,4,2.87,5.65,4.69.87,1,1.63,2,2.48,3C272.31,392.83,272.86,393.28,273.28,393.69Z" transform="translate(-172.49 -204.7)"/><path class="cls-3" d="M234.74,456l-6-1.38c.34-1.66.56-3.26,1-4.8,1.69-6,3.46-12,5.19-18.05a1.91,1.91,0,0,1,1.12-1.34,10,10,0,0,0,3.75-3.11c.16-.2.49-.27.74-.4a1.93,1.93,0,0,1,.19.74c-1.08,5.82-2.12,11.64-3.3,17.44-.68,3.37-1.6,6.69-2.41,10C234.94,455.4,234.85,455.65,234.74,456Z" transform="translate(-172.49 -204.7)"/><path class="cls-3" d="M301,393c-2-.16-4-.37-6-.48s-4.19-.1-6.29-.21a1.45,1.45,0,0,1-1-.51,17.92,17.92,0,0,1-1.6-2.95,17.4,17.4,0,0,1-.91-3.09,7.9,7.9,0,0,0-2.43-4.27c-.12-.11-.22-.23-.46-.49.75,0,1.35-.05,1.93,0,4.1.3,8.2.61,12.3.9a2.29,2.29,0,0,1,2.06,1.32,14.65,14.65,0,0,1,1.13,2.9c.37,1.51.55,3.07.82,4.6C300.71,391.42,300.87,392.17,301,393Z" transform="translate(-172.49 -204.7)"/><path class="cls-4" d="M233.93,430.82a11.35,11.35,0,0,0,7.23-7.5,11.2,11.2,0,0,0-8.88-15.09c-.26,0-.74,0-.78.12a1.43,1.43,0,0,0,.08.91,1.58,1.58,0,0,0,.66.67c.63.35,1.3.65,2,.94a4.86,4.86,0,0,1,3.07,4.12,7.89,7.89,0,0,1-4.91,8.18,25.89,25.89,0,0,1-4.17,1.21,7.27,7.27,0,0,0-4.11,2.05,2.27,2.27,0,0,0,.5,3.65,4,4,0,0,0,1.34.54c.84.16,1.7.23,2.55.34A8.94,8.94,0,0,0,233.93,430.82Zm-3-4.21a2,2,0,0,1-.41,1.51,3.78,3.78,0,0,1-4,.95,1.29,1.29,0,0,1-.47-2.26c1-1,2.24-1.17,3.9-1.12C230.12,425.89,230.76,426.17,230.91,426.61Z" transform="translate(-172.49 -204.7)"/><path class="cls-3" d="M239.56,401.28a27.23,27.23,0,0,1,5.75-7c.59-.55,1.3-1,1.85-1.56A2.75,2.75,0,0,1,250,392a24.44,24.44,0,0,1,8.72,4.07c1,.69,2.05,1.22,3.08,1.82-.07.05-.32.18-.55.33-2.26,1.49-4.55,3-6.77,4.52a1.8,1.8,0,0,1-1.78.32c-1.19-.42-2.4-.81-3.59-1.23A15.63,15.63,0,0,0,239.56,401.28Z" transform="translate(-172.49 -204.7)"/><path class="cls-3" d="M195.5,405.18l23.81-.52c-.1,1.85-.18,3.56-.32,5.27,0,.15-.46.38-.72.39-3,.15-6.07.28-9.11.37-4.17.12-8.34.19-12.5.28-1.27,0-1.41-.07-1.39-1.35C195.3,408.17,195.41,406.73,195.5,405.18Z" transform="translate(-172.49 -204.7)"/><path class="cls-3" d="M313.12,395.65c-1.08-.28-2.28-.65-3.51-.92-2.36-.53-4.73-1-7.11-1.48-.54-.1-.9-.3-1-.85-.15-.71-.3-1.42-.43-2.13-.29-1.59-.49-3.19-.89-4.75a27.08,27.08,0,0,0-1.3-3.27c1.35.25,2.77.45,4.16.78,2.62.61,5.21,1.32,7.83,1.93a2.14,2.14,0,0,1,1.83,2c.15,1.28.24,2.56.29,3.85C313.06,392.38,313.07,394,313.12,395.65Z" transform="translate(-172.49 -204.7)"/><path class="cls-3" d="M228.32,454.55l-5.51-1.82c.55-2.1.94-4.14,1.62-6.08,1.66-4.74,3.45-9.43,5.21-14.14a1,1,0,0,1,.58-.54c1.39-.23,2.8-.41,4.22-.61A159.74,159.74,0,0,0,228.32,454.55Z" transform="translate(-172.49 -204.7)"/><path class="cls-3" d="M235.23,456.1c.81-3.29,1.65-6.41,2.33-9.56,1-4.54,1.86-9.12,2.77-13.68.35-1.74.65-3.49,1-5.23,0-.2.29-.35.44-.52.14.18.39.34.42.53,1,6.13,1.54,12.27.51,18.46a33.75,33.75,0,0,1-2.82,9.31,1.19,1.19,0,0,1-1.34.83C237.49,456.14,236.41,456.15,235.23,456.1Z" transform="translate(-172.49 -204.7)"/><path class="cls-3" d="M312.84,385.58c1.41.5,2.71.94,4,1.42,2,.75,4.06,1.58,6.12,2.29a2,2,0,0,1,1.44,1.75c.13,1.3.17,2.62.21,3.94s0,2.89.05,4.39a4.6,4.6,0,0,1-.51-.14c-3.14-1-6.29-2.05-9.42-3.11a1.33,1.33,0,0,1-.79-.75,17.33,17.33,0,0,1-.43-3.57A18.57,18.57,0,0,0,312.84,385.58Z" transform="translate(-172.49 -204.7)"/><path class="cls-3" d="M336.91,403.62c-2-.65-4.07-1.32-6.13-2-1.4-.48-2.78-1-4.19-1.47a2,2,0,0,1-1.46-2c0-1.56,0-3.12,0-4.68,0-1.09-.16-2.18-.26-3.33a4.87,4.87,0,0,1,.55.18c3.39,1.42,6.8,2.83,10.18,4.3a1.67,1.67,0,0,1,.86,1,22.18,22.18,0,0,1,.39,3.35C336.9,400.5,336.88,402,336.91,403.62Z" transform="translate(-172.49 -204.7)"/><path class="cls-3" d="M236.27,408.58c.91-2.07,1.76-4.16,2.75-6.17a2.25,2.25,0,0,1,1.39-.82,11.14,11.14,0,0,1,5.44-.1c2.44.62,4.83,1.42,7.4,2.18-.44.4-.74.66-1,.94-1.34,1.44-2.66,2.89-4,4.3a1.58,1.58,0,0,1-1,.56,19.19,19.19,0,0,1-3-.18c-1.41-.19-2.8-.56-4.22-.71C238.84,408.47,237.66,408.57,236.27,408.58Z" transform="translate(-172.49 -204.7)"/><path class="cls-3" d="M371.47,409.06c-.62,0-1.17,0-1.72,0-2.77-.11-5.54-.27-8.31-.34a2.16,2.16,0,0,1-2.16-1.59c-.49-1.34-.91-2.7-1.37-4.05-.3-.91-.61-1.82-.93-2.77h.44c3,.27,6.05.6,9.08.8a2.64,2.64,0,0,1,2.55,2c.28.81.49,1.65.71,2.48A6.36,6.36,0,0,0,371.47,409.06Z" transform="translate(-172.49 -204.7)"/><path class="cls-3" d="M222.46,452.48l-.59-.27c-2.48-1.27-2.72-1.87-2.21-4.62a54.93,54.93,0,0,1,5.39-15.29c.66-1.27.35-1.06,1.77-.83.77.13,1.53.29,2.44.47A109.21,109.21,0,0,0,222.46,452.48Z" transform="translate(-172.49 -204.7)"/><path class="cls-3" d="M359.26,408.38c-2-.26-4.05-.5-6.06-.79-1.06-.16-2.1-.47-3.16-.63a2.06,2.06,0,0,1-1.76-1.36,24,24,0,0,1-1-3.23c-.28-1.33-.44-2.69-.66-4,1.7.35,3.48.74,5.26,1.09a27.36,27.36,0,0,0,2.94.5,2.29,2.29,0,0,1,2.12,1.79c.44,1.41.87,2.83,1.34,4.23C358.59,406.76,358.94,407.54,359.26,408.38Z" transform="translate(-172.49 -204.7)"/><path class="cls-3" d="M337.13,395.25c2.06.69,4.2,1.48,6.39,2.13,2.88.85,2.72.83,3.11,3.7a22.55,22.55,0,0,0,.46,2.71c.22.87.58,1.72.92,2.7-1.1-.26-2.18-.5-3.24-.77-2-.52-4-1.07-6-1.57a1.47,1.47,0,0,1-1.27-1.35c-.07-.56-.13-1.13-.15-1.69C337.25,399.16,337.19,397.21,337.13,395.25Z" transform="translate(-172.49 -204.7)"/><path class="cls-3" d="M381.39,408.87c-2.27.07-4.62.17-7,.21-2.52,0-3.49-.81-4.09-3.26-.39-1.55-.62-3.17-1.8-4.56,1.57,0,3,.05,4.44.05s2.9,0,4.35-.06a1.72,1.72,0,0,1,1.78,1,16.34,16.34,0,0,1,.89,2.16C380.46,405.82,380.89,407.27,381.39,408.87Z" transform="translate(-172.49 -204.7)"/><path class="cls-3" d="M379,401.24l7.38-.5c1.8-.12,2,0,2.8,1.61.3.63.52,1.3.79,1.94.48,1.1,1,2.19,1.48,3.35-.61.1-1.32.24-2,.33-2.08.25-4.16.47-6.24.73a1.21,1.21,0,0,1-1.44-.75,16.63,16.63,0,0,1-.93-2.39A10.72,10.72,0,0,0,379,401.24Z" transform="translate(-172.49 -204.7)"/><path class="cls-3" d="M240.2,456.18c.83-2.37,1.7-4.68,2.44-7,.92-2.88.9-5.89,1.22-8.86.45-4.21-.58-8.29-1-12.43,0-.37-.31-.83.32-1s.74.38.83.76a40.81,40.81,0,0,1,1.68,9.5c0,2.45.29,4.89.28,7.34a18.88,18.88,0,0,1-3.26,10.65A3,3,0,0,1,240.2,456.18Z" transform="translate(-172.49 -204.7)"/><path class="cls-3" d="M388.92,400.56c1.76-.28,3.64-.54,5.51-.87,2.33-.41,2.38-.41,3.61,1.6.25.41.46.85.73,1.25.65,1,1.32,1.9,2,2.89-1.48.4-3.13.85-4.79,1.27-.94.24-1.89.4-2.83.63a1.22,1.22,0,0,1-1.45-.58,9.6,9.6,0,0,1-.78-1.4C390.24,403.76,389.59,402.15,388.92,400.56Z" transform="translate(-172.49 -204.7)"/><path class="cls-3" d="M397.19,399.16c2.13-.61,4.24-1.22,6.36-1.8a2.44,2.44,0,0,1,2.48.81c.54.56,1,1.16,1.56,1.75s1.21,1.33,1.91,2.12c-2.38.94-4.79,2-7.28,2.82-1,.32-1.73-.45-2.24-1.25s-1-1.69-1.47-2.51C398.12,400.46,397.67,399.86,397.19,399.16Z" transform="translate(-172.49 -204.7)"/><path class="cls-3" d="M405.1,396.83c1.58-.58,3.21-1.23,4.86-1.76s2.74.32,3.77,1.39c.7.73,1.41,1.44,2.19,2.24-1.72.87-3.48,1.84-5.31,2.65-.72.31-1.38-.23-1.88-.8s-1-1.25-1.58-1.82S405.79,397.46,405.1,396.83Z" transform="translate(-172.49 -204.7)"/><path class="cls-3" d="M242.34,417.23c-.53-3.52-2.57-6-5.56-8.11a8.17,8.17,0,0,1,1.56-.14c1.52.16,3,.38,4.55.58l4.4.56a9.6,9.6,0,0,0-.7,1.06c-.8,1.54-1.64,3.07-2.32,4.67C243.74,417.08,243.83,417.12,242.34,417.23Z" transform="translate(-172.49 -204.7)"/><path class="cls-3" d="M421.44,395.37c-1.44.86-2.82,1.78-4.3,2.53a2.07,2.07,0,0,1-1.55-.27,4,4,0,0,1-1.16-1.1,5.67,5.67,0,0,0-3-2c1.41-.84,2.72-1.73,4.13-2.42a2.06,2.06,0,0,1,1.62.28c.91.56,1.7,1.31,2.57,1.94C420.24,394.66,420.78,395,421.44,395.37Z" transform="translate(-172.49 -204.7)"/><path class="cls-3" d="M416.58,391.34c1-.68,2-1.36,3.05-2a2.34,2.34,0,0,1,2.32,0,20.25,20.25,0,0,1,2,1.22l2.16,1.27a46.06,46.06,0,0,1-3.76,2.74,2.12,2.12,0,0,1-1.71-.26,17.79,17.79,0,0,1-2.05-1.55C418,392.26,417.3,391.84,416.58,391.34Z" transform="translate(-172.49 -204.7)"/><path class="cls-3" d="M421.09,388.38a13.67,13.67,0,0,1,4.48-2.08,2.29,2.29,0,0,1,2.38,1,2,2,0,0,1-.25,2.33c-1.1,1.68-1.8,1.75-3.44.59C423.27,389.54,422.17,389,421.09,388.38Z" transform="translate(-172.49 -204.7)"/><path class="cls-3" d="M240.57,426.38c.5-1.24.94-2.46,1.47-3.65.27-.6,1.94-.26,2.37.45a2.16,2.16,0,0,1-.92,3A3.84,3.84,0,0,1,240.57,426.38Z" transform="translate(-172.49 -204.7)"/><path class="cls-3" d="M243.64,421.92a2.81,2.81,0,0,1,.17-.64,6.44,6.44,0,0,1,4.55-3.14,2.45,2.45,0,0,1,.8.19,2.4,2.4,0,0,1-.28.72A7.33,7.33,0,0,1,243.64,421.92Z" transform="translate(-172.49 -204.7)"/><path class="cls-3" d="M244.66,422.44c1-.43,1.86-.86,2.79-1.26a3.3,3.3,0,0,1,2.77,1.08.82.82,0,0,1-.26.71c-.87.67-3.94.67-4.82,0A3.11,3.11,0,0,1,244.66,422.44Z" transform="translate(-172.49 -204.7)"/><path class="cls-3" d="M253.18,417.93c-.53,1.55-3.43,3.1-4.72,2.72.45-.8.91-1.62,1.4-2.41.08-.13.33-.15.51-.21A4.79,4.79,0,0,1,253.18,417.93Z" transform="translate(-172.49 -204.7)"/><path class="cls-3" d="M252.28,414.58a6.89,6.89,0,0,1-2.14,3,.91.91,0,0,1-.58.2c-.7-.06-1.39-.17-2-.25A7.4,7.4,0,0,1,252.28,414.58Z" transform="translate(-172.49 -204.7)"/><path class="cls-3" d="M251.23,417.3c.9-2,2.53-2.54,4.54-2.55A5.6,5.6,0,0,1,251.23,417.3Z" transform="translate(-172.49 -204.7)"/><path class="cls-3" d="M242.52,417.75l1.12-.15-.56,4.27-.71,0C242.42,420.46,242.47,419.14,242.52,417.75Z" transform="translate(-172.49 -204.7)"/><path class="cls-3" d="M227.5,428.76a1.64,1.64,0,0,1-.54-.11c-.32-.21-.8-.42-.86-.71a1.27,1.27,0,0,1,.48-1,3.84,3.84,0,0,1,3.3-.63c.67.15.83.7.41,1.31A3,3,0,0,1,227.5,428.76Z" transform="translate(-172.49 -204.7)"/><path class="cls-4" d="M219.83,405.19c0-.85-.34-1.08-1.18-1-.46,0-.91.07-1.37.08l-17.59.38-4.75.11c-.08,1.31-.18,2.54-.24,3.77a11.75,11.75,0,0,0,0,1.78c.08.9.49,1.21,1.4,1.16s1.66-.1,2.49-.12q9.36-.26,18.73-.48c.66,0,1.57.16,1.94-.2s.28-1.3.43-2c0-.21.25-.53.41-.55a22,22,0,0,1,5.84.32c-4.49,2.58-7.67,6-7.87,11.17s2.55,8.85,6.73,11.52c-1,2.22-2.07,4.45-3,6.75a50.07,50.07,0,0,0-3,10.63,3.11,3.11,0,0,0,1.61,3.54,23.72,23.72,0,0,0,2.81,1.4,52.62,52.62,0,0,0,11.21,3,39.51,39.51,0,0,0,6.35.19,2.66,2.66,0,0,0,2.29-1.15,18.64,18.64,0,0,0,3.4-11.17c-.1-4.67.05-9.37-1.33-13.93-.38-1.29-.61-2.62-.94-4.08a2.65,2.65,0,0,0,1-2.45c1.42,0,2.75,0,4.07-.11a1.49,1.49,0,0,0,1.47-1.07c.16-.75-.44-1.09-.93-1.47,0,0-.06-.08,0,0,1.06-.71,2.15-1.38,3.18-2.13.54-.4.89-1,.43-1.56.87-.71,1.7-1.34,2.47-2.05.23-.21.25-.65.37-1-.31-.11-.64-.34-.93-.3-.87.11-1.73.32-2.63.49-.37-.71-.57-.8-1.48-.5a7.81,7.81,0,0,0-4.19,3c-.85,1.27-2.37,1.57-3.18,2.8a1.68,1.68,0,0,1,0-.69,17.33,17.33,0,0,1,3-7.49A39.9,39.9,0,0,1,267.78,396c12.21-4.11,24.73-4,37.26-1.74A116.26,116.26,0,0,1,324.7,400a194.1,194.1,0,0,0,24.1,7.22,98.4,98.4,0,0,0,20,2.3,110.63,110.63,0,0,0,25-1.86,54.86,54.86,0,0,0,10.58-3.1c3-1.28,6-2.6,8.86-4a57.35,57.35,0,0,0,13.25-8.7,10.64,10.64,0,0,0,1.86-2.21,2.38,2.38,0,0,0-1.16-3.66,3.06,3.06,0,0,0-2.81.08c-1.75.89-3.45,1.86-5.14,2.86-2.88,1.72-5.6,3.81-8.64,5.17a72.22,72.22,0,0,1-17.34,5.25,120.2,120.2,0,0,1-15.51,1.32,123.78,123.78,0,0,1-23.32-1.36,84.06,84.06,0,0,1-19-5.44c-4.11-1.68-8.19-3.44-12.28-5.14a103.28,103.28,0,0,0-33.65-8.17,87.24,87.24,0,0,0-12.73,0,54.57,54.57,0,0,0-31.67,13.15,24.11,24.11,0,0,0-6.47,8.15c-.89,2-1.69,4-2.53,5.94-.1.24-.21.48-.32.75-1.33-.45-2.59-.72-3.47-2a14.46,14.46,0,0,0-2.86-2.58,15,15,0,0,0-1.46-.93c0-.11,0-.17.06-.21.63-1,1.28-1.93,1.88-2.92,1.2-2,1.4-1.44-.66-2.73a72.09,72.09,0,0,0-12.52-5.94,82.42,82.42,0,0,0-13.61-4,1.35,1.35,0,0,0-1.56.68c-1.16,2-2.29,4-3.43,6-.14.24-.27.49-.41.76a3.56,3.56,0,0,0,.41.26l1.22.43c8.8,3.18,17.68,6.18,25.84,10.87.45.26.64.17.88-.24.47-.83,1-1.63,1.53-2.48a12.82,12.82,0,0,1,4.69,3.81l-5.14.78a1.55,1.55,0,0,1-.48,0l-6.86-.65C219.8,406.74,219.86,406,219.83,405.19Zm-18-16.49c.7-1.2.71-1.25,2.1-.92A91.45,91.45,0,0,1,229.57,398c.16.1.3.22.5.36-1.53,2.45-3,4.88-4.57,7.32-8.57-4.78-17.86-7.81-27-11.26Zm30.44,21.9c.46.23.93.42,1.4.62a4.64,4.64,0,0,1,3.07,5.1c-.33,3.56-2.35,5.79-5.64,6.93-1.09.37-2.25.52-3.36.83a14,14,0,0,0-2.65.91,3.66,3.66,0,0,0-2.2,4c-.47-.51-.9-.9-1.25-1.36-1.74-2.26-3.11-4.71-3-7.65a11.05,11.05,0,0,1,.9-4c2-4.35,5.31-7.15,10.2-7.82a3.43,3.43,0,0,1,.56,0c.16,0,.32,0,.57,0A2.13,2.13,0,0,0,232.28,410.6Zm32-27a61.38,61.38,0,0,1,16-2.72,2.52,2.52,0,0,1,2.08.8,8.64,8.64,0,0,1,2.37,4.13c.54,2.24,1.08,4.5,2.69,6.4-2.14.14-4.15.22-6.14.42a51.84,51.84,0,0,0-5.59.78,3.11,3.11,0,0,1-3.14-1.1c-.79-.84-1.5-1.76-2.25-2.64-.58-.68-1.13-1.37-1.76-2-1.5-1.51-2.93-3.1-5.1-3.79Zm1.55,12.45a9.56,9.56,0,0,0-1.71.73,3.41,3.41,0,0,1-3.6-.14c-.75-.43-1.42-1-2.13-1.46a22.93,22.93,0,0,0-9.2-3.84.64.64,0,0,1,.14-.22c3.83-2.56,7.65-5.13,12.09-6.57a3.33,3.33,0,0,1,2.35.08c2.41.92,4,2.87,5.65,4.69.87,1,1.63,2,2.48,3,.45.52,1,1,1.42,1.38C270.8,394.47,268.29,395.26,265.79,396.07Zm-37.06,58.56c.34-1.66.56-3.26,1-4.8,1.69-6,3.46-12,5.19-18.05a1.91,1.91,0,0,1,1.12-1.34,10,10,0,0,0,3.75-3.11c.16-.2.49-.27.74-.4a1.93,1.93,0,0,1,.19.74c-1.08,5.82-2.12,11.64-3.3,17.44-.68,3.37-1.6,6.69-2.41,10-.06.26-.15.51-.26.87Zm66.34-62.16c-2.1-.11-4.19-.1-6.29-.21a1.45,1.45,0,0,1-1-.51,17.92,17.92,0,0,1-1.6-2.95,17.4,17.4,0,0,1-.91-3.09,7.9,7.9,0,0,0-2.43-4.27c-.12-.11-.22-.23-.46-.49.75,0,1.35-.05,1.93,0,4.1.3,8.2.61,12.3.9a2.29,2.29,0,0,1,2.06,1.32,14.65,14.65,0,0,1,1.13,2.9c.37,1.51.55,3.07.82,4.6.14.76.3,1.51.46,2.29C299,392.79,297.05,392.58,295.07,392.47Zm-69.15,38.15a4,4,0,0,1-1.34-.54,2.27,2.27,0,0,1-.5-3.65,7.27,7.27,0,0,1,4.11-2.05,25.89,25.89,0,0,0,4.17-1.21,7.89,7.89,0,0,0,4.91-8.18,4.86,4.86,0,0,0-3.07-4.12c-.66-.29-1.33-.59-2-.94a1.58,1.58,0,0,1-.66-.67,1.43,1.43,0,0,1-.08-.91c0-.12.52-.16.78-.12a11.2,11.2,0,0,1,8.88,15.09,11.35,11.35,0,0,1-7.23,7.5,8.94,8.94,0,0,1-5.46.14C227.62,430.85,226.76,430.78,225.92,430.62Zm19.39-36.39c.59-.55,1.3-1,1.85-1.56A2.75,2.75,0,0,1,250,392a24.44,24.44,0,0,1,8.72,4.07c1,.69,2.05,1.22,3.08,1.82-.07.05-.32.18-.55.33-2.26,1.49-4.55,3-6.77,4.52a1.8,1.8,0,0,1-1.78.32c-1.19-.42-2.4-.81-3.59-1.23a15.63,15.63,0,0,0-9.54-.56A27.23,27.23,0,0,1,245.31,394.23Zm-26,10.43c-.1,1.85-.18,3.56-.32,5.27,0,.15-.46.38-.72.39-3,.15-6.07.28-9.11.37-4.17.12-8.34.19-12.5.28-1.27,0-1.41-.07-1.39-1.35,0-1.45.14-2.89.23-4.44Zm90.3-9.93c-2.36-.53-4.73-1-7.11-1.48-.54-.1-.9-.3-1-.85-.15-.71-.3-1.42-.43-2.13-.29-1.59-.49-3.19-.89-4.75a27.08,27.08,0,0,0-1.3-3.27c1.35.25,2.77.45,4.16.78,2.62.61,5.21,1.32,7.83,1.93a2.14,2.14,0,0,1,1.83,2c.15,1.28.24,2.56.29,3.85.08,1.6.09,3.2.14,4.87C312,395.37,310.84,395,309.61,394.73Zm-86.8,58c.55-2.1.94-4.14,1.62-6.08,1.66-4.74,3.45-9.43,5.21-14.14a1,1,0,0,1,.58-.54c1.39-.23,2.8-.41,4.22-.61a159.74,159.74,0,0,0-6.12,23.19Zm14.75-6.19c1-4.54,1.86-9.12,2.77-13.68.35-1.74.65-3.49,1-5.23,0-.2.29-.35.44-.52.14.18.39.34.42.53,1,6.13,1.54,12.27.51,18.46a33.75,33.75,0,0,1-2.82,9.31,1.19,1.19,0,0,1-1.34.83c-1.06-.1-2.14-.09-3.32-.14C236,452.81,236.88,449.69,237.56,446.54ZM316.82,387c2,.75,4.06,1.58,6.12,2.29a2,2,0,0,1,1.44,1.75c.13,1.3.17,2.62.21,3.94s0,2.89.05,4.39a4.6,4.6,0,0,1-.51-.14c-3.14-1-6.29-2.05-9.42-3.11a1.33,1.33,0,0,1-.79-.75,17.33,17.33,0,0,1-.43-3.57,18.57,18.57,0,0,0-.65-6.22C314.25,386.08,315.55,386.52,316.82,387Zm14,14.61c-1.4-.48-2.78-1-4.19-1.47a2,2,0,0,1-1.46-2c0-1.56,0-3.12,0-4.68,0-1.09-.16-2.18-.26-3.33a4.87,4.87,0,0,1,.55.18c3.39,1.42,6.8,2.83,10.18,4.3a1.67,1.67,0,0,1,.86,1,22.18,22.18,0,0,1,.39,3.35c.08,1.5.06,3,.09,4.62C334.91,403,332.84,402.3,330.78,401.61Zm-91.76.8a2.25,2.25,0,0,1,1.39-.82,11.14,11.14,0,0,1,5.44-.1c2.44.62,4.83,1.42,7.4,2.18-.44.4-.74.66-1,.94-1.34,1.44-2.66,2.89-4,4.3a1.58,1.58,0,0,1-1,.56,19.19,19.19,0,0,1-3-.18c-1.41-.19-2.8-.56-4.22-.71-1.16-.11-2.34,0-3.73,0C237.18,406.51,238,404.42,239,402.41ZM369.75,409c-2.77-.11-5.54-.27-8.31-.34a2.16,2.16,0,0,1-2.16-1.59c-.49-1.34-.91-2.7-1.37-4.05-.3-.91-.61-1.82-.93-2.77h.44c3,.27,6.05.6,9.08.8a2.64,2.64,0,0,1,2.55,2c.28.81.49,1.65.71,2.48a6.36,6.36,0,0,0,1.71,3.51C370.85,409.05,370.3,409.06,369.75,409ZM221.87,452.21c-2.48-1.27-2.72-1.87-2.21-4.62a54.93,54.93,0,0,1,5.39-15.29c.66-1.27.35-1.06,1.77-.83.77.13,1.53.29,2.44.47a109.21,109.21,0,0,0-6.8,20.54ZM353.2,407.59c-1.06-.16-2.1-.47-3.16-.63a2.06,2.06,0,0,1-1.76-1.36,24,24,0,0,1-1-3.23c-.28-1.33-.44-2.69-.66-4,1.7.35,3.48.74,5.26,1.09a27.36,27.36,0,0,0,2.94.5,2.29,2.29,0,0,1,2.12,1.79c.44,1.41.87,2.83,1.34,4.23.27.81.62,1.59.94,2.43C357.23,408.12,355.21,407.88,353.2,407.59Zm-9.68-10.21c2.88.85,2.72.83,3.11,3.7a22.55,22.55,0,0,0,.46,2.71c.22.87.58,1.72.92,2.7-1.1-.26-2.18-.5-3.24-.77-2-.52-4-1.07-6-1.57a1.47,1.47,0,0,1-1.27-1.35c-.07-.56-.13-1.13-.15-1.69-.08-1.95-.14-3.9-.2-5.86C339.19,395.94,341.33,396.73,343.52,397.38Zm30.89,11.7c-2.52,0-3.49-.81-4.09-3.26-.39-1.55-.62-3.17-1.8-4.56,1.57,0,3,.05,4.44.05s2.9,0,4.35-.06a1.72,1.72,0,0,1,1.78,1,16.34,16.34,0,0,1,.89,2.16c.48,1.44.91,2.89,1.41,4.49C379.12,408.94,376.77,409,374.41,409.08Zm12-8.34c1.8-.12,2,0,2.8,1.61.3.63.52,1.3.79,1.94.48,1.1,1,2.19,1.48,3.35-.61.1-1.32.24-2,.33-2.08.25-4.16.47-6.24.73a1.21,1.21,0,0,1-1.44-.75,16.63,16.63,0,0,1-.93-2.39,10.72,10.72,0,0,0-1.81-4.32ZM242.64,449.15c.92-2.88.9-5.89,1.22-8.86.45-4.21-.58-8.29-1-12.43,0-.37-.31-.83.32-1s.74.38.83.76a40.81,40.81,0,0,1,1.68,9.5c0,2.45.29,4.89.28,7.34a18.88,18.88,0,0,1-3.26,10.65,3,3,0,0,1-2.56,1.06C241,453.81,241.9,451.5,242.64,449.15Zm151.79-49.46c2.33-.41,2.38-.41,3.61,1.6.25.41.46.85.73,1.25.65,1,1.32,1.9,2,2.89-1.48.4-3.13.85-4.79,1.27-.94.24-1.89.4-2.83.63a1.22,1.22,0,0,1-1.45-.58,9.6,9.6,0,0,1-.78-1.4c-.69-1.59-1.34-3.2-2-4.79C390.68,400.28,392.56,400,394.43,399.69Zm9.12-2.33a2.44,2.44,0,0,1,2.48.81c.54.56,1,1.16,1.56,1.75s1.21,1.33,1.91,2.12c-2.38.94-4.79,2-7.28,2.82-1,.32-1.73-.45-2.24-1.25s-1-1.69-1.47-2.51c-.39-.64-.84-1.24-1.32-1.94C399.32,398.55,401.43,397.94,403.55,397.36Zm6.41-2.29c1.58-.51,2.74.32,3.77,1.39.7.73,1.41,1.44,2.19,2.24-1.72.87-3.48,1.84-5.31,2.65-.72.31-1.38-.23-1.88-.8s-1-1.25-1.58-1.82-1.36-1.27-2-1.9C406.68,396.25,408.31,395.6,410,395.07ZM236.78,409.12a8.17,8.17,0,0,1,1.56-.14c1.52.16,3,.38,4.55.58l4.4.56a9.6,9.6,0,0,0-.7,1.06c-.8,1.54-1.64,3.07-2.32,4.67-.53,1.23-.44,1.27-1.93,1.38C241.81,413.71,239.77,411.23,236.78,409.12ZM417.14,397.9a2.07,2.07,0,0,1-1.55-.27,4,4,0,0,1-1.16-1.1,5.67,5.67,0,0,0-3-2c1.41-.84,2.72-1.73,4.13-2.42a2.06,2.06,0,0,1,1.62.28c.91.56,1.7,1.31,2.57,1.94.49.37,1,.66,1.69,1.08C420,396.23,418.62,397.15,417.14,397.9Zm2.49-8.56a2.34,2.34,0,0,1,2.32,0,20.25,20.25,0,0,1,2,1.22l2.16,1.27a46.06,46.06,0,0,1-3.76,2.74,2.12,2.12,0,0,1-1.71-.26,17.79,17.79,0,0,1-2.05-1.55c-.62-.46-1.27-.88-2-1.38C417.61,390.66,418.6,390,419.63,389.34Zm5.94-3a2.29,2.29,0,0,1,2.38,1,2,2,0,0,1-.25,2.33c-1.1,1.68-1.8,1.75-3.44.59-1-.7-2.09-1.24-3.17-1.86A13.67,13.67,0,0,1,425.57,386.3ZM242,422.73c.27-.6,1.94-.26,2.37.45a2.16,2.16,0,0,1-.92,3,3.84,3.84,0,0,1-2.92.23C241.07,425.14,241.51,423.92,242,422.73Zm1.77-1.45a6.44,6.44,0,0,1,4.55-3.14,2.45,2.45,0,0,1,.8.19,2.4,2.4,0,0,1-.28.72,7.33,7.33,0,0,1-5.24,2.87A2.81,2.81,0,0,1,243.81,421.28Zm3.64-.1a3.3,3.3,0,0,1,2.77,1.08.82.82,0,0,1-.26.71c-.87.67-3.94.67-4.82,0a3.11,3.11,0,0,1-.48-.56C245.61,422,246.52,421.58,247.45,421.18Zm1-.53c.45-.8.91-1.62,1.4-2.41.08-.13.33-.15.51-.21a4.79,4.79,0,0,1,2.81-.1C252.65,419.48,249.75,421,248.46,420.65Zm1.68-3.1a.91.91,0,0,1-.58.2c-.7-.06-1.39-.17-2-.25a7.4,7.4,0,0,1,4.75-2.92A6.89,6.89,0,0,1,250.14,417.55Zm5.63-2.8a5.6,5.6,0,0,1-4.54,2.55C252.13,415.32,253.76,414.76,255.77,414.75Zm-12.13,2.85-.56,4.27-.71,0c0-1.39.1-2.71.15-4.1Z" transform="translate(-172.49 -204.7)"/><path class="cls-4" d="M226,426.81a1.29,1.29,0,0,0,.47,2.26,3.78,3.78,0,0,0,4-.95,2,2,0,0,0,.41-1.51c-.15-.44-.79-.72-1-.92C228.23,425.64,227,425.83,226,426.81Zm1,1.84c-.32-.21-.8-.42-.86-.71a1.27,1.27,0,0,1,.48-1,3.84,3.84,0,0,1,3.3-.63c.67.15.83.7.41,1.31a3,3,0,0,1-2.79,1.15A1.64,1.64,0,0,1,227,428.65Z" transform="translate(-172.49 -204.7)"/><path class="cls-3" d="M189.8,469.51c-1.69,5.85-.63,12.42,5.28,15.9,4.58,2.69,9.43,3.37,14.45,1.14.37-.17.71-.41,1.13-.65a2.66,2.66,0,0,1,0-3.57c.31-.45.63-.89,1-1.33a5.49,5.49,0,0,0,0-7c-2.51-3.44-5.93-4.52-10-3.67-1.37.29-2.67.9-4,1.23a18.28,18.28,0,0,1-4.13.63A3.66,3.66,0,0,1,189.8,469.51Z" transform="translate(-172.49 -204.7)"/><path class="cls-3" d="M278.09,467.8c-4.28,1.93-8.47,3.93-12.75,5.72a3.87,3.87,0,0,0-2.44,2.91c-.28,1.18-.4,2.4-.64,3.6-.48,2.32-.87,4.66-1.54,6.93a21.48,21.48,0,0,1-1.9,3.73,4.75,4.75,0,0,0,.51-.06,73.16,73.16,0,0,0,18.59-7.21,2.81,2.81,0,0,0,1.48-2,10.16,10.16,0,0,0-.09-5.68C278.49,473.13,277.65,470.49,278.09,467.8Z" transform="translate(-172.49 -204.7)"/><path class="cls-3" d="M239.48,492c5.89.29,11.62.61,17.26-.84a2.89,2.89,0,0,0,1.61-1.12,14.51,14.51,0,0,0,2-3.89c.75-2.91,1.19-5.89,1.78-8.84.19-.91.45-1.8.7-2.78l-.8.23a49.21,49.21,0,0,1-11,2.46,3.87,3.87,0,0,0-2.89,2,9.48,9.48,0,0,0-1,1.88,29.47,29.47,0,0,1-5.47,8.77C241,490.59,240.3,491.2,239.48,492Z" transform="translate(-172.49 -204.7)"/><path class="cls-3" d="M185.23,434.62l-5.32,5.12c1.83,1.95,3.48,3.91,5.34,5.65,4.94,4.66,10,9.23,14.94,13.84a2.5,2.5,0,0,0,2.15.72,11.88,11.88,0,0,1,5.73.93c.25.1.6-.06.91-.1-.08-.27-.07-.61-.24-.8-5.07-5.69-10.12-11.41-15.26-17-2.4-2.62-5-5.08-7.47-7.61C185.79,435.11,185.55,434.91,185.23,434.62Z" transform="translate(-172.49 -204.7)"/><path class="cls-3" d="M279.87,482.21c1.36-.84,2.58-1.52,3.71-2.32,3.43-2.41,6.81-4.89,10.24-7.3a2.9,2.9,0,0,0,1.34-2.79,17.94,17.94,0,0,0-.64-3.57c-.56-1.76-1.32-3.46-2-5.2-.32-.83-.6-1.67-1-2.7-.76.61-1.44,1.22-2.2,1.73-3.29,2.22-6.61,4.39-9.89,6.62a1.7,1.7,0,0,0-.72,1.1,23.21,23.21,0,0,0,.16,4,23,23,0,0,0,1,3.81,9.44,9.44,0,0,1,.13,5.76C280,481.56,280,481.77,279.87,482.21Z" transform="translate(-172.49 -204.7)"/><path class="cls-4" d="M211.3,485.49a12.46,12.46,0,0,0,4.17-4.91c3.83-7.93-.37-15.37-7.07-18.75-3.9-2-10.48-1.84-14.28,2.13-.7.74-1.58,1.31-2.33,2a5,5,0,0,0-.95,1.19,2.75,2.75,0,0,0,1.7,4.26,8.73,8.73,0,0,0,5.36-.45,31.22,31.22,0,0,1,5-1.32,9.41,9.41,0,0,1,10,5.25,5.84,5.84,0,0,1-.59,6.26,18.47,18.47,0,0,0-1.5,2.33A1.47,1.47,0,0,0,211.3,485.49Zm-12.44-16.93c-1.61,1.07-3,1.66-4.62,1.28a1.54,1.54,0,0,1-.93-2.64,4.47,4.47,0,0,1,4.72-1.47,2.44,2.44,0,0,1,1.32,1.32C199.47,467.57,199,468.22,198.86,468.56Z" transform="translate(-172.49 -204.7)"/><path class="cls-3" d="M223.69,487.6a32.55,32.55,0,0,0,10.2,3.69c.94.19,1.93.2,2.85.45a3.24,3.24,0,0,0,3.29-1.05,29.17,29.17,0,0,0,6.42-9.5c.56-1.3,1.35-2.5,2-3.76-.11,0-.44,0-.76,0-3.24-.14-6.47-.24-9.7-.47a2.11,2.11,0,0,0-2,.76c-1,1.16-2,2.29-2.92,3.45A18.52,18.52,0,0,1,223.69,487.6Z" transform="translate(-172.49 -204.7)"/><path class="cls-3" d="M302.3,448.31c-1.24,1.26-2.56,2.7-4,4-1.74,1.66-3.53,3.27-5.34,4.84a1.39,1.39,0,0,0-.55,1.67c.28.78.57,1.56.86,2.34.7,1.89,1.5,3.75,2.07,5.68a26.28,26.28,0,0,1,.58,3.86c1.23-1.09,2.54-2.15,3.74-3.32,2.35-2.27,4.61-4.63,6.95-6.9a2.44,2.44,0,0,0,.64-2.89,44.64,44.64,0,0,0-2-4.06C304.36,451.81,303.33,450.1,302.3,448.31Z" transform="translate(-172.49 -204.7)"/><path class="cls-3" d="M179.56,440l-4.51,5.23c1.85,1.81,3.49,3.66,5.38,5.22,4.6,3.83,9.31,7.53,14,11.26a1.14,1.14,0,0,0,.91.21c1.57-.61,3.12-1.29,4.71-2A191.45,191.45,0,0,1,179.56,440Z" transform="translate(-172.49 -204.7)"/><path class="cls-3" d="M185.66,434.23c3.26,3.28,6.43,6.32,9.43,9.51,3.53,3.77,6.92,7.66,10.37,11.5,1.31,1.46,2.6,2.93,3.93,4.36.16.17.51.16.77.23,0-.25.18-.53.11-.73-2.83-7.31-6.36-14.22-11.58-20.15a36.09,36.09,0,0,0-8.1-7,1.09,1.09,0,0,0-1.38,0C188.08,432.69,186.92,433.42,185.66,434.23Z" transform="translate(-172.49 -204.7)"/><path class="cls-3" d="M308.2,458.75c1.25-1.5,2.38-2.84,3.48-4.21,1.52-1.9,3-3.86,4.54-5.72a2.44,2.44,0,0,0,.42-2.75,19.26,19.26,0,0,0-1.13-2.33c-1.21-2.1-2.46-4.17-3.74-6.33-.87,1-1.77,2.16-2.7,3.23-1.77,2-3.54,4.06-5.35,6.06-.42.47-.7.93-.42,1.53a33.3,33.3,0,0,0,2,4.21A20.94,20.94,0,0,1,308.2,458.75Z" transform="translate(-172.49 -204.7)"/><path class="cls-3" d="M321.73,425.56c-1.86,2.16-3.76,4.36-5.65,6.58-.91,1.07-1.76,2.2-2.7,3.25a2.37,2.37,0,0,0-.32,3c.75,1.33,1.6,2.62,2.35,4s1.52,2.88,2.3,4.36c.12-.15.33-.4.52-.67,2.55-3.46,5.08-6.93,7.64-10.37a1.57,1.57,0,0,0,.3-1.69c-.5-1.18-1-2.37-1.6-3.49C323.7,428.86,322.73,427.29,321.73,425.56Z" transform="translate(-172.49 -204.7)"/><path class="cls-3" d="M215.64,482c2.41,1.72,4.53,3.31,6.75,4.75a2.63,2.63,0,0,0,1.92.05,12.71,12.71,0,0,0,5.41-3c2.22-2.19,4.27-4.56,6.43-6.89l-6.58-1.79a4.18,4.18,0,0,1-1-.36c-1.37-.81-2.53-.27-3.59.59s-2,1.72-3,2.6A17.08,17.08,0,0,1,215.64,482Z" transform="translate(-172.49 -204.7)"/><path class="cls-3" d="M353.59,398.85l-7.65,5c-.75.49-1.44,1.07-2.22,1.52a2.54,2.54,0,0,0-1.25,3c.32,1.6.7,3.19,1,4.79.26,1.15.51,2.3.77,3.49a2.72,2.72,0,0,0,.42-.24c2.93-2.13,5.82-4.32,8.8-6.38a3.17,3.17,0,0,0,1.4-3.66,26.43,26.43,0,0,0-.84-3.05,6.39,6.39,0,0,1-.27-4.33Z" transform="translate(-172.49 -204.7)"/><path class="cls-3" d="M194.32,462.63c-3.45-2.71-6.91-5.24-10.17-8s-6.25-5.76-9.5-8.77a30.48,30.48,0,0,0-1.38,3.1c-.36,1.06.3,1.92.95,2.69a65,65,0,0,0,13.64,11.88c.88.58,1.77,1.17,2.69,1.67a1.1,1.1,0,0,0,1-.1C192.47,464.32,193.36,463.49,194.32,462.63Z" transform="translate(-172.49 -204.7)"/><path class="cls-3" d="M341.61,406.75c-2.7,2.33-5.22,4.64-7.9,6.76a3.89,3.89,0,0,0-1.31,4.69c.33,1.07.72,2.12,1.11,3.17.46,1.22.95,2.42,1.43,3.64,1.53-1.43,3.11-2.91,4.72-4.37a31.09,31.09,0,0,1,2.62-2.25,2.78,2.78,0,0,0,1.11-3.28c-.41-1.65-.81-3.3-1.17-5C342,409.13,341.85,408.09,341.61,406.75Z" transform="translate(-172.49 -204.7)"/><path class="cls-3" d="M327.11,434c1.17-1.39,2.42-2.91,3.71-4.41.85-1,1.7-2,2.62-2.94a2.29,2.29,0,0,0,.53-2.72c-.53-1.27-1.15-2.52-1.59-3.82s-.74-2.76-1.12-4.23c-1.28,1.26-2.6,2.54-3.89,3.84s-2.71,2.83-4.1,4.2a1.71,1.71,0,0,0-.46,2.08c.28.65.58,1.29.92,1.91C324.84,430,326,432,327.11,434Z" transform="translate(-172.49 -204.7)"/><path class="cls-3" d="M355.58,408.48c3.08-1.82,6.14-3.57,9.12-5.43a2.34,2.34,0,0,0,.95-1.62,10.48,10.48,0,0,0-.34-2.93c-.38-1.8-.86-3.58-1.32-5.46-.53.26-1.23.59-1.91,1-2,1.09-3.86,2.29-5.87,3.27a4,4,0,0,0-2,4.56c.21.8.47,1.59.69,2.4a20.13,20.13,0,0,1,.54,2.13A18.3,18.3,0,0,1,355.58,408.48Z" transform="translate(-172.49 -204.7)"/><path class="cls-3" d="M366.22,402.22l4.29-2.22c1.37-.7,2.72-1.44,4.12-2.07a2,2,0,0,0,1.36-2.27c-.11-1.05-.26-2.09-.4-3.14-.18-1.45-.38-2.9-.58-4.43a6,6,0,0,0-.7.23c-2.78,1.22-5.55,2.47-8.34,3.68a1.57,1.57,0,0,0-1.07,1.81,15.56,15.56,0,0,0,.39,2.46C365.85,398.17,366.52,400,366.22,402.22Z" transform="translate(-172.49 -204.7)"/><path class="cls-3" d="M190.71,431.1c2.3,1.91,4.6,3.75,6.8,5.69,2.7,2.38,4.53,5.47,6.67,8.3,3,4,4.49,8.84,6.65,13.3.19.39.2,1,.94.8s.51-.83.38-1.28A46.17,46.17,0,0,0,208,447.17c-1.48-2.51-2.7-5.18-4.22-7.67a22.36,22.36,0,0,0-9.85-8.88C192.7,430,191.69,430.64,190.71,431.1Z" transform="translate(-172.49 -204.7)"/><path class="cls-3" d="M376.75,396.8c2.56-1,5.26-2,7.89-3.14a2.31,2.31,0,0,0,.91-1.65c.13-1.26,0-2.56.06-3.83s.2-2.31.31-3.51a4,4,0,0,0-.55.09c-2.78.84-5.56,1.7-8.35,2.53a1.52,1.52,0,0,0-1.21,1.62c0,.86.1,1.72.2,2.58C376.24,393.25,376.5,395,376.75,396.8Z" transform="translate(-172.49 -204.7)"/><path class="cls-3" d="M386.05,393.18l7.15-1.85a3.3,3.3,0,0,0,2.58-2.79c.17-.94.33-1.89.51-2.84s.39-1.85.6-2.87c-1.08.13-2.28.25-3.47.42-1.55.22-3.11.47-4.65.75a2.77,2.77,0,0,0-2.58,3.11c0,1.34.05,2.69,0,4C386.22,391.82,386.12,392.5,386.05,393.18Z" transform="translate(-172.49 -204.7)"/><path class="cls-3" d="M212.44,456.36c.16.91.32,1.78.49,2.71a3.33,3.33,0,0,1,2.68,1.84,2.45,2.45,0,0,1,0,2.64c-.12.2-.21.59-.1.73,1.07,1.42,2.19,2.81,3.33,4.25a20.61,20.61,0,0,0,2.28-1.61,5.51,5.51,0,0,0,.52-7.64,7.73,7.73,0,0,0-6.41-2.92Z" transform="translate(-172.49 -204.7)"/><path class="cls-3" d="M219.55,468.83a1.56,1.56,0,0,0,.2.31c1.44,1.33,1.55,1.37,2.83-.12a9.62,9.62,0,0,0-1.05-13.74,12.27,12.27,0,0,0-6.14-2.76,6.29,6.29,0,0,0-2.28.17c-1.71.37-2.09,1.34-1,2.74.27.35,1,.43,1.56.48.73.06,1.48-.08,2.21,0a7.74,7.74,0,0,1,7.28,5,6.05,6.05,0,0,1-2.55,7.1A11.08,11.08,0,0,0,219.55,468.83Z" transform="translate(-172.49 -204.7)"/><path class="cls-3" d="M405.49,382.2c-2.23.15-4.52.29-6.81.47-.82.07-1.47.9-1.66,2-.14.78-.2,1.59-.38,2.36-.31,1.26-.69,2.49-1,3.7,1.95-.37,4-.69,6.08-1.19s2.57-2,2.95-3.77C404.9,384.62,405.18,383.49,405.49,382.2Z" transform="translate(-172.49 -204.7)"/><path class="cls-3" d="M226.08,473.88c-1.5-.82-3-1.55-4.35-2.39a18.26,18.26,0,0,1-2.29-1.75c-1.14-.95-1.19-1-2.65-.1,1.6,3.88,1,7.69-.7,11.58C220.27,479.74,222.48,475.91,226.08,473.88Z" transform="translate(-172.49 -204.7)"/><path class="cls-3" d="M403.82,389.24c1.63,0,3.51.11,5.38-.05.54,0,1.19-.73,1.48-1.29.59-1.13.94-2.38,1.43-3.56.28-.67.65-1.3,1.05-2.07l-3.63-.1c-3.44-.11-3.62.19-4.35,3.64A20.08,20.08,0,0,1,403.82,389.24Z" transform="translate(-172.49 -204.7)"/><path class="cls-3" d="M420.08,383c-1.66-.19-3.45-.47-5.25-.58a2,2,0,0,0-1.88,1.42c-.38.91-.69,1.85-1.08,2.77s-.75,1.68-1.21,2.7a46,46,0,0,0,5,0,3.33,3.33,0,0,0,1.8-1.31,10.54,10.54,0,0,0,1.15-2.09Z" transform="translate(-172.49 -204.7)"/><path class="cls-3" d="M417,389.74c1.86-.21,3.73-.36,5.58-.65a2.71,2.71,0,0,0,2-1.86,1.87,1.87,0,0,0-.64-2.4,13.56,13.56,0,0,0-2.58-1.22,1,1,0,0,0-.85.25,5.68,5.68,0,0,0-1.17,1.6,8.48,8.48,0,0,1-2.53,3.9Z" transform="translate(-172.49 -204.7)"/><path class="cls-3" d="M209.35,461.33c1.26,1,2.44,1.88,3.65,2.76a.78.78,0,0,0,.68.07c.75-.39,1.51-.85,1.56-1.8a2.42,2.42,0,0,0-1.36-2.27c-1.23-.71-2.58-.19-3.69.49A5.87,5.87,0,0,0,209.35,461.33Z" transform="translate(-172.49 -204.7)"/><path class="cls-3" d="M216.64,469l1.23-.54-3.18-4-.73.46Z" transform="translate(-172.49 -204.7)"/><path class="cls-3" d="M194.08,467.19c-.11.32-.59,1-.44,1.48.21.74,1.11.88,1.8.67a11.21,11.21,0,0,0,2.86-1.24c.83-.54.65-1.36-.28-1.76C196.69,465.78,195.52,466.27,194.08,467.19Z" transform="translate(-172.49 -204.7)"/><path class="cls-4" d="M221.79,470.62c2.89-2.17,3.74-5.21,3.87-8.57a8.69,8.69,0,0,0-1.91-5.34c-2.38-3.44-8.13-6.29-12.25-4.06-1.88-3.67-3.73-7.36-5.65-11-2.57-4.88-6-8.88-11.09-11.38a3.63,3.63,0,0,0-3.66-.06,46.08,46.08,0,0,0-6.29,4,63.2,63.2,0,0,0-9.75,10.07,20.56,20.56,0,0,0-1.85,2.92c-1.1,2-1,3.13.55,4.91A65,65,0,0,0,187.29,464c1,.7,2.1,1.35,3.2,2.06-2.64,4.22-2.71,8.75-1.37,13.32a11.88,11.88,0,0,0,5.32,6.51,16.55,16.55,0,0,0,11.21,2.56,13.53,13.53,0,0,0,9.65-6l.85.61c2.07,1.51,4.11,3.06,6.21,4.52A28.88,28.88,0,0,0,234,492c14.12,2.47,27.56.26,40.41-6a100.73,100.73,0,0,0,13-7.83,122.75,122.75,0,0,0,29.37-29c3.14-4.25,6.23-8.54,9.41-12.77a99.33,99.33,0,0,1,16.12-17.23,147,147,0,0,1,23-15.68,141.65,141.65,0,0,1,16.65-8.15,86.34,86.34,0,0,1,20.94-5.26c3.91-.47,7.93,0,11.9,0,2.12,0,4.24,0,6.34-.1a4.4,4.4,0,0,0,3.5-1.53c1.43-1.85,1-3.86-1.13-4.83a14.23,14.23,0,0,0-3-1,68.61,68.61,0,0,0-18.87-.76c-3.86.29-7.71.77-11.54,1.28a65.84,65.84,0,0,0-12.71,3.31c-9.48,3.3-18.19,8.1-26.66,13.4a116.93,116.93,0,0,0-19,14.61,231.56,231.56,0,0,0-20.21,22.15,137.24,137.24,0,0,1-16.55,17.94c-11.43,10-24.15,17.78-39.14,21a47.78,47.78,0,0,1-31.1-3.38c-.81-.38-1.58-.85-2.36-1.3A4.09,4.09,0,0,1,221.79,470.62Zm-32-1.11a3.66,3.66,0,0,0,3.68,2.67,18.28,18.28,0,0,0,4.13-.63c1.37-.33,2.67-.94,4-1.23,4.06-.85,7.48.23,10,3.67a5.49,5.49,0,0,1,0,7c-.32.44-.64.88-1,1.33a2.66,2.66,0,0,0,0,3.57c-.42.24-.76.48-1.13.65-5,2.23-9.87,1.55-14.45-1.14C189.17,481.93,188.11,475.36,189.8,469.51Zm88.29-1.71c-.44,2.69.4,5.33,1.22,8a10.16,10.16,0,0,1,.09,5.68,2.81,2.81,0,0,1-1.48,2,73.16,73.16,0,0,1-18.59,7.21,4.75,4.75,0,0,1-.51.06,21.48,21.48,0,0,0,1.9-3.73c.67-2.27,1.06-4.61,1.54-6.93.24-1.2.36-2.42.64-3.6a3.87,3.87,0,0,1,2.44-2.91C269.62,471.73,273.81,469.73,278.09,467.8ZM239.48,492c.82-.8,1.56-1.41,2.19-2.12a29.47,29.47,0,0,0,5.47-8.77,9.48,9.48,0,0,1,1-1.88,3.87,3.87,0,0,1,2.89-2,49.21,49.21,0,0,0,11-2.46l.8-.23c-.25,1-.51,1.87-.7,2.78-.59,2.95-1,5.93-1.78,8.84a14.51,14.51,0,0,1-2,3.89,2.89,2.89,0,0,1-1.61,1.12C251.1,492.61,245.37,492.29,239.48,492Zm-54.25-57.38c.32.29.56.49.78.71,2.5,2.53,5.07,5,7.47,7.61,5.14,5.63,10.19,11.35,15.26,17,.17.19.16.53.24.8-.31,0-.66.2-.91.1a11.88,11.88,0,0,0-5.73-.93,2.5,2.5,0,0,1-2.15-.72c-5-4.61-10-9.18-14.94-13.84-1.86-1.74-3.51-3.7-5.34-5.65Zm94.64,47.59c.09-.44.12-.65.17-.86a9.44,9.44,0,0,0-.13-5.76,23,23,0,0,1-1-3.81,23.21,23.21,0,0,1-.16-4,1.7,1.7,0,0,1,.72-1.1c3.28-2.23,6.6-4.4,9.89-6.62.76-.51,1.44-1.12,2.2-1.73.37,1,.65,1.87,1,2.7.66,1.74,1.42,3.44,2,5.2a17.94,17.94,0,0,1,.64,3.57,2.9,2.9,0,0,1-1.34,2.79c-3.43,2.41-6.81,4.89-10.24,7.3C282.45,480.69,281.23,481.37,279.87,482.21Zm-68.57,3.28a1.47,1.47,0,0,1-.49-2,18.47,18.47,0,0,1,1.5-2.33,5.84,5.84,0,0,0,.59-6.26,9.41,9.41,0,0,0-10-5.25,31.22,31.22,0,0,0-5,1.32,8.73,8.73,0,0,1-5.36.45,2.75,2.75,0,0,1-1.7-4.26,5,5,0,0,1,.95-1.19c.75-.69,1.63-1.26,2.33-2,3.8-4,10.38-4.09,14.28-2.13,6.7,3.38,10.9,10.82,7.07,18.75A12.46,12.46,0,0,1,211.3,485.49Zm12.39,2.11a18.52,18.52,0,0,0,9.41-6.42c1-1.16,2-2.29,2.92-3.45a2.11,2.11,0,0,1,2-.76c3.23.23,6.46.33,9.7.47.32,0,.65,0,.76,0-.69,1.26-1.48,2.46-2,3.76a29.17,29.17,0,0,1-6.42,9.5,3.24,3.24,0,0,1-3.29,1.05c-.92-.25-1.91-.26-2.85-.45A32.55,32.55,0,0,1,223.69,487.6Zm78.61-39.29c1,1.79,2.06,3.5,3,5.26a44.64,44.64,0,0,1,2,4.06,2.44,2.44,0,0,1-.64,2.89c-2.34,2.27-4.6,4.63-6.95,6.9-1.2,1.17-2.51,2.23-3.74,3.32a26.28,26.28,0,0,0-.58-3.86c-.57-1.93-1.37-3.79-2.07-5.68-.29-.78-.58-1.56-.86-2.34a1.39,1.39,0,0,1,.55-1.67c1.81-1.57,3.6-3.18,5.34-4.84C299.74,451,301.06,449.57,302.3,448.31ZM179.56,440A191.45,191.45,0,0,0,200,460c-1.59.67-3.14,1.35-4.71,2a1.14,1.14,0,0,1-.91-.21c-4.68-3.73-9.39-7.43-14-11.26-1.89-1.56-3.53-3.41-5.38-5.22Zm6.1-5.81c1.26-.81,2.42-1.54,3.55-2.31a1.09,1.09,0,0,1,1.38,0,36.09,36.09,0,0,1,8.1,7c5.22,5.93,8.75,12.84,11.58,20.15.07.2-.07.48-.11.73-.26-.07-.61-.06-.77-.23-1.33-1.43-2.62-2.9-3.93-4.36-3.45-3.84-6.84-7.73-10.37-11.5C192.09,440.55,188.92,437.51,185.66,434.23ZM308.2,458.75a20.94,20.94,0,0,0-2.87-6.31,33.3,33.3,0,0,1-2-4.21c-.28-.6,0-1.06.42-1.53,1.81-2,3.58-4,5.35-6.06.93-1.07,1.83-2.19,2.7-3.23,1.28,2.16,2.53,4.23,3.74,6.33a19.26,19.26,0,0,1,1.13,2.33,2.44,2.44,0,0,1-.42,2.75c-1.57,1.86-3,3.82-4.54,5.72C310.58,455.91,309.45,457.25,308.2,458.75Zm13.53-33.19c1,1.73,2,3.3,2.84,4.93.61,1.12,1.1,2.31,1.6,3.49a1.57,1.57,0,0,1-.3,1.69c-2.56,3.44-5.09,6.91-7.64,10.37-.19.27-.4.52-.52.67-.78-1.48-1.5-2.94-2.3-4.36s-1.6-2.63-2.35-4a2.37,2.37,0,0,1,.32-3c.94-1.05,1.79-2.18,2.7-3.25C318,429.92,319.87,427.72,321.73,425.56ZM215.64,482a17.08,17.08,0,0,0,6.39-4.07c1-.88,1.93-1.78,3-2.6s2.22-1.4,3.59-.59a4.18,4.18,0,0,0,1,.36l6.58,1.79c-2.16,2.33-4.21,4.7-6.43,6.89a12.71,12.71,0,0,1-5.41,3,2.63,2.63,0,0,1-1.92-.05C220.17,485.3,218.05,483.71,215.64,482Zm138-83.14.21.14a6.39,6.39,0,0,0,.27,4.33,26.43,26.43,0,0,1,.84,3.05,3.17,3.17,0,0,1-1.4,3.66c-3,2.06-5.87,4.25-8.8,6.38a2.72,2.72,0,0,1-.42.24c-.26-1.19-.51-2.34-.77-3.49-.35-1.6-.73-3.19-1-4.79a2.54,2.54,0,0,1,1.25-3c.78-.45,1.47-1,2.22-1.52ZM194.32,462.63c-1,.86-1.85,1.69-2.79,2.45a1.1,1.1,0,0,1-1,.1c-.92-.5-1.81-1.09-2.69-1.67a65,65,0,0,1-13.64-11.88c-.65-.77-1.31-1.63-.95-2.69a30.48,30.48,0,0,1,1.38-3.1c3.25,3,6.27,6,9.5,8.77S190.87,459.92,194.32,462.63Zm147.29-55.88c.24,1.34.38,2.38.61,3.4.36,1.66.76,3.31,1.17,5a2.78,2.78,0,0,1-1.11,3.28,31.09,31.09,0,0,0-2.62,2.25c-1.61,1.46-3.19,2.94-4.72,4.37-.48-1.22-1-2.42-1.43-3.64-.39-1.05-.78-2.1-1.11-3.17a3.89,3.89,0,0,1,1.31-4.69C336.39,411.39,338.91,409.08,341.61,406.75ZM327.11,434c-1.14-2-2.27-4.06-3.38-6.09-.34-.62-.64-1.26-.92-1.91a1.71,1.71,0,0,1,.46-2.08c1.39-1.37,2.72-2.81,4.1-4.2s2.61-2.58,3.89-3.84c.38,1.47.67,2.88,1.12,4.23s1.06,2.55,1.59,3.82a2.29,2.29,0,0,1-.53,2.72c-.92.93-1.77,1.94-2.62,2.94C329.53,431.1,328.28,432.62,327.11,434Zm28.47-25.53a18.3,18.3,0,0,0-.1-2.11,20.13,20.13,0,0,0-.54-2.13c-.22-.81-.48-1.6-.69-2.4a4,4,0,0,1,2-4.56c2-1,3.91-2.18,5.87-3.27.68-.38,1.38-.71,1.91-1,.46,1.88.94,3.66,1.32,5.46a10.48,10.48,0,0,1,.34,2.93,2.34,2.34,0,0,1-.95,1.62C361.72,404.91,358.66,406.66,355.58,408.48Zm10.64-6.26c.3-2.18-.37-4.05-.93-6a15.56,15.56,0,0,1-.39-2.46A1.57,1.57,0,0,1,366,392c2.79-1.21,5.56-2.46,8.34-3.68a6,6,0,0,1,.7-.23c.2,1.53.4,3,.58,4.43.14,1.05.29,2.09.4,3.14a2,2,0,0,1-1.36,2.27c-1.4.63-2.75,1.37-4.12,2.07ZM190.71,431.1c1-.46,2-1.07,3.26-.48a22.36,22.36,0,0,1,9.85,8.88c1.52,2.49,2.74,5.16,4.22,7.67a46.17,46.17,0,0,1,4.11,10.74c.13.45.37,1-.38,1.28s-.75-.41-.94-.8c-2.16-4.46-3.6-9.27-6.65-13.3-2.14-2.83-4-5.92-6.67-8.3C195.31,434.85,193,433,190.71,431.1Zm186-34.3c-.25-1.78-.51-3.55-.74-5.31-.1-.86-.18-1.72-.2-2.58a1.52,1.52,0,0,1,1.21-1.62c2.79-.83,5.57-1.69,8.35-2.53a4,4,0,0,1,.55-.09c-.11,1.2-.26,2.35-.31,3.51s.07,2.57-.06,3.83a2.31,2.31,0,0,1-.91,1.65C382,394.81,379.31,395.8,376.75,396.8Zm9.3-3.62c.07-.68.17-1.36.18-2,0-1.34-.06-2.69,0-4a2.77,2.77,0,0,1,2.58-3.11c1.54-.28,3.1-.53,4.65-.75,1.19-.17,2.39-.29,3.47-.42-.21,1-.42,1.94-.6,2.87s-.34,1.9-.51,2.84a3.3,3.3,0,0,1-2.58,2.79ZM212.44,456.36h2.75a7.73,7.73,0,0,1,6.41,2.92,5.51,5.51,0,0,1-.52,7.64,20.61,20.61,0,0,1-2.28,1.61c-1.14-1.44-2.26-2.83-3.33-4.25-.11-.14,0-.53.1-.73a2.45,2.45,0,0,0,0-2.64,3.33,3.33,0,0,0-2.68-1.84C212.76,458.14,212.6,457.27,212.44,456.36Zm7.11,12.47a11.08,11.08,0,0,1,1-.82,6.05,6.05,0,0,0,2.55-7.1,7.74,7.74,0,0,0-7.28-5c-.73,0-1.48.1-2.21,0-.54-.05-1.29-.13-1.56-.48-1.08-1.4-.7-2.37,1-2.74a6.29,6.29,0,0,1,2.28-.17,12.27,12.27,0,0,1,6.14,2.76A9.62,9.62,0,0,1,222.58,469c-1.28,1.49-1.39,1.45-2.83.12A1.56,1.56,0,0,1,219.55,468.83ZM405.49,382.2c-.31,1.29-.59,2.42-.85,3.57-.38,1.73-1,3.31-2.95,3.77s-4.13.82-6.08,1.19c.34-1.21.72-2.44,1-3.7.18-.77.24-1.58.38-2.36.19-1.1.84-1.93,1.66-2C401,382.49,403.26,382.35,405.49,382.2ZM226.08,473.88c-3.6,2-5.81,5.86-10,7.34,1.72-3.89,2.3-7.7.7-11.58,1.46-.87,1.51-.85,2.65.1a18.26,18.26,0,0,0,2.29,1.75C223.12,472.33,224.58,473.06,226.08,473.88Zm177.74-84.64a20.08,20.08,0,0,0,1.36-3.43c.73-3.45.91-3.75,4.35-3.64l3.63.1c-.4.77-.77,1.4-1.05,2.07-.49,1.18-.84,2.43-1.43,3.56-.29.56-.94,1.25-1.48,1.29C407.33,389.35,405.45,389.25,403.82,389.24Zm16.26-6.2L418.59,386a10.54,10.54,0,0,1-1.15,2.09,3.33,3.33,0,0,1-1.8,1.31,46,46,0,0,1-5,0c.46-1,.86-1.85,1.21-2.7s.7-1.86,1.08-2.77a2,2,0,0,1,1.88-1.42C416.63,382.57,418.42,382.85,420.08,383Zm-3.09,6.7-.15-.38a8.48,8.48,0,0,0,2.53-3.9,5.68,5.68,0,0,1,1.17-1.6,1,1,0,0,1,.85-.25,13.56,13.56,0,0,1,2.58,1.22,1.87,1.87,0,0,1,.64,2.4,2.71,2.71,0,0,1-2,1.86C420.72,389.38,418.85,389.53,417,389.74ZM209.35,461.33a5.87,5.87,0,0,1,.84-.75c1.11-.68,2.46-1.2,3.69-.49a2.42,2.42,0,0,1,1.36,2.27c-.05.95-.81,1.41-1.56,1.8a.78.78,0,0,1-.68-.07C211.79,463.21,210.61,462.29,209.35,461.33Zm7.29,7.63-2.68-4.1.73-.46,3.18,4Z" transform="translate(-172.49 -204.7)"/><path class="cls-4" d="M198.86,468.56c.12-.34.61-1,.49-1.51a2.44,2.44,0,0,0-1.32-1.32,4.47,4.47,0,0,0-4.72,1.47,1.54,1.54,0,0,0,.93,2.64C195.84,470.22,197.25,469.63,198.86,468.56Zm-4.78-1.37c1.44-.92,2.61-1.41,3.94-.85.93.4,1.11,1.22.28,1.76a11.21,11.21,0,0,1-2.86,1.24c-.69.21-1.59.07-1.8-.67C193.49,468.18,194,467.51,194.08,467.19Z" transform="translate(-172.49 -204.7)"/><path class="cls-3" d="M501,387.38l49.7-2.83c-.29-.66-.46-1.15-.71-1.6-5.4-9.78-10.76-19.59-16.23-29.33-4.58-8.17-9.35-16.23-13.92-24.4-4.9-8.78-9.62-17.65-14.5-26.43a35,35,0,0,0-3.58-5.08c-2.81-3.46-5.75-6.83-8.6-10.26a15,15,0,0,0-5.4-4.37c-1.51-.66-2.47-.15-2.53,1.52a27.52,27.52,0,0,0,.33,3c.73,8.09,1.36,16.2,2.19,24.28.34,3.27,1.13,6.49,1.63,9.74a159.88,159.88,0,0,0,4.3,19.92c.71,2.48.59,5.2,1,7.79a11.29,11.29,0,0,0,1,3.56,55.5,55.5,0,0,1,6.48,25.82C502.13,381.52,501.41,384.36,501,387.38Z" transform="translate(-172.49 -204.7)"/><path class="cls-3" d="M573.71,327c.44.49.89,1,1.31,1.46.56.68.43,1.11-.47,1.29a10,10,0,0,0-1.8.49c-.82.33-1,.89-.32,1.54a9.29,9.29,0,0,0,.94.83c5.77,4.58,7.66,10.49,6,17.6a22.29,22.29,0,0,1-4.77,9.93,13.63,13.63,0,0,1-6.79,4.47c-.77.21-1,.56-.93,1.31s0,1.68.18,2.49a2.77,2.77,0,0,0,3.37,2.54,12.22,12.22,0,0,0,4.34-1.76c5.54-3.83,8.79-9.24,10.35-15.72.07-.28.08-.58.16-.86.28-.94.82-1.16,1.55-.48a3.56,3.56,0,0,0,3.86.62c3.39-1.14,5.5-3.71,7.07-6.73a33.85,33.85,0,0,0,3.81-16.9c-.07-2.21-.36-4.41-.52-6.61a5.32,5.32,0,0,1,.2-1.16,5.88,5.88,0,0,1,1,.21c1.08.46,1.76.25,2.15-.88.31-.9.39-1.87.63-2.8a5.41,5.41,0,0,1,.51-1.06,6.17,6.17,0,0,1,1,.51c.43.32.79.74,1.22,1.07,1.31,1,2.28.93,3.16-.47a9.55,9.55,0,0,0,1.27-3.34c.73-4.25,0-8.39-1.12-12.49a14.46,14.46,0,0,1-.48-1.94,2.72,2.72,0,0,1,.27-1c.28.14.64.2.82.42a9.57,9.57,0,0,1,1.06,1.54,31.54,31.54,0,0,1,3.52,9.85,29.14,29.14,0,0,0,1.8,5c.16.41.62.7,1.15,1.27a14.88,14.88,0,0,0,.24-1.48c.81-15.43-4.86-28.1-16.37-38.24a18.38,18.38,0,0,0-8.65-4.54,4.4,4.4,0,0,1-1.24-.59c-4.55-2.44-9.34-2.52-14.23-1.33a5,5,0,0,0-2,1.11c-1.09,1-.77,2.18.67,2.47,1.59.32,3.22.46,4.83.65a24.68,24.68,0,0,1,14.86,7,20.75,20.75,0,0,1,3.17,4.72,1.92,1.92,0,0,1-.21,1.78c-.23.28-1.16.13-1.69,0-.9-.32-1.71-.87-2.6-1.23a11.39,11.39,0,0,0-1.85-.37c.05.69.08,1.12.13,1.87-.72-.32-1.28-.52-1.79-.8-3.51-1.94-7.13-3.48-11.22-3.56a11.7,11.7,0,0,0-7.24,2c-1.34.94-1.39,1.7.05,2.53a21.64,21.64,0,0,0,4,1.64,27.06,27.06,0,0,1,11.93,7.51,17.78,17.78,0,0,1,4.92,10.85,12,12,0,0,1-.74,4.74c-.62,1.79-1.83,2-3.33.87-1.92-1.47-3.75-3.06-5.65-4.56a34.27,34.27,0,0,0-13.83-7c-4.3-1-8.37-.71-12,2.08-.2.15-.4.3-.59.47-1.29,1.15-1.22,1.9.37,2.53,2.29.92,4.63,1.68,6.91,2.61a25.29,25.29,0,0,1,11.61,9,14.21,14.21,0,0,1,2.5,6.61,5.54,5.54,0,0,1-.29,1.62c-.48-.16-1-.3-1.45-.5a20.42,20.42,0,0,0-2.5-1.1,8,8,0,0,0-2,0Z" transform="translate(-172.49 -204.7)"/><path class="cls-3" d="M377.55,328.42a59.86,59.86,0,0,1,4.91-4.36c3.05-2.16,6.19-4.21,9.41-6.1a50.86,50.86,0,0,1,12.28-4.76c3-.84,6.13-1.44,9-3,2.06-1.11,4.5-1.51,6.7-2.39,1.74-.68,3.39-1.58,5.06-2.42a36.15,36.15,0,0,1,5-2.54,64.45,64.45,0,0,0,20.31-10.57c1.15-.91,2.36-1.55,2.94-3.16s1.85-2.64,2.75-4,1.85-2.87,2.68-4.35a3.22,3.22,0,0,0,.37-1.67c-.06-1.39-.77-1.84-2.09-1.38a16.07,16.07,0,0,0-2.31,1,34.64,34.64,0,0,1-12.26,3.69,55.07,55.07,0,0,0-6.75,1.3A40,40,0,0,1,423,285a26.42,26.42,0,0,0-10.23,1.72,33.82,33.82,0,0,1-12.82,1.73,19.19,19.19,0,0,0-9.39,1.68c-6,2.84-12.43,3.46-18.9,3.71a126.82,126.82,0,0,0-15.93,1.38c-1.92.32-3.89.38-5.83.55l-.24.36Zm48.39-32.51-.37-.41,8-6.56.39.48Z" transform="translate(-172.49 -204.7)"/><path class="cls-3" d="M395.25,279.79l4.72-1.73c3.95-1.45,7.9-2.93,11.87-4.34.84-.3,1-.68.93-1.55Q410.37,253,408,233.8c-.54-4.34-1.13-8.68-1.62-13a2.83,2.83,0,0,0-1.8-2.4c-9.41-4.86-20.62-.53-25.19,5.25a1.94,1.94,0,0,0-.27,2.6,48.38,48.38,0,0,1,1.92,4.74,6.92,6.92,0,0,0,1.36,1.77,18,18,0,0,1,1.77,1.71c.72,1,.47,1.78-.48,2.6a1.33,1.33,0,0,0-.44,1.06q5.76,20.41,11.6,40.79C395,279.16,395.1,279.42,395.25,279.79Z" transform="translate(-172.49 -204.7)"/><path class="cls-3" d="M436.36,218.78c-2.46-1.18-4.84-2.38-7.27-3.47a15.83,15.83,0,0,0-7.55-1.41,28.33,28.33,0,0,0-13,3.7c-1.82,1.07-1.75,1.08-1.47,3.17,1.21,8.72,2.42,17.43,3.53,26.16,1.05,8.23,2,16.47,3,24.71.05.4.1.8.17,1.31l1.18-.31c6.05-1.86,12.1-3.75,18.17-5.56.93-.27.84-.87.87-1.52l1.86-37.35C436,225.09,436.18,222,436.36,218.78Z" transform="translate(-172.49 -204.7)"/><path class="cls-3" d="M434.81,266.58c.45-.06.81-.09,1.17-.15,6-1,12.09-1.95,18.12-3a1.58,1.58,0,0,0,1-1c2.66-10,5.26-20.08,7.89-30.12q1.14-4.37,2.39-8.68a1.64,1.64,0,0,0-.66-1.93c-6.54-5.67-14.18-7.31-22.54-6a20.73,20.73,0,0,0-4.91,2,1.13,1.13,0,0,0-.5.85c0,1,.15,1.9.11,2.84q-.61,14.63-1.28,29.24c-.23,4.91-.53,9.83-.8,14.74C434.8,265.81,434.81,266.14,434.81,266.58Z" transform="translate(-172.49 -204.7)"/><path class="cls-3" d="M546.82,316.78a30.45,30.45,0,0,1,5.41,19.44c-.35,6.76-2.23,13.14-6.58,18.55a16.9,16.9,0,0,1-7.18,5.3c.32.61.62,1.18.93,1.75l4.69,8.54c.77,1.39,4.53,3.05,6.5,2.73,6.49-1.07,10.77-5.24,9.7-12.49,0-.29-.1-.58-.12-.87-.08-1-.09-2,.92-2.53a2.52,2.52,0,0,1,3,.39,26.17,26.17,0,0,1,2.12,2.57,20.64,20.64,0,0,0,3.44-6.4,31.61,31.61,0,0,0-.08-20.88A70.84,70.84,0,0,0,556,308.71a59,59,0,0,0-6.43-5.89,7.93,7.93,0,0,0-2.77-1.34,1.8,1.8,0,0,0-1.56.35c-.25.26-.14,1,0,1.5.26.74.75,1.39,1.07,2.11a30.9,30.9,0,0,1,1.73,4.28C548.77,312.22,548.66,314.68,546.82,316.78Z" transform="translate(-172.49 -204.7)"/><path class="cls-3" d="M504.71,299.74l19-20.44c-.19-.94-.68-2-.4-2.27a5.21,5.21,0,0,1,2.66-1.53c.93-.18,1.49-.08,1.72-1.3.15-.73,1.24-1.27,2-2a13,13,0,0,0-2.09-.38c-1.88-.05-3.76.08-5.62-.06-.67,0-1.7-.55-1.84-1.06a2.4,2.4,0,0,1,.69-2.13,9.27,9.27,0,0,1,5.82-1.67l-.27-.3A18.53,18.53,0,0,1,528.8,264a16.88,16.88,0,0,1,9.17-2.9c.7,0,1.41,0,2.42,0a20.53,20.53,0,0,0-1.06-2.94A26.17,26.17,0,0,0,526,246.36c-2.4-1-5.08-1.23-7.62-1.84a1.6,1.6,0,0,0-1.91,1q-3.86,6.51-7.77,13c-4.84,8-9.71,16-14.53,24a1.44,1.44,0,0,0,0,1.28c3.35,5.18,6.74,10.33,10.12,15.48C504.39,299.36,504.53,299.5,504.71,299.74Z" transform="translate(-172.49 -204.7)"/><path class="cls-3" d="M516.19,244.63c-1.45-3.09-3.09-6-5.89-8.12-4.9-3.7-10.25-6-16.53-5.8a1.26,1.26,0,0,0-1.33.83q-7.59,18-15.25,36.07c-.06.15-.09.32-.18.6,6.32,3.56,11.36,8.62,16.15,14.21Z" transform="translate(-172.49 -204.7)"/><path class="cls-3" d="M456,263.07c3.53.49,7,.76,10.33,1.51s6.61,2,10.06,3c.08-.17.28-.52.44-.89q7.5-17.67,15-35.34a1.47,1.47,0,0,0-.34-1.87,24.81,24.81,0,0,0-18.94-7.55c-2,0-4,.87-5.94,1.39a1.09,1.09,0,0,0-.53.7q-5,19-9.88,38C456.06,262.41,456,262.81,456,263.07Z" transform="translate(-172.49 -204.7)"/><path class="cls-3" d="M413.3,310.92c4.82.13,9.7.05,14.54.43A88.65,88.65,0,0,1,448,315.51c3,1,5.88,2.09,8.79,3.2a1.16,1.16,0,0,0,1.53-.28c.73-.85,1.51-1.67,2.25-2.51,1-1.19,2.14-2.34,3.09-3.6,1.4-1.85,2.77-3.74,4-5.7,2.3-3.62,4.79-7.15,6.26-11.22,1-2.78,1.9-5.59,2.73-8.42a7.45,7.45,0,0,0,.22-3.08,7.09,7.09,0,0,0-1.13-2.13.44.44,0,0,0-.1-.08c-3.72-3.05-4.83-3.32-8.92-.74-3.51,2.22-6.67,5-10.07,7.4-5.28,3.72-10.18,8-16,10.93-2.7,1.37-5.61,2.33-8.39,3.57-2.5,1.12-4.91,2.46-7.42,3.55-3.05,1.32-6.16,2.49-9.26,3.71C414.83,310.42,414,310.68,413.3,310.92Z" transform="translate(-172.49 -204.7)"/><path class="cls-3" d="M436.92,406.23l3.77-3.26L314.23,256.18l-3.86,3.34Zm-13.47-17.45a1.8,1.8,0,0,1,1.63-1.72,1.58,1.58,0,0,1,1.62,1.65,1.48,1.48,0,0,1-1.51,1.62A1.61,1.61,0,0,1,423.45,388.78Z" transform="translate(-172.49 -204.7)"/><path class="cls-3" d="M544.71,242.55a17.62,17.62,0,0,0-9.15,2.07c-.71.42-1.81,1.48-1.67,1.81.47,1.12,1.62.61,2.51.38a23,23,0,0,1,14.6.86,15.73,15.73,0,0,1,6,4.15,2.71,2.71,0,0,1,.72,1,2.57,2.57,0,0,1,0,1.73c-.2.34-1,.49-1.53.41a19.29,19.29,0,0,1-2.34-.84c-2.25-.74-4.48-1.55-6.77-2.12a5.32,5.32,0,0,0-2.81.25c-1.24.42-1.31,1.31-.17,1.93a8.31,8.31,0,0,0,2.82.94,26.3,26.3,0,0,1,14.09,6.51,12.92,12.92,0,0,1,3.7,5.27,4.6,4.6,0,0,1,0,1.65,10.34,10.34,0,0,1-1.51-.27c-.79-.28-1.52-.72-2.31-1-.44-.13-1.18-.21-1.42,0-.92.94-1.53.3-2.27-.2-7.45-5-15.56-6.61-24.28-4.28a18.9,18.9,0,0,0-4.65,2.58c-.34.21-.7.95-.57,1.23a1.78,1.78,0,0,0,1.23.83c2.78.31,5.57.43,8.34.8a20.49,20.49,0,0,1,12,5.41,19.89,19.89,0,0,1,2.62,3.74,1.18,1.18,0,0,1-.12,1.11c-.21.2-.77.15-1.13,0-.8-.24-1.55-.62-2.34-.87s-1.82-.53-2.55.56c-.2.28-1.07.23-1.59.15-1.61-.26-3.18-.69-4.79-.88-1-.11-2.27-.18-2.53,1s1.07,1.29,1.82,1.72a46.4,46.4,0,0,0,5.7,3.11,71.43,71.43,0,0,0,11.4,4c5.13,1.12,8.77-3.85,6.82-8.84-.32-.81-.8-1.55-1.13-2.36a2.54,2.54,0,0,1,0-1,4.14,4.14,0,0,1,.93.18c1.86.82,3.69,1.73,5.58,2.49a6.14,6.14,0,0,0,2.44.4,3.56,3.56,0,0,0,3-5,18.62,18.62,0,0,0-2.06-3.26c-.47-.68-.87-1.21.39-1.47a1.25,1.25,0,0,0,.58-1.06c-.24-1.75-.28-1.74,1.47-1.26,2.24.63,3.76-.59,3.52-2.92a9.26,9.26,0,0,0-2.69-5.93,61,61,0,0,0-21.19-13.2c-2.74-1-5.74-1.28-8.63-1.89C544.76,242.34,544.74,242.44,544.71,242.55Z" transform="translate(-172.49 -204.7)"/><path class="cls-3" d="M518.21,324.34c.88,1.92,1.74,3.65,3.87,4.44,3,1.12,6,2.36,9.32,1.22a3.81,3.81,0,0,0,2.93-3.89c0-1-.12-2.07-.2-3.11-.07-.86-.12-1.88.83-2.12a3,3,0,0,1,2.1.6,16.32,16.32,0,0,1,2.14,2.32,6.63,6.63,0,0,0,.55-4.46,26.55,26.55,0,0,0-1.27-3.38,10.51,10.51,0,0,1-.94-2.3c-.12-.84-.18-2.08.3-2.53a3.22,3.22,0,0,1,2.62-.42,7.39,7.39,0,0,1,4.68,3.88c.25.49.56,1,.9,1.52a4.08,4.08,0,0,0,1.49-3.07,11.22,11.22,0,0,0-1.52-6.48,16.9,16.9,0,0,1-1.41-2.78,3.36,3.36,0,0,1,.09-2.53,2.61,2.61,0,0,1,2.34-.54,30,30,0,0,1,4.27,1.94,34.61,34.61,0,0,0,.51-4.34c0-7.26-3.9-12.08-9.94-15.47-1.49-.84-3-1.55-4.56-2.35-.8-.42-1.56-1-1.38-2a1.88,1.88,0,0,1,2-1.58,58.82,58.82,0,0,1,6,.71c.68.1,1.12.21,1.73-.4a2.88,2.88,0,0,1,2.18-.39,19.32,19.32,0,0,1,3.06,1l.28-.23a23.5,23.5,0,0,0-1.88-2.62c-3.31-3.57-7.6-5.16-12.28-5.85-1.73-.25-3.49-.26-5.23-.48-1.55-.2-3.08-.57-4.63-.82a7.44,7.44,0,0,0-5.84,1.11,1.81,1.81,0,0,0-.7,1.44c.08.35.86.75,1.35.77,1.79.08,3.59-.12,5.37,0a14.64,14.64,0,0,1,3.54,1c.25.1.37.58.55.88a3.26,3.26,0,0,1-1,.3c-2,0-2.26.35-2,2.33.11.88-.42.77-1,.75a13.86,13.86,0,0,0-2.88.18c-.32.06-.54.65-.8,1,.35.25.66.63,1,.73,2.09.55,4.25.88,6.29,1.57a8.57,8.57,0,0,1,5.59,9.85c-.5,2.21-1.61,2.74-3.64,1.71-1.12-.57-2.19-1.21-3.33-1.74a4.64,4.64,0,0,0-4.33.09c-.91.48-1.15,1.26-.42,1.91a8.56,8.56,0,0,0,3,1.88c3.46,1,5.84,3,6.51,6.65a9.43,9.43,0,0,1-4.08,9.67c-1.63,1-2.34.78-3.17-.9a5.09,5.09,0,0,0-2.89-2.95,6.07,6.07,0,0,0-2.3.28,6.66,6.66,0,0,0,.41,2,17.92,17.92,0,0,0,1.88,2.33,10,10,0,0,1,2.39,5.28,4.36,4.36,0,0,1-1.69,4.43c-1,.7-1.36.5-1.82-.61A13.68,13.68,0,0,0,521.6,317a1.42,1.42,0,0,0-1.3-.3c-.24.08-.4.76-.4,1.16a6.31,6.31,0,0,0,.37,1.45C521,321.88,520.53,323,518.21,324.34Z" transform="translate(-172.49 -204.7)"/><path class="cls-3" d="M371.72,205.6c-5.4.15-10.09,2.31-14.56,5.14a8.67,8.67,0,0,0-3.32,3.78c-.87,1.85-.57,2.89,1.2,3.95.74.44.67.84.14,1.36a25.57,25.57,0,0,0-5.4,8.21,16.15,16.15,0,0,0-1.18,5.42c-.14,2.1,1.38,3,3.34,2.23a15.78,15.78,0,0,1,2.71-.93,1.88,1.88,0,0,1,1.61.47,2,2,0,0,1-.24,1.68,11.16,11.16,0,0,1-1.67,1.84,12.8,12.8,0,0,0-3.56,5.94,7.33,7.33,0,0,0-.16,2.47,2.55,2.55,0,0,0,2.73,2.34c1.11,0,1.42.43.83,1.38-2.57,4-1.66,7.94.55,11.67a48.52,48.52,0,0,0,4.09,5.32,2,2,0,0,0,1.13.74,2.55,2.55,0,0,0,1.73-.21,1.94,1.94,0,0,0,.56-1.6,23.73,23.73,0,0,1,1.56-14.57c1.49-3.6,3.77-6.38,8-7,.5-.07.93-.67,1.39-1-.41-.52-.72-1.23-1.26-1.5a3.21,3.21,0,0,0-3.2.4c-.78.45-1.69,1.17-2.48.26s0-1.89.67-2.61A13.28,13.28,0,0,1,378,236.4a30.73,30.73,0,0,0,4.6.06c1.23-.11,1.55-1,.71-1.93a6.39,6.39,0,0,0-2.12-1.48c-3.88-1.64-7.57-1.08-11.13,1a16.59,16.59,0,0,1-3.45,1.72c-2.67.85-4.56-.35-4.91-3.14a9.44,9.44,0,0,1,.3-3.7c2.09-7.23,7.11-11.67,14.47-12,.91,0,2.16,0,2.16-1.31s-1.1-1.57-2.12-1.71a10.22,10.22,0,0,0-2,.06c-.86.05-1.64-.08-1.86-1.06s.43-1.52,1.22-1.75c1.12-.32,2.29-.44,3.41-.73.56-.15,1.39-.4,1.51-.79a2.28,2.28,0,0,0-.63-1.62C376.79,206.34,374.54,205.54,371.72,205.6Z" transform="translate(-172.49 -204.7)"/><path class="cls-3" d="M394.36,280.17c-.78-2.61-1.53-5-2.21-7.39q-4.77-16.92-9.48-33.85c-.29-1.05-.7-1.52-1.85-1.44a29.83,29.83,0,0,1-3.11-.25,12.43,12.43,0,0,0-10.1,4,9.87,9.87,0,0,0-.91,1.37l.27.33a15,15,0,0,0,1.47-.66,4.41,4.41,0,0,1,3.85-.41,2.51,2.51,0,0,1,1.78,2.46,2,2,0,0,1-2,1.76c-5.37.32-7.94,6.36-8.83,10.71a2.16,2.16,0,0,0,.34,1.29c3.88,7.71,7.76,15.42,11.7,23.1a2.63,2.63,0,0,0,1.34,1.14,14.87,14.87,0,0,0,10.61.17C389.53,281.68,391.89,281,394.36,280.17Z" transform="translate(-172.49 -204.7)"/><path class="cls-3" d="M606,318.62c-1.1,3.65-1.63,4.18-4.17,3.78,0,.52.1,1,.16,1.48,1,8.28.1,16.27-4.17,23.58a18.74,18.74,0,0,1-4.23,4.71,6.32,6.32,0,0,1-6.61,1.32c-1.5,11.73-6.36,21.68-15.3,29.7a4.35,4.35,0,0,0,.57.13l11-.62a2.2,2.2,0,0,0,.73-.14,41.34,41.34,0,0,0,15.06-11.73c.57-.7,1.12-1.41,1.72-2.08a25.36,25.36,0,0,0,5.81-11.57c1.13-4.78,2.63-9.55,3.08-14.4a46.58,46.58,0,0,0-2.71-22C606.66,320,606.33,319.33,606,318.62Z" transform="translate(-172.49 -204.7)"/><path class="cls-3" d="M493.93,348.86c-.34-2.44-.35-5-1.08-7.31-2.65-8.44-3.6-17.2-5.13-25.86-1.14-6.43-2.37-12.88-5.22-18.86a22,22,0,0,0-1.58-2.69,2.31,2.31,0,0,0-2.86-.94c-1.72.61-3.31,1.24-4,3.31-1.68,5-4.83,9.32-7.65,13.72-1.93,3-4.65,5.54-7,8.27a9.21,9.21,0,0,1-1,.86c14.17,7.17,26.52,16.21,35.2,29.59Z" transform="translate(-172.49 -204.7)"/><path class="cls-3" d="M592.72,314.45a36,36,0,0,0-2.1-4.43,46.86,46.86,0,0,0-16.89-15.49c-3.12-1.75-6.36-3.31-9.61-4.83a14.32,14.32,0,0,0-6.41-1.28,21.19,21.19,0,0,1-5.84-1.09c-1.54-.43-3-1.18-4.6-1.62a7.6,7.6,0,0,0,.52.61c4.63,4.63,5.56,10.22,4.3,16.41a1.62,1.62,0,0,0,.32,1.34,58.58,58.58,0,0,1,12.45,16.18c3.07,5.62,5.74,11.42,6.85,17.78a30,30,0,0,1-3.28,20.57c-.46.82-1.32,1.45-1.68,2.3a4,4,0,0,0-.2,2.52c.27.91,1.14.33,1.72.13a14.33,14.33,0,0,0,8-7.5c2-3.94,3.34-8.14,2.65-12.67a14.79,14.79,0,0,0-5.43-9.69c-.46-.37-.92-.73-1.35-1.12-1.43-1.33-1.22-2.47.6-3.19.45-.18.94-.3,1.56-.49-.34-.39-.64-.7-.91-1-.81-1-.55-2,.74-2a13,13,0,0,1,3.61.63,7.72,7.72,0,0,1,1.64.9c-.06-.61-.07-1-.14-1.44a14.92,14.92,0,0,0-3.58-7.33,25.43,25.43,0,0,0-9.48-6.79c-1.93-.79-3.9-1.45-5.86-2.18-.55-.2-1.11-.38-1.64-.62-2.15-.95-2.34-2.33-.5-3.85a13.17,13.17,0,0,1,9.61-3.18,27.43,27.43,0,0,1,11,3.2A65,65,0,0,1,590,313.26c.69.58,1.44,1.07,2.16,1.6Z" transform="translate(-172.49 -204.7)"/><path class="cls-3" d="M345.62,291.41a21.25,21.25,0,0,0,2.66,3,3.5,3.5,0,0,0,2.31.41c3.48-.35,7-.93,10.43-1.21,4.48-.36,9-.53,13.48-.76A44.25,44.25,0,0,0,391,289.13a16.63,16.63,0,0,1,8.06-1.47,41.87,41.87,0,0,0,16.33-2.52,12.11,12.11,0,0,1,1.57-.42c9.32-1.77,18.06-5.5,27.1-8.2,1.77-.52,3.32-1.84,4.86-2.95a2,2,0,0,0,.71-2.45,2.52,2.52,0,0,0-2.41-1.86c-1.83.05-3.65.21-5.47.32-1.29.08-2.57.17-3.86.22-3.91.12-7.83.22-11.74.35a4.8,4.8,0,0,0-1.34.29q-14.27,5-28.53,10.09c-10.77,3.83-21.66,7.29-33,9.07-5.59.87-11.28,1.16-16.92,1.71Z" transform="translate(-172.49 -204.7)"/><path class="cls-3" d="M430.38,269.21c4.65-.25,9.3-.52,13.95-.75a17.85,17.85,0,0,1,3.35.08,3.28,3.28,0,0,1,2.15,5.24c-1.34,1.85-3.36,2.72-5.37,3.52s-4,1.37-6,2c-4.41,1.4-8.83,2.78-13.24,4.17-.38.12-.74.28-1.11.43,0,.13.05.26.07.4,2.54-.21,5.1-.27,7.61-.66,4.45-.69,8.89-1.43,13.28-2.42a72.72,72.72,0,0,0,8.05-2.63c1.1-.39,2.12-1,3.2-1.42.84-.33,1.8-.78,2.57,0a2.75,2.75,0,0,1,.65,3.23,56.49,56.49,0,0,1-3.05,5.14c-.85,1.27-1.87,2.42-2.81,3.62l.26.31c.56-.35,1.15-.66,1.68-1.06,2.62-2,5.17-4.09,7.85-6a47.32,47.32,0,0,1,5.56-3.34,4.19,4.19,0,0,1,4.72.36c.3.23.62.41.94.63,3,2.06,3.66,3.65,2.71,7.22-.38,1.44-1,2.82-1.52,4.23-.24.64-.47,1.29-.82,2.25l2-.92c2.14-.94,3.71-.68,4.8,1.39a75.2,75.2,0,0,1,3.61,8.34c.62,1.62.91,3.35,1.62,5-.27-2.85-.48-5.7-.8-8.54-.51-4.64-1.09-9.27-1.62-13.91a2.47,2.47,0,0,1,1.1-2.72,3.49,3.49,0,0,1,2.43.14,13.18,13.18,0,0,1,5.4,4.33l6.54,7.91a3,3,0,0,0,1.1.88l-1.58-2.59c-4.7-7.55-10.13-14.47-17.07-20.11-7.6-6.18-16.51-8.58-26.08-8.62-7.3,0-14.36,1.84-21.47,3.29-1.54.32-3.07.71-4.6,1.07Z" transform="translate(-172.49 -204.7)"/><path class="cls-3" d="M356.46,289.55c-.58-.88-.93-1.41-1.29-1.94l.18-.27c.28.16.7.26.82.5.87,1.73,2.26,1.45,3.82,1.08-11.2-11.21-13.82-23.91-7.14-38.45a3.71,3.71,0,0,1-2.8-2.27,6.37,6.37,0,0,1,.17-4.53,14.51,14.51,0,0,1,3.72-5.7c.66-.64,1.21-1.39,1.81-2.08-.09-.15-.19-.29-.29-.44-.72.19-1.46.34-2.15.59a7,7,0,0,1-3.74.7c-.62-.11-1.5.62-2.09,1.15a25,25,0,0,0-5.59,7.62A52,52,0,0,0,336.6,276a38.12,38.12,0,0,0,1.83,6.73,6.73,6.73,0,0,0,1.43,2q2.06,2.44,4.18,4.82c.28.32.73.73,1.08.72C348.81,290.08,352.49,289.81,356.46,289.55Z" transform="translate(-172.49 -204.7)"/><path class="cls-3" d="M515.05,318.38l8.77-6.88c-.8-1-1.54-1.92-2.22-2.86s-1-1.83-.25-2.78a2.26,2.26,0,0,1,2.84-.67,14.56,14.56,0,0,1,2.79,2,5.83,5.83,0,0,1,.87,1.17c1.78-1.34,3.52-2.63,5.22-3.95a1.64,1.64,0,0,0,.5-.83,7.35,7.35,0,0,0-4.57-8.81,30.14,30.14,0,0,1-2.94-1c-1.42-.7-2.4-2.29-2.19-3.24s1.76-2,3.37-1.93a9.69,9.69,0,0,1,3.13.67,30.48,30.48,0,0,1,3,1.57c1.54.77,2.1.51,2.51-1.12a7.71,7.71,0,0,0-4.54-8.91,37.85,37.85,0,0,0-5.8-1.45,1.49,1.49,0,0,0-1.17.45q-9.33,10-18.58,20.15a1.51,1.51,0,0,0-.24,1.35c3,5.54,6,11.05,9.09,16.56C514.71,318,514.83,318.09,515.05,318.38Z" transform="translate(-172.49 -204.7)"/><path class="cls-3" d="M602.74,382.46,588,383.3l-15.61.88-101.53,5.73c-10.12.57-20.24,1.11-30.35,1.73-2,.12-4.08.52-6.11.78l0,.57a7.47,7.47,0,0,0,1.38.22c5.29-.17,10.58-.42,15.87-.55,8.13-.21,16.26-.3,24.39-.51,12.21-.31,24.42-.7,36.63-1,10.71-.3,21.43-.54,32.14-.92,8.58-.31,17.15-.85,25.73-1.18,7.92-.3,15.84-.43,23.76-.68,2.5-.07,5-.29,7.49-.4.68,0,1-.25,1-1C602.72,385.51,602.74,384.07,602.74,382.46Z" transform="translate(-172.49 -204.7)"/><path class="cls-3" d="M528.9,343.43c3.06,5.32,6.09,10.58,9.16,15.89a16.56,16.56,0,0,0,6.3-4.4c3.39-3.57,5-8.05,6.23-12.66,2.23-8.19.85-15.94-3.08-23.32a15.36,15.36,0,0,0-1.94-2.21,10,10,0,0,1-1.09-1.65,6.88,6.88,0,0,0-4.26-3.61c-1.72-.5-2.45.26-1.87,2,.44,1.25,1.09,2.43,1.62,3.65a8.11,8.11,0,0,1-.36,7.79,1.52,1.52,0,0,0-.12.92,15.49,15.49,0,0,1-10.26,17.41C529.15,343.22,529.09,343.29,528.9,343.43Z" transform="translate(-172.49 -204.7)"/><path class="cls-3" d="M354.66,219.23c-2.2-1.79-2.29-2.38-.93-6-.38.25-.65.4-.88.58a44.58,44.58,0,0,0-15.29,21.48c-.36,1-.61,2.22-2.11,2.28-.2,0-.44.36-.58.6-4.45,8-8.34,16.28-8.27,25.77,0,1.79.16,3.58.29,5.37a1.62,1.62,0,0,0,.4.87q4.36,5.07,8.76,10.12a4.89,4.89,0,0,0,.52.42c-.07-.44-.1-.71-.16-1a50.18,50.18,0,0,1,7-38.33c1.31-2.07,3.22-3.76,4.94-5.73-1.17-1.94-.75-4.28.08-6.53a30.94,30.94,0,0,1,5.44-9.07C354.11,219.83,354.36,219.56,354.66,219.23Z" transform="translate(-172.49 -204.7)"/><path class="cls-3" d="M593.46,313.63a8.28,8.28,0,0,0,.54-5.58,19.62,19.62,0,0,0-7.35-11.86,28,28,0,0,0-9.23-4.87,19.48,19.48,0,0,1-3.7-1.49c-2-1.14-2-2.52-.1-3.8a11.48,11.48,0,0,1,7.73-1.95c2.58.27,5.12.92,7.72,1.41a41.59,41.59,0,0,0-2.8-3.09c-2.29-2.12-4.65-4.17-7-6.18a18,18,0,0,0-1.94-1.05,10.33,10.33,0,0,1-1.6-1.28,6.1,6.1,0,0,0-1.57-1.27c0,.29.09.59.15.88.75,3.51-1.86,6.22-5.36,5.39a39.54,39.54,0,0,1-5-1.83c-.37-.13-.72-.33-1.44-.67,1.15,2.15,1.77,4,1.27,6.14s-1.07,3.87-2.83,5.07C574.37,293.05,586.65,299.86,593.46,313.63Z" transform="translate(-172.49 -204.7)"/><path class="cls-3" d="M387.35,321.64l-4.08,2.93c1.26,2,2.46,3.86,3.68,5.74,7.4,11.45,14.68,23,22.28,34.3,2.73,4.06,6.19,7.63,9.38,11.38,4.64,5.46,9.34,10.88,14,16.32a1.43,1.43,0,0,0,.68.45Z" transform="translate(-172.49 -204.7)"/><path class="cls-3" d="M474.67,330.3l-4.09-2.9c-.92,1.2-1.82,2.37-2.71,3.55-8.74,11.58-17.6,23.08-26.14,34.8-2.93,4-5.07,8.62-7.56,12.95-.89,1.56-1.67,3.19-2.66,4.67-.86,1.27-.62,2.21.57,3.26Z" transform="translate(-172.49 -204.7)"/><path class="cls-3" d="M484.42,339.25l-3.34-3.77c-2,1.95-3.94,3.79-5.85,5.65-9.05,8.81-18.19,17.54-27.11,26.49a107.39,107.39,0,0,0-8,9.77c-2.39,3.06-4.65,6.21-7,9.28-.65.83-.5,1.38.35,2.07Z" transform="translate(-172.49 -204.7)"/><path class="cls-3" d="M498.77,362.24l-1.72-4.58c-.52.2-.94.34-1.35.51-12.37,5.43-24.79,10.75-37.07,16.38-3.72,1.7-7.08,4.21-10.54,6.45-4.16,2.7-8.26,5.51-12.38,8.27a7.25,7.25,0,0,0-.6.49C436.06,390,494.54,364.64,498.77,362.24Z" transform="translate(-172.49 -204.7)"/><path class="cls-3" d="M407.58,313.2c.71,3.27,1.39,6.49,2.1,9.7,2.3,10.42,4.47,20.88,7,31.26.88,3.61,2.59,7,4,10.51,2,5,4.11,9.94,6.16,14.91a1.32,1.32,0,0,0,.59.72c-.35-1.66-.69-3.32-1-5q-6.72-30.61-13.43-61.23c-.47-2.14-.08-2-2.4-1.62-.82.12-1.64.31-2.45.48A3.18,3.18,0,0,0,407.58,313.2Z" transform="translate(-172.49 -204.7)"/><path class="cls-3" d="M493.12,349.88l-2.74-4.21c-1.82,1.2-3.52,2.32-5.21,3.45-9.7,6.49-19.44,12.91-29.06,19.52a60.29,60.29,0,0,0-7,6.17c-4.39,4.16-8.69,8.4-13,12.61a1.93,1.93,0,0,0-.59,1Z" transform="translate(-172.49 -204.7)"/><path class="cls-3" d="M430.49,383.49l33.71-60-4.42-2.37c-1.18,2.07-2.32,4.05-3.44,6-5.37,9.6-10.83,19.16-16.07,28.84a67.75,67.75,0,0,0-3.71,9.26c-2.06,5.72-4,11.48-6,17.23-.1.31-.19.62-.29.93Z" transform="translate(-172.49 -204.7)"/><path class="cls-3" d="M425.45,378.55,422.33,371q-11.07-26.83-22.15-53.66c-.9-2.17-.51-2-2.7-1.11-.86.32-1.69.71-2.66,1.13.17.48.29.9.46,1.31,4.93,11.95,9.8,23.93,14.86,35.82a59,59,0,0,0,4.74,8.21c3.2,5.09,6.5,10.11,9.76,15.15.19.29.42.56.63.84Z" transform="translate(-172.49 -204.7)"/><path class="cls-3" d="M500.69,370.87l-7.33,1.7c-10.67,2.52-21.35,5-32,7.62a43.33,43.33,0,0,0-6.67,2.44c-5.41,2.31-10.78,4.71-16.16,7.07l-1.43.65.06.37a12.46,12.46,0,0,0,1.84-.17q23.5-5.51,47-11.05c4.67-1.1,9.33-2.22,14-3.27,1-.23,1.42-.62,1.21-1.69S500.87,372.18,500.69,370.87Z" transform="translate(-172.49 -204.7)"/><path class="cls-3" d="M428,379.47c0-3.66.1-7.31,0-11-.58-18.34-1.24-36.68-1.81-55,0-1.25-.38-1.73-1.63-1.64-1.07.07-2.16,0-3.45,0,0,.41,0,.85,0,1.28.44,13,.8,25.93,1.37,38.89a54.3,54.3,0,0,0,1.51,8.61c1.24,5.91,2.57,11.81,3.87,17.72.09.39.22.77.34,1.15Z" transform="translate(-172.49 -204.7)"/><path class="cls-3" d="M452.19,317.78c-1.4-.49-2.63-.88-3.83-1.35-.85-.34-1.08.12-1.31.79-1.46,4.22-2.94,8.42-4.4,12.64-2.62,7.52-5.4,15-7.79,22.58a93.94,93.94,0,0,0-2.35,11.49c-1,5.82-2,11.67-3,17.5,0,.16,0,.32.26.55C437.24,360.64,444.69,339.3,452.19,317.78Z" transform="translate(-172.49 -204.7)"/><path class="cls-3" d="M434.45,313c-.35,2.2-.69,4.24-1,6.29-1.57,10.22-3.27,20.42-4.65,30.67a69,69,0,0,0-.16,10.47c.12,5.75.37,11.49.78,17.29.08-.32.2-.63.25-.95q4.74-30.53,9.46-61.05c.28-1.79.27-1.8-1.5-2.14Z" transform="translate(-172.49 -204.7)"/><path class="cls-3" d="M607.41,359.08c1-2,2.18-3.9,3.11-5.93A86,86,0,0,0,618,327.29a29.55,29.55,0,0,0-1.74-12.67c-.46-1.37-.66-2.84-1.1-4.22-.87-2.73-1.81-5.44-2.75-8.15a1.64,1.64,0,0,0-.77-.85c.3,1.36.61,2.72.89,4.09a25.76,25.76,0,0,1,.2,9.82,8.12,8.12,0,0,1-.76,2.24c-1.16,2.24-2.4,2.64-4.91,1.48,5.17,13.4,4.54,26.68-.13,40Z" transform="translate(-172.49 -204.7)"/><path class="cls-3" d="M351.61,255.73a22.56,22.56,0,0,0-1.66,9.14,30.18,30.18,0,0,0,10.57,23.27c.35.31.88.7,1.26.64,3.36-.54,6.71-1.18,10.06-1.78,0-.12,0-.24,0-.36l-1.07-.74a29,29,0,0,1-12.23-16.07,6.3,6.3,0,0,0-1.27-2.08C354.31,264.26,352,260.47,351.61,255.73Z" transform="translate(-172.49 -204.7)"/><path class="cls-3" d="M553.71,384.37l4.45-.24c3.58-.21,7.16-.39,10.74-.65a3.1,3.1,0,0,0,1.68-.64,42.41,42.41,0,0,0,13.08-19c.9-2.63,1.57-5.35,2.3-8a6.16,6.16,0,0,0,.09-1.88,31.12,31.12,0,0,1-5.19,10.7,21,21,0,0,1-6.62,6,13.55,13.55,0,0,1-1.93.9c-3.38,1.19-5.64-.11-6.43-3.68a31.13,31.13,0,0,1-4.52,9.26A35.4,35.4,0,0,1,553.71,384.37Z" transform="translate(-172.49 -204.7)"/><path class="cls-3" d="M501.2,381.94c-6.19.82-12,1.74-17.92,2.35-6.79.7-13.62,1.1-20.43,1.71a35.24,35.24,0,0,0-4.53.9c-4.43,1-8.85,2.07-13.28,3.12a2.94,2.94,0,0,0-1.34.63l8.71-.49q23-1.31,46-2.61c1-.05,1.62-.33,1.83-1.39C500.47,384.82,500.83,383.5,501.2,381.94Z" transform="translate(-172.49 -204.7)"/><path class="cls-3" d="M545.34,372.73l3.8,7.13c.61,1.14,1.29,2.25,1.82,3.42.39.87.86.84,1.56.44a25.82,25.82,0,0,0,10.54-10.9,43.89,43.89,0,0,0,2.18-5.58,11.7,11.7,0,0,0,0-6.53,5.31,5.31,0,0,0-1.61-2.44,2.18,2.18,0,0,0-1.92-.31c-.38.15-.68,1.11-.62,1.66a18.16,18.16,0,0,1-.34,6.92C559.43,371.43,550.87,376.35,545.34,372.73Z" transform="translate(-172.49 -204.7)"/><path class="cls-3" d="M521,329.58q3.51,6.18,7,12.38c.48.85,1.1.36,1.63.16a15.15,15.15,0,0,0,9.44-14.22,7.18,7.18,0,0,0-1.87-5.14,9,9,0,0,0-1.81-1.16,8.46,8.46,0,0,0-.25,2.09c.68,4.88-1.46,7.54-6.4,7.59a18.6,18.6,0,0,1-4.52-.81,27.22,27.22,0,0,1-3-1.12Z" transform="translate(-172.49 -204.7)"/><path class="cls-3" d="M325.47,266c-.32-10.58,3.82-19.64,9-28.38a1.94,1.94,0,0,0,.3-.54c.28-2,.58-3.93.76-5.91a4.35,4.35,0,0,0-.47-1.56c-.55.19-1.27.23-1.64.61-5.42,5.59-8.9,12.12-9.58,20-.12,1.45-.21,2.91-.35,4.36-.35,3.78.58,7.36,1.73,10.9C325.3,265.61,325.4,265.79,325.47,266Z" transform="translate(-172.49 -204.7)"/><path class="cls-4" d="M480.51,334.93l-5.16-4.15-24.66,32.65.24.23Z" transform="translate(-172.49 -204.7)"/><path class="cls-4" d="M496.73,356.88c-1.09-2.13-2.11-4.12-3.22-6.26l-31.83,21.3c.05.08.09.17.14.26Z" transform="translate(-172.49 -204.7)"/><path class="cls-4" d="M489.94,345l-4.65-5.45L458.5,365.61l.2.26Z" transform="translate(-172.49 -204.7)"/><path class="cls-4" d="M499.09,363.11l-34.43,15.12.09.27,7-1.64c9.13-2.15,18.26-4.32,27.4-6.43,1.1-.25,1.44-.63,1.14-1.75C499.85,366.92,499.53,365.12,499.09,363.11Z" transform="translate(-172.49 -204.7)"/><path class="cls-4" d="M414.72,349.51l-7.94-36.29-6.59,1.91,14.24,34.47Z" transform="translate(-172.49 -204.7)"/><path class="cls-4" d="M413.32,312c2.67,12.13,5.28,24,7.94,36.15,0-2.61.06-5,0-7.32-.28-9.24-.63-18.49-.89-27.73,0-1.2-.4-1.48-1.55-1.36C417.05,311.94,415.27,311.93,413.32,312Z" transform="translate(-172.49 -204.7)"/><path class="cls-4" d="M407.94,351.38,394,317.62l-6,3.51,19.61,30.36Z" transform="translate(-172.49 -204.7)"/><path class="cls-3" d="M380.52,231.68c-.69-1.8-1.29-3.49-2-5.12a1.87,1.87,0,0,0-1.06-.91,23.63,23.63,0,0,0-12.57-.23,1.64,1.64,0,0,0-1,.68,11,11,0,0,0-1.55,6.09c.23,2.56,1.66,3.54,4.12,2.79a9.38,9.38,0,0,0,2.24-1.06c3.44-2.21,7.07-3.3,11.15-2.18A2.75,2.75,0,0,0,380.52,231.68Z" transform="translate(-172.49 -204.7)"/><path class="cls-4" d="M405.09,359.85,382.61,325c-1.38,1.37-2.64,2.56-3.78,3.86-.19.2,0,1,.28,1.32,2.71,3.22,5.48,6.39,8.23,9.58l16.82,19.5c.23.27.49.52.74.78C405,360,405,359.91,405.09,359.85Z" transform="translate(-172.49 -204.7)"/><path class="cls-4" d="M445.28,359.51,469.91,327l-4.29-2.71c-.71-.44-.95.08-1.23.57-2,3.6-4,7.2-6.06,10.8l-12.49,22.25c-.28.49-.53,1-.79,1.5Z" transform="translate(-172.49 -204.7)"/><path class="cls-4" d="M441.47,352c5.83-10.39,11.67-20.79,17.59-31.32L453,318.1c-4,11.37-7.88,22.59-11.78,33.81Z" transform="translate(-172.49 -204.7)"/><path class="cls-4" d="M435.11,349.05l11.59-33.18-6.48-1.78L434.81,349Z" transform="translate(-172.49 -204.7)"/><path class="cls-4" d="M433.67,312.87,427,312c.4,11.72.79,23.2,1.19,34.68l.28,0C430.16,335.45,431.9,324.25,433.67,312.87Z" transform="translate(-172.49 -204.7)"/><path class="cls-3" d="M363,269.13l-3.76.64a39,39,0,0,0,1.57,3.84,27.84,27.84,0,0,0,11.61,12.21,3.54,3.54,0,0,0,2.22.29,54.23,54.23,0,0,0,6.29-1.81,22.92,22.92,0,0,1-11.32-5.05A22.07,22.07,0,0,1,363,269.13Z" transform="translate(-172.49 -204.7)"/><path class="cls-4" d="M501.41,376.72l-34,8c0,.1,0,.2,0,.29,2.22-.21,4.45-.4,6.66-.65q12.48-1.41,25-2.85c2.27-.26,2.27-.29,2.3-2.6C501.42,378.28,501.41,377.63,501.41,376.72Z" transform="translate(-172.49 -204.7)"/><path class="cls-3" d="M599.89,371.48c-3.94,4.33-7.77,8.39-13,10.86a3.57,3.57,0,0,0,.72.1c4.78-.26,9.56-.55,14.35-.78.95-.05,1.11-.48,1-1.27A36.71,36.71,0,0,0,599.89,371.48Z" transform="translate(-172.49 -204.7)"/><path class="cls-3" d="M363,258.86c-2,8.25,3.48,19.46,11.33,22.4C370.49,273.76,366.75,266.36,363,258.86Z" transform="translate(-172.49 -204.7)"/><path class="cls-3" d="M575.47,272.89c2.16-3.1,5.35-2.76,8.42-3.23a29.9,29.9,0,0,0-6.35-9.41c0,1.59.4,3.4,0,5-.6,2.14-2.62,1.88-4.57,1.49.4,1.27.28,2.23-1.35,2.72Z" transform="translate(-172.49 -204.7)"/><path class="cls-3" d="M588.46,277.44c.85,3.11,1.57,6.1,2.53,9,.21.65,1.28,1,2,1.51.85-1.44,1.5-1.67,2.95-1.1.66.26,1.28.61,1.92.91l2.15,1a11.72,11.72,0,0,0-.35-1.79,13.35,13.35,0,0,0-4.07-5.28A24.87,24.87,0,0,0,588.46,277.44Z" transform="translate(-172.49 -204.7)"/><path class="cls-3" d="M418.26,406.4,421,389.75c-.17,0-.29-.09-.31-.06-2.67,3.54-5.19,7.2-5.76,11.73C414.48,404.77,414.47,404.6,418.26,406.4Z" transform="translate(-172.49 -204.7)"/><path class="cls-3" d="M413.82,403.42c-.06-5.74,3.28-10,6.47-14.67a9,9,0,0,0-1.1.55c-2.66,2.07-5.34,4.12-8,6.23a6.28,6.28,0,0,0-1.35,1.63,2.08,2.08,0,0,0,.23,2.83c1.18,1.16,2.28,2.4,3.41,3.6A3.07,3.07,0,0,0,413.82,403.42Z" transform="translate(-172.49 -204.7)"/><path class="cls-3" d="M324.62,266.72a29.32,29.32,0,0,1-1.91-14.89,16.35,16.35,0,0,0-5.94,5.15.92.92,0,0,0,.09.86c2.47,3,5,6,7.46,9Z" transform="translate(-172.49 -204.7)"/><path class="cls-3" d="M423.84,408.61c.16-2.86-1.51-16.86-2.29-17.92L419.14,407Z" transform="translate(-172.49 -204.7)"/><path class="cls-3" d="M423.12,393.56c.57,4.82,1.12,9.65,1.73,14.47a1.16,1.16,0,0,0,.75.76c1,.16,2,.19,3.3.28l-5.42-15.54Z" transform="translate(-172.49 -204.7)"/><path class="cls-3" d="M418,388.57c-3.2,1.12-6.41,2.21-9.6,3.36a7.88,7.88,0,0,0-1.46.94,1.08,1.08,0,0,0-.41,1.6c.62,1.08,1.22,2.16,1.92,3.42,2.45-4,6.16-6.39,9.77-8.86Z" transform="translate(-172.49 -204.7)"/><path class="cls-3" d="M405.91,392.53c4.17-2.88,9.08-3.48,13.7-4.9,0-.12,0-.23,0-.35a6.43,6.43,0,0,0-1.41-.25c-3.16.15-6.31.32-9.46.55C406.05,387.77,404.81,388.82,405.91,392.53Z" transform="translate(-172.49 -204.7)"/><path class="cls-3" d="M579.69,275.43l10.46,9.84c-.93-2.75-1.74-5.22-2.63-7.66a1.62,1.62,0,0,0-1-.81C584.33,276.31,582.14,275.91,579.69,275.43Z" transform="translate(-172.49 -204.7)"/><path class="cls-3" d="M424.81,395.28c.29.85.58,1.71.89,2.56,1.19,3.24,2.43,6.46,3.54,9.73.38,1.11.88,1.6,2.05,1.25.54-.16,1.12-.22,2-.39-2.77-4.58-5.41-9-8.06-13.36Z" transform="translate(-172.49 -204.7)"/><path class="cls-3" d="M520.13,315.53c2.65.44,3.23,2.45,4,4.26,2.16-1.31,2.24-4.67.14-7.53-.68.52-1.37,1-2,1.56S521,314.85,520.13,315.53Z" transform="translate(-172.49 -204.7)"/><path class="cls-3" d="M427.65,397.47l6.48,10.65,2.19-1.37-8.39-9.52Z" transform="translate(-172.49 -204.7)"/><path class="cls-3" d="M518.83,316.57c-1,.74-2,1.43-2.87,2.21a1.09,1.09,0,0,0-.23,1,22.15,22.15,0,0,0,1.66,3.07,1.25,1.25,0,0,0,1.16.28,2.35,2.35,0,0,0,1.11-2.79C519.41,319.14,519.13,317.93,518.83,316.57Z" transform="translate(-172.49 -204.7)"/><path class="cls-3" d="M532.85,305.66l-4.62,3.52C529.54,310,531.89,308.25,532.85,305.66Z" transform="translate(-172.49 -204.7)"/><path class="cls-3" d="M617.64,317.29c.36,1.75.7,3.45,1.05,5.14l.18,0c.09-.9.13-1.82.3-2.71C619.42,318.48,619.17,317.61,617.64,317.29Z" transform="translate(-172.49 -204.7)"/><path class="cls-4" d="M564.07,267.9c-.7-.33-1.39-.68-2.11-1-1.05-.42-2.11-.8-3.21,0a1,1,0,0,1-.86-.14,29,29,0,0,0-15.58-5.54,1.26,1.26,0,0,1-1.36-1.1,14.83,14.83,0,0,0-3.38-6.07c-5.29-6.19-11.83-9.92-20.11-10.29a1.63,1.63,0,0,1-1.11-.71c-4.76-9.06-12.63-12.73-22.46-13a2.2,2.2,0,0,1-1.79-.79c-5.28-5.68-11.93-8.22-19.58-8.18a18.69,18.69,0,0,0-5,1.06,1.62,1.62,0,0,1-1.85-.43c-6.81-6.34-14.94-8.16-23.89-6.69a19.14,19.14,0,0,0-5.22,2.25,1.46,1.46,0,0,1-1.58.07c-1.89-1-3.79-1.93-5.73-2.79a18.23,18.23,0,0,0-10.54-1.22c-4.32.72-8.47,1.86-12,4.56a1.24,1.24,0,0,1-1.08,0c-7.1-3.81-14.13-3.18-21.09.37a17.59,17.59,0,0,0-6.36,5.54,1.43,1.43,0,0,1-1.76.65A26.85,26.85,0,0,0,365,224.4a7.89,7.89,0,0,1,.39-.81,12.89,12.89,0,0,1,9.62-5.62,11.44,11.44,0,0,0,2.71-.39c.65-.25,1.48-.89,1.59-1.48a2.48,2.48,0,0,0-.79-2.12,10.84,10.84,0,0,0-3.27-.92c-.34-.07-.75.12-1.11.08s-.6-.24-.64-.42a.82.82,0,0,1,.39-.66,5.91,5.91,0,0,1,1.54-.5c.81-.17,1.65-.23,2.47-.39,1.78-.35,2.32-1.62,1.27-3.13a7.17,7.17,0,0,0-4.14-2.85,16.57,16.57,0,0,0-10.44.87c-10.16,4-18.34,10.53-23.88,20-1.73,3-2.9,6.27-4.33,9.41-.12.25-.26.49-.39.73l-.34,0c.11-.73.19-1.46.31-2.18a14.45,14.45,0,0,0,.5-3.07,3.2,3.2,0,0,0-1-2.2,2,2,0,0,0-2.58.61c-1.67,1.92-3.33,3.85-4.83,5.9-3.13,4.29-4.54,9.24-5.19,14.44a2,2,0,0,1-1.17,1.73,16.52,16.52,0,0,0-5.77,5c-.13,0-.24,0-.29,0-1.46-1.27-1.46-1.27-2.94,0l-3.46,3,109.2,126.67c-.5.06-.79.11-1.09.13-2.79.14-5.58.26-8.37.42a9.82,9.82,0,0,0-2.09.35c-1.48.44-2.28,1.32-2.13,2.81a14,14,0,0,0,1.09,4.93c4.35,8.54,11,14,20.81,15.11,6,.68,10.62-1.72,14.44-6.1a7,7,0,0,0,.5-.75l-6.54-8.66a7.18,7.18,0,0,1,1.05-.23c6.37-.23,12.75-.5,19.12-.65,9.8-.23,19.6-.34,29.4-.59,11.17-.28,22.35-.65,33.52-1,8.63-.25,17.26-.44,25.89-.75,7.29-.26,14.58-.71,21.87-1,8.09-.3,16.17-.47,24.26-.77,4-.14,8.08-.45,12.12-.64,1,0,1.26-.48,1.35-1.39.49-5.43.14-10.71-2.65-15.59a1.39,1.39,0,0,1,.09-1.8c9.35-11.41,14.75-24.58,17.42-39a91.64,91.64,0,0,0,1.9-19.26c-.41-14.37-6.57-25.89-17.46-35a19.56,19.56,0,0,0-8.15-4.21,6,6,0,0,1-1.38-.58,18,18,0,0,0-7.65-2.13,1.75,1.75,0,0,1-1.26-.7c-3.22-6.74-8.29-11.92-14.2-16.21a100.19,100.19,0,0,0-12.71-7.7,26.05,26.05,0,0,0-18.44-2.59,23.56,23.56,0,0,0-5,2.18c-.75.37-1.42,1.06-1,2a1.88,1.88,0,0,0,2.24.95c1.69-.26,3.36-.73,5.06-.84,5.92-.37,11.39.8,15.74,5.19a8.57,8.57,0,0,1,1.08,2,11.57,11.57,0,0,1-2.3-.26c-2.3-.74-4.53-1.7-6.84-2.37a5.46,5.46,0,0,0-4.49.42c-1.25.76-1.44,1.94-.19,2.66a12.81,12.81,0,0,0,4.17,1.47,25.93,25.93,0,0,1,13,6.28A10.15,10.15,0,0,1,564.07,267.9ZM501,387.38c.41-3,1.13-5.86,1.12-8.7a55.5,55.5,0,0,0-6.48-25.82,11.29,11.29,0,0,1-1-3.56c-.37-2.59-.25-5.31-1-7.79a159.88,159.88,0,0,1-4.3-19.92c-.5-3.25-1.29-6.47-1.63-9.74-.83-8.08-1.46-16.19-2.19-24.28a27.52,27.52,0,0,1-.33-3c.06-1.67,1-2.18,2.53-1.52a15,15,0,0,1,5.4,4.37c2.85,3.43,5.79,6.8,8.6,10.26a35,35,0,0,1,3.58,5.08c4.88,8.78,9.6,17.65,14.5,26.43,4.57,8.17,9.34,16.23,13.92,24.4,5.47,9.74,10.83,19.55,16.23,29.33.25.45.42.94.71,1.6ZM573.71,327l.12-.48a8,8,0,0,1,2,0,20.42,20.42,0,0,1,2.5,1.1c.47.2,1,.34,1.45.5a5.54,5.54,0,0,0,.29-1.62,14.21,14.21,0,0,0-2.5-6.61,25.29,25.29,0,0,0-11.61-9c-2.28-.93-4.62-1.69-6.91-2.61-1.59-.63-1.66-1.38-.37-2.53.19-.17.39-.32.59-.47,3.65-2.79,7.72-3,12-2.08a34.27,34.27,0,0,1,13.83,7c1.9,1.5,3.73,3.09,5.65,4.56,1.5,1.15,2.71.92,3.33-.87a12,12,0,0,0,.74-4.74,17.78,17.78,0,0,0-4.92-10.85A27.06,27.06,0,0,0,578,290.84a21.64,21.64,0,0,1-4-1.64c-1.44-.83-1.39-1.59-.05-2.53a11.7,11.7,0,0,1,7.24-2c4.09.08,7.71,1.62,11.22,3.56.51.28,1.07.48,1.79.8,0-.75-.08-1.18-.13-1.87a11.39,11.39,0,0,1,1.85.37c.89.36,1.7.91,2.6,1.23.53.18,1.46.33,1.69,0a1.92,1.92,0,0,0,.21-1.78,20.75,20.75,0,0,0-3.17-4.72,24.68,24.68,0,0,0-14.86-7c-1.61-.19-3.24-.33-4.83-.65-1.44-.29-1.76-1.48-.67-2.47a5,5,0,0,1,2-1.11c4.89-1.19,9.68-1.11,14.23,1.33a4.4,4.4,0,0,0,1.24.59,18.38,18.38,0,0,1,8.65,4.54c11.51,10.14,17.18,22.81,16.37,38.24a14.88,14.88,0,0,1-.24,1.48c-.53-.57-1-.86-1.15-1.27a29.14,29.14,0,0,1-1.8-5,31.54,31.54,0,0,0-3.52-9.85,9.57,9.57,0,0,0-1.06-1.54c-.18-.22-.54-.28-.82-.42a2.72,2.72,0,0,0-.27,1,14.46,14.46,0,0,0,.48,1.94c1.1,4.1,1.85,8.24,1.12,12.49a9.55,9.55,0,0,1-1.27,3.34c-.88,1.4-1.85,1.46-3.16.47-.43-.33-.79-.75-1.22-1.07a6.17,6.17,0,0,0-1-.51,5.41,5.41,0,0,0-.51,1.06c-.24.93-.32,1.9-.63,2.8-.39,1.13-1.07,1.34-2.15.88a5.88,5.88,0,0,0-1-.21,5.32,5.32,0,0,0-.2,1.16c.16,2.2.45,4.4.52,6.61a33.85,33.85,0,0,1-3.81,16.9c-1.57,3-3.68,5.59-7.07,6.73a3.56,3.56,0,0,1-3.86-.62c-.73-.68-1.27-.46-1.55.48-.08.28-.09.58-.16.86-1.56,6.48-4.81,11.89-10.35,15.72a12.22,12.22,0,0,1-4.34,1.76,2.77,2.77,0,0,1-3.37-2.54c-.14-.81-.09-1.66-.18-2.49s.16-1.1.93-1.31a13.63,13.63,0,0,0,6.79-4.47,22.29,22.29,0,0,0,4.77-9.93c1.69-7.11-.2-13-6-17.6a9.29,9.29,0,0,1-.94-.83c-.63-.65-.5-1.21.32-1.54a10,10,0,0,1,1.8-.49c.9-.18,1-.61.47-1.29C574.6,327.94,574.15,327.47,573.71,327Zm-196.16,1.44-27.9-32.33.24-.36c1.94-.17,3.91-.23,5.83-.55a126.82,126.82,0,0,1,15.93-1.38c6.47-.25,12.89-.87,18.9-3.71a19.19,19.19,0,0,1,9.39-1.68,33.82,33.82,0,0,0,12.82-1.73A26.42,26.42,0,0,1,423,285a40,40,0,0,0,12.53-1.27,55.07,55.07,0,0,1,6.75-1.3,34.64,34.64,0,0,0,12.26-3.69,16.07,16.07,0,0,1,2.31-1c1.32-.46,2,0,2.09,1.38a3.22,3.22,0,0,1-.37,1.67c-.83,1.48-1.73,2.94-2.68,4.35s-2.23,2.52-2.75,4-1.79,2.25-2.94,3.16a64.45,64.45,0,0,1-20.31,10.57,36.15,36.15,0,0,0-5,2.54c-1.67.84-3.32,1.74-5.06,2.42-2.2.88-4.64,1.28-6.7,2.39-2.84,1.55-5.95,2.15-9,3A50.86,50.86,0,0,0,391.87,318c-3.22,1.89-6.36,3.94-9.41,6.1A59.86,59.86,0,0,0,377.55,328.42Zm17.7-48.63c-.15-.37-.29-.63-.37-.9q-5.82-20.38-11.6-40.79a1.33,1.33,0,0,1,.44-1.06c.95-.82,1.2-1.57.48-2.6a18,18,0,0,0-1.77-1.71,6.92,6.92,0,0,1-1.36-1.77,48.38,48.38,0,0,0-1.92-4.74,1.94,1.94,0,0,1,.27-2.6c4.57-5.78,15.78-10.11,25.19-5.25a2.83,2.83,0,0,1,1.8,2.4c.49,4.35,1.08,8.69,1.62,13q2.37,19.19,4.74,38.37c.11.87-.09,1.25-.93,1.55-4,1.41-7.92,2.89-11.87,4.34Zm41.11-61c-.18,3.19-.37,6.31-.53,9.43L434,265.56c0,.65.06,1.25-.87,1.52-6.07,1.81-12.12,3.7-18.17,5.56l-1.18.31c-.07-.51-.12-.91-.17-1.31-1-8.24-1.91-16.48-3-24.71-1.11-8.73-2.32-17.44-3.53-26.16-.28-2.09-.35-2.1,1.47-3.17a28.33,28.33,0,0,1,13-3.7,15.83,15.83,0,0,1,7.55,1.41C431.52,216.4,433.9,217.6,436.36,218.78Zm-1.55,47.8c0-.44,0-.77,0-1.09.27-4.91.57-9.83.8-14.74q.67-14.61,1.28-29.24c0-.94-.13-1.89-.11-2.84a1.13,1.13,0,0,1,.5-.85,20.73,20.73,0,0,1,4.91-2c8.36-1.34,16,.3,22.54,6a1.64,1.64,0,0,1,.66,1.93q-1.25,4.32-2.39,8.68c-2.63,10-5.23,20.08-7.89,30.12a1.58,1.58,0,0,1-1,1c-6,1-12.08,2-18.12,3C435.62,266.49,435.26,266.52,434.81,266.58Zm112,50.2c1.84-2.1,1.95-4.56,1.28-7.06a30.9,30.9,0,0,0-1.73-4.28c-.32-.72-.81-1.37-1.07-2.11-.16-.47-.27-1.24,0-1.5a1.8,1.8,0,0,1,1.56-.35,7.93,7.93,0,0,1,2.77,1.34,59,59,0,0,1,6.43,5.89,70.84,70.84,0,0,1,13.56,24.17,31.61,31.61,0,0,1,.08,20.88,20.64,20.64,0,0,1-3.44,6.4,26.17,26.17,0,0,0-2.12-2.57,2.52,2.52,0,0,0-3-.39c-1,.54-1,1.55-.92,2.53,0,.29.08.58.12.87,1.07,7.25-3.21,11.42-9.7,12.49-2,.32-5.73-1.34-6.5-2.73l-4.69-8.54c-.31-.57-.61-1.14-.93-1.75a16.9,16.9,0,0,0,7.18-5.3c4.35-5.41,6.23-11.79,6.58-18.55A30.45,30.45,0,0,0,546.82,316.78Zm-42.11-17c-.18-.24-.32-.38-.43-.55-3.38-5.15-6.77-10.3-10.12-15.48a1.44,1.44,0,0,1,0-1.28c4.82-8,9.69-16,14.53-24q3.91-6.47,7.77-13a1.6,1.6,0,0,1,1.91-1c2.54.61,5.22.88,7.62,1.84a26.17,26.17,0,0,1,13.31,11.78,20.53,20.53,0,0,1,1.06,2.94c-1,0-1.72,0-2.42,0a16.88,16.88,0,0,0-9.17,2.9,18.53,18.53,0,0,0-2.45,2.62l.27.3a9.27,9.27,0,0,0-5.82,1.67,2.4,2.4,0,0,0-.69,2.13c.14.51,1.17,1,1.84,1.06,1.86.14,3.74,0,5.62.06a13,13,0,0,1,2.09.38c-.77.72-1.86,1.26-2,2-.23,1.22-.79,1.12-1.72,1.3a5.21,5.21,0,0,0-2.66,1.53c-.28.29.21,1.33.4,2.27Zm11.48-55.11-23,37.79c-4.79-5.59-9.83-10.65-16.15-14.21.09-.28.12-.45.18-.6q7.63-18,15.25-36.07a1.26,1.26,0,0,1,1.33-.83c6.28-.23,11.63,2.1,16.53,5.8C513.1,238.62,514.74,241.54,516.19,244.63ZM456,263.07c.05-.26.11-.66.21-1q4.93-19,9.88-38a1.09,1.09,0,0,1,.53-.7c2-.52,3.95-1.35,5.94-1.39a24.81,24.81,0,0,1,18.94,7.55,1.47,1.47,0,0,1,.34,1.87q-7.53,17.65-15,35.34c-.16.37-.36.72-.44.89-3.45-1-6.7-2.27-10.06-3S459.48,263.56,456,263.07ZM413.3,310.92c.7-.24,1.53-.5,2.32-.81,3.1-1.22,6.21-2.39,9.26-3.71,2.51-1.09,4.92-2.43,7.42-3.55,2.78-1.24,5.69-2.2,8.39-3.57,5.8-2.93,10.7-7.21,16-10.93,3.4-2.4,6.56-5.18,10.07-7.4,4.09-2.58,5.2-2.31,8.92.74a.44.44,0,0,1,.1.08,7.09,7.09,0,0,1,1.13,2.13,7.45,7.45,0,0,1-.22,3.08c-.83,2.83-1.73,5.64-2.73,8.42-1.47,4.07-4,7.6-6.26,11.22-1.24,2-2.61,3.85-4,5.7-.95,1.26-2.05,2.41-3.09,3.6-.74.84-1.52,1.66-2.25,2.51a1.16,1.16,0,0,1-1.53.28c-2.91-1.11-5.82-2.24-8.79-3.2a88.65,88.65,0,0,0-20.17-4.16C423,311,418.12,311.05,413.3,310.92Zm23.62,95.31L310.37,259.52l3.86-3.34L440.69,403ZM544.71,242.55c0-.11,0-.21.07-.32,2.89.61,5.89.89,8.63,1.89a61,61,0,0,1,21.19,13.2,9.26,9.26,0,0,1,2.69,5.93c.24,2.33-1.28,3.55-3.52,2.92-1.75-.48-1.71-.49-1.47,1.26a1.25,1.25,0,0,1-.58,1.06c-1.26.26-.86.79-.39,1.47a18.62,18.62,0,0,1,2.06,3.26,3.56,3.56,0,0,1-3,5,6.14,6.14,0,0,1-2.44-.4c-1.89-.76-3.72-1.67-5.58-2.49a4.14,4.14,0,0,0-.93-.18,2.54,2.54,0,0,0,0,1c.33.81.81,1.55,1.13,2.36,1.95,5-1.69,10-6.82,8.84a71.43,71.43,0,0,1-11.4-4,46.4,46.4,0,0,1-5.7-3.11c-.75-.43-2.06-.61-1.82-1.72s1.58-1.13,2.53-1c1.61.19,3.18.62,4.79.88.52.08,1.39.13,1.59-.15.73-1.09,1.62-.84,2.55-.56s1.54.63,2.34.87c.36.11.92.16,1.13,0a1.18,1.18,0,0,0,.12-1.11,19.89,19.89,0,0,0-2.62-3.74,20.49,20.49,0,0,0-12-5.41c-2.77-.37-5.56-.49-8.34-.8a1.78,1.78,0,0,1-1.23-.83c-.13-.28.23-1,.57-1.23a18.9,18.9,0,0,1,4.65-2.58c8.72-2.33,16.83-.77,24.28,4.28.74.5,1.35,1.14,2.27.2.24-.24,1-.16,1.42,0,.79.24,1.52.68,2.31,1a10.34,10.34,0,0,0,1.51.27,4.6,4.6,0,0,0,0-1.65,12.92,12.92,0,0,0-3.7-5.27A26.3,26.3,0,0,0,547,255.12a8.31,8.31,0,0,1-2.82-.94c-1.14-.62-1.07-1.51.17-1.93a5.32,5.32,0,0,1,2.81-.25c2.29.57,4.52,1.38,6.77,2.12a19.29,19.29,0,0,0,2.34.84c.5.08,1.33-.07,1.53-.41a2.57,2.57,0,0,0,0-1.73,2.71,2.71,0,0,0-.72-1,15.73,15.73,0,0,0-6-4.15,23,23,0,0,0-14.6-.86c-.89.23-2,.74-2.51-.38-.14-.33,1-1.39,1.67-1.81A17.62,17.62,0,0,1,544.71,242.55Zm-26.5,81.79c2.32-1.38,2.75-2.46,2.06-5a6.31,6.31,0,0,1-.37-1.45c0-.4.16-1.08.4-1.16a1.42,1.42,0,0,1,1.3.3,13.68,13.68,0,0,1,1.57,2.79c.46,1.11.84,1.31,1.82.61a4.36,4.36,0,0,0,1.69-4.43,10,10,0,0,0-2.39-5.28,17.92,17.92,0,0,1-1.88-2.33,6.66,6.66,0,0,1-.41-2,6.07,6.07,0,0,1,2.3-.28,5.09,5.09,0,0,1,2.89,2.95c.83,1.68,1.54,1.86,3.17.9a9.43,9.43,0,0,0,4.08-9.67c-.67-3.65-3.05-5.62-6.51-6.65a8.56,8.56,0,0,1-3-1.88c-.73-.65-.49-1.43.42-1.91a4.64,4.64,0,0,1,4.33-.09c1.14.53,2.21,1.17,3.33,1.74,2,1,3.14.5,3.64-1.71a8.57,8.57,0,0,0-5.59-9.85c-2-.69-4.2-1-6.29-1.57-.39-.1-.7-.48-1-.73.26-.35.48-.94.8-1a13.86,13.86,0,0,1,2.88-.18c.6,0,1.13.13,1-.75-.23-2,.08-2.31,2-2.33a3.26,3.26,0,0,0,1-.3c-.18-.3-.3-.78-.55-.88a14.64,14.64,0,0,0-3.54-1c-1.78-.16-3.58,0-5.37,0-.49,0-1.27-.42-1.35-.77a1.81,1.81,0,0,1,.7-1.44,7.44,7.44,0,0,1,5.84-1.11c1.55.25,3.08.62,4.63.82,1.74.22,3.5.23,5.23.48,4.68.69,9,2.28,12.28,5.85a23.5,23.5,0,0,1,1.88,2.62l-.28.23a19.32,19.32,0,0,0-3.06-1,2.88,2.88,0,0,0-2.18.39c-.61.61-1.05.5-1.73.4a58.82,58.82,0,0,0-6-.71,1.88,1.88,0,0,0-2,1.58c-.18,1,.58,1.59,1.38,2,1.51.8,3.07,1.51,4.56,2.35,6,3.39,9.93,8.21,9.94,15.47a34.61,34.61,0,0,1-.51,4.34,30,30,0,0,0-4.27-1.94,2.61,2.61,0,0,0-2.34.54,3.36,3.36,0,0,0-.09,2.53,16.9,16.9,0,0,0,1.41,2.78,11.22,11.22,0,0,1,1.52,6.48,4.08,4.08,0,0,1-1.49,3.07c-.34-.56-.65-1-.9-1.52a7.39,7.39,0,0,0-4.68-3.88,3.22,3.22,0,0,0-2.62.42c-.48.45-.42,1.69-.3,2.53a10.51,10.51,0,0,0,.94,2.3,26.55,26.55,0,0,1,1.27,3.38,6.63,6.63,0,0,1-.55,4.46,16.32,16.32,0,0,0-2.14-2.32,3,3,0,0,0-2.1-.6c-1,.24-.9,1.26-.83,2.12.08,1,.17,2.07.2,3.11A3.81,3.81,0,0,1,531.4,330c-3.3,1.14-6.29-.1-9.32-1.22C520,328,519.09,326.26,518.21,324.34ZM371.72,205.6c2.82-.06,5.07.74,6.45,2.42a2.28,2.28,0,0,1,.63,1.62c-.12.39-.95.64-1.51.79-1.12.29-2.29.41-3.41.73-.79.23-1.45.77-1.22,1.75s1,1.11,1.86,1.06a10.22,10.22,0,0,1,2-.06c1,.14,2.12.47,2.12,1.71s-1.25,1.27-2.16,1.31c-7.36.35-12.38,4.79-14.47,12a9.44,9.44,0,0,0-.3,3.7c.35,2.79,2.24,4,4.91,3.14a16.59,16.59,0,0,0,3.45-1.72c3.56-2.1,7.25-2.66,11.13-1a6.39,6.39,0,0,1,2.12,1.48c.84.9.52,1.82-.71,1.93a30.73,30.73,0,0,1-4.6-.06,13.28,13.28,0,0,0-11.09,4.4c-.67.72-1.54,1.6-.67,2.61s1.7.19,2.48-.26a3.21,3.21,0,0,1,3.2-.4c.54.27.85,1,1.26,1.5-.46.35-.89.95-1.39,1-4.21.58-6.49,3.36-8,7a23.73,23.73,0,0,0-1.56,14.57,1.94,1.94,0,0,1-.56,1.6,2.55,2.55,0,0,1-1.73.21,2,2,0,0,1-1.13-.74,48.52,48.52,0,0,1-4.09-5.32c-2.21-3.73-3.12-7.63-.55-11.67.59-.95.28-1.36-.83-1.38a2.55,2.55,0,0,1-2.73-2.34,7.33,7.33,0,0,1,.16-2.47,12.8,12.8,0,0,1,3.56-5.94,11.16,11.16,0,0,0,1.67-1.84,2,2,0,0,0,.24-1.68,1.88,1.88,0,0,0-1.61-.47,15.78,15.78,0,0,0-2.71.93c-2,.74-3.48-.13-3.34-2.23a16.15,16.15,0,0,1,1.18-5.42,25.57,25.57,0,0,1,5.4-8.21c.53-.52.6-.92-.14-1.36-1.77-1.06-2.07-2.1-1.2-3.95a8.67,8.67,0,0,1,3.32-3.78C361.63,207.91,366.32,205.75,371.72,205.6Zm22.64,74.57c-2.47.82-4.83,1.51-7.12,2.37a14.87,14.87,0,0,1-10.61-.17,2.63,2.63,0,0,1-1.34-1.14c-3.94-7.68-7.82-15.39-11.7-23.1a2.16,2.16,0,0,1-.34-1.29c.89-4.35,3.46-10.39,8.83-10.71a2,2,0,0,0,2-1.76,2.51,2.51,0,0,0-1.78-2.46,4.41,4.41,0,0,0-3.85.41A15,15,0,0,1,367,243l-.27-.33a9.87,9.87,0,0,1,.91-1.37,12.43,12.43,0,0,1,10.1-4,29.83,29.83,0,0,0,3.11.25c1.15-.08,1.56.39,1.85,1.44q4.69,16.94,9.48,33.85C392.83,275.18,393.58,277.56,394.36,280.17ZM606,318.62c.31.71.64,1.41.93,2.13a46.58,46.58,0,0,1,2.71,22c-.45,4.85-1.95,9.62-3.08,14.4a25.36,25.36,0,0,1-5.81,11.57c-.6.67-1.15,1.38-1.72,2.08A41.34,41.34,0,0,1,584,382.56a2.2,2.2,0,0,1-.73.14l-11,.62a4.35,4.35,0,0,1-.57-.13c8.94-8,13.8-18,15.3-29.7a6.32,6.32,0,0,0,6.61-1.32,18.74,18.74,0,0,0,4.23-4.71c4.27-7.31,5.15-15.3,4.17-23.58-.06-.48-.11-1-.16-1.48C604.39,322.8,604.92,322.27,606,318.62ZM493.93,348.86l-.35.09c-8.68-13.38-21-22.42-35.2-29.59a9.21,9.21,0,0,0,1-.86c2.37-2.73,5.09-5.25,7-8.27,2.82-4.4,6-8.69,7.65-13.72.7-2.07,2.29-2.7,4-3.31a2.31,2.31,0,0,1,2.86.94,22,22,0,0,1,1.58,2.69c2.85,6,4.08,12.43,5.22,18.86,1.53,8.66,2.48,17.42,5.13,25.86C493.58,343.87,493.59,346.42,493.93,348.86Zm98.79-34.41-.52.41c-.72-.53-1.47-1-2.16-1.6a65,65,0,0,0-11.25-8.09,27.43,27.43,0,0,0-11-3.2,13.17,13.17,0,0,0-9.61,3.18c-1.84,1.52-1.65,2.9.5,3.85.53.24,1.09.42,1.64.62,2,.73,3.93,1.39,5.86,2.18a25.43,25.43,0,0,1,9.48,6.79,14.92,14.92,0,0,1,3.58,7.33c.07.41.08.83.14,1.44a7.72,7.72,0,0,0-1.64-.9,13,13,0,0,0-3.61-.63c-1.29.05-1.55,1-.74,2,.27.34.57.65.91,1-.62.19-1.11.31-1.56.49-1.82.72-2,1.86-.6,3.19.43.39.89.75,1.35,1.12a14.79,14.79,0,0,1,5.43,9.69c.69,4.53-.66,8.73-2.65,12.67a14.33,14.33,0,0,1-8,7.5c-.58.2-1.45.78-1.72-.13a4,4,0,0,1,.2-2.52c.36-.85,1.22-1.48,1.68-2.3A30,30,0,0,0,571.71,338c-1.11-6.36-3.78-12.16-6.85-17.78a58.58,58.58,0,0,0-12.45-16.18,1.62,1.62,0,0,1-.32-1.34c1.26-6.19.33-11.78-4.3-16.41a7.6,7.6,0,0,1-.52-.61c1.6.44,3.06,1.19,4.6,1.62a21.19,21.19,0,0,0,5.84,1.09,14.32,14.32,0,0,1,6.41,1.28c3.25,1.52,6.49,3.08,9.61,4.83A46.86,46.86,0,0,1,590.62,310,36,36,0,0,1,592.72,314.45Zm-247.1-23,.75-.1c5.64-.55,11.33-.84,16.92-1.71,11.31-1.78,22.2-5.24,33-9.07q14.25-5.07,28.53-10.09a4.8,4.8,0,0,1,1.34-.29c3.91-.13,7.83-.23,11.74-.35,1.29-.05,2.57-.14,3.86-.22,1.82-.11,3.64-.27,5.47-.32a2.52,2.52,0,0,1,2.41,1.86,2,2,0,0,1-.71,2.45c-1.54,1.11-3.09,2.43-4.86,2.95-9,2.7-17.78,6.43-27.1,8.2a12.11,12.11,0,0,0-1.57.42A41.87,41.87,0,0,1,399,287.66a16.63,16.63,0,0,0-8.06,1.47,44.25,44.25,0,0,1-16.48,3.71c-4.5.23-9,.4-13.48.76-3.48.28-6.95.86-10.43,1.21a3.5,3.5,0,0,1-2.31-.41A21.25,21.25,0,0,1,345.62,291.41Zm84.76-22.2,0-.48c1.53-.36,3.06-.75,4.6-1.07,7.11-1.45,14.17-3.32,21.47-3.29,9.57,0,18.48,2.44,26.08,8.62,6.94,5.64,12.37,12.56,17.07,20.11l1.58,2.59a3,3,0,0,1-1.1-.88l-6.54-7.91a13.18,13.18,0,0,0-5.4-4.33,3.49,3.49,0,0,0-2.43-.14,2.47,2.47,0,0,0-1.1,2.72c.53,4.64,1.11,9.27,1.62,13.91.32,2.84.53,5.69.8,8.54-.71-1.63-1-3.36-1.62-5a75.2,75.2,0,0,0-3.61-8.34c-1.09-2.07-2.66-2.33-4.8-1.39l-2,.92c.35-1,.58-1.61.82-2.25.51-1.41,1.14-2.79,1.52-4.23.95-3.57.31-5.16-2.71-7.22-.32-.22-.64-.4-.94-.63a4.19,4.19,0,0,0-4.72-.36,47.32,47.32,0,0,0-5.56,3.34c-2.68,1.91-5.23,4-7.85,6-.53.4-1.12.71-1.68,1.06l-.26-.31c.94-1.2,2-2.35,2.81-3.62a56.49,56.49,0,0,0,3.05-5.14,2.75,2.75,0,0,0-.65-3.23c-.77-.82-1.73-.37-2.57,0-1.08.43-2.1,1-3.2,1.42a72.72,72.72,0,0,1-8.05,2.63c-4.39,1-8.83,1.73-13.28,2.42-2.51.39-5.07.45-7.61.66,0-.14,0-.27-.07-.4.37-.15.73-.31,1.11-.43,4.41-1.39,8.83-2.77,13.24-4.17,2-.64,4.08-1.23,6-2s4-1.67,5.37-3.52a3.28,3.28,0,0,0-2.15-5.24,17.85,17.85,0,0,0-3.35-.08C439.68,268.69,435,269,430.38,269.21Zm-73.92,20.34c-4,.26-7.65.53-11.34.72-.35,0-.8-.4-1.08-.72q-2.13-2.37-4.18-4.82a6.73,6.73,0,0,1-1.43-2A38.12,38.12,0,0,1,336.6,276a52,52,0,0,1,5.29-30.47,25,25,0,0,1,5.59-7.62c.59-.53,1.47-1.26,2.09-1.15a7,7,0,0,0,3.74-.7c.69-.25,1.43-.4,2.15-.59.1.15.2.29.29.44-.6.69-1.15,1.44-1.81,2.08a14.51,14.51,0,0,0-3.72,5.7,6.37,6.37,0,0,0-.17,4.53,3.71,3.71,0,0,0,2.8,2.27c-6.68,14.54-4.06,27.24,7.14,38.45-1.56.37-2.95.65-3.82-1.08-.12-.24-.54-.34-.82-.5l-.18.27C355.53,288.14,355.88,288.67,356.46,289.55Zm158.59,28.83c-.22-.29-.34-.41-.42-.55-3-5.51-6.1-11-9.09-16.56a1.51,1.51,0,0,1,.24-1.35q9.24-10.12,18.58-20.15a1.49,1.49,0,0,1,1.17-.45,37.85,37.85,0,0,1,5.8,1.45,7.71,7.71,0,0,1,4.54,8.91c-.41,1.63-1,1.89-2.51,1.12a30.48,30.48,0,0,0-3-1.57,9.69,9.69,0,0,0-3.13-.67c-1.61,0-3.16,1-3.37,1.93s.77,2.54,2.19,3.24a30.14,30.14,0,0,0,2.94,1,7.35,7.35,0,0,1,4.57,8.81,1.64,1.64,0,0,1-.5.83c-1.7,1.32-3.44,2.61-5.22,3.95a5.83,5.83,0,0,0-.87-1.17,14.56,14.56,0,0,0-2.79-2,2.26,2.26,0,0,0-2.84.67c-.73.95-.35,1.92.25,2.78s1.42,1.84,2.22,2.86Zm87.69,64.08c0,1.61,0,3.05,0,4.5,0,.71-.29.93-1,1-2.49.11-5,.33-7.49.4-7.92.25-15.84.38-23.76.68-8.58.33-17.15.87-25.73,1.18-10.71.38-21.43.62-32.14.92-12.21.35-24.42.74-36.63,1-8.13.21-16.26.3-24.39.51-5.29.13-10.58.38-15.87.55a7.47,7.47,0,0,1-1.38-.22l0-.57c2-.26,4.06-.66,6.11-.78,10.11-.62,20.23-1.16,30.35-1.73l101.53-5.73L588,383.3Zm-73.84-39c.19-.14.25-.21.33-.23a15.49,15.49,0,0,0,10.26-17.41,1.52,1.52,0,0,1,.12-.92,8.11,8.11,0,0,0,.36-7.79c-.53-1.22-1.18-2.4-1.62-3.65-.58-1.7.15-2.46,1.87-2a6.88,6.88,0,0,1,4.26,3.61,10,10,0,0,0,1.09,1.65,15.36,15.36,0,0,1,1.94,2.21c3.93,7.38,5.31,15.13,3.08,23.32-1.26,4.61-2.84,9.09-6.23,12.66a16.56,16.56,0,0,1-6.3,4.4C535,354,532,348.75,528.9,343.43ZM354.66,219.23c-.3.33-.55.6-.78.88a30.94,30.94,0,0,0-5.44,9.07c-.83,2.25-1.25,4.59-.08,6.53-1.72,2-3.63,3.66-4.94,5.73a50.18,50.18,0,0,0-7,38.33c.06.26.09.53.16,1a4.89,4.89,0,0,1-.52-.42q-4.38-5.06-8.76-10.12a1.62,1.62,0,0,1-.4-.87c-.13-1.79-.28-3.58-.29-5.37-.07-9.49,3.82-17.73,8.27-25.77.14-.24.38-.59.58-.6,1.5-.06,1.75-1.24,2.11-2.28a44.58,44.58,0,0,1,15.29-21.48c.23-.18.5-.33.88-.58C352.37,216.85,352.46,217.44,354.66,219.23Zm238.8,94.4c-6.81-13.77-19.09-20.58-32.59-26,1.76-1.2,2.36-3.09,2.83-5.07s-.12-4-1.27-6.14c.72.34,1.07.54,1.44.67a39.54,39.54,0,0,0,5,1.83c3.5.83,6.11-1.88,5.36-5.39-.06-.29-.1-.59-.15-.88a6.1,6.1,0,0,1,1.57,1.27,10.33,10.33,0,0,0,1.6,1.28,18,18,0,0,1,1.94,1.05c2.39,2,4.75,4.06,7,6.18a41.59,41.59,0,0,1,2.8,3.09c-2.6-.49-5.14-1.14-7.72-1.41a11.48,11.48,0,0,0-7.73,1.95c-1.91,1.28-1.91,2.66.1,3.8a19.48,19.48,0,0,0,3.7,1.49,28,28,0,0,1,9.23,4.87A19.62,19.62,0,0,1,594,308.05,8.28,8.28,0,0,1,593.46,313.63Zm-206.11,8,46,71.12a1.43,1.43,0,0,1-.68-.45c-4.68-5.44-9.38-10.86-14-16.32-3.19-3.75-6.65-7.32-9.38-11.38-7.6-11.32-14.88-22.85-22.28-34.3-1.22-1.88-2.42-3.77-3.68-5.74Zm87.32,8.66-42.59,56.33c-1.19-1.05-1.43-2-.57-3.26,1-1.48,1.77-3.11,2.66-4.67,2.49-4.33,4.63-8.93,7.56-12.95,8.54-11.72,17.4-23.22,26.14-34.8.89-1.18,1.79-2.35,2.71-3.55Zm9.75,8.95-50.95,49.49c-.85-.69-1-1.24-.35-2.07,2.38-3.07,4.64-6.22,7-9.28a107.39,107.39,0,0,1,8-9.77c8.92-8.95,18.06-17.68,27.11-26.49,1.91-1.86,3.83-3.7,5.85-5.65Zm14.35,23c-4.23,2.4-62.71,27.72-63.66,27.52a7.25,7.25,0,0,1,.6-.49c4.12-2.76,8.22-5.57,12.38-8.27,3.46-2.24,6.82-4.75,10.54-6.45,12.28-5.63,24.7-10.95,37.07-16.38.41-.17.83-.31,1.35-.51Zm-91.19-49a3.18,3.18,0,0,1,.49-.25c.81-.17,1.63-.36,2.45-.48,2.32-.34,1.93-.52,2.4,1.62q6.72,30.62,13.43,61.23c.36,1.66.7,3.32,1,5a1.32,1.32,0,0,1-.59-.72c-2.05-5-4.14-9.93-6.16-14.91-1.4-3.48-3.11-6.9-4-10.51-2.51-10.38-4.68-20.84-7-31.26C409,319.69,408.29,316.47,407.58,313.2Zm85.54,36.68-57.66,38.53a1.93,1.93,0,0,1,.59-1c4.34-4.21,8.64-8.45,13-12.61a60.29,60.29,0,0,1,7-6.17c9.62-6.61,19.36-13,29.06-19.52,1.69-1.13,3.39-2.25,5.21-3.45Zm-62.63,33.61-.25-.12c.1-.31.19-.62.29-.93,2-5.75,4-11.51,6-17.23a67.75,67.75,0,0,1,3.71-9.26c5.24-9.68,10.7-19.24,16.07-28.84,1.12-2,2.26-4,3.44-6l4.42,2.37Zm-5-4.94-.18.1c-.21-.28-.44-.55-.63-.84-3.26-5-6.56-10.06-9.76-15.15a59,59,0,0,1-4.74-8.21c-5.06-11.89-9.93-23.87-14.86-35.82-.17-.41-.29-.83-.46-1.31,1-.42,1.8-.81,2.66-1.13,2.19-.85,1.8-1.06,2.7,1.11q11.08,26.82,22.15,53.66Zm75.24-7.68c.18,1.31.29,2.5.52,3.67S501,376,500,376.23c-4.68,1-9.34,2.17-14,3.27Q462.5,385,439,390.55a12.46,12.46,0,0,1-1.84.17l-.06-.37,1.43-.65c5.38-2.36,10.75-4.76,16.16-7.07a43.33,43.33,0,0,1,6.67-2.44c10.65-2.61,21.33-5.1,32-7.62ZM428,379.47l.19,0c-.12-.38-.25-.76-.34-1.15-1.3-5.91-2.63-11.81-3.87-17.72a54.3,54.3,0,0,1-1.51-8.61c-.57-13-.93-25.92-1.37-38.89,0-.43,0-.87,0-1.28,1.29,0,2.38.06,3.45,0,1.25-.09,1.59.39,1.63,1.64.57,18.35,1.23,36.69,1.81,55C428.12,372.16,428,375.81,428,379.47Zm24.17-61.69c-7.5,21.52-14.95,42.86-22.4,64.2-.26-.23-.28-.39-.26-.55,1-5.83,1.94-11.68,3-17.5a93.94,93.94,0,0,1,2.35-11.49c2.39-7.59,5.17-15.06,7.79-22.58,1.46-4.22,2.94-8.42,4.4-12.64.23-.67.46-1.13,1.31-.79C449.56,316.9,450.79,317.29,452.19,317.78ZM434.45,313l3.17.58c1.77.34,1.78.35,1.5,2.14q-4.72,30.53-9.46,61.05c-.05.32-.17.63-.25.95-.41-5.8-.66-11.54-.78-17.29a69,69,0,0,1,.16-10.47c1.38-10.25,3.08-20.45,4.65-30.67C433.76,317.28,434.1,315.24,434.45,313Zm173,46-.5-.1c4.67-13.27,5.3-26.55.13-40,2.51,1.16,3.75.76,4.91-1.48a8.12,8.12,0,0,0,.76-2.24,25.76,25.76,0,0,0-.2-9.82c-.28-1.37-.59-2.73-.89-4.09a1.64,1.64,0,0,1,.77.85c.94,2.71,1.88,5.42,2.75,8.15.44,1.38.64,2.85,1.1,4.22A29.55,29.55,0,0,1,618,327.29a86,86,0,0,1-7.46,25.86C609.59,355.18,608.45,357.11,607.41,359.08ZM351.61,255.73c.39,4.74,2.7,8.53,5.67,12a6.3,6.3,0,0,1,1.27,2.08,29,29,0,0,0,12.23,16.07l1.07.74c0,.12,0,.24,0,.36-3.35.6-6.7,1.24-10.06,1.78-.38.06-.91-.33-1.26-.64A30.18,30.18,0,0,1,350,264.87,22.56,22.56,0,0,1,351.61,255.73Zm202.1,128.64a35.4,35.4,0,0,0,7.65-7.3,31.13,31.13,0,0,0,4.52-9.26c.79,3.57,3,4.87,6.43,3.68a13.55,13.55,0,0,0,1.93-.9,21,21,0,0,0,6.62-6,31.12,31.12,0,0,0,5.19-10.7,6.16,6.16,0,0,1-.09,1.88c-.73,2.69-1.4,5.41-2.3,8a42.41,42.41,0,0,1-13.08,19,3.1,3.1,0,0,1-1.68.64c-3.58.26-7.16.44-10.74.65Zm-52.51-2.43c-.37,1.56-.73,2.88-1,4.22-.21,1.06-.8,1.34-1.83,1.39q-23,1.27-46,2.61l-8.71.49A2.94,2.94,0,0,1,445,390c4.43-1,8.85-2.1,13.28-3.12a35.24,35.24,0,0,1,4.53-.9c6.81-.61,13.64-1,20.43-1.71C489.16,383.68,495,382.76,501.2,381.94Zm44.14-9.21c5.53,3.62,14.09-1.3,15.38-6.19a18.16,18.16,0,0,0,.34-6.92c-.06-.55.24-1.51.62-1.66a2.18,2.18,0,0,1,1.92.31,5.31,5.31,0,0,1,1.61,2.44,11.7,11.7,0,0,1,0,6.53,43.89,43.89,0,0,1-2.18,5.58,25.82,25.82,0,0,1-10.54,10.9c-.7.4-1.17.43-1.56-.44-.53-1.17-1.21-2.28-1.82-3.42ZM521,329.58l.23-.23a27.22,27.22,0,0,0,3,1.12,18.6,18.6,0,0,0,4.52.81c4.94,0,7.08-2.71,6.4-7.59a8.46,8.46,0,0,1,.25-2.09,9,9,0,0,1,1.81,1.16,7.18,7.18,0,0,1,1.87,5.14,15.15,15.15,0,0,1-9.44,14.22c-.53.2-1.15.69-1.63-.16Q524.5,335.77,521,329.58ZM325.47,266c-.07-.17-.17-.35-.23-.53-1.15-3.54-2.08-7.12-1.73-10.9.14-1.45.23-2.91.35-4.36.68-7.87,4.16-14.4,9.58-20,.37-.38,1.09-.42,1.64-.61a4.35,4.35,0,0,1,.47,1.56c-.18,2-.48,3.94-.76,5.91a1.94,1.94,0,0,1-.3.54C329.29,246.32,325.15,255.38,325.47,266Zm155,69-29.58,28.73-.24-.23,24.66-32.65Zm16.22,21.95-34.91,15.3c-.05-.09-.09-.18-.14-.26l31.83-21.3C494.62,352.76,495.64,354.75,496.73,356.88ZM489.94,345,458.7,365.87l-.2-.26,26.79-26.05Zm9.15,18.1c.44,2,.76,3.81,1.24,5.57.3,1.12,0,1.5-1.14,1.75-9.14,2.11-18.27,4.28-27.4,6.43l-7,1.64-.09-.27Zm-84.37-13.6-.29.09-14.24-34.47,6.59-1.91ZM413.32,312c1.95-.09,3.73-.08,5.49-.26,1.15-.12,1.51.16,1.55,1.36.26,9.24.61,18.49.89,27.73.07,2.35,0,4.71,0,7.32C418.6,336.05,416,324.15,413.32,312Zm-5.38,39.36-.3.11L388,321.13l6-3.51Zm-27.42-119.7a2.75,2.75,0,0,1-.63.06c-4.08-1.12-7.71,0-11.15,2.18A9.38,9.38,0,0,1,366.5,235c-2.46.75-3.89-.23-4.12-2.79a11,11,0,0,1,1.55-6.09,1.64,1.64,0,0,1,1-.68,23.63,23.63,0,0,1,12.57.23,1.87,1.87,0,0,1,1.06.91C379.23,228.19,379.83,229.88,380.52,231.68Zm24.57,128.17c-.06.06-.12.13-.19.19-.25-.26-.51-.51-.74-.78l-16.82-19.5c-2.75-3.19-5.52-6.36-8.23-9.58-.27-.32-.47-1.12-.28-1.32,1.14-1.3,2.4-2.49,3.78-3.86Zm40.19-.34-.23-.15c.26-.5.51-1,.79-1.5l12.49-22.25c2-3.6,4.05-7.2,6.06-10.8.28-.49.52-1,1.23-.57l4.29,2.71ZM441.47,352l-.28-.13c3.9-11.22,7.81-22.44,11.78-33.81l6.09,2.62C453.14,331.25,447.3,341.65,441.47,352Zm-6.36-3-.3-.06,5.41-34.9,6.48,1.78Zm-1.44-36.18c-1.77,11.38-3.51,22.58-5.25,33.79l-.28,0c-.4-11.48-.79-23-1.19-34.68ZM363,269.13a22.07,22.07,0,0,0,6.61,10.12,22.92,22.92,0,0,0,11.32,5.05,54.23,54.23,0,0,1-6.29,1.81,3.54,3.54,0,0,1-2.22-.29,27.84,27.84,0,0,1-11.61-12.21,39,39,0,0,1-1.57-3.84ZM501.41,376.72c0,.91,0,1.56,0,2.21,0,2.31,0,2.34-2.3,2.6q-12.48,1.46-25,2.85c-2.21.25-4.44.44-6.66.65,0-.09,0-.19,0-.29Zm98.48-5.24a36.71,36.71,0,0,1,3,8.91c.13.79,0,1.22-1,1.27-4.79.23-9.57.52-14.35.78a3.57,3.57,0,0,1-.72-.1C592.12,379.87,596,375.81,599.89,371.48ZM363,258.86c3.8,7.5,7.54,14.9,11.33,22.4C366.43,278.32,360.94,267.11,363,258.86Zm212.52,14-3.89-3.46c1.63-.49,1.75-1.45,1.35-2.72,2,.39,4,.65,4.57-1.49.44-1.57.06-3.38,0-5a29.9,29.9,0,0,1,6.35,9.41C580.82,270.13,577.63,269.79,575.47,272.89Zm13,4.55a24.87,24.87,0,0,1,7.1,4.22,13.35,13.35,0,0,1,4.07,5.28,11.72,11.72,0,0,1,.35,1.79l-2.15-1c-.64-.3-1.26-.65-1.92-.91-1.45-.57-2.1-.34-2.95,1.1-.69-.5-1.76-.86-2-1.51C590,283.54,589.31,280.55,588.46,277.44Zm-170.2,129c-3.79-1.8-3.78-1.63-3.36-5,.57-4.53,3.09-8.19,5.76-11.73,0,0,.14,0,.31.06Zm-4.44-3a3.07,3.07,0,0,1-.31.17c-1.13-1.2-2.23-2.44-3.41-3.6a2.08,2.08,0,0,1-.23-2.83,6.28,6.28,0,0,1,1.35-1.63c2.63-2.11,5.31-4.16,8-6.23a9,9,0,0,1,1.1-.55C417.1,393.43,413.76,397.68,413.82,403.42Zm-89.2-136.7-.3.16c-2.49-3-5-6-7.46-9a.92.92,0,0,1-.09-.86,16.35,16.35,0,0,1,5.94-5.15A29.32,29.32,0,0,0,324.62,266.72Zm99.22,141.89-4.7-1.61,2.41-16.31C422.33,391.75,424,405.75,423.84,408.61Zm-.72-15.05.36,0,5.42,15.54c-1.25-.09-2.29-.12-3.3-.28a1.16,1.16,0,0,1-.75-.76C424.24,403.21,423.69,398.38,423.12,393.56Zm-5.12-5,.22.46c-3.61,2.47-7.32,4.82-9.77,8.86-.7-1.26-1.3-2.34-1.92-3.42a1.08,1.08,0,0,1,.41-1.6,7.88,7.88,0,0,1,1.46-.94C411.59,390.78,414.8,389.69,418,388.57Zm-12.09,4c-1.1-3.71.14-4.76,2.85-4.95,3.15-.23,6.3-.4,9.46-.55a6.43,6.43,0,0,1,1.41.25c0,.12,0,.23,0,.35C415,389.05,410.08,389.65,405.91,392.53Zm173.78-117.1c2.45.48,4.64.88,6.82,1.37a1.62,1.62,0,0,1,1,.81c.89,2.44,1.7,4.91,2.63,7.66ZM424.81,395.28l.41-.21c2.65,4.39,5.29,8.78,8.06,13.36-.87.17-1.45.23-2,.39-1.17.35-1.67-.14-2.05-1.25-1.11-3.27-2.35-6.49-3.54-9.73C425.39,397,425.1,396.13,424.81,395.28Zm95.32-79.75c.85-.68,1.48-1.2,2.14-1.71s1.36-1,2-1.56c2.1,2.86,2,6.22-.14,7.53C523.36,318,522.78,316,520.13,315.53Zm-92.48,81.94.28-.24,8.39,9.52-2.19,1.37Zm91.18-80.9c.3,1.36.58,2.57.83,3.78a2.35,2.35,0,0,1-1.11,2.79,1.25,1.25,0,0,1-1.16-.28,22.15,22.15,0,0,1-1.66-3.07,1.09,1.09,0,0,1,.23-1C516.87,318,517.85,317.31,518.83,316.57Zm14-10.91c-1,2.59-3.31,4.34-4.62,3.52Zm84.79,11.63c1.53.32,1.78,1.19,1.53,2.41-.17.89-.21,1.81-.3,2.71l-.18,0C618.34,320.74,618,319,617.64,317.29Z" transform="translate(-172.49 -204.7)"/><path class="cls-4" d="M425.94,295.91l8-6.49-.39-.48-8,6.56Z" transform="translate(-172.49 -204.7)"/><path class="cls-4" d="M423.45,388.78a1.61,1.61,0,0,0,1.74,1.55,1.48,1.48,0,0,0,1.51-1.62,1.58,1.58,0,0,0-1.62-1.65A1.8,1.8,0,0,0,423.45,388.78Z" transform="translate(-172.49 -204.7)"/></g></svg>