<svg id="OBJECTS" xmlns="http://www.w3.org/2000/svg" xmlns:xlink="http://www.w3.org/1999/xlink" viewBox="0 0 361.27 168.61"><defs><style>.cls-1{fill:none;}.cls-2{clip-path:url(#clip-path);}.cls-3{fill:#f2ede7;}.cls-4{fill:#331e10;}</style><clipPath id="clip-path" transform="translate(-326.98 -146.8)"><rect class="cls-1" width="750" height="500"/></clipPath></defs><g class="cls-2"><path class="cls-3" d="M473.76,235.15a4.71,4.71,0,0,1-3.1-1.84c-.15-.2-.09-.54-.17-.8s-.31-.77-.47-1.15c-.39.17-1,.25-1.12.54a1.33,1.33,0,0,0,.27,1.21c1.22,1,2.51,1.85,3.8,2.77a9.27,9.27,0,0,1-4.88.46,20.91,20.91,0,0,1-8.73-3.1,9.49,9.49,0,0,1-3.56-4.35c-.59-1.41-.18-2.21,1.3-2.6a5.58,5.58,0,0,1,.69-.13c1.37-.16,1.34-.16,1-1.54a.92.92,0,0,1,.43-.77,15.9,15.9,0,0,1,10.71.42,1.27,1.27,0,0,1,.84,1.31,16,16,0,0,0,1.37,6.93C472.63,233.37,473.17,234.16,473.76,235.15Z" transform="translate(-326.98 -146.8)"/><path class="cls-3" d="M474.2,236.31a4.71,4.71,0,0,1-2.75,2.44c-.24.07-.55-.13-.82-.13s-1,0-1.1.14a1.39,1.39,0,0,0,.1,1.22,1.24,1.24,0,0,0,1.21.1c1.3-.85,2.51-1.81,4-2.89a22.79,22.79,0,0,1-.72,3.59,20.09,20.09,0,0,1-6.26,8.87,9.05,9.05,0,0,1-5.13,2c-1.46.11-2.07-.5-2-2a8.67,8.67,0,0,1,.13-.89c.2-1.16.09-1.35-1-1.31-.62,0-.78-.27-.75-.77a17.14,17.14,0,0,1,3.59-9.91,1.46,1.46,0,0,1,1.82-.52,14.81,14.81,0,0,0,6.76.79C472.14,236.87,473.06,236.58,474.2,236.31Z" transform="translate(-326.98 -146.8)"/><path class="cls-3" d="M474.82,234.28a4.31,4.31,0,0,1,.79-3.58c.13-.17.48-.14.67-.28s.8-.52.8-.79a1.14,1.14,0,0,0-.67-.9,1.3,1.3,0,0,0-1.12.51c-.56,1.46-1,3-1.49,4.57-.16-.22-.38-.47-.55-.75a14.25,14.25,0,0,1-1.76-7.82,28.49,28.49,0,0,1,.67-5.43,8.5,8.5,0,0,1,3-4.65c1.12-.95,2-.8,2.79.44a5.45,5.45,0,0,1,.29.53c.65,1.31.63,1.28,1.88.63a.91.91,0,0,1,.85.26,16.58,16.58,0,0,1,1.58,2.89,15,15,0,0,1,1.27,7.42,1.55,1.55,0,0,1-.72,1.13C479.83,229.69,476.78,231.15,474.82,234.28Z" transform="translate(-326.98 -146.8)"/><path class="cls-3" d="M475.81,233.83a31.2,31.2,0,0,1,3.41-2.81,19.85,19.85,0,0,1,9.07-2.94,9.4,9.4,0,0,1,5.61,1.38c1.34.8,1.48,1.72.46,2.94a7.53,7.53,0,0,1-.56.57c-.85.79-.87,1,.08,1.65.49.34.5.65.17,1.06a16.67,16.67,0,0,1-8.75,5.93,1.43,1.43,0,0,1-1.68-.64c-2-2.67-4.32-5-7.74-5.84a4.16,4.16,0,0,1,3.69-.33c.17.06.23.38.39.51.31.23.71.64,1,.57a1.16,1.16,0,0,0,.65-.92,1.3,1.3,0,0,0-.78-.94,22.71,22.71,0,0,0-3.3-.1,10.64,10.64,0,0,0-1.45.23Z" transform="translate(-326.98 -146.8)"/><path class="cls-3" d="M475.41,236.42a4.2,4.2,0,0,1,1.45,3.36c0,.21-.3.39-.38.62s-.35,1-.2,1.1a1.28,1.28,0,0,0,1.16.3,1.3,1.3,0,0,0,.51-1.12c-.4-1.51-.94-3-1.52-4.74a23.33,23.33,0,0,1,3.28,1.9,20.14,20.14,0,0,1,6.28,8.61,9.3,9.3,0,0,1,.3,5.62c-.34,1.39-1.1,1.79-2.44,1.3a5.62,5.62,0,0,1-1.06-.55c-.7-.45-1.16-.24-1.3.53s-.48.89-1.11.64a17.2,17.2,0,0,1-8-6.31,1.67,1.67,0,0,1,0-2.16C474.25,242.81,475.63,239.91,475.41,236.42Z" transform="translate(-326.98 -146.8)"/><path class="cls-4" d="M476.67,213.78a4.29,4.29,0,0,1,2.45,2.71c1.6-.9,1.88-.82,2.82.78a17.78,17.78,0,0,1,2.58,10.66c1.29-.16,2.55-.37,3.82-.46a9.16,9.16,0,0,1,5.87,1.49,9.82,9.82,0,0,1,1.58,1.69l0,.6-1.61,2.64c1.14,1.21,1.14,1.46-.11,2.89a17.5,17.5,0,0,1-9.24,5.72c.39.75.78,1.47,1.14,2.21a11,11,0,0,1,1.06,7c-.47,2.44-1.78,3.11-4,2-.23-.11-.46-.24-.68-.37-.83,1.66-1.11,1.75-2.86,1a17.65,17.65,0,0,1-8.25-7.13c-.28.32-.54.6-.8.88a11.35,11.35,0,0,1-7.49,4.14c-2.18.19-3.18-.92-2.86-3.15,0-.29.09-.58.14-.87-1.8-.3-2-.5-1.79-2.33a17.75,17.75,0,0,1,4.13-10.18c-1-.55-2-1.06-3-1.65a10,10,0,0,1-4.29-5c-.72-1.81-.15-2.95,1.74-3.45.41-.11.83-.17,1.24-.25-.19-1.87-.08-2,1.77-2.45a17.37,17.37,0,0,1,10.78.85c.18-1.05.32-2.06.51-3.06a10.08,10.08,0,0,1,3.13-5.69,13.4,13.4,0,0,1,1.88-1.26Zm-2.91,21.37c-.59-1-1.13-1.78-1.57-2.64a16,16,0,0,1-1.37-6.93,1.27,1.27,0,0,0-.84-1.31,15.9,15.9,0,0,0-10.71-.42.92.92,0,0,0-.43.77c.29,1.38.32,1.38-1,1.54a5.58,5.58,0,0,0-.69.13c-1.48.39-1.89,1.19-1.3,2.6a9.49,9.49,0,0,0,3.56,4.35,20.91,20.91,0,0,0,8.73,3.1,9.27,9.27,0,0,0,4.88-.46c-1.29-.92-2.58-1.79-3.8-2.77a1.33,1.33,0,0,1-.27-1.21c.14-.29.73-.37,1.12-.54.16.38.34.76.47,1.15s0,.6.17.8A4.71,4.71,0,0,0,473.76,235.15Zm.44,1.16c-1.14.27-2.06.56-3,.71a14.81,14.81,0,0,1-6.76-.79,1.46,1.46,0,0,0-1.82.52,17.14,17.14,0,0,0-3.59,9.91c0,.5.13.79.75.77,1.13,0,1.24.15,1,1.31a8.67,8.67,0,0,0-.13.89c-.07,1.5.54,2.11,2,2a9.05,9.05,0,0,0,5.13-2,20.09,20.09,0,0,0,6.26-8.87,22.79,22.79,0,0,0,.72-3.59c-1.45,1.08-2.66,2-4,2.89a1.24,1.24,0,0,1-1.21-.1,1.39,1.39,0,0,1-.1-1.22c.07-.17.72-.14,1.1-.14s.58.2.82.13A4.71,4.71,0,0,0,474.2,236.31Zm.62-2c2-3.13,5-4.59,8.24-5.82a1.55,1.55,0,0,0,.72-1.13,15,15,0,0,0-1.27-7.42,16.58,16.58,0,0,0-1.58-2.89.91.91,0,0,0-.85-.26c-1.25.65-1.23.68-1.88-.63a5.45,5.45,0,0,0-.29-.53c-.81-1.24-1.67-1.39-2.79-.44a8.5,8.5,0,0,0-3,4.65,28.49,28.49,0,0,0-.67,5.43,14.25,14.25,0,0,0,1.76,7.82c.17.28.39.53.55.75.5-1.6.93-3.11,1.49-4.57a1.3,1.3,0,0,1,1.12-.51,1.14,1.14,0,0,1,.67.9c0,.27-.49.56-.8.79s-.54.11-.67.28A4.31,4.31,0,0,0,474.82,234.28Zm1-.45.24.32a10.64,10.64,0,0,1,1.45-.23,22.71,22.71,0,0,1,3.3.1,1.3,1.3,0,0,1,.78.94,1.16,1.16,0,0,1-.65.92c-.26.07-.66-.34-1-.57-.16-.13-.22-.45-.39-.51a4.16,4.16,0,0,0-3.69.33c3.42.86,5.73,3.17,7.74,5.84a1.43,1.43,0,0,0,1.68.64,16.67,16.67,0,0,0,8.75-5.93c.33-.41.32-.72-.17-1.06-.95-.65-.93-.86-.08-1.65a7.53,7.53,0,0,0,.56-.57c1-1.22.88-2.14-.46-2.94a9.4,9.4,0,0,0-5.61-1.38,19.85,19.85,0,0,0-9.07,2.94A31.2,31.2,0,0,0,475.81,233.83Zm-.4,2.59c.22,3.49-1.16,6.39-3,9.1a1.67,1.67,0,0,0,0,2.16,17.2,17.2,0,0,0,8,6.31c.63.25,1,.08,1.11-.64s.6-1,1.3-.53a5.62,5.62,0,0,0,1.06.55c1.34.49,2.1.09,2.44-1.3a9.3,9.3,0,0,0-.3-5.62,20.14,20.14,0,0,0-6.28-8.61,23.33,23.33,0,0,0-3.28-1.9c.58,1.75,1.12,3.23,1.52,4.74a1.3,1.3,0,0,1-.51,1.12,1.28,1.28,0,0,1-1.16-.3c-.15-.14.08-.73.2-1.1s.37-.41.38-.62A4.2,4.2,0,0,0,475.41,236.42Z" transform="translate(-326.98 -146.8)"/><path class="cls-3" d="M584.32,208.5a4.71,4.71,0,0,1-3.1-1.84c-.15-.2-.09-.55-.17-.81s-.31-.77-.47-1.15c-.39.17-1,.25-1.12.55a1.33,1.33,0,0,0,.27,1.21c1.22,1,2.51,1.84,3.8,2.77a9.48,9.48,0,0,1-4.88.46,20.91,20.91,0,0,1-8.73-3.1,9.54,9.54,0,0,1-3.56-4.35c-.59-1.42-.18-2.22,1.3-2.61a5.54,5.54,0,0,1,.69-.12c1.37-.17,1.34-.16,1-1.54a.92.92,0,0,1,.43-.77,15.9,15.9,0,0,1,10.71.42,1.25,1.25,0,0,1,.84,1.3,16,16,0,0,0,1.37,6.94C583.19,206.71,583.73,207.51,584.32,208.5Z" transform="translate(-326.98 -146.8)"/><path class="cls-3" d="M584.76,209.66a4.76,4.76,0,0,1-2.75,2.43c-.24.08-.55-.12-.82-.12s-1,0-1.1.14a1.39,1.39,0,0,0,.1,1.22,1.24,1.24,0,0,0,1.21.1c1.29-.85,2.51-1.82,4-2.9a22.92,22.92,0,0,1-.72,3.6,20.15,20.15,0,0,1-6.26,8.87,9,9,0,0,1-5.13,2c-1.46.12-2.07-.49-2-2,0-.29.08-.59.13-.89.2-1.15.09-1.34-1-1.31-.62,0-.78-.26-.75-.76a17.14,17.14,0,0,1,3.59-9.92,1.49,1.49,0,0,1,1.82-.52,14.67,14.67,0,0,0,6.76.79C582.7,210.21,583.62,209.93,584.76,209.66Z" transform="translate(-326.98 -146.8)"/><path class="cls-3" d="M585.38,207.63a4.31,4.31,0,0,1,.79-3.58c.13-.17.48-.14.67-.28s.8-.52.8-.79a1.13,1.13,0,0,0-.68-.91,1.3,1.3,0,0,0-1.11.52c-.56,1.46-1,3-1.5,4.56-.15-.21-.37-.46-.55-.74a14.35,14.35,0,0,1-1.75-7.82,28.39,28.39,0,0,1,.67-5.43,8.47,8.47,0,0,1,3-4.65c1.11-.95,2-.81,2.79.44a4.35,4.35,0,0,1,.29.52c.65,1.31.63,1.29,1.88.64a.9.9,0,0,1,.85.25,16.58,16.58,0,0,1,1.58,2.89,15,15,0,0,1,1.27,7.43,1.62,1.62,0,0,1-.72,1.13C590.39,203,587.34,204.49,585.38,207.63Z" transform="translate(-326.98 -146.8)"/><path class="cls-3" d="M586.37,207.17a31.1,31.1,0,0,1,3.41-2.8,19.73,19.73,0,0,1,9.07-2.94,9.32,9.32,0,0,1,5.61,1.37c1.34.81,1.48,1.72.46,2.95a7.4,7.4,0,0,1-.56.56c-.85.79-.87,1,.08,1.66.49.34.5.64.17,1.05a16.61,16.61,0,0,1-8.75,5.93,1.4,1.4,0,0,1-1.68-.64c-2-2.67-4.33-5-7.74-5.83a4.16,4.16,0,0,1,3.69-.34c.17.07.23.38.39.51.31.24.71.65,1,.58a1.16,1.16,0,0,0,.65-.92c0-.36-.47-.91-.78-.95a24.21,24.21,0,0,0-3.3-.09,10.64,10.64,0,0,0-1.45.23Z" transform="translate(-326.98 -146.8)"/><path class="cls-3" d="M586,209.77a4.22,4.22,0,0,1,1.45,3.36c0,.21-.31.39-.38.62s-.35.95-.2,1.1a.95.95,0,0,0,1.67-.83c-.4-1.51-.94-3-1.53-4.74a23.9,23.9,0,0,1,3.29,1.91,20.11,20.11,0,0,1,6.28,8.6,9.34,9.34,0,0,1,.3,5.63c-.34,1.39-1.1,1.79-2.44,1.29a6.22,6.22,0,0,1-1.06-.54c-.7-.45-1.16-.24-1.3.53s-.48.89-1.11.64a17.15,17.15,0,0,1-8-6.31,1.68,1.68,0,0,1,0-2.17C584.81,216.16,586.19,213.26,586,209.77Z" transform="translate(-326.98 -146.8)"/><path class="cls-4" d="M587.23,187.13a4.31,4.31,0,0,1,2.45,2.71c1.6-.9,1.88-.83,2.82.78a17.77,17.77,0,0,1,2.58,10.65c1.29-.16,2.55-.36,3.82-.46a9.24,9.24,0,0,1,5.86,1.49,9.49,9.49,0,0,1,1.59,1.69l0,.6-1.6,2.65c1.14,1.21,1.14,1.45-.11,2.89a17.56,17.56,0,0,1-9.24,5.72c.39.75.78,1.47,1.14,2.2a11,11,0,0,1,1.06,7c-.47,2.43-1.78,3.11-4,2-.23-.11-.46-.24-.68-.36-.83,1.65-1.11,1.75-2.86,1a17.68,17.68,0,0,1-8.25-7.14l-.8.89a11.3,11.3,0,0,1-7.49,4.13c-2.18.19-3.18-.92-2.86-3.14,0-.29.09-.58.14-.87-1.8-.31-2-.5-1.79-2.34a17.75,17.75,0,0,1,4.13-10.18c-1-.54-2-1.06-3-1.64a10,10,0,0,1-4.29-5c-.73-1.81-.15-2.95,1.74-3.46.41-.11.83-.16,1.24-.25-.19-1.87-.08-2,1.77-2.44a17.37,17.37,0,0,1,10.78.84c.18-1,.32-2.05.51-3.05a10.12,10.12,0,0,1,3.12-5.7,16.34,16.34,0,0,1,1.89-1.26Zm-2.91,21.37c-.59-1-1.13-1.79-1.57-2.64a16,16,0,0,1-1.37-6.94,1.25,1.25,0,0,0-.84-1.3,15.9,15.9,0,0,0-10.71-.42.92.92,0,0,0-.43.77c.29,1.38.32,1.37-1,1.54a5.54,5.54,0,0,0-.69.12c-1.48.39-1.89,1.19-1.3,2.61a9.54,9.54,0,0,0,3.56,4.35,20.91,20.91,0,0,0,8.73,3.1,9.48,9.48,0,0,0,4.88-.46c-1.29-.93-2.58-1.8-3.8-2.77a1.33,1.33,0,0,1-.27-1.21c.14-.3.73-.38,1.12-.55.16.38.34.76.47,1.15s0,.61.17.81A4.71,4.71,0,0,0,584.32,208.5Zm.44,1.16c-1.14.27-2.06.55-3,.7a14.67,14.67,0,0,1-6.76-.79,1.49,1.49,0,0,0-1.82.52,17.14,17.14,0,0,0-3.59,9.92c0,.5.13.78.75.76,1.13,0,1.24.16,1,1.31,0,.3-.11.6-.13.89-.07,1.51.54,2.12,2,2a9,9,0,0,0,5.13-2,20.15,20.15,0,0,0,6.26-8.87,22.92,22.92,0,0,0,.72-3.6c-1.45,1.08-2.67,2.05-4,2.9a1.24,1.24,0,0,1-1.21-.1,1.39,1.39,0,0,1-.1-1.22c.07-.18.72-.14,1.1-.14s.58.2.82.12A4.76,4.76,0,0,0,584.76,209.66Zm.62-2c2-3.14,5-4.6,8.24-5.82a1.62,1.62,0,0,0,.72-1.13,15,15,0,0,0-1.27-7.43,16.58,16.58,0,0,0-1.58-2.89.9.9,0,0,0-.85-.25c-1.25.65-1.23.67-1.88-.64a4.35,4.35,0,0,0-.29-.52c-.81-1.25-1.68-1.39-2.79-.44a8.47,8.47,0,0,0-3,4.65,28.39,28.39,0,0,0-.67,5.43,14.35,14.35,0,0,0,1.75,7.82c.18.28.4.53.55.74.51-1.59.94-3.1,1.5-4.56a1.3,1.3,0,0,1,1.11-.52,1.13,1.13,0,0,1,.68.91c0,.27-.49.56-.8.79s-.54.11-.67.28A4.31,4.31,0,0,0,585.38,207.63Zm1-.46.24.33a10.64,10.64,0,0,1,1.45-.23,24.21,24.21,0,0,1,3.3.09c.31,0,.73.59.78.95a1.16,1.16,0,0,1-.65.92c-.26.07-.66-.34-1-.58-.16-.13-.22-.44-.39-.51a4.16,4.16,0,0,0-3.69.34c3.41.86,5.73,3.16,7.74,5.83a1.4,1.4,0,0,0,1.68.64,16.61,16.61,0,0,0,8.75-5.93c.33-.41.32-.71-.17-1.05-1-.66-.93-.87-.08-1.66a7.4,7.4,0,0,0,.56-.56c1-1.23.88-2.14-.46-2.95a9.32,9.32,0,0,0-5.61-1.37,19.73,19.73,0,0,0-9.07,2.94A31.1,31.1,0,0,0,586.37,207.17Zm-.4,2.6c.22,3.49-1.16,6.39-3,9.09a1.68,1.68,0,0,0,0,2.17,17.15,17.15,0,0,0,8,6.31c.63.25,1,.08,1.11-.64s.6-1,1.3-.53a6.22,6.22,0,0,0,1.06.54c1.34.5,2.1.1,2.44-1.29a9.34,9.34,0,0,0-.3-5.63,20.11,20.11,0,0,0-6.28-8.6,23.9,23.9,0,0,0-3.29-1.91c.59,1.76,1.13,3.23,1.53,4.74a.95.95,0,0,1-1.67.83c-.15-.15.08-.74.2-1.1s.37-.41.38-.62A4.22,4.22,0,0,0,586,209.77Z" transform="translate(-326.98 -146.8)"/><path class="cls-3" d="M502.72,172.15A5.64,5.64,0,0,1,499,170c-.17-.23-.1-.64-.2-1s-.37-.91-.56-1.36c-.46.2-1.15.29-1.32.64a1.57,1.57,0,0,0,.32,1.44c1.44,1.15,3,2.18,4.5,3.28a11.06,11.06,0,0,1-5.77.54,24.66,24.66,0,0,1-10.35-3.67,11.18,11.18,0,0,1-4.21-5.15c-.7-1.67-.22-2.63,1.54-3.08a6.83,6.83,0,0,1,.81-.16c1.62-.19,1.59-.18,1.25-1.82a1.07,1.07,0,0,1,.5-.91,18.83,18.83,0,0,1,12.69.5,1.5,1.5,0,0,1,1,1.55,18.83,18.83,0,0,0,1.62,8.21C501.37,170,502,171,502.72,172.15Z" transform="translate(-326.98 -146.8)"/><path class="cls-3" d="M503.24,173.52A5.62,5.62,0,0,1,500,176.4c-.28.09-.65-.15-1-.15s-1.22,0-1.3.17a1.62,1.62,0,0,0,.11,1.44,1.45,1.45,0,0,0,1.44.12c1.53-1,3-2.15,4.69-3.43a27,27,0,0,1-.85,4.26,23.89,23.89,0,0,1-7.42,10.51,10.79,10.79,0,0,1-6.07,2.34c-1.74.13-2.46-.59-2.37-2.37a9.65,9.65,0,0,1,.15-1.06c.24-1.36.1-1.59-1.23-1.55-.74,0-.92-.31-.89-.9A20.25,20.25,0,0,1,489.53,174a1.72,1.72,0,0,1,2.15-.62,17.57,17.57,0,0,0,8,.94C500.8,174.18,501.89,173.84,503.24,173.52Z" transform="translate(-326.98 -146.8)"/><path class="cls-3" d="M504,171.11a5.09,5.09,0,0,1,.93-4.24c.15-.19.57-.16.79-.33.37-.27.95-.61.95-.93a1.37,1.37,0,0,0-.8-1.08,1.57,1.57,0,0,0-1.32.61c-.67,1.73-1.17,3.52-1.77,5.41a10.09,10.09,0,0,1-.65-.88,16.86,16.86,0,0,1-2.08-9.26,33.35,33.35,0,0,1,.79-6.44,10,10,0,0,1,3.51-5.5c1.32-1.13,2.34-1,3.3.52.13.2.24.41.35.62.76,1.55.75,1.52,2.22.75a1.09,1.09,0,0,1,1,.3,19.37,19.37,0,0,1,1.87,3.43c1,2.82,1.95,5.71,1.51,8.79a1.9,1.9,0,0,1-.85,1.34C509.9,165.67,506.3,167.4,504,171.11Z" transform="translate(-326.98 -146.8)"/><path class="cls-3" d="M505.15,170.57a38.17,38.17,0,0,1,4-3.32,23.71,23.71,0,0,1,10.75-3.48,11,11,0,0,1,6.64,1.63c1.59,1,1.75,2,.54,3.48a8.45,8.45,0,0,1-.66.68c-1,.93-1,1.18.09,2,.59.4.6.76.21,1.25a19.72,19.72,0,0,1-10.36,7,1.69,1.69,0,0,1-2-.76c-2.38-3.16-5.12-5.89-9.17-6.91a4.94,4.94,0,0,1,4.37-.4c.21.08.28.45.47.61.37.28.85.76,1.15.68a1.38,1.38,0,0,0,.77-1.09,1.57,1.57,0,0,0-.93-1.12,28.15,28.15,0,0,0-3.9-.11,11.38,11.38,0,0,0-1.72.27Z" transform="translate(-326.98 -146.8)"/><path class="cls-3" d="M504.67,173.65a5,5,0,0,1,1.72,4c0,.25-.36.47-.45.74-.14.44-.42,1.13-.24,1.3a1.51,1.51,0,0,0,1.37.36,1.55,1.55,0,0,0,.61-1.33c-.48-1.79-1.12-3.54-1.81-5.61a26.66,26.66,0,0,1,3.89,2.25,23.78,23.78,0,0,1,7.44,10.19,11.09,11.09,0,0,1,.36,6.67c-.41,1.64-1.3,2.12-2.89,1.53a7,7,0,0,1-1.25-.64c-.83-.54-1.38-.29-1.55.62s-.56,1.06-1.32.76a20.36,20.36,0,0,1-9.5-7.47,2,2,0,0,1,0-2.57C503.29,181.22,504.94,177.78,504.67,173.65Z" transform="translate(-326.98 -146.8)"/><path class="cls-4" d="M506.16,146.83a5.13,5.13,0,0,1,2.91,3.21c1.89-1.07,2.22-1,3.34.93a21.05,21.05,0,0,1,3.05,12.62c1.53-.19,3-.43,4.53-.55a8.93,8.93,0,0,1,8.82,3.77c0,.24,0,.47,0,.71l-1.9,3.13c1.35,1.43,1.35,1.73-.14,3.42a20.75,20.75,0,0,1-10.93,6.78c.46.89.92,1.74,1.34,2.61a13,13,0,0,1,1.26,8.31c-.56,2.89-2.11,3.68-4.75,2.4-.28-.13-.54-.29-.81-.43-1,2-1.31,2.07-3.38,1.14a20.79,20.79,0,0,1-9.77-8.45c-.34.38-.64.72-.95,1-2.41,2.64-5.2,4.59-8.87,4.9-2.59.22-3.78-1.09-3.4-3.73,0-.34.11-.68.17-1-2.13-.37-2.33-.6-2.12-2.77a21,21,0,0,1,4.9-12.06c-1.2-.65-2.42-1.25-3.58-1.94a11.84,11.84,0,0,1-5.08-5.91c-.86-2.15-.18-3.5,2.05-4.1.49-.13,1-.2,1.48-.29-.23-2.22-.1-2.41,2.1-2.9a20.54,20.54,0,0,1,12.77,1c.2-1.24.37-2.43.6-3.62a11.93,11.93,0,0,1,3.7-6.74,17.37,17.37,0,0,1,2.23-1.5Zm-3.44,25.32c-.7-1.18-1.35-2.12-1.86-3.13a18.83,18.83,0,0,1-1.62-8.21,1.5,1.5,0,0,0-1-1.55,18.83,18.83,0,0,0-12.69-.5,1.07,1.07,0,0,0-.5.91c.34,1.64.37,1.63-1.25,1.82a6.83,6.83,0,0,0-.81.16c-1.76.45-2.24,1.41-1.54,3.08a11.18,11.18,0,0,0,4.21,5.15A24.66,24.66,0,0,0,496,173.55a11.06,11.06,0,0,0,5.77-.54c-1.52-1.1-3.06-2.13-4.5-3.28a1.57,1.57,0,0,1-.32-1.44c.17-.35.86-.44,1.32-.64.19.45.4.9.56,1.36s0,.72.2,1A5.64,5.64,0,0,0,502.72,172.15Zm.52,1.37c-1.35.32-2.44.66-3.56.84a17.57,17.57,0,0,1-8-.94,1.72,1.72,0,0,0-2.15.62,20.25,20.25,0,0,0-4.26,11.74c0,.59.15.93.89.9,1.33,0,1.47.19,1.23,1.55a9.65,9.65,0,0,0-.15,1.06c-.09,1.78.63,2.5,2.37,2.37a10.79,10.79,0,0,0,6.07-2.34,23.89,23.89,0,0,0,7.42-10.51,27,27,0,0,0,.85-4.26c-1.72,1.28-3.16,2.43-4.69,3.43a1.45,1.45,0,0,1-1.44-.12,1.62,1.62,0,0,1-.11-1.44c.08-.21.84-.16,1.3-.17s.69.24,1,.15A5.62,5.62,0,0,0,503.24,173.52Zm.74-2.41c2.32-3.71,5.92-5.44,9.76-6.89a1.9,1.9,0,0,0,.85-1.34c.44-3.08-.46-6-1.51-8.79a19.37,19.37,0,0,0-1.87-3.43,1.09,1.09,0,0,0-1-.3c-1.47.77-1.46.8-2.22-.75-.11-.21-.22-.42-.35-.62-1-1.48-2-1.65-3.3-.52a10,10,0,0,0-3.51,5.5,33.35,33.35,0,0,0-.79,6.44,16.86,16.86,0,0,0,2.08,9.26,10.09,10.09,0,0,0,.65.88c.6-1.89,1.1-3.68,1.77-5.41a1.57,1.57,0,0,1,1.32-.61,1.37,1.37,0,0,1,.8,1.08c0,.32-.58.66-.95.93-.22.17-.64.14-.79.33A5.09,5.09,0,0,0,504,171.11Zm1.17-.54.28.39a11.38,11.38,0,0,1,1.72-.27,28.15,28.15,0,0,1,3.9.11,1.57,1.57,0,0,1,.93,1.12,1.38,1.38,0,0,1-.77,1.09c-.3.08-.78-.4-1.15-.68-.19-.16-.26-.53-.47-.61a4.94,4.94,0,0,0-4.37.4c4,1,6.79,3.75,9.17,6.91a1.69,1.69,0,0,0,2,.76,19.72,19.72,0,0,0,10.36-7c.39-.49.38-.85-.21-1.25-1.12-.78-1.1-1-.09-2a8.45,8.45,0,0,0,.66-.68c1.21-1.44,1-2.52-.54-3.48a11,11,0,0,0-6.64-1.63,23.71,23.71,0,0,0-10.75,3.48A38.17,38.17,0,0,0,505.15,170.57Zm-.48,3.08c.27,4.13-1.38,7.57-3.6,10.77a2,2,0,0,0,0,2.57,20.36,20.36,0,0,0,9.5,7.47c.76.3,1.15.09,1.32-.76s.72-1.16,1.55-.62a7,7,0,0,0,1.25.64c1.59.59,2.48.11,2.89-1.53a11.09,11.09,0,0,0-.36-6.67,23.78,23.78,0,0,0-7.44-10.19,26.66,26.66,0,0,0-3.89-2.25c.69,2.07,1.33,3.82,1.81,5.61a1.55,1.55,0,0,1-.61,1.33,1.51,1.51,0,0,1-1.37-.36c-.18-.17.1-.86.24-1.3.09-.27.44-.49.45-.74A5,5,0,0,0,504.67,173.65Z" transform="translate(-326.98 -146.8)"/><path class="cls-3" d="M345.82,295.74a4.68,4.68,0,0,1-3.1-1.84c-.15-.2-.09-.54-.17-.8s-.31-.77-.47-1.16c-.39.18-1,.25-1.12.55a1.33,1.33,0,0,0,.27,1.21c1.22,1,2.51,1.84,3.8,2.77a9.37,9.37,0,0,1-4.88.46,20.91,20.91,0,0,1-8.73-3.1,9.49,9.49,0,0,1-3.56-4.35c-.59-1.41-.18-2.22,1.3-2.6a5.79,5.79,0,0,1,.68-.13c1.38-.17,1.35-.16,1.06-1.54a.92.92,0,0,1,.43-.77,15.9,15.9,0,0,1,10.71.42,1.27,1.27,0,0,1,.84,1.31,16,16,0,0,0,1.37,6.93C344.69,294,345.23,294.75,345.82,295.74Z" transform="translate(-326.98 -146.8)"/><path class="cls-3" d="M346.26,296.9a4.76,4.76,0,0,1-2.76,2.44c-.23.07-.54-.13-.81-.13s-1,0-1.1.14a1.39,1.39,0,0,0,.1,1.22,1.24,1.24,0,0,0,1.21.1c1.29-.85,2.51-1.82,4-2.9a22.69,22.69,0,0,1-.72,3.6,20.15,20.15,0,0,1-6.26,8.87,9.15,9.15,0,0,1-5.13,2c-1.46.11-2.07-.5-2-2,0-.3.08-.6.13-.9.2-1.15.09-1.34-1-1.3-.62,0-.78-.27-.75-.77a17.14,17.14,0,0,1,3.59-9.91,1.46,1.46,0,0,1,1.82-.52,14.81,14.81,0,0,0,6.76.79C344.2,297.46,345.12,297.17,346.26,296.9Z" transform="translate(-326.98 -146.8)"/><path class="cls-3" d="M346.88,294.87a4.31,4.31,0,0,1,.79-3.58c.13-.17.48-.14.67-.28s.8-.52.8-.79a1.12,1.12,0,0,0-.68-.9,1.29,1.29,0,0,0-1.11.51c-.56,1.46-1,3-1.5,4.56-.15-.21-.38-.46-.55-.74a14.33,14.33,0,0,1-1.75-7.82,28.39,28.39,0,0,1,.67-5.43,8.41,8.41,0,0,1,3-4.65c1.11-.95,2-.8,2.79.44a5.45,5.45,0,0,1,.29.53c.65,1.31.63,1.28,1.88.63a.93.93,0,0,1,.85.25,16.58,16.58,0,0,1,1.58,2.89,15.07,15.07,0,0,1,1.27,7.43,1.62,1.62,0,0,1-.72,1.13C351.89,290.27,348.84,291.74,346.88,294.87Z" transform="translate(-326.98 -146.8)"/><path class="cls-3" d="M347.87,294.41a31.1,31.1,0,0,1,3.41-2.8,19.85,19.85,0,0,1,9.07-2.94A9.39,9.39,0,0,1,366,290c1.34.81,1.48,1.73.46,2.95a7.53,7.53,0,0,1-.56.57c-.85.79-.87,1,.08,1.65.49.34.5.65.17,1.06a16.65,16.65,0,0,1-8.75,5.92,1.4,1.4,0,0,1-1.68-.64c-2-2.66-4.33-5-7.74-5.83a4.16,4.16,0,0,1,3.69-.34c.17.07.23.38.39.51.31.24.71.65,1,.58a1.16,1.16,0,0,0,.65-.92,1.3,1.3,0,0,0-.78-.94,22.71,22.71,0,0,0-3.3-.1,10.64,10.64,0,0,0-1.45.23Z" transform="translate(-326.98 -146.8)"/><path class="cls-3" d="M347.47,297a4.24,4.24,0,0,1,1.45,3.36c0,.21-.31.39-.38.62s-.35,1-.21,1.1a1.33,1.33,0,0,0,1.16.3,1.29,1.29,0,0,0,.52-1.12c-.41-1.51-.95-3-1.53-4.74a22.9,22.9,0,0,1,3.29,1.9,20.08,20.08,0,0,1,6.28,8.61,9.38,9.38,0,0,1,.3,5.62c-.34,1.39-1.1,1.79-2.44,1.29a5,5,0,0,1-1.06-.54c-.7-.45-1.16-.24-1.31.53s-.47.89-1.1.64a17.15,17.15,0,0,1-8-6.31,1.68,1.68,0,0,1,0-2.17C346.31,303.4,347.69,300.5,347.47,297Z" transform="translate(-326.98 -146.8)"/><path class="cls-4" d="M348.73,274.37a4.31,4.31,0,0,1,2.45,2.71c1.6-.9,1.88-.83,2.82.78a17.78,17.78,0,0,1,2.58,10.66c1.29-.16,2.55-.37,3.82-.47a7.56,7.56,0,0,1,7.45,3.19l0,.6c-.52.87-1.05,1.74-1.6,2.64,1.14,1.21,1.14,1.46-.11,2.89a17.6,17.6,0,0,1-9.24,5.72c.39.75.78,1.47,1.14,2.2a11,11,0,0,1,1.06,7c-.47,2.44-1.78,3.11-4,2l-.68-.37c-.83,1.65-1.11,1.75-2.86,1a17.65,17.65,0,0,1-8.25-7.13l-.8.88a11.35,11.35,0,0,1-7.49,4.14c-2.18.18-3.19-.93-2.87-3.15,0-.29.1-.58.14-.87-1.79-.3-2-.5-1.79-2.34a17.74,17.74,0,0,1,4.14-10.17c-1-.55-2-1.06-3-1.65a10,10,0,0,1-4.29-5c-.73-1.81-.15-3,1.74-3.45.41-.11.83-.17,1.24-.25-.19-1.87-.08-2,1.77-2.45a17.44,17.44,0,0,1,10.78.84c.18-1,.32-2.05.51-3.05a10.13,10.13,0,0,1,3.12-5.69,14.12,14.12,0,0,1,1.89-1.26Zm-2.91,21.37c-.59-1-1.13-1.79-1.57-2.64a16,16,0,0,1-1.37-6.93,1.27,1.27,0,0,0-.84-1.31,15.9,15.9,0,0,0-10.71-.42.92.92,0,0,0-.43.77c.29,1.38.32,1.37-1.06,1.54a5.79,5.79,0,0,0-.68.13c-1.48.38-1.89,1.19-1.3,2.6a9.49,9.49,0,0,0,3.56,4.35,20.91,20.91,0,0,0,8.73,3.1,9.37,9.37,0,0,0,4.88-.46c-1.29-.93-2.58-1.79-3.8-2.77a1.33,1.33,0,0,1-.27-1.21c.14-.3.73-.37,1.12-.55.16.39.33.76.47,1.16s0,.6.17.8A4.68,4.68,0,0,0,345.82,295.74Zm.44,1.16c-1.14.27-2.06.56-3,.71a14.81,14.81,0,0,1-6.76-.79,1.46,1.46,0,0,0-1.82.52,17.14,17.14,0,0,0-3.59,9.91c0,.5.13.79.75.77,1.13,0,1.24.15,1,1.3-.05.3-.11.6-.13.9-.07,1.5.54,2.11,2,2a9.15,9.15,0,0,0,5.13-2,20.15,20.15,0,0,0,6.26-8.87,22.69,22.69,0,0,0,.72-3.6c-1.45,1.08-2.67,2.05-4,2.9a1.24,1.24,0,0,1-1.21-.1,1.39,1.39,0,0,1-.1-1.22c.07-.18.72-.14,1.1-.14s.58.2.81.13A4.76,4.76,0,0,0,346.26,296.9Zm.62-2c2-3.13,5-4.6,8.24-5.82a1.62,1.62,0,0,0,.72-1.13,15.07,15.07,0,0,0-1.27-7.43A16.58,16.58,0,0,0,353,277.6a.93.93,0,0,0-.85-.25c-1.25.65-1.23.68-1.88-.63a5.45,5.45,0,0,0-.29-.53c-.81-1.24-1.68-1.39-2.79-.44a8.41,8.41,0,0,0-3,4.65,28.39,28.39,0,0,0-.67,5.43,14.33,14.33,0,0,0,1.75,7.82c.17.28.4.53.55.74.51-1.59.94-3.1,1.5-4.56a1.29,1.29,0,0,1,1.11-.51,1.12,1.12,0,0,1,.68.9c0,.27-.49.56-.8.79s-.54.11-.67.28A4.31,4.31,0,0,0,346.88,294.87Zm1-.46.24.33a10.64,10.64,0,0,1,1.45-.23,22.71,22.71,0,0,1,3.3.1,1.3,1.3,0,0,1,.78.94,1.16,1.16,0,0,1-.65.92c-.26.07-.66-.34-1-.58-.16-.13-.22-.44-.39-.51a4.16,4.16,0,0,0-3.69.34c3.41.86,5.72,3.17,7.74,5.83a1.4,1.4,0,0,0,1.68.64,16.65,16.65,0,0,0,8.75-5.92c.33-.41.32-.72-.17-1.06-.95-.65-.93-.86-.08-1.65a7.53,7.53,0,0,0,.56-.57c1-1.22.88-2.14-.46-2.95a9.39,9.39,0,0,0-5.61-1.37,19.85,19.85,0,0,0-9.07,2.94A31.1,31.1,0,0,0,347.87,294.41Zm-.4,2.6c.22,3.49-1.16,6.39-3,9.09a1.68,1.68,0,0,0,0,2.17,17.15,17.15,0,0,0,8,6.31c.63.25,1,.08,1.1-.64s.61-1,1.31-.53a5,5,0,0,0,1.06.54c1.34.5,2.1.1,2.44-1.29a9.38,9.38,0,0,0-.3-5.62,20.08,20.08,0,0,0-6.28-8.61,22.9,22.9,0,0,0-3.29-1.9c.58,1.75,1.12,3.23,1.53,4.74a1.29,1.29,0,0,1-.52,1.12,1.33,1.33,0,0,1-1.16-.3c-.14-.14.09-.73.21-1.1s.37-.41.38-.62A4.24,4.24,0,0,0,347.47,297Z" transform="translate(-326.98 -146.8)"/><path class="cls-3" d="M662,175.45a5.74,5.74,0,0,1-2.51-3.52c-.06-.3.17-.64.2-1,0-.49,0-1,0-1.48-.51,0-1.19-.21-1.48.05A1.55,1.55,0,0,0,658,171c.86,1.66,1.86,3.24,2.82,4.88a11.16,11.16,0,0,1-5.54-1.88,25.14,25.14,0,0,1-8.06-7.64,11.41,11.41,0,0,1-1.8-6.48c0-1.83.86-2.51,2.66-2.21a5.31,5.31,0,0,1,.81.19c1.58.49,1.54.49,1.89-1.16a1.1,1.1,0,0,1,.83-.64,19.12,19.12,0,0,1,11.5,5.69,1.52,1.52,0,0,1,.29,1.83,19.23,19.23,0,0,0-1.82,8.24C661.66,172.94,661.87,174.08,662,175.45Z" transform="translate(-326.98 -146.8)"/><path class="cls-3" d="M662,176.93a5.63,5.63,0,0,1-4.18,1.31c-.29,0-.53-.4-.82-.53s-1.11-.54-1.27-.39a1.64,1.64,0,0,0-.48,1.38,1.53,1.53,0,0,0,1.28.71c1.82-.3,3.6-.76,5.7-1.24a26.79,26.79,0,0,1-2.5,3.58,23.83,23.83,0,0,1-11.08,6.63,10.84,10.84,0,0,1-6.54-.34c-1.65-.6-2-1.55-1.23-3.16a8.64,8.64,0,0,1,.57-.91c.77-1.17.74-1.43-.51-1.94-.69-.28-.72-.67-.46-1.2a20.29,20.29,0,0,1,8.67-9.07,1.73,1.73,0,0,1,2.23.32,17.84,17.84,0,0,0,7,4.16C659.45,176.53,660.59,176.67,662,176.93Z" transform="translate(-326.98 -146.8)"/><path class="cls-3" d="M663.62,175a5.07,5.07,0,0,1,2.57-3.52c.22-.12.59.08.86,0,.45-.1,1.12-.18,1.26-.47a1.4,1.4,0,0,0-.31-1.32,1.56,1.56,0,0,0-1.46,0c-1.31,1.32-2.5,2.76-3.82,4.25a9.87,9.87,0,0,1-.24-1.08,17.1,17.1,0,0,1,1.82-9.39,33.35,33.35,0,0,1,3.33-5.6,10,10,0,0,1,5.45-3.63c1.67-.5,2.55.08,2.84,1.84a5.51,5.51,0,0,1,.06.71c.08,1.75.08,1.71,1.75,1.61a1.11,1.11,0,0,1,.81.69,20.07,20.07,0,0,1,.34,3.93c-.17,3-.51,6.06-2.16,8.72a1.86,1.86,0,0,1-1.33.89C671.28,172.44,667.26,172.55,663.62,175Z" transform="translate(-326.98 -146.8)"/><path class="cls-3" d="M664.92,175a36.82,36.82,0,0,1,5.05-1.4,23.74,23.74,0,0,1,11.32,1.21,11.36,11.36,0,0,1,5.46,4.23c1.08,1.54.79,2.61-.91,3.44a6.72,6.72,0,0,1-.88.35c-1.31.45-1.43.67-.71,1.84.38.61.24,1-.31,1.24a19.7,19.7,0,0,1-12.39,2.21A1.7,1.7,0,0,1,670,186.6c-.92-3.9-2.34-7.54-5.66-10.14a5,5,0,0,1,4.19,1.43c.15.15.07.53.19.75.22.41.47,1.05.78,1.1a1.37,1.37,0,0,0,1.15-.69,1.57,1.57,0,0,0-.41-1.41,27.46,27.46,0,0,0-3.54-1.71,12.17,12.17,0,0,0-1.7-.46Z" transform="translate(-326.98 -146.8)"/><path class="cls-3" d="M663.23,177.64a5,5,0,0,1,0,4.37c-.11.22-.52.28-.71.49s-.84.87-.75,1.1c.17.41.75.92,1.13.89a1.5,1.5,0,0,0,1.09-1c.28-1.85.4-3.72.6-5.92a29.21,29.21,0,0,1,2.68,3.68A24.25,24.25,0,0,1,670,193.74a11.2,11.2,0,0,1-2.37,6.29c-1,1.35-2,1.41-3.27.22a6.43,6.43,0,0,1-.9-1.11c-.55-.83-1.15-.83-1.68-.06s-.94.74-1.51.16a20.7,20.7,0,0,1-5.75-10.8,2,2,0,0,1,1.06-2.36C658.91,184.05,661.81,181.56,663.23,177.64Z" transform="translate(-326.98 -146.8)"/><path class="cls-4" d="M675.43,153.53a5.21,5.21,0,0,1,1.39,4.16c2.17-.21,2.44,0,2.7,2.23a21.2,21.2,0,0,1-2.28,12.89c1.49.45,3,.84,4.39,1.35a9.07,9.07,0,0,1,6.61,7.11l-.32.64-3,2.1c.67,1.88.55,2.15-1.51,3.1a20.76,20.76,0,0,1-12.81,1.74c.06,1,.15,2,.19,3a13,13,0,0,1-2.2,8.18c-1.68,2.43-3.43,2.52-5.35.25-.2-.23-.38-.48-.57-.72-1.7,1.39-2,1.36-3.58-.34a21.29,21.29,0,0,1-5.59-11.81l-1.3.58c-3.28,1.44-6.64,2.08-10.15.86-2.47-.86-3-2.56-1.63-4.83l.57-.88c-1.81-1.21-1.9-1.51-.84-3.43a21,21,0,0,1,9.39-9.09c-.84-1.09-1.72-2.15-2.52-3.27a12.05,12.05,0,0,1-2.29-7.53c.07-2.34,1.25-3.3,3.55-2.93.5.08,1,.22,1.48.33.68-2.13.88-2.26,3.1-1.81a20.9,20.9,0,0,1,11.36,6.18c.69-1.05,1.33-2.08,2-3.08a11.91,11.91,0,0,1,6.13-4.7,17.8,17.8,0,0,1,2.66-.46ZM662,175.45c-.17-1.37-.38-2.51-.45-3.65a19.23,19.23,0,0,1,1.82-8.24,1.52,1.52,0,0,0-.29-1.83,19.12,19.12,0,0,0-11.5-5.69,1.1,1.1,0,0,0-.83.64c-.35,1.65-.31,1.65-1.89,1.16a5.31,5.31,0,0,0-.81-.19c-1.8-.3-2.63.38-2.66,2.21a11.41,11.41,0,0,0,1.8,6.48,25.14,25.14,0,0,0,8.06,7.64,11.16,11.16,0,0,0,5.54,1.88c-1-1.64-2-3.22-2.82-4.88a1.55,1.55,0,0,1,.28-1.45c.29-.26,1-.05,1.48-.05,0,.49,0,1,0,1.48,0,.33-.26.67-.2,1A5.74,5.74,0,0,0,662,175.45Zm-.07,1.48c-1.38-.26-2.52-.4-3.62-.69a17.84,17.84,0,0,1-7-4.16,1.73,1.73,0,0,0-2.23-.32,20.29,20.29,0,0,0-8.67,9.07c-.26.53-.23.92.46,1.2,1.25.51,1.28.77.51,1.94a8.64,8.64,0,0,0-.57.91c-.79,1.61-.42,2.56,1.23,3.16a10.84,10.84,0,0,0,6.54.34,23.83,23.83,0,0,0,11.08-6.63,26.79,26.79,0,0,0,2.5-3.58c-2.1.48-3.88.94-5.7,1.24a1.53,1.53,0,0,1-1.28-.71,1.64,1.64,0,0,1,.48-1.38c.16-.15.84.2,1.27.39s.53.5.82.53A5.63,5.63,0,0,0,662,176.93Zm1.65-1.92c3.64-2.46,7.66-2.57,11.77-2.33a1.86,1.86,0,0,0,1.33-.89c1.65-2.66,2-5.69,2.16-8.72a20.07,20.07,0,0,0-.34-3.93,1.11,1.11,0,0,0-.81-.69c-1.67.1-1.67.14-1.75-1.61a5.51,5.51,0,0,0-.06-.71c-.29-1.76-1.17-2.34-2.84-1.84a10,10,0,0,0-5.45,3.63,33.35,33.35,0,0,0-3.33,5.6,17.1,17.1,0,0,0-1.82,9.39,9.87,9.87,0,0,0,.24,1.08c1.32-1.49,2.51-2.93,3.82-4.25a1.56,1.56,0,0,1,1.46,0,1.4,1.4,0,0,1,.31,1.32c-.14.29-.81.37-1.26.47-.27.06-.64-.14-.86,0A5.07,5.07,0,0,0,663.62,175Zm1.3,0,.1.47a12.17,12.17,0,0,1,1.7.46,27.46,27.46,0,0,1,3.54,1.71,1.57,1.57,0,0,1,.41,1.41,1.37,1.37,0,0,1-1.15.69c-.31-.05-.56-.69-.78-1.1-.12-.22,0-.6-.19-.75a5,5,0,0,0-4.19-1.43c3.32,2.6,4.74,6.24,5.66,10.14a1.7,1.7,0,0,0,1.53,1.52,19.7,19.7,0,0,0,12.39-2.21c.55-.29.69-.63.31-1.24-.72-1.17-.6-1.39.71-1.84a6.72,6.72,0,0,0,.88-.35c1.7-.83,2-1.9.91-3.44a11.36,11.36,0,0,0-5.46-4.23A23.74,23.74,0,0,0,670,173.6,36.82,36.82,0,0,0,664.92,175Zm-1.69,2.64c-1.42,3.92-4.32,6.41-7.66,8.44a2,2,0,0,0-1.06,2.36,20.7,20.7,0,0,0,5.75,10.8c.57.58,1,.56,1.51-.16s1.13-.77,1.68.06a6.43,6.43,0,0,0,.9,1.11c1.22,1.19,2.24,1.13,3.27-.22a11.2,11.2,0,0,0,2.37-6.29,24.25,24.25,0,0,0-2.74-12.46,29.21,29.21,0,0,0-2.68-3.68c-.2,2.2-.32,4.07-.6,5.92a1.5,1.5,0,0,1-1.09,1c-.38,0-1-.48-1.13-.89-.09-.23.44-.75.75-1.1s.6-.27.71-.49A5,5,0,0,0,663.23,177.64Z" transform="translate(-326.98 -146.8)"/></g></svg>