<?xml version="1.0" standalone="no"?>
<!DOCTYPE svg PUBLIC "-//W3C//DTD SVG 20010904//EN"
 "http://www.w3.org/TR/2001/REC-SVG-20010904/DTD/svg10.dtd">
<svg version="1.0" xmlns="http://www.w3.org/2000/svg"
 width="3509.000000pt" height="4962.000000pt" viewBox="0 0 3509.000000 4962.000000"
 preserveAspectRatio="xMidYMid meet">

<g transform="translate(0.000000,4962.000000) scale(0.100000,-0.100000)"
fill="#000000" stroke="none">
<path d="M9505 45909 c-398 -12 -764 -42 -1375 -109 -405 -45 -564 -72 -840
-141 -1406 -351 -3527 -1448 -5827 -3015 -40 -27 -74 -53 -76 -59 -2 -5 -2
-3814 1 -8463 l5 -8453 161 -79 c89 -43 207 -95 263 -114 l103 -35 0 8432 0
8432 101 69 c357 242 1028 667 1484 941 1768 1061 3284 1735 4265 1899 130 22
763 91 1050 115 435 37 613 45 1025 45 482 0 794 -17 1415 -79 135 -13 346
-34 470 -45 651 -60 1399 -186 2325 -391 944 -209 1875 -449 4035 -1037 2323
-634 3174 -853 4340 -1122 1366 -314 2361 -493 3655 -654 2339 -293 4619 -452
6542 -459 l563 -2 0 -8067 c0 -4978 4 -8068 9 -8068 38 0 348 134 456 198 l70
41 0 8227 0 8227 -85 -7 c-194 -14 -1120 -18 -1590 -7 -1907 44 -3826 191
-5915 452 -1293 161 -2255 335 -3683 665 -1040 240 -2011 491 -4242 1099
-1283 349 -1841 499 -2445 654 -1599 412 -2789 654 -3740 760 -165 19 -343 36
-925 91 -318 30 -628 49 -945 60 -314 10 -310 10 -650 -1z"/>
<path d="M10170 43295 c-272 -18 -496 -33 -497 -34 -2 0 -3 -8 -3 -16 0 -11
12 -15 44 -15 98 0 138 -22 155 -88 12 -42 71 -957 71 -1090 0 -46 -5 -92 -10
-103 -14 -25 -82 -59 -119 -59 -39 0 -61 -9 -61 -26 0 -19 10 -19 566 16 263
16 491 30 505 30 25 0 27 6 72 169 26 93 47 176 47 184 0 36 -38 1 -73 -67
-46 -89 -95 -148 -150 -181 -50 -29 -127 -41 -337 -54 -173 -11 -214 -3 -225
42 -4 14 -14 147 -23 296 -14 211 -15 272 -5 275 21 8 389 19 416 12 50 -12
84 -52 102 -121 14 -50 22 -65 36 -65 23 0 22 -19 4 250 -8 118 -15 221 -15
228 0 6 -9 12 -20 12 -16 0 -20 -7 -20 -32 0 -99 -46 -160 -131 -176 -57 -11
-380 -35 -386 -28 -7 7 -37 546 -31 552 4 3 112 13 241 21 183 11 244 12 278
3 61 -17 110 -71 133 -148 15 -47 24 -62 38 -62 22 0 23 16 3 175 -8 65 -15
123 -15 127 0 11 -32 10 -590 -27z"/>
<path d="M11555 43303 c-350 -74 -595 -418 -572 -803 8 -115 27 -192 71 -285
117 -247 333 -377 626 -376 163 0 279 39 391 133 61 50 158 164 159 185 1 35
-30 18 -109 -60 -143 -141 -213 -172 -381 -171 -164 2 -279 50 -383 163 -118
127 -163 348 -122 611 19 125 38 189 88 284 89 172 224 255 412 256 223 1 377
-119 455 -353 18 -52 34 -83 44 -85 15 -3 16 20 14 240 -3 207 -5 243 -18 245
-9 2 -27 -16 -42 -42 -35 -59 -58 -59 -180 0 -151 73 -296 92 -453 58z"/>
<path d="M8938 43122 c-295 -70 -539 -130 -543 -133 -3 -4 7 -77 22 -163 23
-132 30 -156 45 -156 15 0 18 9 18 63 0 44 7 76 24 112 27 58 47 78 98 100 48
19 258 69 265 62 12 -13 255 -1077 260 -1140 5 -65 4 -70 -23 -98 -15 -16 -51
-37 -81 -46 -38 -12 -53 -22 -53 -35 0 -21 -29 -26 320 56 211 49 266 65 268
79 3 15 -4 16 -70 11 -93 -8 -113 2 -143 69 -25 56 -282 1144 -272 1153 13 14
217 56 274 57 87 1 143 -35 191 -120 32 -59 62 -82 62 -48 0 12 -45 181 -76
288 -3 10 -14 17 -27 16 -12 0 -264 -58 -559 -127z"/>
<path d="M12440 43221 c0 -20 8 -24 68 -36 19 -4 49 -20 68 -37 32 -28 34 -34
34 -90 0 -57 -134 -920 -165 -1065 -24 -110 -69 -143 -175 -128 -46 6 -50 5
-50 -14 0 -12 6 -21 13 -21 6 0 137 -20 290 -45 153 -25 282 -45 287 -45 6 0
10 8 10 19 0 14 -10 20 -42 25 -58 9 -108 42 -124 83 -15 36 -11 71 47 436 20
125 24 137 43 137 26 0 627 -97 630 -102 8 -9 -85 -520 -98 -547 -27 -51 -60
-66 -139 -64 -59 2 -68 0 -65 -15 3 -14 51 -24 294 -63 159 -25 299 -51 310
-57 30 -17 454 -114 471 -108 26 10 8 29 -41 41 -29 8 -60 25 -80 44 -27 28
-31 37 -30 84 2 46 192 882 213 932 7 16 29 -22 113 -195 461 -950 541 -1108
559 -1113 10 -3 19 -4 19 -2 0 14 284 1200 296 1237 9 28 28 58 47 74 29 25
36 26 104 21 57 -4 73 -2 77 9 7 18 23 13 -239 75 -264 62 -238 58 -242 37 -3
-12 9 -20 49 -32 32 -9 65 -27 82 -45 27 -28 28 -33 23 -98 -4 -55 -190 -870
-201 -880 -2 -2 -137 273 -301 612 -175 360 -305 617 -314 619 -9 3 -92 23
-186 45 -128 31 -171 37 -177 28 -12 -19 -10 -21 40 -40 63 -22 130 -81 165
-145 l27 -49 -121 -509 c-66 -280 -130 -529 -142 -554 -29 -60 -55 -72 -142
-66 -38 3 -71 10 -73 15 -2 6 -20 13 -40 17 -45 8 -86 28 -113 55 -31 31 -25
103 56 606 87 542 99 602 125 631 27 28 87 43 144 36 41 -6 46 -5 46 12 0 17
-26 24 -272 63 -150 23 -285 45 -300 48 -23 5 -28 2 -28 -14 0 -15 11 -22 50
-31 109 -25 136 -68 119 -189 -17 -125 -69 -436 -73 -440 -4 -5 -638 96 -644
102 -2 2 10 93 28 202 60 376 61 378 191 378 68 0 79 2 79 17 0 21 12 19 -300
68 -140 22 -265 42 -277 45 -18 4 -23 1 -23 -14z"/>
<path d="M15938 42470 c-154 -28 -268 -89 -383 -204 -73 -74 -99 -107 -132
-176 -63 -128 -84 -213 -90 -365 -6 -156 8 -229 69 -355 33 -69 57 -101 127
-171 70 -70 102 -94 171 -127 111 -53 195 -72 311 -72 149 0 250 31 379 115
310 202 432 653 267 981 -119 237 -318 366 -582 379 -49 2 -111 0 -137 -5z
m297 -100 c116 -40 204 -128 246 -245 77 -217 -9 -650 -173 -871 -51 -68 -131
-126 -216 -156 -118 -41 -284 -12 -390 68 -43 33 -96 114 -124 189 -30 83 -32
320 -4 440 69 295 186 484 353 569 80 41 202 43 308 6z"/>
<path d="M17000 42191 c0 -13 12 -22 46 -31 28 -8 61 -28 82 -48 33 -34 34
-37 29 -91 -9 -78 -274 -1047 -300 -1096 -14 -25 -36 -47 -60 -59 -36 -17 -43
-17 -97 -4 -55 13 -59 13 -64 -5 -2 -10 1 -20 7 -22 56 -19 1050 -285 1053
-282 21 21 212 332 208 338 -11 18 -25 8 -93 -64 -38 -40 -91 -84 -118 -97
-97 -49 -226 -36 -501 52 -109 34 -128 54 -118 121 8 51 250 941 277 1016 10
30 26 62 35 72 29 32 89 42 162 28 53 -10 66 -9 73 2 5 8 3 16 -4 20 -11 6
-602 169 -613 169 -2 0 -4 -8 -4 -19z"/>
<path d="M18632 41710 c-189 -50 -367 -193 -450 -361 -63 -128 -94 -258 -95
-399 -1 -137 16 -207 76 -330 55 -112 169 -231 272 -283 128 -64 204 -82 340
-81 104 0 131 4 199 27 271 94 443 303 502 605 40 209 -8 412 -139 589 -150
203 -447 300 -705 233z m371 -89 c115 -45 199 -134 239 -255 31 -96 31 -285 0
-428 -79 -363 -226 -558 -451 -600 -168 -31 -354 58 -425 205 -47 96 -59 168
-53 317 14 373 184 690 415 777 55 20 203 12 275 -16z"/>
<path d="M20215 41344 c-88 -21 -118 -31 -173 -55 -170 -76 -329 -239 -401
-412 -85 -207 -81 -402 15 -606 39 -82 56 -106 132 -181 64 -63 108 -96 167
-127 226 -115 490 -149 721 -92 l40 10 49 212 c67 293 79 330 117 362 28 24
39 27 85 23 45 -4 53 -2 53 13 0 9 -6 19 -12 22 -7 2 -125 30 -261 62 -206 48
-250 56 -258 44 -10 -17 -5 -22 53 -43 63 -23 88 -56 88 -115 0 -25 -24 -149
-53 -274 -42 -182 -57 -231 -72 -240 -34 -20 -260 -15 -324 6 -162 55 -287
195 -337 377 -28 100 -25 318 5 429 76 283 250 469 470 504 58 8 85 7 158 -7
221 -43 348 -169 390 -387 15 -75 25 -98 44 -99 5 0 69 406 69 438 0 26 -37
11 -53 -23 -23 -49 -46 -46 -152 21 -104 66 -165 95 -255 118 -63 17 -264 30
-305 20z"/>
<path d="M21257 41114 c-13 -14 -7 -34 11 -34 38 0 92 -22 121 -49 27 -25 31
-36 31 -82 0 -51 -175 -966 -207 -1081 -26 -96 -77 -128 -175 -110 -41 8 -47
7 -51 -9 -3 -11 -4 -19 -3 -19 4 0 551 -110 572 -115 15 -3 23 1 27 14 4 15
-5 21 -53 34 -42 12 -66 26 -90 53 -30 35 -32 41 -26 90 8 70 193 1005 211
1071 10 34 26 60 47 78 31 26 37 27 105 22 65 -5 73 -4 73 12 0 15 -40 25
-272 71 -150 29 -282 55 -293 57 -11 3 -24 1 -28 -3z"/>
<path d="M22455 40894 c-105 -22 -238 -91 -317 -164 -175 -160 -267 -392 -255
-645 14 -308 185 -535 472 -625 96 -30 274 -38 368 -16 121 29 242 105 332
211 40 46 45 58 35 70 -11 13 -21 7 -74 -42 -73 -69 -159 -128 -218 -149 -74
-27 -202 -30 -297 -6 -293 75 -430 320 -377 681 59 400 244 620 521 621 241 0
417 -150 471 -401 17 -79 38 -104 48 -56 5 20 36 415 36 445 0 6 -9 12 -20 12
-11 0 -20 -4 -20 -9 0 -19 -59 -71 -82 -71 -13 0 -48 16 -77 36 -162 109 -357
147 -546 108z"/>
<path d="M24032 40663 c-21 -38 -170 -302 -331 -588 -161 -287 -309 -543 -329
-570 -50 -65 -81 -86 -136 -92 -36 -4 -46 -10 -46 -24 0 -21 7 -23 210 -44 80
-8 164 -18 187 -21 34 -4 42 -2 45 13 2 14 -10 22 -56 38 -39 13 -67 30 -80
48 -20 27 -20 29 -4 75 10 26 49 104 89 174 61 111 74 127 92 123 12 -2 135
-16 272 -31 138 -14 251 -27 252 -27 8 -9 85 -288 90 -326 8 -67 -20 -96 -101
-106 -45 -6 -56 -11 -54 -24 3 -13 45 -20 248 -43 308 -34 310 -34 310 -8 0
12 -7 20 -17 20 -34 0 -101 42 -125 78 -38 58 -48 88 -239 730 -99 334 -184
622 -190 640 -17 52 -42 42 -87 -35z m58 -553 c52 -172 82 -290 76 -290 -34 0
-459 50 -463 54 -3 3 61 124 143 270 82 145 151 262 153 260 2 -2 43 -134 91
-294z"/>
<path d="M24880 40590 c0 -17 7 -20 40 -20 90 0 141 -43 148 -123 2 -28 -15
-288 -38 -577 -46 -585 -48 -598 -114 -625 -20 -8 -58 -15 -85 -15 -46 0 -72
-13 -56 -28 9 -9 1089 -92 1096 -84 5 6 58 137 146 360 3 7 -3 12 -14 12 -13
0 -31 -21 -55 -63 -48 -84 -108 -144 -176 -174 -55 -26 -57 -26 -241 -19 -202
7 -287 18 -309 39 -30 31 -30 86 9 584 21 274 41 516 45 538 15 94 56 125 172
133 60 4 72 7 70 21 -3 14 -44 19 -283 38 -361 28 -355 28 -355 3z"/>
<path d="M11430 40494 c-385 -21 -496 -30 -960 -80 -443 -47 -604 -74 -950
-154 -980 -229 -2515 -798 -3942 -1461 l-137 -64 -1 -6995 0 -6996 29 -17 c15
-9 62 -41 105 -71 l76 -55 0 2752 c0 1514 0 4663 0 6998 l0 4246 247 113
c1327 602 2674 1099 3578 1320 376 92 589 127 1075 180 729 78 1119 92 1690
59 295 -17 1029 -86 1315 -125 898 -120 2041 -383 4049 -934 3455 -947 4683
-1225 6351 -1434 865 -109 1510 -174 2490 -251 747 -59 1890 -105 2637 -105
l378 0 0 -6397 c0 -3518 2 -6398 4 -6400 3 -3 28 13 58 34 29 22 74 53 100 69
l48 29 0 6443 0 6444 -342 -7 c-513 -11 -1442 15 -2218 60 -1483 87 -3224 275
-4305 466 -1177 207 -2244 465 -4775 1154 -1647 448 -2194 590 -2915 754 -676
154 -1301 265 -1775 316 -290 31 -770 75 -980 90 -203 15 -789 27 -930 19z"/>
<path d="M3020 39965 c0 -238 1 -245 20 -245 16 0 20 7 20 31 0 58 47 109 101
109 37 0 87 -28 334 -186 l247 -157 -114 -74 c-393 -256 -429 -277 -476 -277
-37 -1 -48 4 -65 26 -11 15 -22 48 -25 77 -4 41 -8 51 -23 51 -18 0 -19 -14
-19 -305 0 -298 0 -305 20 -305 15 0 20 7 20 28 0 38 52 124 97 159 21 17 188
128 372 248 l334 217 227 -4 c199 -3 229 -5 254 -21 35 -23 56 -73 56 -132 0
-38 3 -45 20 -45 20 0 20 7 20 300 0 286 -1 300 -19 300 -15 0 -19 -10 -24
-59 -6 -66 -28 -107 -66 -124 -16 -6 -121 -12 -261 -14 l-235 -4 -320 206
c-176 113 -339 225 -363 248 -48 47 -92 127 -92 169 0 21 -5 28 -20 28 -19 0
-20 -7 -20 -245z"/>
<path d="M4390 38763 c-16 -77 -42 -126 -101 -188 -46 -49 -513 -396 -533
-396 -5 0 -17 24 -26 53 -26 83 -58 137 -111 189 -64 62 -135 89 -234 89 -110
0 -169 -25 -243 -105 -109 -116 -122 -187 -122 -661 0 -327 0 -334 20 -334 17
0 20 7 20 53 0 58 24 107 62 129 18 10 143 13 608 13 548 0 587 -1 612 -18 35
-24 58 -75 58 -131 0 -39 3 -46 20 -46 20 0 20 7 20 300 0 293 0 300 -20 300
-17 0 -20 -7 -20 -46 0 -60 -25 -111 -64 -132 -26 -14 -70 -17 -294 -20 l-263
-4 3 78 3 78 328 239 327 238 0 190 c0 180 -1 189 -19 189 -16 0 -22 -11 -31
-57z m-874 -512 c125 -57 193 -187 194 -368 l0 -73 -294 0 -294 0 -11 50 c-38
176 12 312 137 377 57 29 73 33 145 33 58 0 94 -6 123 -19z"/>
<path d="M32090 38630 c0 -66 -22 -107 -68 -128 -32 -14 -101 -17 -502 -23
-503 -6 -520 -8 -616 -63 -152 -88 -224 -241 -224 -481 0 -190 38 -307 130
-408 55 -60 119 -98 206 -123 50 -15 128 -18 514 -23 412 -5 458 -8 488 -24
56 -31 72 -69 72 -173 0 -81 -3 -97 -31 -152 -17 -35 -49 -77 -72 -97 l-41
-36 -562 3 c-546 3 -563 4 -584 23 -31 28 -50 76 -50 130 0 38 -3 45 -20 45
-19 0 -20 -7 -20 -250 0 -237 1 -250 19 -250 15 0 19 10 23 63 6 74 27 111 71
128 41 16 1001 26 996 11 -2 -6 -256 -216 -564 -467 -415 -339 -561 -463 -563
-481 l-3 -23 665 -3 666 -3 32 -32 c28 -29 33 -40 36 -98 4 -56 7 -65 23 -65
18 0 19 12 19 251 0 233 -1 250 -17 247 -14 -2 -19 -17 -24 -63 -7 -76 -22
-103 -67 -123 -32 -14 -99 -17 -489 -20 -254 -2 -453 0 -453 5 0 5 236 201
525 437 l525 429 0 438 c0 432 0 439 -20 439 -17 0 -20 -7 -20 -52 0 -59 -24
-108 -62 -130 -18 -10 -120 -13 -473 -13 -400 0 -457 2 -514 18 -161 44 -258
184 -268 388 -11 209 73 333 256 376 67 16 128 18 521 18 407 0 448 -2 477
-18 43 -23 63 -64 63 -127 0 -43 3 -50 20 -50 20 0 20 7 20 300 0 293 0 300
-20 300 -17 0 -20 -7 -20 -50z"/>
<path d="M4390 37333 c-16 -77 -42 -126 -101 -188 -46 -49 -513 -396 -533
-396 -5 0 -17 24 -26 53 -26 83 -58 137 -111 189 -64 62 -135 89 -234 89 -110
0 -169 -25 -243 -105 -109 -116 -122 -187 -122 -661 0 -327 0 -334 20 -334 17
0 20 7 20 53 0 58 24 107 62 129 18 10 143 13 608 13 548 0 587 -1 612 -18 35
-24 58 -75 58 -131 0 -39 3 -46 20 -46 20 0 20 7 20 300 0 293 0 300 -20 300
-17 0 -20 -7 -20 -46 0 -60 -25 -111 -64 -132 -26 -14 -70 -17 -294 -20 l-263
-4 3 78 3 78 328 239 327 238 0 190 c0 180 -1 189 -19 189 -16 0 -22 -11 -31
-57z m-874 -512 c125 -57 193 -187 194 -368 l0 -73 -294 0 -294 0 -11 50 c-38
176 12 312 137 377 57 29 73 33 145 33 58 0 94 -6 123 -19z"/>
<path d="M17550 36263 c0 -27 -75 -436 -96 -525 -23 -97 -30 -113 -69 -155
-55 -62 -126 -103 -250 -148 -55 -20 -130 -50 -167 -66 -107 -47 -129 -43
-261 50 -214 150 -398 264 -409 253 -7 -7 -23 -3 -49 14 -21 13 -42 24 -46 24
-5 -1 -111 -101 -238 -224 l-230 -224 90 -133 c50 -73 133 -193 186 -266 110
-152 129 -199 110 -272 -10 -38 -211 -469 -231 -493 -4 -6 -310 -65 -672 -130
l-58 -10 0 -317 0 -317 78 -17 c140 -29 365 -74 514 -101 l146 -28 47 -106
c26 -59 75 -163 108 -232 93 -194 91 -238 -19 -387 -54 -72 -264 -379 -287
-419 -5 -9 398 -401 455 -442 15 -11 23 -10 48 5 29 17 31 17 51 -4 l21 -20
181 121 c100 66 185 122 189 124 8 4 103 -124 191 -258 140 -214 328 -640 353
-797 4 -24 10 -43 14 -43 5 0 10 -96 12 -212 3 -228 7 -246 60 -295 31 -29 90
-53 131 -53 l34 0 5 -64 c18 -213 228 -371 449 -335 63 10 141 44 196 86 69
53 133 184 133 273 0 37 0 37 49 43 65 8 103 28 138 74 l28 36 3 221 c2 144 7
223 14 227 6 4 21 47 33 95 46 182 166 456 290 663 59 100 234 351 244 351 3
0 94 -58 201 -130 l195 -129 22 21 22 20 33 -20 33 -20 233 226 232 227 -200
290 c-110 159 -200 295 -200 302 0 7 29 85 65 173 36 88 79 199 96 247 33 94
53 129 78 143 9 5 145 30 301 56 157 25 287 50 290 54 3 4 28 10 55 14 28 4
60 10 73 13 l22 5 0 318 0 318 -187 36 c-104 20 -256 47 -339 60 -219 35 -245
53 -295 206 -17 52 -62 164 -100 249 l-68 154 195 285 c108 157 198 290 200
296 4 10 -245 256 -411 408 l-55 50 -41 -26 c-29 -20 -44 -24 -53 -17 -9 8
-77 -32 -258 -154 -224 -151 -250 -165 -289 -165 -43 0 -72 12 -486 192 -71
31 -72 33 -81 77 -5 25 -34 172 -63 326 -43 223 -58 285 -75 305 l-22 25 -321
3 c-177 1 -321 -1 -321 -5z m585 -1211 c447 -97 816 -385 1016 -791 58 -118
91 -215 120 -351 33 -150 33 -437 1 -587 -91 -420 -345 -769 -715 -981 -324
-186 -722 -238 -1090 -142 -550 142 -967 591 -1073 1155 -25 133 -25 390 -1
525 83 448 377 840 785 1045 148 74 268 113 437 141 115 19 402 11 520 -14z
m-1081 -3151 c103 -44 366 -168 366 -173 1 -2 29 -156 64 -343 l62 -340 307
-3 c351 -3 354 -2 381 70 9 24 41 173 71 333 31 159 57 289 58 290 345 154
469 205 498 205 33 0 112 -33 153 -65 17 -13 13 -21 -67 -137 -206 -300 -379
-669 -430 -919 l-13 -64 -42 3 -42 4 0 -250 c0 -225 -2 -250 -17 -264 -32 -27
-61 -38 -123 -45 l-60 -6 0 -94 c0 -62 -5 -103 -14 -122 -22 -42 -102 -110
-164 -139 -51 -24 -69 -27 -167 -27 -101 0 -114 2 -162 28 -29 15 -68 41 -88
58 l-35 31 0 133 0 132 -73 5 c-41 3 -79 8 -85 12 -9 5 -12 83 -12 278 l0 271
-85 -5 c-75 -4 -85 -2 -85 13 0 36 -51 211 -95 324 -88 227 -200 438 -345 644
-38 55 -70 104 -70 108 0 8 51 45 105 75 50 28 107 22 209 -21z"/>
<path d="M17826 34900 c-101 -32 -201 -166 -271 -362 -15 -43 -29 -78 -30 -78
-1 0 -40 18 -86 39 -180 85 -338 104 -437 55 -43 -21 -56 -34 -79 -81 -23 -48
-27 -68 -26 -137 2 -90 31 -206 81 -317 l30 -66 -107 -42 c-199 -78 -310 -178
-319 -287 -2 -29 -2 -64 1 -76 12 -47 71 -120 132 -163 63 -45 226 -128 276
-140 l26 -7 -39 -88 c-109 -248 -101 -430 23 -499 88 -50 245 -37 417 34 126
53 117 52 131 3 20 -70 97 -221 140 -276 105 -132 247 -144 360 -30 57 56 110
140 154 243 21 50 40 92 42 93 2 2 44 -13 94 -33 274 -109 460 -79 508 84 28
98 -1 251 -78 402 -17 34 -29 62 -27 63 2 1 26 11 53 21 80 28 216 101 266
142 143 116 157 255 37 373 -52 51 -176 121 -285 160 l-61 22 35 82 c91 211
99 399 20 485 -80 87 -268 81 -476 -15 -41 -19 -78 -31 -82 -27 -4 5 -21 44
-38 88 -59 147 -153 275 -233 316 -46 23 -112 32 -152 19z m141 -57 c74 -41
150 -162 209 -327 21 -59 25 -81 15 -84 -19 -6 -221 -141 -221 -147 0 -3 26
12 58 33 60 41 165 102 174 102 10 0 48 -175 69 -314 23 -156 34 -339 33 -534
l-1 -144 -124 -124 -124 -124 -176 0 -176 0 -149 153 c-197 201 -368 417 -453
569 l-32 56 77 18 c42 10 72 20 66 22 -6 2 -37 -4 -70 -12 -33 -9 -65 -16 -71
-16 -28 0 -124 246 -136 351 -12 96 25 177 99 217 53 28 182 21 293 -16 98
-33 193 -77 193 -90 0 -4 -7 -32 -15 -62 -8 -30 -14 -62 -14 -70 0 -8 9 16 20
55 11 38 22 71 24 73 5 6 86 -38 173 -94 45 -29 82 -51 82 -49 0 5 -147 102
-227 152 l-23 13 24 63 c75 200 180 334 278 357 43 10 73 3 125 -27z m761
-307 c31 -16 64 -50 83 -86 20 -39 15 -155 -10 -239 -29 -95 -96 -241 -111
-241 -7 0 -39 7 -72 16 -33 8 -64 14 -70 12 -6 -2 24 -12 66 -22 l76 -18 -17
-31 c-28 -56 -170 -259 -238 -341 l-65 -79 0 124 c0 113 -13 311 -25 399 -16
110 -39 226 -60 308 -14 52 -25 99 -25 106 0 6 15 17 33 25 109 44 195 73 240
81 65 11 159 5 195 -14z m-1544 -870 c32 -43 55 -84 52 -91 -2 -7 1 -12 8 -11
6 0 49 -44 95 -99 47 -55 87 -102 90 -105 3 -3 42 -43 86 -89 l80 -84 -60 7
c-33 4 -82 9 -110 12 -75 8 -349 64 -357 72 -5 5 19 52 51 105 74 121 63 119
-15 -3 -31 -50 -62 -90 -70 -90 -24 0 -158 52 -224 86 -124 65 -200 153 -200
233 0 100 117 209 313 291 l90 38 58 -96 c31 -54 82 -132 113 -176z m1735 196
c129 -64 230 -176 231 -255 1 -104 -130 -216 -342 -292 l-91 -32 -100 150
c-67 102 -97 154 -91 163 50 69 167 250 189 291 l27 52 52 -20 c28 -11 84 -37
125 -57z m-332 -399 c96 -147 115 -180 105 -187 -12 -7 -301 -66 -325 -66 -16
0 -17 8 -11 93 l7 92 70 88 c39 48 74 87 77 87 3 0 38 -48 77 -107z m-297
-200 c-5 -63 -14 -70 -90 -72 l-34 -1 64 65 c35 36 65 65 65 65 0 0 -2 -26 -5
-57z m-1125 -68 c133 -32 245 -51 391 -65 l121 -13 71 -59 c40 -33 72 -63 72
-66 -1 -21 -278 -198 -291 -185 -5 5 -17 44 -28 88 -11 44 -20 71 -20 60 0
-11 8 -53 18 -93 l19 -73 -71 -36 c-154 -77 -316 -111 -400 -84 -47 16 -104
80 -113 127 -11 59 3 184 29 259 46 131 68 177 86 170 9 -4 61 -17 116 -30z
m1595 -42 c63 -151 85 -294 59 -374 -16 -46 -65 -96 -107 -110 -50 -17 -174
-5 -257 24 -74 26 -183 75 -189 86 -2 3 6 45 19 91 12 47 30 128 39 181 l18
95 102 17 c56 10 140 28 187 41 46 14 87 25 90 25 3 1 21 -34 39 -76z m-515
-199 c-14 -71 -30 -133 -34 -137 -10 -10 -52 15 -188 110 l-93 64 76 64 77 63
91 9 91 8 3 -26 c2 -14 -9 -84 -23 -155z m-315 121 c-23 -19 -47 -35 -53 -35
-7 1 -30 16 -51 35 l-39 35 92 0 93 0 -42 -35z m86 -215 c75 -49 145 -92 155
-95 25 -8 24 -21 -5 -98 -80 -212 -184 -330 -290 -330 -93 0 -182 84 -262 248
-76 157 -76 154 -10 188 30 16 103 62 163 103 59 40 109 74 110 74 1 0 63 -40
139 -90z"/>
<path d="M17482 34260 c0 -14 2 -19 5 -12 2 6 2 18 0 25 -3 6 -5 1 -5 -13z"/>
<path d="M17800 34276 c0 -2 8 -10 18 -17 15 -13 16 -12 3 4 -13 16 -21 21
-21 13z"/>
<path d="M17917 34249 c-37 -31 -38 -31 -60 -13 -22 19 -22 19 -5 -2 14 -16
15 -23 5 -34 -10 -12 -9 -12 6 -1 14 11 20 11 35 0 15 -12 16 -12 4 2 -11 14
-7 21 25 47 21 17 36 31 33 32 -3 0 -22 -14 -43 -31z"/>
<path d="M17472 34210 c0 -14 2 -19 5 -12 2 6 2 18 0 25 -3 6 -5 1 -5 -13z"/>
<path d="M17462 34160 c0 -14 2 -19 5 -12 2 6 2 18 0 25 -3 6 -5 1 -5 -13z"/>
<path d="M17749 34113 c-13 -16 -12 -17 4 -4 9 7 17 15 17 17 0 8 -8 3 -21
-13z"/>
<path d="M17451 34094 c0 -11 3 -14 6 -6 3 7 2 16 -1 19 -3 4 -6 -2 -5 -13z"/>
<path d="M17418 34033 c6 -2 18 -2 25 0 6 3 1 5 -13 5 -14 0 -19 -2 -12 -5z"/>
<path d="M17348 34023 c6 -2 18 -2 25 0 6 3 1 5 -13 5 -14 0 -19 -2 -12 -5z"/>
<path d="M17288 34013 c6 -2 18 -2 25 0 6 3 1 5 -13 5 -14 0 -19 -2 -12 -5z"/>
<path d="M17238 34003 c6 -2 18 -2 25 0 6 3 1 5 -13 5 -14 0 -19 -2 -12 -5z"/>
<path d="M17784 33892 c-103 -49 -164 -142 -164 -251 1 -288 373 -383 514
-131 26 46 30 65 30 125 1 112 -54 204 -150 250 -57 28 -177 31 -230 7z"/>
<path d="M17319 33673 c-13 -16 -12 -17 4 -4 9 7 17 15 17 17 0 8 -8 3 -21
-13z"/>
<path d="M18388 34023 c6 -2 18 -2 25 0 6 3 1 5 -13 5 -14 0 -19 -2 -12 -5z"/>
<path d="M18448 34013 c6 -2 18 -2 25 0 6 3 1 5 -13 5 -14 0 -19 -2 -12 -5z"/>
<path d="M18498 34003 c6 -2 18 -2 25 0 6 3 1 5 -13 5 -14 0 -19 -2 -12 -5z"/>
<path d="M17200 33520 c-12 -16 -19 -30 -16 -30 2 0 14 14 26 30 12 17 19 30
16 30 -2 0 -14 -13 -26 -30z"/>
<path d="M17452 33110 c0 -14 2 -19 5 -12 2 6 2 18 0 25 -3 6 -5 1 -5 -13z"/>
<path d="M17462 33050 c0 -14 2 -19 5 -12 2 6 2 18 0 25 -3 6 -5 1 -5 -13z"/>
<path d="M17471 32994 c0 -11 3 -14 6 -6 3 7 2 16 -1 19 -3 4 -6 -2 -5 -13z"/>
<path d="M4080 35872 c0 -14 27 -37 90 -76 49 -32 105 -76 125 -99 57 -66 65
-111 65 -354 0 -214 0 -214 -25 -238 l-24 -25 -292 0 -292 0 5 198 c7 265 23
299 148 325 47 9 66 18 68 30 3 16 -16 17 -242 17 -239 0 -246 -1 -246 -20 0
-16 7 -20 33 -20 49 0 118 -39 142 -80 18 -31 20 -56 24 -242 l3 -208 -286 0
-286 0 1 183 c1 269 9 348 43 391 32 43 62 59 139 77 43 10 57 18 57 31 0 16
-10 18 -78 18 -44 0 -113 -3 -155 -6 l-77 -7 0 -543 c0 -537 0 -544 20 -544
17 0 20 7 20 51 0 66 23 114 63 131 26 10 149 13 612 13 543 0 582 -1 607 -18
32 -22 58 -83 58 -137 0 -33 3 -40 20 -40 20 0 20 5 18 547 l-3 546 -160 54
c-88 29 -168 56 -177 59 -13 4 -18 0 -18 -14z"/>
<path d="M30710 35240 c0 -293 0 -300 20 -300 17 0 20 7 20 43 0 24 10 62 23
87 36 73 21 71 666 68 445 -2 571 -6 589 -16 38 -22 62 -71 62 -129 0 -46 3
-53 20 -53 20 0 20 7 20 300 0 293 0 300 -20 300 -17 0 -20 -7 -20 -46 0 -56
-24 -110 -59 -132 -23 -15 -79 -17 -606 -17 -528 0 -583 2 -611 17 -39 22 -64
73 -64 132 0 39 -3 46 -20 46 -20 0 -20 -7 -20 -300z"/>
<path d="M15795 35010 c-259 -103 -653 -315 -935 -505 -305 -205 -521 -385
-811 -674 -214 -215 -315 -325 -404 -442 -145 -191 -187 -248 -265 -364 -235
-351 -390 -649 -560 -1075 -82 -207 -98 -254 -159 -476 -112 -403 -167 -750
-197 -1228 -15 -243 -15 -278 0 -511 50 -741 172 -1259 446 -1906 108 -252
172 -376 346 -663 l54 -89 0 -139 0 -138 54 0 c137 0 133 2 248 -144 126 -161
266 -319 440 -497 423 -432 1022 -846 1588 -1099 63 -28 139 -63 169 -77 82
-38 168 -69 371 -134 549 -176 1002 -254 1610 -274 327 -11 807 34 1182 110
328 67 748 193 953 285 33 15 105 47 160 70 384 167 822 434 1180 719 357 286
668 602 925 943 72 95 78 98 198 98 l62 0 0 135 0 135 51 82 c106 169 268 464
300 548 9 25 47 115 84 200 71 165 185 494 234 675 82 307 135 609 172 980 19
191 21 257 16 500 -11 488 -58 856 -168 1290 -27 108 -41 158 -95 345 -9 30
-45 127 -79 215 -210 536 -434 941 -766 1382 -174 231 -246 313 -503 568 -322
320 -642 569 -1031 803 -232 139 -656 352 -700 352 -8 0 -68 -79 -135 -177
l-121 -176 64 -146 c35 -80 77 -184 92 -230 42 -128 44 -129 280 -166 55 -9
198 -34 318 -57 l217 -42 0 -377 0 -377 -152 -24 -153 -25 215 5 c167 4 597
-11 606 -21 3 -3 64 -5370 64 -5546 l0 -154 -52 8 c-428 58 -845 59 -1278 4
-642 -81 -1326 -311 -1897 -637 l-123 -70 0 1444 0 1444 -39 0 -38 0 -7 -967
c-3 -533 -9 -1178 -12 -1434 l-6 -466 -87 50 c-143 83 -496 251 -671 320 -639
252 -1301 370 -1970 353 -215 -5 -309 -12 -537 -42 l-53 -7 6 359 c3 198 18
1479 34 2847 16 1369 30 2490 32 2492 13 12 417 27 606 22 122 -4 222 -5 222
-3 0 1 -63 13 -140 26 l-140 24 -10 37 c-6 22 -9 172 -8 375 l3 338 250 47
c138 25 305 56 373 69 l123 22 71 141 c96 192 148 313 148 343 0 36 -22 74
-124 214 -50 69 -98 135 -106 147 -11 16 -20 19 -35 13z m-1304 -2315 c-1
-159 -15 -1408 -31 -2774 -23 -2015 -31 -2486 -42 -2492 -7 -5 -25 -9 -40 -9
-14 0 -33 -3 -42 -6 -15 -6 -16 243 -16 2778 0 1532 3 2788 7 2792 4 4 43 5
87 4 l80 -3 -3 -290z m6933 289 c15 -6 16 -261 16 -2790 l0 -2784 -22 4 c-13
3 -39 7 -58 10 l-36 6 -27 2463 c-15 1354 -30 2605 -34 2780 l-6 317 76 0 c41
0 82 -3 91 -6z m-7164 -2950 l0 -2696 23 6 c12 3 76 14 142 23 170 24 681 24
925 0 478 -48 1067 -163 1490 -292 243 -73 479 -149 476 -152 -2 -2 -57 10
-122 26 -781 196 -1599 330 -2264 371 -184 11 -601 12 -727 2 l-83 -7 0 2696
0 2697 63 10 c34 5 65 10 70 11 4 0 7 -1212 7 -2695z m7323 2680 l47 -6 0
-2697 0 -2697 -97 9 c-138 12 -704 1 -918 -18 -623 -54 -1352 -180 -2024 -350
-79 -20 -145 -34 -147 -32 -6 6 362 121 576 181 670 186 1330 286 1886 286
204 0 473 -22 572 -47 l22 -5 0 2697 c0 2563 1 2696 18 2691 9 -3 38 -8 65
-12z m-7523 -2830 l0 -2636 48 6 c115 14 607 18 797 7 499 -29 1043 -104 1623
-223 111 -22 200 -43 198 -45 -2 -3 -107 9 -233 26 -683 92 -1630 173 -2420
207 l-163 7 0 2628 0 2628 38 10 c58 15 76 19 95 20 16 1 17 -131 17 -2635z
m7700 2626 c25 -6 55 -12 68 -15 l22 -5 0 -2628 0 -2628 -347 -17 c-790 -40
-1565 -109 -2241 -198 -129 -17 -236 -29 -238 -26 -5 5 522 109 721 141 381
63 763 107 1110 127 190 11 690 7 793 -7 l42 -6 0 2636 c0 2102 3 2636 13
2636 6 0 32 -5 57 -10z m-7910 -2783 l0 -2554 193 -7 c829 -29 2073 -143 2792
-256 254 -40 546 -92 541 -97 -4 -4 -3679 266 -3714 273 l-22 4 2 2578 3 2577
95 17 c52 9 98 17 103 17 4 1 7 -1148 7 -2552z m8178 2532 l82 -11 -2 -2581
-3 -2581 -1845 -138 c-1015 -76 -1856 -137 -1870 -135 -83 7 826 145 1330 201
643 72 1775 156 2104 156 l86 0 0 2556 c0 2429 1 2555 18 2550 9 -3 54 -10
100 -17z m-6338 -4793 c523 -58 1026 -190 1497 -395 145 -62 306 -141 258
-126 -11 4 -99 33 -195 65 -894 297 -1791 455 -2488 438 -106 -3 -191 -4 -189
-2 3 3 251 31 332 38 115 9 647 -3 785 -18z m5360 -1 c74 -9 136 -17 137 -18
1 -1 -137 -2 -305 -3 -212 0 -361 -6 -482 -18 -613 -60 -1285 -210 -1939 -430
-74 -25 -136 -44 -138 -42 -6 6 235 116 384 175 479 190 1003 312 1513 351
176 13 671 4 830 -15z m-4283 -481 c-3 -3 -12 -4 -19 -1 -8 3 -5 6 6 6 11 1
17 -2 13 -5z m2240 0 c-3 -3 -12 -4 -19 -1 -8 3 -5 6 6 6 11 1 17 -2 13 -5z"/>
<path d="M32090 34853 c0 -10 -5 -36 -11 -58 -23 -84 -32 -88 -741 -395 -562
-243 -658 -288 -658 -305 0 -17 79 -52 563 -249 309 -126 607 -251 663 -277
111 -52 155 -93 175 -159 9 -28 18 -40 31 -40 17 0 18 13 18 215 0 208 -1 215
-20 215 -12 0 -20 -7 -20 -17 -1 -33 -38 -101 -65 -119 -25 -16 -29 -16 -88 0
-68 19 -927 367 -927 376 1 7 819 359 900 387 85 29 106 29 140 -6 21 -21 31
-42 36 -80 5 -41 10 -51 25 -51 18 0 19 13 19 290 0 283 0 290 -20 290 -12 0
-20 -7 -20 -17z"/>
<path d="M3020 34280 c0 -293 0 -300 20 -300 17 0 20 7 20 45 0 54 19 102 50
130 21 19 39 20 296 23 l274 3 0 -331 0 -332 -268 4 c-239 3 -271 5 -296 21
-35 23 -56 73 -56 132 0 38 -3 45 -20 45 -20 0 -20 -7 -20 -300 0 -293 0 -300
20 -300 17 0 20 7 20 45 0 54 19 102 50 130 22 20 36 20 614 20 556 0 594 -1
620 -18 35 -23 56 -73 56 -132 0 -38 3 -45 20 -45 20 0 20 7 20 300 0 293 0
300 -20 300 -17 0 -20 -7 -20 -42 0 -50 -30 -117 -62 -138 -19 -12 -75 -16
-305 -18 l-283 -4 0 332 0 331 283 -3 c244 -3 286 -5 308 -20 35 -22 59 -76
59 -132 0 -39 3 -46 20 -46 20 0 20 7 20 300 0 293 0 300 -20 300 -17 0 -20
-7 -20 -40 0 -54 -26 -115 -58 -137 -25 -17 -64 -18 -612 -18 -551 0 -588 1
-614 18 -35 23 -56 73 -56 132 0 38 -3 45 -20 45 -20 0 -20 -7 -20 -300z"/>
<path d="M30712 32743 l3 -546 160 -54 c88 -29 168 -56 178 -59 12 -4 17 0 17
14 0 14 -27 37 -90 76 -49 32 -105 76 -125 99 -57 66 -65 111 -65 354 0 214 0
214 25 238 l24 25 292 0 292 0 -5 -197 c-6 -212 -13 -248 -61 -291 -16 -16
-47 -27 -91 -35 -53 -9 -66 -15 -66 -29 0 -17 16 -18 245 -18 238 0 245 1 245
20 0 16 -7 20 -33 20 -49 0 -118 39 -142 80 -18 31 -20 56 -24 243 l-3 207
286 0 286 0 -1 -182 c-1 -270 -9 -349 -43 -392 -32 -43 -62 -59 -138 -77 -44
-10 -58 -18 -58 -31 0 -16 10 -18 78 -18 44 0 113 3 155 6 l77 7 0 543 c0 537
0 544 -20 544 -17 0 -20 -7 -20 -51 0 -66 -23 -114 -63 -131 -26 -10 -149 -13
-612 -13 -543 0 -582 1 -607 18 -32 22 -58 83 -58 137 0 33 -3 40 -20 40 -20
0 -20 -5 -18 -547z"/>
<path d="M15413 33203 c9 -2 23 -2 30 0 6 3 -1 5 -18 5 -16 0 -22 -2 -12 -5z"/>
<path d="M20328 33203 c7 -3 16 -2 19 1 4 3 -2 6 -13 5 -11 0 -14 -3 -6 -6z"/>
<path d="M4095 32992 c-5 -12 5 -26 37 -52 188 -150 257 -283 245 -475 -15
-243 -152 -406 -397 -472 -100 -28 -406 -24 -513 5 -264 73 -407 238 -407 473
0 184 97 334 270 417 47 22 97 44 113 47 44 11 34 35 -15 35 -57 0 -365 -20
-405 -26 -38 -6 -47 -38 -14 -49 11 -3 31 -15 45 -26 34 -27 33 -61 -4 -140
-44 -96 -60 -171 -60 -285 0 -192 66 -359 194 -489 85 -86 179 -143 306 -187
92 -31 101 -33 255 -33 181 0 248 15 380 83 104 54 231 184 278 282 46 99 67
197 67 318 0 251 -107 436 -330 569 -35 21 -38 22 -45 5z"/>
<path d="M14883 32513 c-52 -4 -53 -4 -53 -37 l0 -32 258 -1 c274 0 424 -13
667 -58 l130 -24 17 22 c10 12 18 27 18 33 0 11 -155 44 -325 69 -206 30 -513
42 -712 28z"/>
<path d="M20470 32499 c-202 -12 -584 -70 -606 -92 -10 -9 27 -57 45 -57 9 0
50 7 91 16 212 44 342 56 650 61 l305 4 3 33 3 33 -128 6 c-144 8 -185 7 -363
-4z"/>
<path d="M14848 31983 c-28 -4 -32 -12 -22 -48 5 -19 13 -20 282 -20 278 0
407 -9 610 -44 l103 -17 -45 44 c-50 51 -54 52 -293 77 -131 14 -561 19 -635
8z"/>
<path d="M30710 31690 c0 -293 0 -300 20 -300 17 0 20 7 20 46 0 60 25 111 64
132 26 14 70 17 294 20 l263 4 -3 -78 -3 -78 -327 -239 -328 -238 0 -190 c0
-180 1 -189 19 -189 16 0 22 11 31 58 16 76 42 125 101 187 46 49 518 399 535
397 4 -1 15 -25 24 -54 26 -83 58 -137 111 -189 64 -62 135 -89 234 -89 110 0
169 25 243 105 109 116 122 187 122 661 0 327 0 334 -20 334 -17 0 -20 -7 -20
-52 0 -59 -24 -108 -62 -130 -18 -10 -143 -13 -608 -13 -548 0 -587 1 -612 18
-35 24 -58 75 -58 131 0 39 -3 46 -20 46 -20 0 -20 -7 -20 -300z m1329 -150
c38 -176 -12 -312 -137 -377 -57 -29 -73 -33 -145 -33 -93 0 -140 17 -201 70
-75 66 -116 178 -116 318 l0 72 294 0 294 0 11 -50z"/>
<path d="M20365 31969 c-136 -12 -315 -38 -334 -49 -9 -5 -32 -25 -51 -45
l-35 -37 38 6 c269 48 560 71 799 62 l176 -6 7 31 c4 17 4 33 1 37 -11 10
-491 11 -601 1z"/>
<path d="M16508 31682 c-16 -9 -28 -19 -28 -22 0 -3 30 -18 68 -34 37 -16 122
-57 190 -92 96 -49 120 -58 110 -41 -8 12 -25 40 -38 61 -20 33 -41 47 -136
93 -62 29 -118 53 -126 53 -7 0 -25 -8 -40 -18z"/>
<path d="M19150 31650 c-188 -84 -202 -93 -237 -152 -18 -30 -33 -57 -33 -62
0 -4 15 1 33 12 43 28 300 154 359 178 27 10 48 21 48 24 0 3 -15 15 -33 26
l-33 21 -104 -47z"/>
<path d="M3020 31375 c0 -238 1 -245 20 -245 17 0 20 7 20 53 0 58 24 107 62
129 18 10 120 13 473 13 400 0 457 -2 514 -18 161 -44 258 -184 268 -388 11
-209 -73 -333 -256 -376 -67 -16 -128 -18 -521 -18 -407 0 -448 2 -477 18 -43
23 -63 64 -63 127 0 43 -3 50 -20 50 -20 0 -20 -7 -20 -300 0 -293 0 -300 20
-300 17 0 20 7 20 50 0 66 22 107 68 128 32 14 101 17 502 23 503 6 520 8 616
63 106 62 181 169 209 301 19 90 19 270 0 360 -38 179 -151 303 -321 351 -50
15 -128 18 -514 23 -412 5 -458 8 -488 24 -46 25 -72 72 -72 130 0 40 -3 47
-20 47 -19 0 -20 -7 -20 -245z"/>
<path d="M14905 31461 l-80 -6 -3 -38 -3 -39 43 8 c66 11 499 8 623 -5 583
-61 1130 -247 1595 -542 41 -26 76 -46 78 -44 2 2 -3 25 -12 52 -15 44 -22 52
-99 98 -227 137 -562 285 -827 364 -418 126 -897 181 -1315 152z"/>
<path d="M20435 31450 c-603 -35 -1178 -213 -1705 -525 -115 -69 -124 -78
-135 -137 l-7 -38 138 86 c500 308 1033 483 1623 535 76 6 236 10 377 7 l244
-4 0 32 c0 30 -3 33 -37 38 -74 10 -360 14 -498 6z"/>
<path d="M14863 30933 c-54 -4 -58 -9 -47 -48 5 -20 13 -20 317 -20 318 0 420
-7 652 -46 451 -75 904 -243 1293 -477 74 -44 131 -74 128 -66 -3 9 -6 30 -6
47 0 30 -7 36 -82 82 -137 83 -394 208 -558 273 -305 120 -581 190 -935 239
-107 14 -644 26 -762 16z"/>
<path d="M20370 30924 c-565 -52 -988 -167 -1444 -395 -219 -109 -365 -199
-372 -229 -3 -14 -12 -40 -20 -59 l-15 -34 28 19 c430 285 884 470 1388 568
232 45 407 60 695 60 146 0 281 -3 301 -7 35 -7 37 -6 43 25 3 17 2 36 -3 41
-9 9 -518 18 -601 11z"/>
<path d="M31700 30445 c-121 -34 -198 -112 -320 -324 -41 -69 -94 -162 -119
-205 -93 -160 -180 -224 -289 -213 -161 17 -249 192 -196 392 40 156 140 249
312 290 57 14 72 21 72 36 0 18 -12 19 -240 19 -227 0 -240 -1 -240 -19 0 -12
11 -21 32 -27 55 -16 56 -43 13 -185 -81 -262 -52 -454 90 -588 120 -113 269
-139 412 -72 106 51 158 117 336 436 120 216 191 292 281 302 60 7 108 -11
159 -61 81 -78 97 -196 46 -331 -16 -44 -39 -76 -83 -121 -66 -65 -128 -96
-238 -117 -46 -8 -58 -14 -58 -29 0 -17 15 -18 245 -18 234 0 245 1 245 19 0
12 -11 23 -30 29 -55 20 -58 49 -15 159 34 87 39 111 43 205 5 120 -9 179 -60
260 -86 137 -249 204 -398 163z"/>
<path d="M14970 30413 c-30 -1 -79 -5 -107 -9 -53 -5 -53 -6 -53 -41 l0 -35
103 9 c143 11 479 8 622 -6 734 -72 1401 -334 1981 -777 l82 -62 21 29 22 30
-23 19 c-50 42 -273 199 -375 263 -136 85 -420 230 -580 296 -526 216 -1122
316 -1693 284z"/>
<path d="M20375 30400 c-699 -43 -1357 -264 -1939 -652 -121 -81 -270 -191
-280 -207 -3 -5 3 -20 15 -34 l20 -26 112 83 c473 352 993 585 1552 695 298
59 378 66 768 66 l357 0 0 31 0 31 -77 6 c-153 12 -390 15 -528 7z"/>
<path d="M18330 30084 c0 -14 3 -14 15 -4 8 7 15 14 15 16 0 2 -7 4 -15 4 -8
0 -15 -7 -15 -16z"/>
<path d="M3527 30000 c-131 -33 -221 -84 -312 -175 -168 -168 -195 -284 -195
-862 0 -366 0 -373 20 -373 17 0 20 7 20 53 0 58 24 107 62 129 18 10 143 13
608 13 548 0 587 -1 612 -18 35 -24 58 -75 58 -131 0 -39 3 -46 20 -46 20 0
20 7 20 358 0 197 -5 396 -11 442 -13 105 -59 245 -105 321 -75 125 -208 226
-359 276 -112 36 -322 42 -438 13z m381 -236 c214 -43 385 -198 437 -395 18
-65 19 -215 4 -310 l-12 -69 -606 2 -606 3 -12 65 c-66 355 107 632 442 705
84 19 260 18 353 -1z"/>
<path d="M14883 29880 c-40 -3 -75 -9 -78 -12 -3 -2 -2 -19 1 -37 l7 -31 66 7
c131 16 636 8 786 -11 459 -58 845 -171 1240 -360 207 -99 446 -242 616 -367
37 -27 70 -49 75 -49 15 1 47 52 37 59 -5 3 -54 38 -109 78 -314 226 -757 444
-1139 561 -257 79 -557 137 -830 162 -120 11 -556 11 -672 0z"/>
<path d="M20300 29874 c-512 -38 -1062 -189 -1510 -414 -188 -94 -445 -252
-583 -357 l-57 -44 20 -29 21 -29 67 48 c565 409 1196 656 1882 735 198 23
479 30 669 17 90 -6 165 -10 166 -9 2 2 6 17 9 34 7 30 6 32 -31 38 -47 7
-577 15 -653 10z"/>
<path d="M15035 29365 c-11 -2 -69 -7 -128 -10 l-108 -7 3 -36 c2 -21 8 -36
14 -35 6 1 105 7 221 14 851 48 1708 -188 2436 -673 65 -43 121 -78 125 -78 4
0 15 13 25 29 l17 29 -140 91 c-556 363 -1156 581 -1805 656 -127 14 -612 29
-660 20z"/>
<path d="M20297 29349 c-712 -42 -1418 -281 -2022 -682 -66 -43 -122 -81 -124
-83 -2 -1 6 -16 18 -32 l21 -29 127 84 c545 361 1127 573 1793 655 115 14 672
18 803 6 l77 -8 0 35 c0 43 4 42 -215 55 -188 11 -288 11 -478 -1z"/>
<path d="M30710 29040 c0 -293 0 -300 20 -300 17 0 20 7 20 43 0 24 10 62 23
87 36 73 21 71 666 68 445 -2 571 -6 589 -16 38 -22 62 -71 62 -129 0 -46 3
-53 20 -53 20 0 20 7 20 300 0 293 0 300 -20 300 -17 0 -20 -7 -20 -46 0 -56
-24 -110 -59 -132 -23 -15 -79 -17 -606 -17 -528 0 -583 2 -611 17 -39 22 -64
73 -64 132 0 39 -3 46 -20 46 -20 0 -20 -7 -20 -300z"/>
<path d="M15075 28840 c-77 -4 -173 -10 -214 -15 l-73 -7 6 -31 c3 -17 8 -32
10 -35 2 -2 75 2 161 9 214 16 622 7 820 -20 633 -85 1213 -296 1723 -627 45
-30 86 -54 90 -54 4 0 15 13 25 29 l17 30 -132 82 c-521 325 -1125 539 -1731
614 -113 14 -479 37 -537 33 -14 -1 -88 -4 -165 -8z"/>
<path d="M20230 28824 c-19 -2 -87 -9 -150 -15 -538 -50 -1143 -244 -1634
-523 -96 -55 -279 -167 -295 -182 -2 -1 6 -16 18 -33 l22 -30 97 63 c678 444
1518 677 2342 652 124 -4 254 -11 290 -15 36 -4 66 -7 66 -7 1 1 4 17 8 37 l6
37 -62 6 c-75 7 -658 16 -708 10z"/>
<path d="M31800 28590 c0 -16 7 -20 33 -20 40 0 125 -39 154 -71 44 -48 53
-89 53 -239 l0 -141 -597 3 c-541 3 -601 5 -629 20 -39 22 -64 73 -64 132 0
39 -3 46 -20 46 -20 0 -20 -7 -20 -300 0 -293 0 -300 20 -300 17 0 20 7 20 45
0 59 21 109 56 132 26 17 67 18 631 21 l603 3 0 -133 c0 -153 -9 -195 -52
-244 -37 -42 -71 -60 -138 -75 -40 -9 -50 -15 -50 -31 0 -20 4 -21 83 -15 45
4 119 7 165 7 l82 0 0 584 0 583 -82 6 c-46 4 -120 7 -165 7 -76 0 -83 -2 -83
-20z"/>
<path d="M3020 28275 c0 -238 1 -245 20 -245 17 0 20 7 20 53 0 58 24 107 62
129 18 10 120 13 473 13 400 0 457 -2 514 -18 161 -44 258 -184 268 -388 11
-209 -73 -333 -256 -376 -67 -16 -128 -18 -521 -18 -407 0 -448 2 -477 18 -43
23 -63 64 -63 127 0 43 -3 50 -20 50 -20 0 -20 -7 -20 -300 0 -293 0 -300 20
-300 17 0 20 7 20 50 0 66 22 107 68 128 32 14 101 17 502 23 503 6 520 8 616
63 106 62 181 169 209 301 19 90 19 270 0 360 -38 179 -151 303 -321 351 -50
15 -128 18 -514 23 -412 5 -458 8 -488 24 -46 25 -72 72 -72 130 0 40 -3 47
-20 47 -19 0 -20 -7 -20 -245z"/>
<path d="M14960 28310 c-170 -15 -170 -15 -170 -57 l0 -35 53 6 c880 105 1860
-108 2631 -572 66 -40 122 -72 126 -72 3 0 14 13 23 29 l18 30 -113 67 c-528
315 -1125 516 -1748 590 -159 18 -663 27 -820 14z"/>
<path d="M20190 28299 c-677 -48 -1350 -259 -1927 -605 l-112 -67 15 -28 c8
-16 18 -29 23 -29 5 0 62 32 127 70 782 465 1690 664 2617 574 l67 -7 0 35 c0
36 0 36 -52 42 -210 25 -529 31 -758 15z"/>
<path d="M32090 27323 c0 -39 -52 -125 -97 -160 -21 -17 -188 -128 -372 -248
l-334 -217 -227 4 c-199 3 -229 5 -254 21 -35 23 -56 73 -56 132 0 38 -3 45
-20 45 -20 0 -20 -7 -20 -300 0 -286 1 -300 19 -300 15 0 19 10 24 59 6 66 28
107 66 124 16 6 121 12 261 14 l235 4 320 -206 c176 -113 339 -225 363 -248
48 -47 92 -127 92 -169 0 -21 5 -28 20 -28 19 0 20 7 20 245 0 238 -1 245 -20
245 -16 0 -20 -7 -20 -31 0 -58 -47 -109 -101 -109 -37 0 -87 28 -334 186
l-247 157 114 74 c393 256 429 277 476 277 37 1 48 -4 65 -26 11 -15 22 -48
25 -77 4 -41 8 -51 23 -51 18 0 19 14 19 305 0 298 0 305 -20 305 -15 0 -20
-7 -20 -27z"/>
<path d="M3333 26910 c-58 -12 -118 -45 -170 -93 -53 -49 -88 -106 -116 -190
-19 -57 -21 -90 -25 -424 -4 -362 -3 -363 17 -363 19 0 21 6 21 53 0 58 24
107 62 129 30 17 1126 25 1187 8 55 -15 84 -57 89 -132 4 -49 7 -58 23 -58 18
0 19 13 19 300 0 293 0 300 -20 300 -17 0 -20 -7 -20 -46 0 -60 -25 -111 -64
-132 -26 -14 -70 -17 -295 -20 l-264 -4 7 44 c15 97 19 258 6 320 -26 134
-114 246 -226 287 -63 24 -171 34 -231 21z m236 -260 c60 -26 133 -101 151
-155 13 -39 9 -222 -5 -244 -4 -7 -103 -11 -300 -11 l-293 0 -12 70 c-23 138
23 256 123 314 100 59 235 69 336 26z"/>
<path d="M33965 25594 c-191 -150 -499 -297 -813 -388 -352 -102 -699 -156
-1232 -191 -1252 -82 -1870 -233 -2313 -566 -286 -215 -479 -530 -566 -927
-45 -200 -53 -290 -58 -607 l-4 -310 48 88 c173 317 472 582 845 749 424 189
955 296 1788 358 556 41 669 51 838 76 670 96 1175 292 1459 569 l83 80 0 563
c0 309 -1 562 -2 561 -2 0 -34 -25 -73 -55z"/>
<path d="M1057 25423 c-4 -120 -7 -370 -7 -556 l0 -339 78 -76 c305 -301 873
-511 1617 -597 72 -8 263 -24 425 -35 810 -55 1244 -117 1654 -235 599 -171
1014 -470 1244 -894 l40 -73 7 183 c16 421 -53 811 -196 1118 -101 218 -303
450 -507 584 -439 290 -1043 431 -2172 507 -449 30 -663 54 -925 106 -478 93
-895 259 -1162 460 -47 35 -86 64 -87 64 -2 0 -6 -98 -9 -217z"/>
<path d="M1047 23742 l-5 -477 26 -39 c67 -98 285 -256 492 -355 294 -140 699
-247 1144 -301 161 -19 241 -26 666 -55 976 -68 1595 -207 2039 -459 281 -159
521 -401 670 -676 l40 -74 -5 219 c-8 335 -40 548 -115 778 -176 538 -571 883
-1227 1071 -399 115 -871 181 -1647 231 -486 31 -825 84 -1175 181 -308 86
-631 235 -820 378 -30 23 -60 45 -66 49 -8 4 -13 -126 -17 -471z"/>
<path d="M34027 24213 c-12 -18 -206 -146 -297 -196 -307 -165 -725 -290
-1190 -356 -202 -28 -301 -38 -645 -61 -601 -41 -949 -83 -1291 -156 -917
-195 -1389 -591 -1557 -1309 -47 -199 -59 -306 -63 -570 l-5 -250 38 70 c262
479 703 777 1407 950 378 93 785 146 1446 190 129 9 305 22 390 31 780 75
1387 291 1703 604 l87 87 -1 459 c-1 439 -5 533 -22 507z"/>
<path d="M1040 22497 l0 -445 43 -50 c198 -232 624 -442 1132 -556 275 -61
541 -95 995 -126 1124 -77 1726 -204 2188 -464 299 -168 546 -416 681 -683 17
-35 34 -63 38 -63 10 0 -6 345 -23 470 -58 448 -205 782 -454 1030 -127 127
-252 214 -445 310 -434 215 -979 321 -2010 390 -364 24 -536 42 -764 81 -570
96 -1049 283 -1348 525 l-33 27 0 -446z"/>
<path d="M33958 22870 c-290 -217 -758 -391 -1289 -479 -242 -40 -391 -56
-759 -81 -168 -11 -397 -29 -510 -40 -1011 -98 -1586 -294 -1953 -667 -190
-192 -315 -425 -392 -727 -48 -190 -66 -335 -72 -561 l-4 -200 44 77 c89 152
153 235 287 369 161 161 291 253 510 357 463 223 1061 339 2065 402 899 56
1482 206 1903 490 101 69 206 161 244 216 l27 39 -7 435 -7 435 -87 -65z"/>
<path d="M17822 22501 c-23 -27 -130 -142 -238 -257 -447 -473 -608 -672 -709
-874 -56 -112 -83 -191 -101 -292 l-15 -90 24 -27 c13 -14 66 -82 117 -151 51
-69 96 -129 100 -133 4 -5 40 37 80 92 153 217 320 510 415 731 114 264 230
495 269 533 41 41 100 61 151 51 49 -9 116 -54 147 -100 15 -21 196 -311 403
-644 206 -333 379 -605 383 -605 7 0 76 74 208 225 51 57 52 61 58 137 9 103
-5 168 -60 283 -145 302 -413 600 -873 968 -174 140 -265 202 -295 202 -15 0
-37 -17 -64 -49z"/>
<path d="M20850 21930 c-126 -48 -441 -203 -600 -295 -238 -137 -467 -298
-690 -484 -133 -110 -446 -421 -537 -532 l-62 -77 94 -151 c52 -84 124 -202
161 -264 37 -62 68 -113 70 -115 1 -2 64 61 140 139 226 230 444 392 714 528
238 121 443 190 685 231 l130 23 1 296 c0 248 4 323 23 462 27 199 26 273 -4
276 -11 2 -67 -15 -125 -37z"/>
<path d="M17813 21702 c-45 -92 -109 -230 -142 -308 -69 -157 -225 -441 -335
-609 -40 -60 -138 -200 -217 -310 -247 -341 -345 -497 -482 -770 -192 -386
-310 -741 -362 -1088 -103 -704 68 -1405 454 -1861 l51 -60 187 3 c127 2 276
-5 458 -19 249 -21 314 -22 832 -17 516 5 563 7 588 23 50 33 196 207 284 340
213 320 362 721 438 1179 25 155 26 541 0 670 -63 320 -207 632 -546 1183
-118 192 -1102 1774 -1116 1794 -10 15 -23 -6 -92 -150z"/>
<path d="M15052 21843 c-13 -2 -27 -14 -31 -26 -5 -12 -11 -166 -15 -342 -3
-176 -9 -356 -12 -400 l-7 -80 89 -12 c484 -67 890 -356 1328 -948 49 -66 92
-124 97 -129 4 -5 20 16 35 45 46 93 173 299 255 416 44 62 79 118 79 125 0
19 -165 246 -282 388 -142 172 -472 502 -588 588 -252 187 -510 313 -725 355
-93 18 -190 27 -223 20z"/>
<path d="M34015 21706 c-160 -133 -429 -271 -715 -368 -380 -128 -772 -194
-1375 -233 -1224 -79 -1844 -227 -2295 -548 -109 -78 -248 -218 -329 -332
-205 -290 -321 -716 -321 -1179 l0 -158 36 27 c284 217 653 383 1087 490 325
80 554 112 1037 145 1212 84 1806 221 2254 520 458 307 677 802 664 1502 l-3
167 -40 -33z"/>
<path d="M1034 21693 c-10 -54 4 -401 20 -518 70 -483 254 -818 581 -1060 452
-334 1084 -485 2390 -570 272 -18 490 -43 692 -80 527 -97 996 -281 1311 -514
45 -34 85 -61 89 -61 10 0 -6 347 -23 482 -81 662 -376 1095 -924 1357 -424
202 -1014 313 -2005 376 -461 29 -758 71 -1082 150 -392 97 -723 240 -950 411
-47 35 -86 64 -88 64 -2 0 -7 -17 -11 -37z"/>
<path d="M14765 20779 c-49 -4 -198 -15 -330 -23 -132 -9 -307 -23 -390 -32
-82 -8 -197 -19 -255 -25 -121 -12 -209 -31 -245 -55 -14 -9 -25 -18 -25 -21
0 -21 50 -84 153 -192 136 -142 212 -244 326 -436 259 -434 457 -910 580
-1393 32 -122 62 -211 123 -350 205 -477 367 -723 670 -1017 151 -147 311
-277 466 -379 l94 -61 306 -81 c169 -45 310 -80 314 -77 4 2 -19 39 -51 81
-310 407 -477 982 -458 1577 13 386 96 759 259 1165 28 69 61 146 74 172 13
26 24 52 24 57 0 14 -217 307 -319 431 -321 390 -678 620 -1030 660 -96 11
-153 11 -286 -1z"/>
<path d="M21105 20739 c-322 -23 -555 -85 -840 -224 -210 -102 -390 -224 -583
-394 -83 -75 -251 -254 -272 -291 -5 -10 13 -53 57 -135 261 -480 356 -856
324 -1287 -44 -615 -277 -1247 -614 -1663 l-65 -80 59 -8 c51 -8 76 -4 196 27
76 19 235 55 353 81 387 83 514 117 567 156 154 110 439 388 579 564 151 191
300 428 391 622 35 77 61 165 143 498 54 222 125 482 156 577 184 563 441
1050 812 1536 l24 32 -588 -1 c-324 -1 -638 -5 -699 -10z"/>
<path d="M33500 19878 c-109 -72 -319 -180 -426 -218 l-61 -22 -38 -186 c-178
-885 -499 -1807 -915 -2627 -238 -470 -446 -815 -913 -1515 -1054 -1579 -2373
-3262 -3785 -4827 -640 -709 -1454 -1515 -2252 -2229 -2123 -1898 -4897 -3826
-7424 -5159 l-130 -68 -120 63 c-429 225 -1032 564 -1511 850 -3254 1943
-6151 4273 -8286 6665 -1197 1341 -2277 2695 -3214 4030 -316 450 -732 1077
-947 1426 -636 1033 -1081 2151 -1334 3349 -25 118 -48 218 -52 221 -4 3 -41
18 -82 34 -111 41 -300 138 -404 205 -65 42 -92 55 -94 45 -9 -41 103 -622
183 -953 237 -973 592 -1883 1078 -2762 433 -784 1460 -2273 2392 -3470 832
-1068 1806 -2213 2599 -3055 230 -243 914 -927 1161 -1161 1704 -1606 3611
-3078 5743 -4432 930 -591 2068 -1247 2762 -1592 l126 -63 209 106 c649 328
1546 841 2391 1367 2946 1838 5564 3976 7571 6186 1373 1512 2731 3236 3798
4824 530 788 752 1154 1015 1675 441 872 757 1778 960 2750 31 151 112 607
107 611 -1 1 -49 -29 -107 -68z"/>
<path d="M6328 18729 l-3 -234 93 -179 c117 -223 213 -385 410 -691 317 -492
726 -1078 1097 -1572 l92 -122 51 110 51 110 -142 192 c-193 260 -224 305
-202 286 11 -8 43 -34 72 -57 l51 -43 89 89 c52 53 116 106 158 130 196 115
445 140 650 65 79 -28 71 -28 255 -18 88 5 176 4 253 -4 65 -7 121 -11 123 -8
9 9 -150 138 -230 188 -281 173 -646 217 -959 114 -174 -56 -355 -170 -474
-298 l-62 -67 -31 45 -31 45 58 61 c117 123 305 244 471 303 253 90 561 94
817 11 181 -59 353 -165 489 -301 l86 -86 92 45 c51 25 110 53 131 61 l39 16
-64 76 c-163 199 -422 372 -682 458 -273 90 -597 99 -882 25 -240 -62 -486
-200 -660 -371 l-61 -60 -32 43 -31 43 47 49 c133 136 413 305 614 371 410
133 864 102 1244 -83 232 -114 411 -261 592 -489 l18 -24 100 26 c55 13 126
30 158 36 31 6 57 13 57 16 0 2 -23 41 -51 86 -121 195 -294 383 -484 526
l-110 82 -1001 0 -1001 0 -59 -42 c-85 -60 -159 -122 -241 -202 -80 -77 -74
-77 -117 -5 -15 25 -14 27 14 54 33 32 31 42 -26 137 l-35 58 -59 0 -58 0
-105 168 c-197 313 -340 573 -487 884 -45 95 -84 175 -86 177 -2 2 -5 -102 -6
-230z"/>
<path d="M28690 18776 c-124 -267 -316 -612 -507 -913 l-85 -133 -211 0 -212
0 -94 -68 c-189 -134 -376 -336 -505 -541 l-65 -104 112 -28 c62 -16 131 -36
155 -45 24 -9 44 -15 46 -13 134 193 342 385 531 490 l60 34 -19 -30 c-75
-117 -133 -195 -157 -209 -68 -40 -309 -294 -309 -325 0 -4 16 -15 35 -24 l35
-17 -26 -40 c-15 -22 -31 -40 -35 -40 -5 0 -46 15 -91 34 -426 176 -949 187
-1370 28 l-73 -27 65 -2 c194 -7 351 -39 510 -103 89 -36 104 -38 230 -44 180
-8 375 -49 525 -111 l36 -16 -31 -43 -30 -44 -98 33 c-99 34 -288 75 -343 75
l-31 0 52 -57 c32 -36 69 -95 97 -155 l46 -97 49 -11 c26 -7 48 -16 48 -22 0
-5 -11 -24 -25 -42 l-24 -32 52 -109 53 -109 180 245 c524 709 1046 1480 1299
1919 80 139 225 412 225 423 0 4 -7 7 -15 7 -12 0 -15 32 -17 203 l-3 203 -65
-140z"/>
<path d="M12986 18851 l-40 -6 56 -37 c226 -150 493 -434 878 -938 406 -531
613 -748 882 -928 l68 -45 92 14 c56 8 171 14 289 14 l197 0 -47 39 c-159 137
-331 325 -465 505 -144 195 -248 388 -407 760 -45 107 -96 212 -113 235 -114
148 -565 334 -924 380 -122 16 -385 20 -466 7z"/>
<path d="M22755 18844 c-199 -12 -426 -55 -610 -115 -140 -47 -383 -163 -439
-210 -57 -48 -107 -132 -176 -297 -194 -461 -415 -794 -755 -1139 l-150 -153
74 0 c89 0 252 -23 346 -49 l69 -20 96 67 c239 167 518 417 703 632 50 58 161
193 246 300 272 344 338 424 449 546 107 116 273 272 399 372 l63 50 -33 5
c-48 9 -214 15 -282 11z"/>
<path d="M11600 17786 l0 -53 -57 -38 c-148 -98 -317 -257 -434 -408 -65 -84
-184 -266 -177 -271 2 -1 39 -10 83 -21 44 -10 111 -28 149 -41 38 -13 70 -24
71 -24 1 0 29 35 62 78 106 137 323 337 342 316 4 -5 13 -29 20 -53 12 -40 11
-44 -8 -58 -77 -53 -188 -165 -279 -280 l-32 -41 126 -66 126 -66 95 100 c52
55 98 100 102 100 3 -1 19 -19 34 -41 l28 -41 -86 -89 -86 -90 58 -43 c32 -23
82 -63 110 -88 l53 -45 91 90 c89 88 91 89 127 81 20 -4 57 -10 82 -13 l45 -6
-67 -43 c-36 -23 -96 -74 -132 -113 l-66 -70 79 -94 c44 -51 87 -105 97 -120
l17 -26 27 48 c56 98 164 172 289 199 113 24 119 22 217 -57 49 -39 153 -113
232 -166 136 -92 142 -97 129 -117 -65 -99 -152 -255 -145 -260 2 -1 45 -10
97 -20 l95 -19 49 56 c56 64 369 357 467 436 77 62 369 249 500 320 115 63
250 126 358 166 l82 31 -70 56 -70 55 -87 -14 c-459 -73 -886 -318 -1174 -672
l-36 -44 -42 23 c-22 13 -41 29 -41 34 0 6 34 51 76 99 l76 88 -85 84 c-72 71
-101 91 -188 134 -129 62 -231 84 -364 79 -52 -1 -94 -1 -92 2 1 3 15 29 30
59 l29 54 99 -7 c237 -16 439 -109 586 -270 l59 -65 56 48 c30 26 78 64 107
85 28 21 51 42 51 47 0 5 -37 48 -82 95 -191 199 -461 324 -735 341 l-103 6
-11 39 c-5 22 -13 46 -16 55 -6 14 4 15 93 9 206 -14 342 -49 509 -130 138
-68 249 -150 358 -266 l85 -90 121 62 c66 35 121 67 121 71 0 19 -93 128 -187
218 -209 200 -474 337 -763 394 -103 20 -370 31 -462 18 l-67 -9 -50 39 c-28
22 -49 43 -46 47 9 15 205 35 345 34 264 -1 485 -52 720 -167 199 -97 416
-274 557 -454 36 -46 66 -83 68 -83 1 0 22 7 46 16 24 9 92 28 151 43 l108 28
-50 83 c-28 46 -75 117 -106 159 -80 107 -312 335 -418 409 l-89 62 -792 0
-793 0 -68 26 c-61 23 -216 63 -301 78 l-33 6 0 -54z"/>
<path d="M24310 17819 c-52 -11 -141 -36 -198 -55 -102 -33 -107 -34 -270 -34
l-167 0 -109 -81 c-128 -95 -288 -251 -376 -368 -64 -85 -170 -248 -170 -261
0 -4 27 -13 59 -19 32 -6 101 -25 152 -41 52 -16 96 -26 100 -22 3 4 27 35 53
70 27 35 50 62 51 60 2 -2 9 -32 14 -68 9 -53 8 -68 -4 -87 -19 -29 -19 -30 9
-37 29 -7 104 -132 89 -147 -6 -6 -46 8 -104 35 -433 206 -929 237 -1394 90
-140 -45 -442 -192 -424 -207 2 -2 54 -33 114 -70 61 -36 119 -72 129 -80 17
-13 27 -11 92 19 101 46 236 90 357 116 88 19 132 22 317 22 185 0 229 -3 317
-22 113 -25 267 -73 326 -104 l38 -19 -42 -34 c-22 -19 -44 -35 -49 -35 -4 0
-38 12 -76 26 -106 40 -255 72 -390 85 -216 20 -452 -14 -669 -97 -53 -20 -92
-40 -88 -44 4 -4 64 -50 133 -101 l125 -94 90 24 c81 22 109 25 285 24 133 0
212 -5 250 -14 l55 -15 -60 -34 -60 -35 -150 0 c-132 -1 -305 -19 -305 -33 0
-2 21 -23 48 -46 26 -22 86 -77 133 -122 l86 -81 79 -6 c194 -16 358 -92 510
-239 l71 -68 57 25 c32 14 92 35 134 46 43 12 79 23 81 25 8 7 -92 124 -165
194 -119 113 -267 204 -404 246 -33 11 -60 21 -60 24 0 3 24 21 54 39 40 24
61 31 78 26 54 -17 226 -112 297 -165 91 -68 221 -202 276 -285 l40 -60 90 11
c82 11 166 35 189 55 4 4 -8 35 -29 69 -133 219 -311 395 -533 529 l-82 49 42
35 c41 34 43 35 73 20 194 -100 463 -363 589 -577 20 -33 40 -67 44 -73 6 -10
35 -6 126 17 65 17 127 30 137 30 25 0 24 11 -7 73 -80 156 -209 332 -344 467
-88 88 -241 212 -317 257 -25 14 -41 29 -36 33 4 4 47 5 94 1 95 -7 117 -17
219 -110 l54 -48 44 54 c159 195 446 309 693 274 164 -23 308 -87 416 -185
l54 -49 77 36 c42 20 115 48 162 62 47 15 91 29 99 31 20 6 -61 89 -163 165
-144 110 -322 185 -506 215 -137 23 -333 14 -465 -20 -55 -14 -101 -26 -102
-26 -4 0 40 105 49 117 18 23 188 46 338 46 159 0 287 -21 422 -69 170 -61
358 -183 477 -310 l63 -66 117 56 c65 31 123 56 129 56 19 0 15 10 -29 67
-110 141 -333 317 -515 404 -111 53 -264 102 -389 125 -106 20 -375 26 -487
11 l-58 -7 0 42 c0 24 4 49 8 55 5 8 56 17 135 24 295 26 608 -38 887 -182
188 -97 383 -256 503 -409 28 -36 54 -69 58 -73 3 -5 62 5 130 22 68 16 141
32 161 36 l37 6 -52 85 c-120 197 -320 412 -508 546 l-94 68 -627 0 -628 0 0
55 c0 30 -3 55 -7 54 -5 0 -51 -9 -103 -20z"/>
<path d="M7260 17723 c0 -5 11 -24 23 -44 l22 -37 50 44 50 44 -72 0 c-40 0
-73 -3 -73 -7z"/>
<path d="M9780 17727 c0 -6 101 -80 103 -76 2 2 9 18 17 34 8 17 16 33 18 38
2 4 -28 7 -67 7 -39 0 -71 -1 -71 -3z"/>
<path d="M10032 17703 c-25 -37 -62 -109 -62 -124 0 -6 33 -48 73 -93 41 -44
92 -105 115 -134 l41 -53 11 43 c30 113 132 228 237 269 73 28 205 30 273 5
115 -42 205 -135 244 -252 l22 -65 31 43 c17 24 69 86 116 138 l85 95 -40 78
-40 77 -543 0 -544 0 -19 -27z"/>
<path d="M11280 17690 c23 -45 27 -45 90 9 l35 30 -73 1 -72 0 20 -40z"/>
<path d="M22218 17607 l-97 -121 53 -61 c29 -33 65 -77 81 -98 l29 -39 17 62
c52 190 252 316 445 281 149 -28 274 -143 313 -289 l12 -42 58 72 c31 40 83
101 114 134 65 71 65 71 2 169 l-35 55 -447 -1 -448 0 -97 -122z"/>
<path d="M23362 17685 l22 -44 45 36 c25 20 50 40 56 45 5 4 -26 8 -68 8 l-77
0 22 -45z"/>
<path d="M25910 17689 c28 -22 53 -39 54 -37 1 1 12 20 24 41 l21 37 -75 0
-76 0 52 -41z"/>
<path d="M26106 17688 c-13 -24 -32 -60 -42 -80 l-17 -37 69 -73 c38 -40 91
-102 119 -137 l50 -63 7 36 c30 143 161 266 317 297 194 38 409 -104 449 -297
l7 -36 50 63 c28 35 81 97 120 138 l70 73 -41 77 -40 76 -546 3 -547 2 -25
-42z"/>
<path d="M27362 17693 c12 -21 23 -40 24 -41 1 -2 26 15 54 37 l52 41 -76 0
-75 0 21 -37z"/>
<path d="M10486 17510 c-61 -24 -128 -88 -158 -149 -34 -72 -31 -171 8 -247
l30 -59 214 -6 c118 -4 220 -3 226 2 6 5 24 32 40 61 25 46 29 64 29 128 -1
119 -55 209 -158 262 -60 31 -166 35 -231 8z"/>
<path d="M22589 17516 c-172 -61 -247 -250 -163 -408 l29 -53 215 -6 c211 -7
215 -6 233 15 94 110 79 289 -34 390 -78 70 -189 95 -280 62z"/>
<path d="M26554 17502 c-104 -50 -164 -144 -164 -256 0 -64 14 -114 43 -157
l23 -34 209 -6 c239 -7 231 -9 271 76 46 96 26 225 -45 307 -54 61 -120 92
-206 96 -61 3 -78 -1 -131 -26z"/>
<path d="M21916 17264 l-128 -134 54 -68 c30 -37 64 -81 76 -98 l22 -32 92 29
c51 16 135 38 187 49 51 10 96 21 98 24 15 15 -243 368 -266 365 -3 0 -64 -61
-135 -135z"/>
<path d="M21598 16968 l-108 -90 33 -40 c17 -22 39 -49 48 -60 15 -20 16 -20
65 10 27 17 84 47 126 67 l78 37 -62 79 c-33 44 -64 81 -67 83 -3 2 -54 -37
-113 -86z"/>
<path d="M10370 16940 c-208 -20 -441 -84 -634 -174 l-90 -42 79 -28 c88 -31
171 -72 225 -109 l35 -24 67 23 c187 63 476 91 684 64 500 -62 945 -354 1196
-784 23 -39 43 -72 43 -74 1 -1 55 11 119 28 65 16 128 30 142 30 13 0 24 3
24 6 0 14 -86 163 -142 246 -298 446 -766 744 -1294 823 -129 19 -335 26 -454
15z"/>
<path d="M21376 16795 c-24 -18 -25 -17 48 -49 l59 -26 -35 42 c-41 49 -47 52
-72 33z"/>
<path d="M8380 16730 c-144 -38 -279 -125 -371 -241 l-32 -40 40 -42 c22 -23
63 -70 91 -105 l51 -62 56 110 c75 146 163 231 322 312 59 30 119 58 133 62
l25 8 -30 8 c-58 15 -207 10 -285 -10z"/>
<path d="M24462 16730 c-118 -31 -225 -93 -314 -182 -43 -43 -78 -84 -78 -92
0 -8 22 -38 48 -68 27 -29 68 -78 91 -108 24 -30 46 -54 48 -53 2 1 22 29 43
61 106 164 323 225 499 140 60 -29 137 -101 171 -161 23 -40 29 -45 39 -33 10
12 10 23 1 52 -23 70 3 169 65 242 l25 30 -47 42 c-61 53 -191 116 -279 135
-95 20 -223 18 -312 -5z"/>
<path d="M15030 16719 c-520 -55 -1116 -386 -1640 -909 -123 -122 -279 -296
-303 -336 -4 -6 21 -5 71 4 100 18 294 10 422 -18 52 -11 235 -67 405 -124
441 -148 649 -200 1005 -248 225 -30 740 -33 950 -5 132 18 338 55 351 63 3 2
-13 41 -36 86 -102 196 -140 357 -140 588 0 256 52 439 170 599 l44 60 -37 10
c-372 100 -707 186 -783 201 -182 37 -323 46 -479 29z"/>
<path d="M20525 16723 c-91 -8 -243 -37 -455 -87 -124 -30 -304 -71 -400 -91
-96 -20 -180 -40 -186 -43 -9 -5 2 -26 32 -66 61 -80 110 -186 141 -303 21
-81 26 -128 30 -270 8 -256 -28 -437 -127 -633 -23 -45 -40 -83 -38 -85 2 -1
53 -12 113 -23 456 -87 921 -89 1385 -6 166 30 369 86 645 179 323 108 384
127 520 156 117 25 398 37 485 21 30 -6 57 -8 59 -6 14 14 -289 324 -469 478
-234 201 -526 405 -764 535 -351 191 -666 270 -971 244z"/>
<path d="M8975 16649 c-290 -39 -546 -179 -618 -338 -31 -68 -30 -170 3 -235
29 -58 115 -140 201 -192 78 -47 212 -106 220 -96 3 4 19 43 35 87 36 102 234
501 268 542 14 17 49 41 78 53 47 20 64 22 148 17 96 -6 201 -30 297 -68 l52
-21 -41 -61 c-41 -60 -97 -179 -98 -205 0 -29 255 21 327 64 84 49 123 148 84
211 -53 85 -288 185 -531 227 -112 19 -337 27 -425 15z"/>
<path d="M25833 16650 c-314 -26 -631 -150 -679 -266 -23 -56 12 -132 87 -184
32 -24 183 -64 277 -75 l63 -7 -26 67 c-14 37 -45 100 -70 139 l-44 71 34 18
c60 30 216 68 310 74 79 5 96 3 143 -17 29 -12 66 -38 83 -57 37 -43 223 -416
270 -542 39 -105 26 -103 164 -34 161 81 266 174 305 271 18 47 9 167 -18 217
-44 83 -125 153 -247 213 -196 97 -403 132 -652 112z"/>
<path d="M10395 16550 c-123 -13 -335 -61 -335 -76 0 -3 7 -19 16 -36 26 -51
16 -158 -24 -242 -17 -37 -32 -70 -32 -71 0 -2 42 16 93 40 50 24 137 56 192
71 92 26 114 28 285 28 169 0 193 -3 285 -27 126 -34 299 -118 403 -197 102
-77 207 -189 279 -299 31 -47 59 -89 63 -94 3 -4 54 15 113 43 58 27 110 50
116 50 23 0 20 24 -9 75 -211 368 -613 646 -1042 720 -112 19 -301 26 -403 15z"/>
<path d="M16812 16490 c-103 -13 -175 -34 -229 -66 -99 -58 -181 -171 -231
-322 -24 -71 -26 -91 -26 -242 0 -150 3 -173 26 -251 92 -296 255 -514 663
-888 524 -481 877 -792 894 -789 24 4 1053 951 1196 1100 235 245 343 450 375
713 36 294 -77 593 -258 682 l-57 28 -775 2 c-625 1 -811 4 -960 17 -229 21
-521 28 -618 16z"/>
<path d="M9234 16349 c-38 -11 -49 -23 -62 -71 -9 -32 -7 -41 9 -62 23 -30
115 -75 159 -78 31 -3 33 -1 54 62 12 36 28 75 34 87 19 34 15 39 -40 51 -89
18 -122 21 -154 11z"/>
<path d="M12485 16347 c-112 -38 -194 -111 -220 -199 l-14 -48 58 -111 59
-111 221 0 220 0 47 88 c26 49 52 97 59 107 25 36 -19 142 -81 197 -63 55
-138 83 -229 87 -48 2 -96 -2 -120 -10z"/>
<path d="M24544 16349 c-90 -26 -184 -129 -199 -217 -5 -32 2 -51 50 -137 30
-55 55 -106 55 -114 0 -10 9 -12 38 -7 20 3 101 6 180 6 107 0 142 3 142 13 0
6 23 53 51 102 33 57 51 100 50 119 -5 87 -96 199 -188 230 -51 17 -129 20
-179 5z"/>
<path d="M25736 16344 c-44 -8 -82 -16 -84 -18 -2 -2 3 -17 11 -33 9 -16 25
-59 37 -97 22 -67 22 -67 54 -60 55 11 123 45 151 74 27 28 28 32 16 70 -20
69 -66 85 -185 64z"/>
<path d="M10465 16159 c-168 -22 -374 -106 -496 -203 -51 -40 -59 -52 -102
-156 -26 -62 -47 -116 -47 -121 0 -10 129 -11 211 0 43 5 65 15 100 43 61 50
161 102 244 128 108 34 276 39 385 11 93 -23 187 -64 253 -110 39 -27 54 -30
173 -40 71 -6 166 -17 211 -24 l82 -13 -32 45 c-102 145 -310 310 -470 372
-163 63 -359 89 -512 68z"/>
<path d="M25008 16038 c-83 -139 -93 -159 -76 -169 7 -5 23 -9 34 -9 25 0 201
-35 227 -45 12 -5 17 -2 17 10 0 20 -130 305 -139 305 -4 0 -32 -42 -63 -92z"/>
<path d="M9026 15998 c-60 -129 -111 -256 -105 -262 9 -9 210 -46 300 -56 52
-5 171 -10 266 -10 l171 0 18 48 c10 26 42 103 71 171 29 68 52 126 50 128 -2
2 -33 -4 -68 -12 -90 -22 -312 -31 -391 -15 -83 16 -174 53 -221 91 l-38 30
-53 -113z"/>
<path d="M25955 16068 c-100 -65 -175 -83 -350 -83 -110 0 -171 5 -228 18 -43
10 -80 17 -82 15 -2 -1 28 -75 66 -163 38 -88 69 -166 69 -172 0 -10 43 -13
183 -13 199 0 297 9 455 42 104 21 104 21 99 48 -7 31 -92 232 -128 301 l-24
46 -60 -39z"/>
<path d="M8146 15873 c-383 -820 -500 -1114 -612 -1551 -79 -308 -56 -423 120
-597 141 -139 322 -235 641 -341 375 -123 787 -184 1249 -184 l212 0 43 138
c86 276 274 771 439 1152 139 324 304 674 331 704 89 98 270 93 513 -15 276
-122 390 -152 593 -153 127 -1 144 1 182 22 24 12 49 35 58 52 19 37 20 140 1
184 -32 76 -139 151 -288 202 -259 88 -705 111 -1303 67 -359 -27 -752 -36
-992 -23 -351 18 -640 101 -870 248 -81 53 -184 151 -218 210 -11 17 -22 32
-25 32 -3 0 -36 -66 -74 -147z"/>
<path d="M26850 15989 c-18 -41 -122 -147 -195 -196 -217 -146 -516 -238 -855
-264 -206 -15 -695 -5 -1050 23 -859 67 -1397 -17 -1555 -240 -27 -39 -30 -52
-30 -117 0 -86 17 -118 81 -150 33 -17 58 -20 174 -20 192 1 310 29 525 124
218 97 338 127 442 111 115 -19 142 -50 254 -291 257 -553 505 -1174 646
-1616 l48 -153 225 0 c475 0 877 62 1265 193 301 102 501 211 631 343 112 112
167 268 144 407 -29 180 -158 602 -265 867 -109 268 -450 1010 -465 1010 -4 0
-13 -14 -20 -31z"/>
<path d="M10515 15773 c-62 -9 -150 -35 -194 -59 l-46 -24 50 5 c111 11 336
25 425 26 94 1 95 1 60 16 -70 31 -209 48 -295 36z"/>
<path d="M12415 15769 c-180 -17 -391 -70 -562 -142 -40 -16 -73 -33 -73 -36
0 -3 26 -19 58 -36 31 -16 87 -59 123 -95 l66 -65 111 32 c176 51 308 66 507
60 94 -2 177 -7 185 -11 11 -4 23 9 42 43 15 27 56 85 92 129 l65 80 -87 16
c-186 33 -351 41 -527 25z"/>
<path d="M24500 15769 c-52 -5 -135 -18 -185 -28 l-90 -19 100 -1 c55 -1 220
-10 366 -21 146 -10 339 -22 430 -25 156 -5 162 -4 129 11 -40 19 -212 59
-315 74 -107 15 -329 20 -435 9z"/>
<path d="M22805 15698 c111 -120 175 -234 175 -316 0 -14 9 -40 21 -59 l21
-34 29 61 c17 37 51 83 84 115 l54 54 -69 64 c-93 86 -222 152 -354 182 -26 6
-23 0 39 -67z"/>
<path d="M12431 15379 c-92 -10 -178 -28 -286 -60 l-70 -20 0 -102 c-1 -88 -5
-111 -28 -165 -15 -37 -21 -62 -14 -59 243 99 320 118 512 124 168 6 272 -7
416 -53 110 -34 262 -113 358 -184 73 -55 209 -188 244 -239 13 -20 19 -22 31
-12 8 7 65 38 126 70 l111 58 -62 79 c-133 167 -308 310 -497 406 -101 52
-102 52 -150 40 -26 -7 -88 -33 -139 -59 -51 -26 -94 -45 -95 -42 -21 31 -60
130 -65 164 -5 38 -9 44 -35 49 -57 11 -274 15 -357 5z"/>
<path d="M13495 15213 c118 -80 309 -263 380 -362 31 -44 56 -69 65 -67 8 2
72 21 142 42 l127 39 -20 35 c-12 19 -48 72 -82 117 l-62 81 -175 61 c-183 64
-327 104 -420 116 l-55 7 100 -69z"/>
<path d="M22432 15248 c-25 -41 -42 -102 -42 -149 0 -52 27 -134 56 -168 l25
-30 102 5 c56 3 147 1 202 -4 113 -11 121 -8 156 60 39 76 48 215 15 215 -7 0
-53 16 -102 36 -99 40 -232 67 -329 67 -61 0 -64 -1 -83 -32z"/>
<path d="M22245 15254 c-38 -8 -75 -16 -83 -19 -9 -3 9 -31 54 -85 37 -44 68
-80 68 -80 1 0 2 25 4 57 2 31 9 74 17 97 8 22 13 41 12 42 -1 0 -33 -5 -72
-12z"/>
<path d="M21850 15143 c-91 -31 -167 -57 -169 -59 -2 -2 27 -37 66 -77 38 -39
96 -107 128 -150 43 -57 62 -76 74 -71 52 21 128 44 211 63 132 31 123 27 109
53 -35 66 -230 299 -248 297 -3 0 -80 -26 -171 -56z"/>
<path d="M10693 15111 c-29 -13 -44 -70 -32 -117 35 -123 283 -241 824 -388
110 -30 203 -52 207 -48 6 6 138 318 138 326 0 0 -58 0 -130 -2 -209 -5 -382
33 -595 130 -60 28 -141 62 -180 75 -76 26 -197 39 -232 24z"/>
<path d="M24255 15113 c-55 -12 -131 -41 -239 -89 -237 -107 -414 -148 -624
-142 -67 2 -122 -1 -122 -5 0 -5 30 -80 66 -168 50 -119 71 -159 81 -155 8 4
51 15 96 27 376 95 706 214 827 298 68 47 104 108 96 166 -7 56 -34 75 -105
74 -31 -1 -65 -3 -76 -6z"/>
<path d="M21465 15015 c-38 -13 -111 -34 -162 -46 l-91 -22 71 -51 c74 -51
209 -180 265 -251 29 -37 32 -39 54 -26 12 8 69 38 125 68 l103 55 -47 61
c-66 88 -214 237 -232 236 -9 -1 -47 -11 -86 -24z"/>
<path d="M14320 14998 c0 -8 14 -36 31 -62 30 -45 33 -46 68 -39 20 4 114 7
210 7 170 1 173 1 110 14 -69 14 -360 78 -396 88 -16 5 -23 2 -23 -8z"/>
<path d="M12458 14990 c-149 -19 -310 -74 -439 -150 l-66 -39 -57 -137 c-31
-75 -56 -140 -56 -144 0 -4 37 -17 83 -28 l82 -21 35 33 c78 74 221 151 340
183 101 28 330 25 433 -5 153 -44 286 -128 396 -249 l64 -70 108 90 108 90
-29 36 c-49 63 -182 184 -250 229 -125 83 -267 141 -410 168 -95 18 -256 25
-342 14z"/>
<path d="M16260 14930 c-69 -15 -149 -39 -180 -55 -117 -59 -267 -175 -329
-254 l-30 -37 83 -62 c46 -34 108 -83 138 -111 l54 -49 23 34 c39 57 165 169
237 212 91 54 206 91 304 99 l80 6 -73 81 c-40 45 -88 100 -107 124 -21 27
-41 42 -54 41 -12 -1 -77 -14 -146 -29z"/>
<path d="M19325 14890 c-33 -39 -61 -74 -63 -79 -1 -4 14 -13 35 -19 30 -9 39
-9 45 2 4 7 32 45 62 84 51 66 53 70 33 76 -43 11 -53 5 -112 -64z"/>
<path d="M19506 14836 c-37 -46 -66 -88 -66 -93 0 -5 30 -24 68 -42 37 -18 92
-47 122 -65 l54 -32 60 74 c32 40 89 100 127 132 l68 58 -52 7 c-29 3 -107 15
-175 26 -67 10 -127 19 -132 19 -5 0 -38 -38 -74 -84z"/>
<path d="M23075 14896 c-16 -24 -16 -29 -4 -37 14 -9 49 -13 49 -5 0 2 -6 18
-14 36 l-14 33 -17 -27z"/>
<path d="M20890 14889 c-177 -27 -375 -40 -592 -39 l-198 2 -64 -46 c-87 -62
-162 -132 -219 -204 -46 -58 -47 -61 -27 -72 11 -6 61 -44 110 -85 49 -41 91
-75 94 -75 2 0 23 26 47 57 56 73 169 162 261 207 249 122 542 96 771 -68 61
-43 132 -113 174 -171 l21 -30 39 33 c21 18 70 58 110 89 l71 57 -21 31 c-68
98 -208 219 -336 292 -84 48 -80 47 -241 22z"/>
<path d="M15030 14870 c25 -6 87 -22 139 -36 l94 -27 20 24 19 24 -93 7 c-52
3 -123 9 -159 12 -58 4 -60 4 -20 -4z"/>
<path d="M15715 14860 c-55 -4 -141 -8 -192 -9 l-91 -1 -32 -40 c-18 -23 -31
-42 -29 -44 2 -1 37 -17 78 -35 40 -18 96 -45 124 -61 l51 -29 80 83 c45 46
99 97 121 115 36 28 37 31 15 29 -14 -1 -70 -5 -125 -8z"/>
<path d="M10529 14793 c-166 -365 -269 -611 -397 -944 -222 -578 -320 -942
-339 -1251 -6 -102 -5 -109 21 -161 31 -63 84 -116 153 -150 79 -40 525 -183
818 -262 823 -224 1815 -431 2700 -564 1790 -269 3584 -343 5475 -225 1673
104 3527 396 5265 830 213 53 612 172 792 235 204 72 283 159 283 310 0 108
-58 434 -80 449 -4 3 -10 25 -13 50 -19 134 -277 843 -476 1309 -53 123 -190
432 -195 438 -1 1 -28 -22 -59 -52 -67 -63 -194 -128 -397 -203 -282 -105
-966 -284 -1550 -406 -1058 -222 -2430 -365 -3990 -416 -173 -5 -358 -12 -410
-13 -68 -3 -105 -9 -130 -22 -44 -24 -134 -25 -175 -3 -27 14 -95 15 -625 11
-772 -7 -1306 9 -1945 58 -1321 100 -2574 318 -3860 671 -383 105 -679 229
-783 328 l-53 50 -30 -67z m12756 -1297 c101 -48 136 -112 190 -356 21 -91 44
-177 51 -192 13 -25 12 -28 -8 -42 -33 -23 -75 -20 -89 6 -7 12 -31 106 -55
209 -65 285 -104 349 -210 349 -68 0 -109 -20 -122 -59 -10 -29 -3 -80 16
-107 15 -23 52 -34 90 -28 27 4 41 2 50 -8 11 -14 98 -407 90 -412 -9 -7 -412
-85 -416 -81 -3 3 7 29 21 58 55 107 23 262 -63 308 -91 49 -245 -4 -291 -99
-42 -85 -7 -242 61 -277 41 -21 44 -19 20 13 -31 41 -43 105 -30 153 14 51 57
79 121 79 80 0 129 -59 129 -156 0 -39 -5 -51 -33 -79 -52 -52 -151 -70 -220
-41 -87 36 -138 175 -106 290 43 154 318 237 457 136 85 -61 113 -192 67 -312
-5 -13 7 -12 82 4 48 10 89 21 91 23 3 3 -47 266 -65 341 -3 16 -14 23 -44 27
-54 7 -88 31 -106 75 -55 132 163 253 322 178z m-10277 -237 c53 -15 117 -69
143 -120 34 -68 35 -145 0 -341 -17 -97 -31 -190 -31 -207 0 -29 -2 -31 -39
-31 -72 0 -74 20 -27 289 28 158 31 216 15 276 -19 70 -69 106 -146 108 -62 0
-96 -33 -97 -97 -1 -43 2 -49 45 -86 25 -21 52 -53 59 -70 18 -43 7 -198 -19
-281 -28 -88 -57 -129 -111 -156 -57 -30 -119 -29 -280 2 -113 21 -127 22
-148 9 -18 -12 -22 -23 -20 -47 3 -30 1 -32 -34 -35 -86 -7 -68 103 21 128 28
8 66 4 176 -16 147 -27 204 -27 236 2 59 54 113 355 73 412 -21 31 -67 29 -93
-4 -28 -35 -40 -78 -65 -223 -20 -115 -24 -126 -45 -129 -34 -5 -71 24 -71 56
0 15 12 86 26 157 28 146 26 190 -11 207 -55 25 -75 -12 -111 -206 -35 -183
-28 -169 -82 -161 -26 4 -48 8 -50 10 -2 2 10 71 27 154 45 221 74 265 174
263 61 -1 94 -22 122 -79 l20 -40 24 29 c13 16 36 32 52 35 28 5 28 6 13 36
-30 57 1 126 69 158 46 22 110 21 185 -2z m-1056 -14 c25 -9 62 -33 83 -55 34
-35 39 -47 43 -97 3 -40 -2 -76 -15 -115 -22 -64 -24 -59 43 -73 l30 -6 22
103 c12 57 22 117 22 134 0 33 13 44 53 44 25 0 57 -27 57 -49 0 -9 -24 -120
-52 -248 l-52 -233 -33 0 c-23 0 -37 7 -48 24 -15 22 -15 31 3 105 l19 81 -41
11 c-23 5 -45 11 -51 13 -5 2 -28 -12 -49 -30 -22 -19 -65 -43 -95 -55 -48
-18 -71 -20 -161 -16 -156 7 -259 52 -290 128 -11 26 -11 36 3 64 32 67 82 65
395 -9 l100 -23 12 26 c19 40 25 146 10 181 -7 17 -25 37 -41 45 -32 17 -97
19 -119 5 -11 -7 -8 -10 16 -10 47 0 84 -34 84 -76 0 -48 -15 -73 -54 -89 -41
-18 -98 -4 -121 28 -38 55 -5 148 65 185 52 26 99 28 162 7z m10313 -165 c0
-14 -26 -24 -86 -34 l-36 -6 9 -53 c15 -82 18 -86 34 -55 32 60 129 78 183 33
63 -53 84 -220 40 -312 -48 -100 -166 -176 -321 -207 -104 -21 -163 -20 -243
5 -55 17 -78 31 -120 73 -125 124 -139 344 -30 453 41 41 77 54 90 33 3 -5 2
-10 -4 -10 -5 0 -22 -25 -36 -55 -25 -51 -27 -62 -22 -148 6 -110 17 -150 60
-214 23 -34 48 -56 87 -76 51 -27 62 -28 150 -25 76 3 106 9 150 29 74 34 114
70 140 125 41 83 15 261 -40 279 -66 21 -100 -85 -64 -205 15 -51 15 -55 -2
-67 -28 -21 -72 -16 -88 10 -8 12 -28 97 -44 190 -16 92 -31 169 -34 172 -3 3
-38 0 -78 -6 l-72 -12 6 -36 c3 -20 19 -109 34 -198 25 -141 27 -163 14 -168
-9 -3 -19 -2 -23 2 -7 8 -82 424 -77 428 7 4 404 72 413 71 6 -2 10 -9 10 -16z
m-1755 -60 c11 -11 20 -24 20 -30 0 -14 -37 -50 -52 -50 -18 0 -48 31 -48 51
0 17 35 49 52 49 5 0 17 -9 28 -20z m930 -85 c0 -14 -6 -17 -85 -32 l-40 -8 8
-62 9 -63 79 0 c124 0 169 -36 169 -134 0 -81 -79 -143 -170 -134 -47 4 -47
30 0 39 50 11 73 44 67 97 -7 61 -38 92 -94 92 l-44 0 6 -43 c19 -128 -72
-226 -210 -227 -106 0 -162 56 -152 154 4 40 11 55 37 79 l33 29 -11 77 c-8
58 -8 79 1 88 12 11 297 60 365 62 22 1 32 -4 32 -14z m-7813 -11 c116 -38
177 -114 177 -218 -1 -66 -28 -143 -66 -183 -12 -13 -20 -24 -17 -26 2 -2 40
-9 83 -15 64 -10 82 -10 92 0 9 10 64 324 64 368 0 16 67 12 84 -6 9 -8 16
-19 16 -24 0 -19 -52 -341 -65 -405 -8 -38 -17 -87 -20 -107 l-6 -38 -47 7
c-26 3 -49 7 -50 9 -2 1 1 33 7 70 6 38 8 70 6 72 -3 3 -62 13 -132 24 -163
24 -173 26 -173 41 0 6 15 22 34 34 71 46 109 199 71 284 -29 64 -72 84 -182
84 -87 0 -93 -1 -130 -31 -51 -40 -75 -92 -81 -173 -5 -70 8 -112 43 -141 15
-12 15 -11 8 16 -19 70 3 156 49 188 30 21 103 20 139 -1 85 -50 73 -211 -18
-250 -49 -20 -129 -12 -186 19 -62 34 -90 93 -83 175 9 108 57 185 141 224 51
24 175 25 242 3z m1921 -57 c4 -34 -30 -54 -64 -38 -31 14 -32 54 -2 75 19 13
25 14 43 2 11 -7 21 -25 23 -39z m3340 11 c7 -7 12 -21 12 -33 0 -12 -5 -26
-12 -33 -7 -7 -21 -12 -33 -12 -12 0 -26 5 -33 12 -7 7 -12 21 -12 33 0 12 5
26 12 33 7 7 21 12 33 12 12 0 26 -5 33 -12z m1695 -39 c94 -26 157 -130 157
-260 0 -90 -23 -139 -77 -162 -49 -21 -482 -72 -496 -58 -8 8 -55 353 -57 413
0 12 11 19 37 24 58 11 66 -7 87 -204 11 -94 22 -176 26 -182 5 -8 31 -9 83
-4 91 8 86 -7 62 190 -22 178 -6 222 88 244 45 11 48 11 90 -1z m-3593 -20 c9
-16 8 -26 -5 -45 -19 -29 -46 -31 -70 -4 -15 17 -16 24 -7 45 15 32 66 35 82
4z m-2215 -48 c56 -25 92 -71 101 -127 6 -43 4 -67 -12 -141 l-6 -33 45 0 c54
0 54 0 63 155 5 82 10 113 22 123 22 17 46 15 72 -6 l23 -19 -22 -209 c-12
-115 -24 -227 -25 -249 -3 -37 -6 -40 -36 -43 -20 -2 -39 3 -52 15 -17 15 -19
26 -13 88 4 38 8 77 11 86 4 13 -6 17 -51 23 l-54 6 -41 -44 c-60 -65 -123
-89 -249 -94 -78 -3 -119 0 -168 13 -123 34 -173 120 -102 179 38 32 95 34
312 10 107 -12 151 -14 159 -6 6 6 13 44 15 84 4 65 2 77 -19 108 -32 48 -91
67 -139 46 l-34 -14 33 -1 c39 -1 92 -47 92 -81 0 -35 -27 -76 -59 -90 -38
-15 -92 -6 -115 19 -47 52 -19 163 51 200 50 26 143 27 198 2z m5151 -39 c-4
-3 -34 -8 -67 -10 l-61 -5 6 -30 c3 -16 6 -47 6 -68 l0 -39 62 0 c122 0 188
-61 188 -174 0 -70 -17 -110 -66 -159 -67 -67 -155 -100 -309 -118 -225 -25
-393 50 -441 194 -23 69 -15 196 15 256 27 52 103 129 136 137 45 11 47 -6 6
-53 -54 -60 -76 -128 -74 -226 3 -189 111 -276 331 -265 122 7 196 33 246 88
91 101 60 280 -48 280 l-36 0 0 -52 c0 -30 -9 -71 -19 -95 -51 -112 -243 -146
-323 -57 -9 11 -21 38 -27 61 -14 53 3 100 49 134 l31 24 -6 82 c-6 71 -5 84
9 89 9 3 100 13 203 23 155 13 189 14 191 3 2 -8 1 -16 -2 -20z m-4507 -18
c13 -9 31 -35 41 -57 16 -34 19 -37 24 -19 4 12 21 33 37 47 25 20 41 25 87
25 68 0 112 -23 139 -72 26 -47 25 -260 -1 -336 -46 -134 -122 -165 -361 -144
-62 5 -120 6 -133 1 -28 -11 -39 -36 -24 -60 10 -16 8 -21 -13 -35 -23 -15
-27 -15 -50 0 -35 23 -34 74 1 107 25 24 28 24 221 24 l195 0 28 31 c34 39 51
127 53 278 1 124 -13 159 -65 154 -62 -6 -85 -75 -92 -272 -3 -103 -5 -110
-26 -118 -14 -5 -32 -3 -49 5 l-26 13 4 179 c3 171 2 181 -17 198 -28 25 -64
18 -80 -15 -7 -15 -17 -91 -23 -170 -14 -201 -10 -188 -70 -188 l-51 0 7 88
c19 249 29 290 81 331 34 27 128 29 163 5z m3634 -31 c17 -16 -19 -33 -69 -33
-29 0 -55 -3 -57 -7 -2 -5 -2 -36 1 -70 l4 -63 65 0 c79 0 127 -19 153 -62 59
-97 -22 -212 -145 -206 -38 2 -51 7 -53 21 -3 13 3 17 23 17 28 0 66 16 77 34
16 24 8 103 -13 130 -17 21 -29 26 -66 26 -43 0 -45 -1 -39 -25 9 -34 -10
-112 -36 -148 -55 -77 -207 -101 -282 -44 -71 54 -74 152 -6 210 l40 34 -7 81
c-7 96 -22 88 177 101 185 11 226 12 233 4z m-2966 -22 c18 -11 37 -35 44 -55
l13 -35 17 29 c60 98 209 88 260 -17 19 -39 22 -63 22 -147 0 -181 -29 -259
-113 -306 -44 -24 -50 -25 -221 -23 -195 3 -207 0 -196 -56 7 -34 -8 -51 -45
-51 -58 0 -61 82 -4 124 25 19 41 21 206 21 166 0 180 2 207 21 39 29 53 87
59 239 5 113 3 135 -13 165 -14 27 -25 36 -49 38 -64 6 -84 -48 -89 -247 -4
-134 -4 -136 -28 -142 -14 -4 -36 -1 -49 5 -23 12 -23 13 -23 189 0 167 -1
178 -22 198 -30 30 -67 20 -82 -23 -6 -17 -14 -90 -17 -162 -3 -72 -7 -146
-10 -163 -5 -32 -7 -33 -50 -33 -29 0 -47 5 -50 14 -3 7 -1 83 4 168 11 171
28 224 80 252 39 22 111 20 149 -3z m2458 -11 c0 -11 -16 -16 -65 -20 l-65 -5
4 -145 c1 -80 7 -167 11 -195 9 -56 3 -65 -47 -65 -48 0 -63 29 -63 125 0 44
-3 124 -7 178 l-6 97 -90 0 -90 0 7 -205 c7 -200 7 -205 -12 -205 -22 0 -23
14 -36 323 -5 105 -4 117 12 118 58 5 346 16 392 15 42 -1 55 -5 55 -16z
m-1902 -14 c4 -6 7 -96 5 -201 l-3 -190 81 -3 81 -3 6 83 c4 46 7 116 7 156 0
132 41 178 151 170 74 -5 122 -40 156 -115 22 -47 25 -65 21 -136 -4 -101 -28
-154 -78 -179 -30 -15 -62 -18 -215 -17 -99 1 -209 4 -245 8 l-65 6 0 215 c0
206 1 215 20 221 25 8 67 0 78 -15z m1242 -6 c0 -12 -16 -16 -68 -18 l-68 -3
3 -67 3 -67 74 -7 c83 -7 116 -25 144 -79 30 -58 6 -131 -54 -168 -60 -37
-159 -34 -159 4 0 11 10 15 35 15 72 0 108 77 70 149 -16 33 -33 41 -81 41
l-34 0 0 -52 c0 -74 -34 -128 -102 -162 -126 -63 -268 0 -268 119 0 47 30 101
65 117 23 10 24 16 27 97 l3 86 125 6 c210 9 285 6 285 -11z"/>
<path d="M22642 12948 c-17 -17 -15 -90 4 -138 20 -48 58 -65 81 -34 18 24 12
108 -11 153 -17 33 -51 42 -74 19z"/>
<path d="M11751 13131 c-16 -36 -7 -68 20 -76 32 -11 61 22 57 64 -3 32 -6 36
-34 39 -26 3 -33 -1 -43 -27z"/>
<path d="M11500 12964 c-22 -26 -1 -65 50 -91 112 -56 294 -46 349 21 14 17
13 17 -176 60 -129 30 -204 33 -223 10z"/>
<path d="M21135 12873 c-70 -14 -66 -11 -60 -51 17 -100 13 -94 58 -87 105 16
100 12 92 64 -12 85 -17 90 -90 74z"/>
<path d="M21185 12705 c-5 -2 -31 -6 -58 -10 -69 -9 -100 -39 -99 -96 1 -60
34 -89 102 -89 87 0 130 60 114 159 -6 40 -21 49 -59 36z"/>
<path d="M13400 12698 c-25 -41 -28 -139 -5 -158 25 -20 62 -4 74 33 13 39 17
104 7 135 -11 35 -52 29 -76 -10z"/>
<path d="M20500 12780 c-8 -15 -7 -58 5 -163 23 -206 17 -190 73 -182 57 8 98
29 112 54 15 29 12 130 -5 189 -10 32 -29 66 -51 87 -29 29 -42 35 -79 35 -34
0 -47 -5 -55 -20z"/>
<path d="M14550 12671 c-23 -45 -8 -91 29 -91 32 0 56 39 45 74 -12 39 -56 49
-74 17z"/>
<path d="M14328 12469 c-18 -10 -24 -45 -10 -65 30 -46 188 -68 285 -40 50 14
135 71 124 83 -8 7 -253 33 -317 33 -36 -1 -73 -5 -82 -11z"/>
<path d="M19622 12703 c-62 -5 -67 -12 -57 -88 l6 -55 67 6 c37 4 68 8 70 9 9
7 -12 135 -22 133 -6 -1 -35 -3 -64 -5z"/>
<path d="M19570 12520 c-64 -16 -97 -79 -68 -133 19 -36 40 -46 99 -47 46 0
61 4 82 24 28 26 41 72 35 127 -3 34 -3 34 -58 36 -30 1 -71 -2 -90 -7z"/>
<path d="M18713 12633 l-33 -4 0 -65 0 -64 76 0 77 0 -7 38 c-3 20 -6 52 -6
70 0 31 -2 32 -37 30 -21 0 -53 -3 -70 -5z"/>
<path d="M18731 12460 c-64 -6 -77 -10 -98 -34 -31 -36 -31 -86 1 -123 21 -25
31 -28 81 -28 51 0 59 3 86 33 26 29 29 40 29 97 0 46 -4 65 -12 64 -7 -1 -46
-5 -87 -9z"/>
<path d="M16939 12593 c-10 -12 -15 -60 -17 -185 l-3 -168 59 0 c102 0 138 51
130 185 -3 50 -12 84 -28 113 -35 62 -111 92 -141 55z"/>
<path d="M17543 12603 l-33 -4 0 -65 0 -64 70 0 70 0 0 70 0 70 -37 -2 c-21 0
-53 -3 -70 -5z"/>
<path d="M17473 12420 c-28 -12 -45 -44 -45 -87 0 -68 72 -108 147 -83 49 16
75 60 75 128 l0 52 -77 -1 c-43 0 -88 -4 -100 -9z"/>
<path d="M14445 14794 c-366 -51 -656 -165 -917 -360 -89 -66 -248 -210 -248
-224 0 -4 96 -23 213 -42 l212 -34 60 39 c33 21 101 59 151 83 611 294 1358
183 1835 -273 l66 -63 204 -9 c112 -4 206 -6 208 -5 14 12 -144 212 -257 328
-285 290 -616 466 -1024 542 -79 15 -434 28 -503 18z"/>
<path d="M22380 14785 c-435 -60 -883 -300 -1150 -616 l-39 -45 27 3 c15 2
156 21 315 44 l287 40 103 49 c125 60 251 102 394 131 90 19 145 23 328 24
l220 2 195 48 c107 26 196 49 198 50 2 2 -78 197 -84 204 -10 11 -202 53 -301
66 -137 18 -362 18 -493 0z"/>
<path d="M18998 14565 l-167 -154 37 -7 c327 -56 567 -161 805 -354 l79 -63
194 13 c107 7 197 16 199 20 6 9 -84 121 -164 204 -145 150 -324 282 -507 375
-97 49 -274 121 -297 121 -7 0 -87 -70 -179 -155z"/>
<path d="M12465 14596 c-97 -19 -194 -58 -271 -108 -54 -36 -61 -44 -45 -50
33 -12 556 -125 780 -168 l213 -41 24 22 c13 12 24 29 24 37 0 7 -39 53 -88
101 -73 73 -103 95 -182 134 -52 26 -122 54 -155 62 -87 22 -218 27 -300 11z"/>
<path d="M16538 14600 c-70 -12 -166 -46 -224 -79 -61 -35 -153 -118 -206
-185 l-38 -48 49 -54 c28 -30 77 -90 109 -134 l60 -80 26 40 c66 100 188 161
321 161 130 0 239 -53 312 -151 l36 -49 30 42 c16 23 55 73 85 110 54 67 55
69 36 86 -10 10 -97 90 -193 177 -157 142 -179 158 -220 165 -57 10 -122 9
-183 -1z"/>
<path d="M20555 14603 c-177 -28 -338 -120 -440 -253 l-47 -61 54 -62 c30 -34
76 -91 103 -127 27 -36 50 -67 52 -69 2 -2 28 23 59 57 148 164 405 181 554
37 33 -33 37 -34 91 -28 l57 6 73 89 c41 49 75 93 77 97 1 4 -19 33 -46 66
-89 111 -217 196 -347 229 -63 17 -191 27 -240 19z"/>
<path d="M14390 14295 c-151 -25 -314 -78 -445 -143 -59 -29 -67 -36 -50 -43
43 -18 500 -71 680 -80 105 -5 219 -16 255 -24 36 -9 103 -20 149 -25 92 -11
611 -50 651 -50 25 1 24 1 -10 31 -65 57 -225 158 -321 203 -219 104 -416 147
-672 145 -89 -1 -196 -7 -237 -14z"/>
<path d="M18558 14162 c-87 -80 -156 -147 -154 -149 1 -2 38 2 82 8 152 22
368 1 536 -52 67 -21 73 -22 306 -10 130 7 243 14 251 17 18 6 -74 74 -184
138 -146 84 -342 152 -520 181 -157 26 -139 33 -317 -133z"/>
<path d="M17193 14123 c-53 -64 -153 -204 -153 -214 0 -5 89 -9 198 -9 195 0
199 0 220 23 l22 24 -82 74 c-46 42 -102 92 -124 112 l-42 37 -39 -47z"/>
<path d="M16547 14106 c-85 -31 -165 -109 -183 -179 l-6 -27 276 0 c219 0 276
3 276 13 0 7 -15 37 -33 67 -67 114 -211 168 -330 126z"/>
<path d="M20540 14104 c-43 -16 -105 -53 -98 -59 2 -2 80 4 173 14 l170 18
-40 18 c-56 25 -150 29 -205 9z"/>
<path d="M9331 11846 c-8 -10 -7 -17 4 -26 34 -29 56 -70 49 -92 -8 -27 -495
-520 -542 -550 -35 -22 -33 -22 -103 32 -21 15 -29 17 -36 7 -14 -18 262 -290
277 -272 8 9 2 23 -25 55 -19 23 -35 45 -35 49 0 16 41 64 149 173 l116 118
88 -88 c49 -48 95 -99 102 -113 14 -25 12 -30 -20 -72 -26 -34 -31 -47 -22
-55 18 -14 232 202 214 217 -10 8 -22 3 -48 -19 -19 -16 -42 -29 -52 -30 -10
0 -64 45 -120 100 l-102 99 125 126 c69 69 129 125 134 125 29 0 189 -169 226
-239 11 -21 8 -27 -31 -67 -35 -36 -40 -46 -30 -58 11 -13 20 -9 70 32 31 26
68 54 81 63 l25 17 -242 240 c-189 188 -244 238 -252 228z"/>
<path d="M25577 11752 c-48 -48 -87 -91 -87 -96 0 -5 59 -177 130 -383 72
-207 129 -377 127 -379 -2 -2 -174 59 -382 135 l-379 139 -92 -87 c-69 -64
-90 -89 -82 -98 8 -10 19 -6 51 17 69 51 42 71 396 -292 243 -249 244 -251
191 -311 -26 -31 -28 -36 -14 -47 13 -11 31 2 125 97 91 90 108 112 96 121
-11 10 -22 6 -52 -18 -21 -16 -47 -30 -59 -30 -14 0 -98 79 -262 248 -133 136
-241 248 -240 249 1 1 184 -65 406 -148 222 -82 409 -148 416 -145 10 4 6 22
-15 73 -16 37 -52 136 -81 218 -79 228 -180 527 -180 534 0 10 387 -378 441
-442 27 -32 49 -64 49 -72 0 -7 -12 -27 -26 -44 -24 -29 -27 -67 -4 -59 5 2
66 59 135 127 95 95 122 127 114 137 -8 10 -20 6 -55 -22 -25 -19 -51 -34 -57
-34 -15 -1 -523 514 -548 554 -19 32 -15 51 23 93 14 15 17 26 11 37 -7 13
-25 -1 -96 -72z"/>
<path d="M23130 11669 c-111 -27 -817 -165 -1050 -205 -311 -53 -276 -37 -369
-170 l-50 -71 119 -80 118 -81 37 59 c65 106 198 224 322 287 75 39 188 71
283 82 51 6 95 9 97 7 2 -3 -27 -29 -64 -59 -52 -41 -86 -60 -143 -77 -129
-39 -224 -95 -313 -185 -58 -58 -130 -161 -130 -185 0 -20 -12 -36 -47 -61
l-27 -19 -64 51 c-161 130 -394 258 -585 322 l-101 34 -244 -33 c-318 -43
-630 -79 -966 -113 l-271 -28 -79 -48 c-449 -277 -765 -733 -880 -1271 -26
-122 -28 -144 -28 -380 0 -234 2 -258 28 -377 15 -70 38 -161 51 -202 l24 -76
-32 -19 c-70 -42 -469 -272 -504 -290 l-38 -19 47 91 c315 616 271 1395 -111
1976 -110 168 -285 358 -431 469 l-56 42 -509 0 c-523 0 -886 10 -1334 35
l-255 15 -68 -46 c-150 -103 -326 -277 -440 -437 -153 -213 -247 -412 -312
-662 -22 -85 -38 -129 -46 -127 -7 2 -79 49 -161 105 l-148 102 -21 65 c-102
309 -311 619 -564 837 -296 256 -648 411 -1027 452 -54 6 -118 11 -144 11 -40
0 -53 6 -104 48 l-57 48 -208 42 c-114 24 -210 41 -212 38 -11 -10 707 -595
1127 -918 1287 -990 2789 -1959 4125 -2662 l239 -125 201 103 c1391 717 3088
1827 4495 2939 320 253 930 760 930 773 0 5 -7 4 -50 -7z m-6382 -669 c556
-59 1032 -388 1283 -889 187 -375 218 -825 84 -1227 -63 -189 -187 -404 -320
-554 -75 -85 -224 -220 -242 -220 -16 0 -103 42 -103 49 1 4 26 24 56 45 75
54 188 166 262 259 162 204 275 470 311 731 14 99 14 302 0 403 -90 669 -623
1202 -1292 1292 -101 14 -304 14 -403 0 -646 -90 -1169 -591 -1280 -1226 l-17
-102 -27 15 c-14 9 -37 24 -49 34 l-24 17 22 102 c173 806 926 1357 1739 1271z
m4040 0 c250 -27 477 -109 687 -247 124 -82 125 -84 75 -121 l-41 -30 -81 55
c-150 100 -318 172 -498 214 -121 29 -383 36 -510 15 -629 -103 -1112 -589
-1226 -1231 -23 -132 -23 -385 -1 -510 10 -49 17 -93 17 -97 0 -12 -80 -59
-89 -53 -5 3 -17 49 -28 103 -28 149 -25 479 6 622 175 820 895 1365 1689
1280z m-7303 -263 c86 -58 190 -145 260 -217 33 -35 53 -59 45 -55 -16 9 -482
360 -510 383 -25 22 140 -68 205 -111z m3343 -142 c610 -118 1038 -673 973
-1264 -43 -401 -284 -741 -657 -929 l-80 -40 -57 31 c-31 18 -57 34 -57 37 0
3 34 18 76 34 121 47 247 130 354 236 110 108 163 182 226 314 72 153 88 233
88 431 0 177 -7 223 -55 355 -121 329 -405 580 -767 678 -89 23 -114 26 -287
26 -175 0 -198 -2 -290 -27 -196 -53 -415 -182 -541 -320 -76 -83 -164 -218
-203 -311 -56 -135 -75 -234 -76 -393 0 -79 -1 -143 -3 -143 -7 0 -97 64 -105
74 -10 13 -1 176 14 261 87 497 513 891 1044 964 94 13 301 6 403 -14z m4037
0 c104 -22 189 -52 292 -102 120 -58 123 -62 70 -100 l-42 -31 -90 44 c-141
68 -253 95 -425 101 -123 4 -161 2 -249 -16 -461 -96 -794 -462 -851 -936 -11
-88 -8 -219 6 -266 3 -11 -11 -26 -43 -47 l-48 -31 -9 22 c-6 12 -10 108 -10
212 0 174 3 198 27 288 70 260 214 479 418 637 150 116 342 201 514 229 39 6
81 13 95 15 48 9 276 -4 345 -19z m-4095 -379 c93 -17 192 -53 267 -97 75 -44
228 -198 272 -272 84 -143 123 -331 103 -492 -22 -176 -86 -312 -206 -442
-156 -168 -335 -246 -566 -247 l-115 -1 -259 155 c-249 149 -261 157 -297 212
-162 251 -154 600 19 855 49 73 170 186 246 232 156 93 356 129 536 97z m3976
4 c34 -6 88 -18 120 -28 l58 -17 -53 -38 c-52 -37 -54 -38 -102 -28 -28 6 -90
11 -138 11 -261 0 -499 -150 -610 -383 -29 -61 -61 -167 -61 -203 0 -16 -86
-84 -105 -84 -10 0 -5 82 10 154 84 405 479 681 881 616z"/>
<path d="M16462 10100 c-118 -31 -206 -83 -302 -180 -138 -138 -200 -285 -200
-475 0 -190 62 -338 200 -475 137 -138 285 -200 475 -200 190 0 337 62 475
200 138 137 200 285 200 474 0 115 -20 198 -72 306 -58 120 -178 240 -298 298
-47 23 -114 48 -150 56 -90 22 -238 19 -328 -4z m273 -275 c193 -51 321 -247
288 -441 -44 -254 -294 -394 -539 -303 -83 31 -182 130 -213 213 -116 311 149
613 464 531z"/>
<path d="M16537 9716 c-79 -29 -157 -112 -178 -190 -15 -53 -7 -162 15 -203
25 -50 74 -101 125 -131 41 -24 56 -27 136 -27 80 0 95 3 136 27 91 54 140
129 147 229 7 95 -17 159 -82 224 -78 79 -198 107 -299 71z"/>
<path d="M21513 11372 c-57 -9 -103 -18 -103 -22 0 -3 36 -22 79 -42 l79 -36
34 52 c18 28 34 54 36 59 4 9 3 8 -125 -11z"/>
<path d="M13470 11287 c84 -44 85 -44 97 -23 7 12 12 24 13 28 0 3 -33 11 -72
18 -40 6 -84 13 -98 16 -14 2 13 -15 60 -39z"/>
<path d="M13670 11234 c-21 -39 -23 -46 -10 -54 8 -5 53 -37 99 -72 46 -35 92
-69 102 -76 15 -12 20 -7 48 45 17 32 49 82 71 111 22 28 38 52 36 52 -2 0
-70 9 -151 20 -81 11 -153 20 -159 20 -6 0 -23 -21 -36 -46z"/>
<path d="M14104 11168 c-53 -57 -104 -132 -128 -188 l-14 -35 85 -95 c47 -52
99 -114 116 -137 l30 -42 21 63 c39 115 103 187 216 240 58 28 74 31 155 30
118 -1 184 -26 265 -101 58 -53 120 -154 120 -194 0 -36 19 -27 66 34 27 34
77 92 112 129 73 77 73 74 11 180 -26 44 -47 69 -62 72 -12 3 -107 12 -212 21
-104 9 -307 30 -450 46 -143 16 -265 29 -271 29 -6 0 -33 -24 -60 -52z"/>
<path d="M19348 11091 c18 -31 23 -31 72 8 l25 21 -57 0 -57 0 17 -29z"/>
<path d="M15271 11068 c12 -24 23 -45 25 -47 2 -2 26 15 53 37 l51 40 -31 6
c-18 3 -51 6 -75 6 l-44 0 21 -42z"/>
<path d="M19010 11095 c-243 -18 -548 -34 -791 -42 l-206 -6 -27 -54 -27 -55
80 -84 c44 -46 94 -104 112 -129 33 -46 49 -56 49 -30 0 41 46 130 95 183 190
206 514 160 640 -90 19 -39 35 -82 35 -95 0 -14 4 -23 8 -21 5 2 43 44 84 93
42 50 108 121 148 159 l72 68 -35 56 c-19 31 -41 58 -49 58 -7 1 -92 -4 -188
-11z"/>
<path d="M9925 11059 c-92 -19 -174 -66 -255 -148 -85 -86 -124 -155 -146
-264 -58 -277 191 -556 496 -557 240 0 463 183 503 413 27 161 -55 332 -220
456 -114 85 -259 123 -378 100z m282 -99 c72 -36 156 -121 185 -186 31 -71 34
-149 10 -231 -40 -132 -179 -291 -312 -356 -56 -28 -75 -32 -145 -32 -64 0
-89 5 -123 23 -199 105 -249 336 -120 547 138 226 338 318 505 235z"/>
<path d="M17850 11036 c0 -2 6 -9 14 -15 10 -9 15 -8 20 4 4 10 -1 15 -14 15
-11 0 -20 -2 -20 -4z"/>
<path d="M14495 10888 c-86 -32 -163 -115 -186 -201 -37 -136 48 -297 179
-341 146 -50 296 14 361 154 62 136 2 302 -134 373 -47 24 -173 33 -220 15z"/>
<path d="M18483 10884 c-58 -21 -126 -85 -157 -146 -35 -71 -36 -171 -2 -243
28 -62 97 -126 159 -150 68 -26 179 -17 240 18 168 99 198 317 63 453 -80 79
-196 105 -303 68z"/>
<path d="M24550 10699 c-123 -20 -289 -135 -365 -254 -102 -160 -105 -339 -9
-503 63 -107 207 -214 324 -241 149 -34 308 16 426 133 101 101 154 227 154
366 -1 145 -46 256 -150 361 -112 114 -239 160 -380 138z m143 -137 c119 -59
252 -205 301 -332 27 -67 25 -173 -4 -233 -53 -113 -165 -187 -291 -195 -100
-6 -167 14 -263 78 -94 64 -166 144 -213 239 -33 65 -37 83 -37 145 0 87 31
154 103 226 82 81 152 110 261 107 63 -2 87 -8 143 -35z"/>
<path d="M10832 10418 c-8 -8 -4 -20 18 -45 56 -63 64 -51 -252 -413 -147
-169 -221 -246 -237 -248 -14 -2 -40 8 -67 27 -38 28 -44 30 -52 15 -8 -14 3
-28 57 -73 36 -30 103 -88 147 -128 71 -64 83 -71 94 -58 11 14 8 22 -23 53
-44 45 -46 71 -9 114 16 18 130 151 255 295 l227 262 34 -20 c57 -33 126 -99
146 -140 45 -86 7 -194 -82 -238 -77 -37 -150 -22 -245 50 -36 26 -55 36 -57
27 -3 -10 -32 -441 -40 -583 -1 -14 23 -41 71 -83 59 -51 73 -59 83 -47 9 11
7 20 -9 42 -21 28 -21 30 -6 282 9 140 17 257 20 259 2 3 28 -6 57 -18 72 -31
176 -32 234 -2 54 28 101 82 114 132 9 33 8 52 -5 97 -19 65 -66 115 -268 288
-204 174 -192 166 -205 153z"/>
<path d="M14460 10178 c15 -40 38 -110 51 -155 l22 -83 54 0 c34 0 55 4 57 13
5 17 87 270 93 284 3 8 -10 8 -49 -3 -78 -20 -149 -18 -235 10 -21 7 -21 5 7
-66z"/>
<path d="M18435 10234 c19 -48 66 -185 80 -236 l16 -58 53 0 52 0 51 153 c28
83 51 153 50 154 -1 1 -27 -5 -57 -13 -79 -20 -141 -18 -229 11 -21 6 -23 5
-16 -11z"/>
<path d="M23624 9907 c-81 -27 -164 -80 -285 -185 -69 -59 -166 -141 -217
-182 -79 -63 -90 -76 -78 -88 12 -12 20 -10 56 14 38 25 44 26 65 13 34 -20
484 -559 492 -588 3 -14 1 -38 -5 -55 -18 -45 1 -54 41 -20 19 16 93 77 165
136 157 130 221 199 261 281 91 185 47 420 -109 576 -75 75 -144 105 -254 108
-56 2 -107 -2 -132 -10z m177 -118 c71 -35 181 -154 224 -242 88 -178 49 -327
-123 -480 -57 -51 -130 -103 -136 -96 -1 2 -116 140 -254 306 l-251 301 63 60
c62 59 178 141 233 163 75 31 169 26 244 -12z"/>
<path d="M18557 9812 c2 -10 10 -68 18 -128 9 -81 13 -96 14 -59 1 28 8 85 15
128 l12 77 -32 0 c-26 0 -31 -3 -27 -18z"/>
<path d="M11549 9718 c-75 -101 -73 -98 -57 -115 13 -12 19 -8 52 31 56 69 63
68 166 -15 50 -40 90 -78 90 -84 0 -12 -396 -503 -458 -567 -43 -45 -63 -47
-113 -12 -37 25 -59 25 -59 1 0 -7 23 -30 51 -51 28 -21 94 -74 146 -118 78
-67 96 -78 109 -67 13 11 10 17 -21 49 -42 43 -44 71 -8 119 60 78 422 517
445 538 l24 23 92 -76 c51 -41 92 -82 92 -90 0 -8 -16 -36 -35 -61 -39 -51
-41 -56 -22 -72 11 -8 29 7 84 71 l71 82 -63 51 c-35 27 -91 73 -126 100 -54
42 -339 278 -390 322 -14 12 -22 5 -70 -59z"/>
<path d="M18580 9274 c0 -21 -3 -56 -6 -76 -5 -31 -3 -38 9 -38 13 0 15 11 10
73 -6 80 -13 101 -13 41z"/>
<path d="M22823 9280 c-91 -32 -144 -63 -199 -117 -125 -119 -146 -285 -54
-410 46 -62 93 -88 160 -87 57 1 102 19 258 102 115 62 179 62 239 0 81 -84
71 -211 -23 -302 -52 -51 -136 -89 -195 -90 -43 -1 -52 3 -87 37 -26 25 -44
36 -55 31 -9 -3 -17 -8 -17 -11 0 -3 22 -35 49 -72 26 -36 52 -74 57 -83 8
-15 13 -15 63 3 126 44 243 144 297 254 55 114 42 257 -32 344 -47 55 -86 74
-150 73 -55 0 -80 -10 -257 -105 -106 -57 -160 -62 -214 -21 -101 77 -95 226
15 309 43 33 123 65 164 65 10 0 38 -18 62 -40 44 -41 60 -48 71 -30 6 9 -48
103 -85 150 -15 19 -16 19 -67 0z"/>
<path d="M12319 9174 c-11 -14 -9 -20 18 -44 49 -44 58 -66 37 -98 -21 -33
-361 -467 -421 -539 -51 -61 -71 -65 -126 -28 -64 44 -82 6 -19 -41 20 -15 88
-68 150 -117 89 -71 116 -87 123 -76 13 21 12 23 -26 56 -61 54 -71 34 193
373 271 347 255 332 326 284 34 -23 40 -24 53 -11 13 13 1 25 -104 106 -65 50
-134 104 -154 121 -33 27 -38 28 -50 14z"/>
<path d="M18523 8928 c-17 -68 -34 -131 -38 -140 -7 -17 2 -18 99 -18 58 0
106 4 106 8 0 5 -9 34 -19 64 -11 31 -27 90 -36 132 -17 75 -17 76 -49 76
l-32 0 -31 -122z"/>
<path d="M22179 8792 c-41 -32 -109 -84 -151 -116 -43 -31 -78 -61 -78 -67 0
-22 30 -19 68 6 27 18 47 25 61 20 19 -6 440 -546 469 -602 19 -35 14 -52 -29
-91 -35 -33 -39 -40 -26 -51 13 -10 41 8 171 106 134 102 153 120 141 132 -12
12 -20 11 -56 -13 -28 -19 -48 -26 -65 -22 -16 4 -88 91 -226 273 -228 300
-258 342 -258 363 0 8 18 33 40 55 34 35 39 44 27 53 -11 10 -29 0 -88 -46z"/>
<path d="M12779 8824 c-11 -14 -9 -20 18 -44 58 -52 59 -60 3 -142 -27 -40
-132 -181 -232 -313 -134 -176 -189 -241 -206 -243 -13 -2 -41 8 -63 23 -40
26 -59 26 -59 0 0 -7 44 -45 98 -84 53 -38 121 -89 149 -112 45 -35 55 -40 69
-29 13 12 10 18 -25 51 -23 20 -41 46 -41 57 0 18 32 67 160 240 25 34 49 62
54 62 14 0 160 -108 197 -146 l34 -35 -28 -51 c-23 -40 -26 -53 -15 -59 7 -5
16 -8 19 -6 3 1 45 54 92 117 67 88 84 117 75 128 -9 10 -18 6 -48 -23 -20
-19 -42 -35 -49 -35 -15 0 -95 53 -174 115 -37 30 -57 52 -53 61 5 12 174 242
197 268 21 23 269 -181 269 -220 0 -11 -14 -37 -30 -58 -27 -36 -29 -42 -15
-55 14 -14 22 -8 84 59 38 41 66 79 64 84 -3 4 -94 74 -202 154 -108 80 -226
169 -263 198 -59 47 -68 52 -79 38z"/>
<path d="M21699 8431 c-89 -64 -105 -80 -97 -94 8 -16 13 -15 53 9 33 19 49
23 62 16 11 -6 61 -127 135 -323 64 -172 116 -314 115 -315 -1 -1 -147 99
-324 222 -353 245 -372 254 -343 154 31 -102 180 -694 178 -701 -3 -9 -406
343 -460 402 -36 38 -35 55 2 87 17 15 30 32 30 39 0 27 -23 22 -77 -20 -32
-24 -93 -67 -135 -97 -67 -46 -76 -56 -67 -72 9 -17 12 -17 32 -3 32 23 70 18
109 -12 46 -38 510 -445 575 -505 28 -26 55 -48 60 -48 4 1 18 9 30 19 21 18
22 21 9 58 -23 68 -179 693 -174 698 5 5 402 -260 550 -366 75 -54 87 -57 111
-31 16 17 7 45 -133 435 -83 229 -150 425 -150 434 0 9 12 29 26 44 25 26 26
50 1 48 -7 -1 -60 -36 -118 -78z"/>
<path d="M13433 8304 c-3 -8 3 -25 14 -37 30 -33 33 -41 44 -107 7 -47 5 -110
-11 -273 -12 -116 -24 -216 -27 -222 -34 -58 -178 -245 -193 -250 -12 -4 -36
4 -64 20 -44 26 -66 26 -66 2 0 -7 13 -21 30 -30 16 -10 87 -59 156 -109 110
-78 128 -88 141 -76 12 13 10 18 -21 42 -48 36 -60 60 -45 89 22 41 161 232
183 250 56 47 306 147 494 197 45 12 85 26 87 31 3 4 -15 22 -39 39 l-45 31
-73 -37 c-79 -40 -421 -184 -426 -180 -1 2 9 93 23 203 28 221 32 331 13 355
-11 14 -145 78 -162 78 -4 0 -9 -7 -13 -16z"/>
<path d="M14281 7717 c-8 -10 -2 -20 29 -43 43 -33 54 -57 38 -88 -13 -25
-334 -497 -390 -573 -44 -60 -70 -67 -127 -32 -29 17 -36 18 -48 7 -11 -12 9
-29 132 -113 80 -55 155 -106 165 -114 17 -11 21 -11 26 4 5 12 -5 28 -35 55
-22 21 -41 44 -41 52 0 18 413 627 437 646 25 18 49 15 93 -13 36 -22 40 -23
49 -8 7 14 -13 32 -123 106 -72 49 -142 98 -155 108 -28 23 -35 23 -50 6z"/>
<path d="M14753 7404 c-4 -10 7 -26 31 -45 24 -20 36 -39 36 -56 0 -15 -70
-132 -186 -311 -103 -158 -197 -302 -211 -319 -28 -39 -60 -43 -108 -13 -29
18 -34 18 -45 5 -16 -19 -22 -14 124 -109 65 -42 125 -75 132 -72 15 6 20 36
6 36 -4 0 -23 14 -41 30 -23 22 -32 37 -28 51 6 24 366 579 376 579 3 0 29
-222 55 -494 l49 -494 49 -41 c26 -23 48 -36 48 -29 0 7 105 173 233 368 257
392 246 381 325 341 37 -19 41 -19 47 -3 4 11 0 21 -10 27 -9 6 -67 43 -128
83 -102 66 -137 80 -137 53 0 -6 16 -22 35 -36 41 -32 50 -56 34 -87 -21 -41
-372 -578 -375 -575 -2 2 -26 228 -54 503 -42 416 -53 501 -67 509 -9 6 -52
34 -96 63 -44 28 -82 52 -84 52 -2 0 -6 -7 -10 -16z"/>
<path d="M20150 7347 c-52 -35 -123 -81 -157 -102 -66 -40 -68 -42 -54 -64 8
-12 15 -10 46 7 73 44 84 37 179 -108 47 -72 86 -134 86 -138 0 -4 -17 -18
-38 -31 -304 -200 -405 -262 -412 -255 -23 25 -170 260 -170 272 0 9 20 34 45
57 39 35 44 44 32 54 -12 9 -45 -8 -176 -94 -114 -75 -159 -110 -154 -120 7
-20 22 -19 58 5 40 26 71 25 96 -3 17 -20 259 -388 378 -575 41 -64 37 -88
-19 -127 -36 -25 -39 -30 -26 -43 13 -13 32 -4 160 79 79 52 153 99 163 105
15 9 16 13 4 27 -12 15 -17 14 -57 -7 -25 -13 -54 -22 -65 -19 -12 4 -61 68
-125 165 -58 88 -104 161 -102 163 17 15 427 279 438 282 10 2 46 -44 111
-145 53 -81 100 -158 104 -171 6 -18 -1 -30 -40 -65 -39 -36 -44 -45 -32 -55
12 -9 45 8 177 95 144 94 160 108 147 121 -13 14 -19 13 -54 -7 -73 -40 -67
-46 -295 304 -115 176 -208 330 -208 342 0 15 14 32 40 51 37 26 48 52 25 60
-6 2 -53 -25 -105 -60z"/>
<path d="M19145 6698 c-108 -69 -544 -336 -557 -340 -14 -5 101 -178 118 -178
26 0 24 20 -6 76 -18 34 -27 62 -22 70 4 8 51 41 104 73 l97 60 20 -26 c49
-61 391 -632 391 -651 0 -13 -16 -34 -40 -53 -39 -31 -49 -52 -31 -63 4 -3 53
23 107 57 54 35 129 80 166 101 57 34 65 41 55 57 -10 16 -14 16 -57 -6 -40
-20 -50 -22 -71 -12 -29 15 -431 661 -418 671 50 36 194 116 209 116 13 0 32
-19 56 -54 31 -48 38 -53 54 -44 17 11 17 15 -11 62 -17 28 -40 70 -52 94 -11
23 -23 42 -26 42 -4 0 -42 -24 -86 -52z"/>
<path d="M15827 6569 c-128 -30 -240 -126 -306 -261 -95 -194 -66 -372 86
-530 84 -86 170 -138 310 -188 182 -64 160 -69 239 59 64 106 69 111 101 111
54 0 39 24 -49 77 -46 28 -106 65 -135 82 -49 32 -73 34 -73 8 0 -7 22 -27 50
-46 27 -19 52 -42 55 -52 4 -11 -10 -44 -36 -86 -80 -129 -92 -133 -205 -79
-95 45 -185 130 -225 212 -77 157 -34 358 110 516 87 96 201 139 311 118 114
-21 261 -114 328 -208 39 -55 40 -82 7 -138 -24 -42 -25 -43 -6 -53 16 -9 23
-4 45 30 15 22 43 58 63 80 l36 40 -64 65 c-191 195 -443 290 -642 243z"/>
<path d="M18298 6202 c-153 -70 -184 -91 -160 -106 5 -3 32 2 61 11 50 16 52
16 71 -3 23 -23 320 -677 320 -704 0 -23 -31 -54 -71 -70 -24 -10 -27 -15 -18
-31 9 -18 11 -18 57 5 26 13 101 47 167 76 136 60 138 61 130 83 -6 14 -11 14
-47 1 -71 -25 -85 -20 -114 38 -56 111 -286 624 -291 650 -7 34 8 53 59 79 25
13 36 24 32 34 -4 8 -11 15 -18 14 -6 0 -86 -35 -178 -77z"/>
<path d="M17535 6023 c-10 -42 -255 -697 -264 -705 -7 -8 -152 590 -151 623 0
23 22 39 64 46 26 4 36 11 36 24 0 18 -10 19 -165 16 -164 -2 -165 -2 -165
-24 0 -19 6 -23 28 -23 56 0 59 -7 152 -381 49 -195 97 -389 106 -431 17 -78
17 -78 50 -78 30 0 33 4 48 48 37 109 251 672 257 672 5 0 198 -495 250 -642
23 -65 25 -68 56 -68 27 0 34 5 39 28 4 15 56 212 116 437 71 266 115 414 125
423 9 6 29 12 45 12 21 0 28 5 28 20 0 19 -7 20 -140 20 -133 0 -140 -1 -140
-20 0 -16 7 -20 33 -20 44 0 75 -10 80 -24 4 -11 -141 -605 -160 -656 -6 -17
-9 -10 -168 420 -92 247 -117 306 -133 308 -14 2 -21 -5 -27 -25z"/>
</g>
</svg>
