<?xml version="1.0" standalone="no"?>
<!DOCTYPE svg PUBLIC "-//W3C//DTD SVG 20010904//EN"
 "http://www.w3.org/TR/2001/REC-SVG-20010904/DTD/svg10.dtd">
<svg version="1.0" xmlns="http://www.w3.org/2000/svg"
 width="3000.000000pt" height="3000.000000pt" viewBox="0 0 3000.000000 3000.000000"
 preserveAspectRatio="xMidYMid meet">

<g transform="translate(0.000000,3000.000000) scale(0.100000,-0.100000)"
fill="#000000" stroke="none">
<path d="M15440 26336 c-243 -87 -212 -154 130 -282 53 -20 335 -122 425 -154
44 -16 176 -61 292 -100 267 -89 326 -115 321 -138 -2 -9 -11 -15 -19 -13 -8
1 -36 9 -64 17 -95 27 -177 45 -187 42 -5 -2 23 -23 62 -48 160 -101 314 -235
444 -386 89 -104 182 -268 166 -294 -6 -9 -51 -1 -191 33 -101 25 -254 59
-339 76 -85 17 -175 35 -200 41 -25 5 -74 14 -110 19 -36 6 -112 17 -170 26
-276 43 -697 81 -1022 91 -144 5 -221 11 -228 19 -5 6 -14 45 -21 86 -27 184
-118 269 -285 269 -50 0 -72 5 -102 24 -78 49 -142 60 -337 59 -179 -1 -346
-22 -540 -68 -33 -8 -118 -26 -190 -41 -159 -32 -185 -38 -305 -64 -277 -62
-484 -78 -556 -44 -31 15 -37 15 -91 -4 -32 -12 -92 -33 -133 -47 -41 -14
-122 -44 -180 -65 -154 -57 -350 -124 -470 -160 -58 -17 -116 -35 -130 -40
-14 -5 -70 -21 -125 -36 -55 -15 -172 -53 -260 -85 -88 -31 -218 -78 -290
-104 -323 -116 -413 -155 -568 -248 -284 -171 -506 -396 -572 -582 -23 -62
-38 -81 -73 -89 -15 -3 -101 -24 -192 -46 -91 -22 -192 -47 -225 -54 -254 -57
-568 -151 -640 -193 -50 -28 -214 -151 -325 -244 -129 -107 -305 -287 -387
-395 -80 -106 -295 -431 -368 -559 -85 -147 -185 -354 -185 -382 0 -74 47 -80
196 -28 119 41 147 43 179 10 38 -37 35 -87 -12 -255 -45 -161 -385 -689 -513
-796 -29 -25 -32 -25 -55 -10 -17 11 -25 26 -27 49 -3 67 5 153 18 197 22 72
1 66 -41 -13 -65 -122 -168 -285 -342 -544 -276 -411 -328 -484 -517 -725 -34
-42 -86 -113 -116 -158 -30 -44 -85 -122 -121 -173 -267 -374 -346 -488 -394
-568 -30 -49 -55 -91 -55 -93 0 -1 -26 -49 -58 -107 -145 -260 -188 -358 -211
-474 -34 -183 -42 -227 -51 -310 -13 -115 -52 -387 -85 -600 -14 -89 -36 -336
-51 -570 -14 -222 -23 -314 -33 -350 -13 -49 -13 -390 0 -465 6 -30 16 -152
23 -270 19 -287 32 -411 62 -560 75 -375 132 -587 202 -750 41 -96 96 -198
119 -220 14 -14 15 -11 9 30 -3 25 -13 81 -22 125 -21 109 -44 368 -34 379 16
17 37 -3 44 -41 11 -63 59 -169 98 -216 49 -59 90 -77 177 -77 139 0 199 -57
261 -249 48 -151 90 -379 130 -701 23 -191 6 -322 -50 -372 -29 -27 -34 -28
-149 -28 -97 0 -123 -3 -136 -16 -9 -10 -13 -24 -10 -33 4 -9 24 -63 45 -121
45 -126 104 -263 131 -306 32 -52 27 -57 -48 -50 -127 12 -158 17 -190 32 -17
8 -49 14 -71 14 -23 0 -44 5 -47 10 -3 6 -21 10 -39 10 -18 0 -41 7 -52 15
-10 8 -34 15 -52 15 -19 0 -46 6 -60 14 -27 14 -210 63 -269 73 -39 6 -55 -18
-29 -46 9 -10 16 -26 16 -37 0 -21 44 -74 62 -74 29 0 98 -43 98 -61 0 -10 9
-35 19 -56 11 -21 34 -72 51 -113 40 -92 46 -100 77 -100 27 0 62 -35 63 -62
0 -9 4 -19 9 -23 5 -3 13 -19 16 -36 6 -25 17 -36 61 -56 29 -13 63 -37 74
-54 12 -16 30 -29 41 -29 11 0 33 -6 48 -14 15 -8 42 -14 59 -14 17 1 37 -4
44 -9 7 -6 32 -13 56 -16 61 -7 92 -31 92 -68 0 -44 25 -85 57 -94 15 -4 75
-11 133 -16 199 -17 249 -24 264 -39 38 -41 181 -334 171 -350 -12 -19 -33
-10 -62 27 -22 26 -35 34 -48 30 -18 -7 -18 -18 0 -90 9 -35 -9 -38 -130 -26
-55 5 -138 13 -185 17 -47 4 -92 11 -100 17 -8 5 -37 12 -65 16 -27 3 -56 8
-64 10 -26 7 -23 -30 3 -62 23 -27 26 -39 26 -111 0 -61 -4 -86 -16 -99 -15
-16 -14 -20 11 -53 l26 -35 281 0 c192 -1 285 -5 294 -12 8 -6 14 -23 14 -36
0 -33 95 -191 193 -322 44 -58 80 -112 81 -121 1 -11 -14 -16 -59 -20 -56 -5
-60 -7 -63 -32 -3 -28 27 -58 59 -58 23 0 47 -30 51 -64 3 -28 14 -39 51 -50
16 -5 17 -47 15 -743 l-3 -738 -63 -3 c-44 -2 -69 2 -84 13 -15 10 -45 15 -88
15 -41 1 -72 6 -84 15 -28 21 -230 21 -270 0 -15 -8 -37 -15 -48 -15 -10 0
-36 -9 -58 -20 -22 -11 -45 -20 -51 -20 -7 0 -27 -11 -45 -25 -18 -14 -38 -25
-45 -25 -6 0 -27 -13 -46 -30 -18 -16 -41 -30 -51 -31 -9 0 -30 -9 -47 -19
-45 -28 -110 -60 -122 -60 -6 0 -16 -6 -22 -14 -17 -21 -90 -27 -356 -32 -134
-3 -244 -9 -249 -14 -6 -6 -17 -10 -26 -10 -9 0 -27 -11 -40 -25 -13 -14 -30
-25 -38 -25 -7 0 -42 -25 -75 -55 -34 -30 -69 -55 -78 -55 -9 0 -22 -7 -29
-15 -7 -8 -19 -15 -27 -15 -8 0 -29 -10 -46 -23 -18 -13 -64 -36 -103 -51 -82
-32 -99 -31 -248 20 -54 18 -125 38 -158 44 -112 21 -122 29 -189 170 -39 81
-58 132 -55 146 10 38 204 264 227 264 4 0 29 14 54 31 47 32 47 32 138 24
132 -10 134 -10 222 15 67 19 96 21 176 17 68 -4 112 -2 150 8 30 8 87 17 127
20 40 2 77 7 82 10 15 9 40 -7 40 -27 0 -17 4 -19 26 -14 19 5 30 2 39 -10 16
-23 50 -11 40 14 -23 53 6 81 45 42 15 -15 28 -19 43 -14 31 9 31 9 12 37 -12
18 -13 27 -5 32 19 12 58 -15 72 -49 17 -42 48 -76 69 -76 24 0 41 33 33 65
-6 22 -3 25 23 25 34 0 68 32 60 54 -7 17 20 36 40 29 17 -6 26 16 13 32 -10
12 -5 17 28 30 22 9 43 23 46 31 8 20 -23 34 -52 23 -22 -8 -30 -5 -58 27 -25
26 -38 34 -51 29 -25 -10 -103 -27 -132 -29 -36 -2 -37 21 -2 39 17 8 31 20
31 25 0 21 -38 8 -74 -25 -21 -19 -40 -35 -42 -35 -11 0 -2 41 10 46 8 3 11
15 8 30 -5 29 -18 31 -32 4 -6 -11 -19 -20 -30 -20 -11 0 -24 -9 -31 -21 -8
-15 -18 -20 -36 -16 -14 2 -49 -4 -79 -14 -29 -11 -59 -19 -66 -19 -7 1 -25
18 -40 39 -21 32 -38 43 -92 60 -83 27 -94 26 -102 -4 -3 -14 -13 -29 -22 -34
-14 -8 -14 -11 -2 -26 12 -14 10 -19 -16 -40 -45 -37 -140 -69 -239 -80 -33
-4 -67 -11 -76 -16 -9 -5 -57 -13 -107 -19 -50 -5 -97 -13 -105 -16 -18 -7
-53 29 -62 64 -11 43 -61 107 -181 230 -63 64 -113 123 -112 131 2 11 137 76
273 132 11 4 54 22 95 38 41 17 78 31 82 31 4 0 50 20 100 43 106 50 161 69
268 92 41 9 91 20 111 26 47 12 89 12 89 -1 0 -5 -7 -10 -15 -10 -8 0 -15 -4
-15 -10 0 -13 13 -13 26 -1 5 5 25 11 44 13 27 2 35 7 35 23 0 19 7 20 177 22
l176 3 21 -36 c26 -43 26 -47 2 -39 -25 7 -37 -11 -20 -31 8 -10 21 -13 37 -9
16 4 31 0 44 -12 19 -17 21 -17 43 11 13 16 21 35 18 43 -6 16 13 18 23 2 3
-6 24 -9 45 -7 42 4 48 -2 24 -22 -8 -7 -12 -17 -9 -22 8 -12 64 0 85 18 8 8
30 14 47 14 21 0 32 5 32 14 0 26 20 28 57 5 35 -22 37 -22 65 -6 16 9 35 17
43 17 7 0 18 6 24 13 8 11 6 20 -9 37 -19 22 -19 24 -4 42 10 10 17 31 16 47
0 23 5 30 24 35 20 5 25 12 22 34 -3 29 -14 31 -85 16 -29 -5 -33 -3 -39 20
-6 27 -23 33 -40 16 -7 -7 -9 -1 -6 21 4 25 8 30 25 25 22 -5 77 19 77 34 0 5
-16 12 -35 16 -30 5 -34 9 -29 28 3 14 -2 31 -13 45 l-18 22 -28 -21 -28 -22
-25 23 c-18 17 -38 24 -67 25 -62 1 -90 11 -110 39 -24 32 -54 32 -69 0 -14
-31 -20 -31 -33 -2 -14 31 -51 35 -58 5 l-7 -23 -15 23 c-9 12 -25 22 -36 22
-18 0 -20 4 -14 33 4 17 8 37 9 42 0 6 -18 11 -41 13 -32 2 -46 9 -54 25 -17
31 -70 77 -89 77 -10 0 -29 -9 -43 -20 -14 -11 -30 -20 -35 -20 -18 0 -24 -20
-11 -36 18 -22 -9 -39 -32 -18 -10 9 -37 14 -77 14 -66 0 -83 11 -58 39 15 17
15 20 -2 41 -24 29 -49 21 -63 -20 -7 -18 -18 -30 -29 -30 -10 0 -25 -3 -33
-6 -10 -3 -18 2 -22 15 -9 28 -31 26 -51 -4 -20 -30 -34 -31 -57 -5 -21 25
-33 25 -47 0 -12 -22 -40 -26 -58 -8 -19 19 -14 38 11 38 29 0 37 7 30 26 -6
16 -63 19 -63 4 0 -15 -27 -12 -33 5 -8 18 -85 70 -94 61 -3 -3 -1 -16 6 -29
16 -31 17 -83 1 -102 -19 -23 -44 -18 -67 14 -31 41 -60 45 -89 14 -19 -20
-27 -24 -36 -15 -18 18 -26 15 -30 -10 -2 -17 -11 -24 -31 -26 -38 -5 -63 -43
-47 -73 9 -17 9 -27 -1 -45 -9 -18 -10 -30 -1 -49 11 -24 10 -25 -21 -25 -31
0 -77 -29 -77 -49 0 -17 26 -30 48 -25 13 4 31 -2 48 -15 21 -16 30 -18 46
-10 24 13 82 4 98 -16 15 -18 -3 -86 -28 -102 -49 -30 -194 -103 -206 -103 -7
0 -25 -14 -42 -31 -49 -54 -202 -147 -261 -160 -29 -7 -58 -18 -64 -26 -14
-16 -35 -17 -44 -3 -4 6 -10 70 -14 143 -9 143 -16 164 -88 254 -18 23 -33 48
-33 56 0 19 65 129 89 151 17 15 20 15 42 -3 24 -20 24 -20 7 -51 -27 -48 -24
-60 20 -59 20 1 65 -1 99 -4 61 -5 63 -5 63 18 0 13 -8 28 -17 34 -15 8 -16
12 -4 35 12 22 12 28 -2 49 -22 34 -67 42 -89 16 -9 -10 -18 -25 -20 -31 -3
-8 -14 -5 -32 10 l-28 21 25 12 c14 6 28 21 31 33 4 16 8 18 18 8 17 -17 38
-15 38 3 0 8 -7 15 -15 15 -21 0 -19 33 3 52 9 9 37 22 62 29 95 27 167 96
192 183 14 52 31 66 73 59 28 -5 46 3 120 52 48 31 106 65 129 75 55 25 171
36 191 20 17 -14 20 -50 5 -50 -15 0 -1 -52 21 -75 15 -15 21 -17 31 -7 9 9 9
17 -2 36 -11 21 -11 28 0 41 7 8 19 15 27 15 10 0 11 5 4 19 -6 10 -7 21 -4
25 11 10 48 7 61 -6 18 -18 14 -38 -7 -38 -19 0 -37 -42 -26 -60 12 -19 26
-10 41 26 18 43 37 40 44 -7 4 -26 10 -35 28 -37 20 -3 22 0 17 21 -5 20 -2
27 14 32 28 9 26 17 -9 44 -17 12 -28 26 -25 32 11 16 73 10 92 -10 10 -10 31
-26 47 -37 28 -18 29 -18 46 4 19 23 35 28 44 13 3 -5 -11 -18 -31 -28 -41
-22 -54 -43 -26 -43 10 0 29 -7 42 -16 16 -12 26 -13 33 -6 6 6 24 8 39 5 37
-7 59 11 59 48 0 31 10 35 39 19 14 -7 23 -5 36 10 13 15 22 17 36 10 10 -6
29 -10 42 -10 14 0 30 -7 37 -15 18 -22 43 -18 70 10 27 29 37 31 60 10 10 -9
41 -17 77 -18 32 -2 65 -7 72 -11 7 -5 24 -3 37 4 19 11 29 11 50 1 22 -10 31
-9 50 4 13 8 24 24 24 35 0 20 1 20 31 4 58 -30 102 4 63 48 -14 14 -14 20 -4
33 7 8 10 21 7 29 -3 8 4 18 19 25 25 11 31 26 14 36 -20 12 -68 -24 -80 -61
-8 -23 -16 -32 -22 -26 -6 6 -4 20 6 40 9 17 16 37 16 45 0 8 7 20 15 27 14
12 21 50 10 50 -3 0 -20 -10 -37 -22 -24 -18 -32 -20 -36 -9 -11 31 -43 51
-83 51 -48 0 -99 32 -99 61 0 18 -6 20 -40 18 -50 -4 -70 13 -47 39 22 24 22
25 -11 60 -24 26 -36 30 -75 30 -48 -1 -62 -12 -27 -21 12 -3 20 -14 20 -27 0
-22 -1 -22 -22 -6 -13 9 -34 22 -48 28 -14 6 -36 28 -50 49 -13 22 -28 39 -32
39 -20 0 -5 28 17 34 16 4 25 13 25 26 0 16 -7 20 -31 20 -17 0 -37 7 -46 16
-28 28 -40 0 -21 -51 l17 -45 -33 -25 c-33 -25 -66 -33 -66 -16 0 5 7 11 15
15 8 3 15 12 15 21 0 12 -8 14 -42 9 -24 -4 -48 -11 -55 -16 -7 -5 -27 -8 -45
-7 -18 2 -46 -1 -61 -5 -16 -5 -32 -5 -38 1 -11 11 -15 73 -5 96 14 29 -25 20
-61 -15 -31 -30 -34 -31 -51 -15 -10 9 -26 17 -35 17 -10 0 -17 8 -17 20 0 24
4 25 35 4 29 -19 66 -13 92 15 10 10 27 21 38 23 11 2 21 11 23 21 5 23 -40
40 -74 27 -45 -17 -123 -12 -151 10 -30 24 -51 26 -59 5 -5 -11 -11 -12 -24
-5 -32 17 -35 11 -8 -17 14 -16 28 -39 30 -53 3 -14 9 -33 13 -44 14 -33 -36
-9 -77 37 -21 23 -51 57 -68 75 -34 37 -40 78 -11 87 28 9 36 37 14 53 -12 8
-31 11 -55 7 -37 -7 -38 -6 -38 24 0 35 -22 42 -51 15 -14 -13 -20 -13 -38 -2
-17 10 -25 10 -42 0 -17 -11 -24 -11 -43 2 -28 18 -145 11 -153 -10 -5 -13 33
-84 45 -84 3 0 13 7 23 16 14 12 25 14 45 7 42 -14 42 -33 0 -33 -19 0 -38 -4
-41 -10 -3 -5 -17 -10 -31 -10 -19 0 -24 5 -24 24 0 17 -11 31 -36 47 -33 20
-35 23 -19 35 24 17 10 34 -28 34 -25 0 -36 7 -49 30 -12 21 -25 30 -43 30
-28 0 -31 -10 -13 -40 18 -28 3 -36 -38 -21 -32 12 -38 11 -58 -8 -27 -26 -46
-27 -46 -3 -1 41 -17 44 -40 7 -21 -34 -25 -36 -68 -33 -57 4 -77 28 -46 57
12 10 32 21 45 23 18 2 24 9 24 28 0 35 -42 42 -50 7 -5 -19 -11 -23 -36 -19
-17 3 -41 -1 -53 -8 -19 -10 -29 -9 -54 4 -17 9 -41 16 -53 16 -22 0 -23 -9
-3 -76 6 -22 2 -22 -66 -16 -9 1 -22 18 -29 37 -9 27 -18 35 -36 35 -15 0 -26
-7 -30 -21 -5 -16 -12 -19 -28 -14 -44 14 -62 11 -65 -11 -2 -15 7 -29 27 -44
24 -17 29 -25 22 -39 -13 -23 -88 -17 -96 9 -11 35 -31 43 -65 25 -29 -15 -33
-15 -49 -1 -18 16 -81 22 -81 8 0 -5 13 -21 30 -37 33 -31 31 -48 -5 -39 -14
3 -33 -1 -48 -11 -24 -16 -26 -15 -37 4 -6 12 -17 21 -25 21 -22 0 -18 -34 5
-55 11 -10 20 -24 20 -31 0 -7 6 -14 13 -17 7 -2 8 -8 3 -13 -5 -5 -11 -4 -13
4 -6 17 -58 15 -73 -3 -17 -21 -3 -53 31 -71 23 -12 28 -18 20 -28 -19 -22
-82 -28 -103 -9 -24 22 -50 10 -43 -20 5 -17 2 -26 -9 -30 -29 -11 -46 4 -46
39 0 40 -19 52 -56 35 -21 -9 -30 -8 -51 9 -30 24 -53 26 -53 5 0 -9 24 -26
56 -41 52 -24 55 -27 41 -42 -15 -14 -18 -14 -35 1 -24 21 -72 23 -72 2 0 -8
5 -15 10 -15 6 0 15 -11 20 -25 11 -29 44 -34 58 -9 5 9 14 14 21 10 20 -13
12 -35 -19 -51 -17 -9 -30 -23 -30 -35 0 -26 -18 -35 -38 -17 -22 19 -62 31
-62 18 0 -5 5 -13 10 -16 15 -9 12 -45 -4 -45 -21 0 -39 28 -33 52 5 20 -2 27
-44 47 -45 22 -51 23 -65 9 -13 -12 -14 -20 -5 -37 7 -11 18 -21 26 -21 8 0
15 -6 15 -14 0 -11 -11 -14 -42 -13 -44 2 -41 5 -80 -75 -14 -31 -9 -47 20
-54 59 -13 62 -15 62 -44 0 -23 5 -31 26 -36 18 -5 31 -1 42 10 16 16 15 18
-6 35 -29 22 -16 36 45 46 35 5 45 3 63 -15 12 -12 50 -35 85 -51 72 -34 87
-60 49 -85 -30 -20 -31 -40 -3 -55 l21 -11 -22 -23 c-27 -29 -20 -55 15 -55
15 0 25 -6 25 -14 0 -17 -21 -26 -59 -26 -34 0 -44 -9 -29 -27 9 -11 8 -18 -4
-29 -14 -14 -21 -13 -67 7 -28 12 -54 19 -58 16 -13 -14 9 -95 32 -117 29 -27
46 -22 104 31 25 23 50 38 58 35 8 -4 17 -6 19 -6 11 0 2 -46 -13 -63 -17 -18
-16 -20 15 -45 18 -15 32 -34 32 -43 0 -9 7 -19 15 -23 9 -3 15 -19 15 -41 l0
-35 -47 5 c-27 2 -57 5 -68 7 -18 3 -20 -3 -21 -49 -1 -29 2 -53 5 -53 3 0 17
9 31 20 14 11 30 20 37 20 23 0 25 -22 3 -37 -19 -13 -21 -22 -17 -55 l5 -39
-21 21 c-12 12 -38 32 -57 44 -28 18 -35 28 -33 51 3 44 -14 58 -63 50 -26 -4
-45 -2 -49 5 -10 16 14 40 41 40 24 0 35 19 12 21 -29 3 -64 -4 -75 -13 -9 -7
-18 -7 -28 2 -13 10 -19 10 -35 -5 -27 -24 -25 -43 5 -57 43 -19 31 -38 -24
-38 -47 0 -50 2 -53 28 -4 32 -37 42 -58 17 -19 -23 -40 -18 -40 9 0 35 -26
40 -53 10 l-23 -25 -19 21 c-10 11 -24 20 -32 20 -21 0 -15 -37 8 -54 15 -10
19 -20 14 -35 -7 -23 -43 -28 -76 -10 -43 22 -68 -37 -29 -69 17 -15 18 -21 8
-59 -7 -24 -18 -43 -25 -43 -6 0 -24 16 -39 35 -25 33 -54 47 -54 25 0 -5 -9
-10 -20 -10 -25 0 -25 9 -2 26 23 17 5 48 -32 52 -17 2 -31 13 -41 33 -13 23
-22 29 -50 29 -18 0 -37 5 -40 10 -3 6 -15 10 -25 10 -28 0 -15 -26 21 -40 22
-10 29 -19 29 -41 0 -22 7 -32 30 -44 16 -8 40 -29 52 -45 13 -18 31 -30 45
-30 29 0 29 -11 1 -37 -20 -17 -28 -18 -61 -8 -33 9 -37 13 -24 23 8 7 13 21
10 33 -5 17 -11 19 -42 14 -30 -5 -41 -2 -56 14 -35 40 -67 20 -70 -43 -2 -61
12 -73 66 -57 65 20 81 -4 24 -38 -23 -13 -35 -28 -35 -42 0 -21 15 -23 69 -8
9 2 17 -4 19 -16 8 -34 50 -65 85 -62 27 2 32 -1 30 -20 -3 -29 19 -45 52 -37
25 6 57 42 54 60 -7 38 17 45 44 14 9 -11 31 -23 47 -27 36 -7 39 -30 5 -43
-36 -14 -31 -30 10 -30 19 0 35 -5 35 -10 0 -6 12 -15 26 -20 23 -9 30 -7 52
17 l25 27 15 -22 c8 -12 25 -22 37 -22 12 0 28 -7 35 -15 9 -11 23 -14 46 -9
22 4 42 0 63 -12 28 -17 31 -17 49 -1 10 9 35 17 55 17 29 0 36 4 39 23 3 19
9 22 56 24 42 1 54 -2 62 -18 6 -11 21 -19 37 -19 20 0 23 -3 14 -13 -8 -11
-5 -16 15 -26 22 -10 31 -8 58 7 17 10 32 28 34 40 2 12 9 22 15 23 7 0 26 2
42 2 30 2 30 3 31 60 l2 59 -33 -4 -32 -4 21 33 c25 39 34 41 46 8 8 -20 16
-25 46 -25 21 0 60 7 88 16 l51 16 125 -64 c69 -35 149 -74 177 -86 29 -12 60
-33 68 -46 10 -15 21 -77 31 -166 8 -79 17 -147 20 -152 12 -19 -20 -37 -94
-53 -42 -9 -105 -23 -139 -32 -34 -8 -66 -12 -72 -9 -6 4 -18 22 -27 41 -11
25 -23 35 -39 35 -12 0 -28 7 -35 15 -7 8 -21 15 -31 15 -10 0 -21 5 -24 11
-4 6 -23 9 -42 7 -28 -2 -39 2 -51 20 -14 21 -13 22 21 22 44 0 54 13 33 45
-21 32 -41 32 -62 0 -9 -14 -19 -25 -23 -25 -3 0 -19 20 -34 45 -16 25 -33 45
-38 45 -15 0 -39 -57 -39 -93 0 -34 -26 -67 -63 -80 -14 -5 -17 -15 -15 -39 3
-37 -19 -48 -57 -28 -24 13 -63 10 -125 -9 -228 -68 -266 -71 -253 -20 4 13
14 19 33 19 62 0 62 60 1 96 -17 10 -31 22 -31 26 0 17 30 19 45 4 21 -20 34
-20 56 0 12 11 19 12 24 4 4 -7 -2 -14 -14 -17 -12 -3 -21 -13 -21 -22 0 -20
43 -61 64 -61 17 0 37 39 28 54 -3 5 2 14 11 20 8 7 17 21 19 31 2 16 -4 21
-30 23 -18 2 -43 14 -57 28 -13 13 -32 24 -41 24 -10 0 -14 5 -10 15 11 29 -4
46 -36 40 -23 -5 -35 -2 -54 16 -22 21 -26 21 -40 7 -18 -18 -9 -68 12 -68 8
0 14 -7 14 -15 0 -16 -20 -20 -35 -6 -6 4 -23 12 -40 15 l-29 7 19 -23 c11
-13 24 -26 29 -29 11 -9 -2 -49 -17 -49 -6 0 -21 12 -33 28 -28 34 -51 21 -35
-20 8 -21 6 -29 -8 -42 -21 -19 -35 -20 -60 -4 -26 16 -55 3 -43 -18 6 -10 5
-30 -1 -51 -9 -30 -14 -33 -36 -28 -37 9 -44 20 -29 44 11 18 10 24 -15 48
-23 24 -30 26 -45 15 -33 -24 -43 -24 -66 -3 -26 25 -49 27 -66 6 -17 -21 -6
-41 27 -48 15 -3 41 -17 58 -31 l30 -24 -24 -19 -24 -20 31 -21 c36 -26 48
-27 94 -8 30 13 38 13 62 0 16 -8 36 -14 45 -14 9 0 29 -7 44 -15 25 -13 45
-12 175 4 81 11 194 27 251 37 98 17 105 17 133 1 34 -19 51 -21 76 -7 53 29
157 70 177 70 13 0 48 -14 76 -31 75 -44 190 -102 218 -111 15 -4 52 0 95 12
39 11 111 25 159 31 l88 12 107 -110 c59 -60 152 -143 207 -184 107 -80 117
-96 91 -147 -29 -57 -71 -95 -181 -167 -150 -97 -276 -220 -303 -297 -53 -145
-104 -189 -257 -223 -150 -33 -243 -65 -356 -124 -248 -127 -230 -120 -399
-166 -36 -9 -86 -23 -112 -31 -26 -8 -56 -14 -68 -14 -12 0 -29 -4 -39 -9 -9
-5 -46 -14 -82 -19 -35 -6 -109 -17 -164 -26 -109 -16 -159 -31 -151 -44 4 -7
3381 -28 3606 -23 540 13 652 12 670 -4 16 -14 101 -15 971 -10 525 3 1163 8
1419 11 320 4 493 2 555 -6 50 -6 142 -12 205 -14 63 -2 178 -9 255 -15 133
-11 1004 -20 5010 -54 1960 -16 9475 -16 10540 1 424 6 964 12 1200 13 361 1
434 4 454 16 13 8 20 10 17 4 -5 -8 161 -11 606 -11 337 0 739 -3 893 -6 170
-3 311 -2 360 5 44 5 162 18 263 27 100 10 182 22 182 28 0 5 -8 18 -17 28 -9
10 -33 51 -52 91 -38 75 -74 105 -131 107 -14 0 -34 7 -44 15 -11 8 -30 15
-43 15 -13 0 -23 3 -23 8 0 4 -17 16 -37 27 -132 68 -224 167 -312 334 -40 76
-91 215 -91 251 0 14 -7 34 -15 44 -8 11 -15 32 -15 47 0 35 -21 74 -54 100
-20 16 -36 20 -69 16 -76 -8 -190 -58 -213 -93 -9 -13 -24 -24 -33 -24 -10 0
-28 -11 -40 -24 -13 -13 -34 -27 -48 -31 -22 -5 -24 -9 -19 -41 6 -30 4 -35
-19 -44 -14 -5 -28 -18 -32 -27 -10 -27 -17 -29 -85 -28 l-63 1 -5 434 c-3
239 -7 436 -8 438 -1 1 -11 2 -21 2 -20 0 -31 -18 -31 -51 0 -17 -8 -19 -83
-19 -87 0 -104 7 -120 53 -10 26 -27 11 -27 -24 l0 -29 -100 0 c-72 0 -102 4
-104 12 -2 7 -8 29 -15 48 -15 45 -17 628 -2 643 6 6 95 10 218 11 l208 1 1
67 c0 51 5 72 19 88 10 11 24 19 30 16 7 -2 18 0 26 5 12 8 11 12 -3 23 -13 9
-18 27 -18 62 0 62 19 77 115 86 87 8 213 32 250 48 25 10 168 80 204 99 49
26 121 93 121 112 0 10 4 19 10 19 5 0 21 17 35 38 14 20 37 52 50 71 14 19
25 46 25 61 0 16 7 30 15 34 19 7 19 30 0 46 -13 11 -22 10 -51 -3 -19 -10
-46 -17 -59 -17 -13 0 -27 -4 -30 -10 -3 -5 -26 -10 -49 -10 -25 0 -48 -6 -55
-14 -13 -15 -48 -21 -236 -37 -191 -17 -578 -9 -599 12 -6 5 -33 9 -60 9 -28
1 -62 7 -76 15 -14 8 -42 14 -62 15 -20 0 -40 5 -43 10 -3 6 -19 10 -34 10
-16 0 -34 7 -41 15 -7 8 -27 15 -44 15 -17 0 -40 7 -50 15 -11 8 -28 15 -39
15 -35 0 -160 43 -207 71 -8 5 -22 12 -30 15 -8 3 -22 10 -30 15 -8 5 -22 12
-30 15 -51 20 -150 63 -172 75 -10 5 -24 9 -32 9 -7 0 -19 7 -26 15 -7 8 -19
15 -27 15 -8 0 -27 9 -41 21 -47 36 -103 69 -116 69 -7 0 -23 11 -35 24 -21
22 -22 31 -20 170 2 129 0 149 -16 166 -21 23 -32 17 -37 -20 -3 -24 -6 -25
-83 -28 -101 -4 -129 3 -122 28 7 29 -16 44 -35 22 -8 -9 -18 -25 -21 -34 -7
-20 -61 -25 -72 -8 -6 10 -7 671 -1 677 2 2 72 3 157 3 162 -1 221 -2 242 -1
6 0 50 -1 97 -3 47 -2 90 1 97 6 7 5 18 6 25 1 7 -4 165 -8 351 -9 289 -1 339
1 346 13 7 13 9 13 14 -1 5 -13 23 -16 96 -16 62 0 91 4 93 12 3 9 10 8 23 -5
13 -14 26 -17 49 -12 34 6 32 6 129 2 81 -4 91 6 86 86 -4 59 4 77 32 77 16 0
19 7 19 50 0 68 20 90 81 90 28 0 51 6 58 14 7 8 37 16 69 19 63 5 106 14 137
27 11 5 36 11 56 15 20 3 55 19 78 35 22 17 45 30 50 30 24 0 201 165 220 206
7 16 17 36 22 44 5 8 19 33 30 55 11 22 25 47 31 56 6 9 8 24 5 33 -5 14 -14
16 -44 10 -21 -3 -42 -10 -48 -15 -5 -5 -23 -9 -41 -9 -17 0 -37 -7 -44 -15
-7 -9 -29 -15 -54 -15 -23 0 -51 -7 -63 -15 -26 -18 -26 -18 -428 -18 -184 0
-348 5 -385 11 -36 6 -83 14 -105 17 -22 4 -54 13 -72 21 -17 8 -45 14 -61 14
-17 0 -34 5 -37 10 -3 6 -21 10 -39 10 -19 0 -39 7 -46 15 -7 8 -21 15 -32 15
-24 0 -150 40 -162 51 -6 5 -20 9 -32 9 -12 0 -27 7 -34 15 -7 8 -21 15 -32
15 -17 0 -179 74 -238 109 -8 5 -28 14 -45 21 -16 7 -37 16 -45 21 -8 5 -24
13 -36 18 -11 5 -38 21 -59 35 -21 14 -44 26 -52 26 -8 0 -28 9 -44 21 l-30
21 2 165 c1 126 -1 167 -11 173 -22 13 -40 0 -40 -30 0 -16 -7 -30 -16 -34
-22 -8 -167 -7 -181 2 -6 4 -13 21 -15 37 -2 22 -8 30 -23 30 -15 0 -21 -8
-23 -32 -3 -35 -27 -49 -62 -38 -19 6 -20 15 -20 355 l0 348 43 6 c23 3 49 6
57 5 17 0 179 0 195 1 6 0 27 -3 48 -6 22 -4 43 -2 51 5 8 7 17 8 20 3 7 -12
167 -12 183 0 7 6 18 6 25 1 10 -6 444 -17 551 -13 50 1 65 1 93 -5 21 -5 35
-2 46 9 13 13 18 13 27 2 12 -14 157 -17 179 -3 7 5 18 4 25 -1 7 -5 67 -9
134 -9 l123 1 6 34 c4 18 4 51 1 72 -4 31 -1 43 17 59 12 12 30 21 39 21 18 0
23 25 7 35 -5 3 -10 28 -10 54 0 66 19 77 141 84 122 8 121 8 144 23 11 8 30
14 42 14 21 0 40 7 83 32 8 4 22 11 30 14 50 21 101 47 106 55 3 5 13 9 22 9
17 0 78 57 152 141 45 52 90 131 90 158 0 9 7 26 15 37 16 21 19 50 6 58 -4 3
-25 -4 -47 -14 -21 -11 -51 -20 -66 -20 -15 0 -30 -4 -33 -10 -3 -5 -25 -10
-48 -10 -23 0 -51 -7 -61 -15 -11 -8 -37 -15 -57 -15 -21 0 -41 -4 -44 -10 -3
-6 -50 -10 -104 -10 -75 0 -101 -4 -111 -15 -17 -21 -243 -21 -280 0 -17 10
-57 14 -127 15 -57 0 -105 4 -108 10 -3 6 -30 10 -59 10 -30 0 -60 6 -72 15
-10 8 -35 15 -55 15 -19 0 -44 7 -55 15 -10 8 -28 15 -38 15 -11 0 -33 4 -50
9 -17 5 -51 15 -76 21 -25 7 -53 16 -62 21 -10 5 -31 9 -47 9 -16 0 -34 7 -41
15 -7 8 -20 15 -30 15 -10 0 -23 7 -30 15 -7 8 -19 15 -26 15 -8 0 -22 4 -32
9 -24 12 -61 26 -107 41 -22 7 -54 23 -72 36 -17 13 -38 24 -46 24 -8 0 -20 7
-27 15 -7 8 -18 15 -25 15 -6 0 -32 11 -56 25 -55 30 -126 65 -134 65 -3 0
-18 11 -33 25 -15 14 -34 25 -43 25 -8 0 -28 14 -44 30 -16 17 -34 30 -40 30
-7 0 -31 14 -53 30 -23 17 -45 30 -50 30 -4 0 -23 13 -42 30 -19 16 -42 29
-50 30 -8 0 -42 25 -75 56 -33 30 -73 62 -90 71 -28 15 -117 90 -242 206 -29
26 -66 53 -83 58 -19 7 -30 18 -30 30 0 11 -36 49 -91 96 -86 73 -95 78 -148
83 l-56 5 -1 119 c-1 89 -5 120 -15 127 -8 5 -56 9 -106 9 l-93 0 -1 28 c0 15
-9 41 -20 57 -10 17 -24 42 -30 57 -5 14 -23 32 -39 38 -48 20 -46 42 9 114
28 36 51 74 51 84 0 10 7 27 15 38 16 21 20 109 6 118 -5 3 -14 -1 -21 -9 -17
-20 -32 -19 -80 6 -41 21 -41 22 -38 73 l3 51 55 3 c62 4 75 11 65 41 -5 17
-16 21 -63 23 l-57 3 -3 68 -3 67 38 0 c25 0 48 8 68 24 27 21 28 26 17 50
-10 23 -17 26 -60 26 -27 0 -57 7 -70 16 -20 14 -23 23 -20 67 l3 52 55 6 c65
7 86 15 95 37 11 29 -30 56 -93 62 l-57 5 0 65 0 65 60 5 c56 5 60 7 60 30 0
22 -5 25 -40 28 -58 5 -85 34 -85 93 0 39 5 51 26 68 14 11 32 17 40 14 8 -3
25 -2 39 1 18 5 25 13 25 31 0 27 -13 33 -85 37 l-40 3 0 65 0 65 39 3 c74 6
113 57 64 84 -13 6 -41 14 -63 17 l-40 6 -3 53 c-4 64 7 80 54 79 45 -1 85 34
68 61 -9 13 -23 16 -62 14 -50 -3 -51 -3 -71 37 -12 22 -21 50 -21 61 0 33 46
70 87 68 36 -1 55 15 50 42 -2 11 -19 16 -65 18 -70 3 -76 11 -70 93 l3 44 49
6 c35 4 54 12 68 29 28 35 19 54 -27 60 -22 3 -52 13 -67 24 l-28 18 0 373 c0
319 2 374 15 385 8 7 15 20 15 30 0 10 7 23 15 30 10 8 15 30 15 64 0 55 -2
59 -42 95 -27 24 -28 24 -48 6 -11 -10 -20 -24 -20 -32 0 -7 -7 -16 -15 -19
-10 -4 -15 -20 -15 -52 0 -36 6 -53 28 -77 l27 -30 -5 -405 -5 -405 -46 -3
c-31 -2 -53 -10 -65 -23 -17 -19 -17 -20 4 -41 13 -14 39 -24 69 -28 l47 -5
-1 -57 c-1 -32 -2 -62 -2 -68 -1 -5 -29 -10 -63 -12 -60 -3 -63 -4 -63 -28 0
-23 4 -25 60 -30 l60 -5 7 -60 c8 -77 -11 -102 -81 -107 -35 -2 -47 -7 -49
-21 -6 -31 17 -47 69 -47 43 0 51 -3 60 -24 15 -32 3 -93 -21 -106 -10 -5 -34
-10 -52 -10 -27 0 -39 -7 -57 -31 l-24 -32 24 -18 c13 -10 42 -19 64 -21 l40
-3 0 -65 0 -65 -60 -5 c-56 -5 -60 -7 -63 -32 -3 -24 1 -28 31 -33 18 -4 40
-6 48 -5 48 7 50 4 47 -82 l-3 -83 -63 -3 c-62 -3 -63 -3 -60 -30 3 -25 7 -27
63 -32 l60 -5 0 -65 0 -65 -60 -5 c-59 -5 -60 -5 -63 -38 -5 -47 13 -64 63
-61 57 4 65 -4 65 -65 0 -64 -15 -81 -64 -73 -35 6 -96 -22 -96 -43 0 -28 53
-59 103 -62 l52 -3 3 -46 c3 -41 -1 -50 -24 -68 -20 -16 -35 -19 -64 -15 -27
4 -41 2 -54 -11 -31 -32 -16 -50 44 -53 71 -4 102 -30 98 -82 l-3 -35 -71 -3
c-56 -2 -76 -7 -89 -22 -17 -19 -17 -21 -1 -38 11 -14 14 -28 10 -51 -5 -24
-2 -39 15 -61 11 -16 21 -32 21 -35 0 -3 16 -19 35 -36 52 -46 48 -77 -21
-149 -44 -47 -54 -63 -49 -80 5 -15 0 -29 -16 -46 -20 -21 -31 -24 -95 -24
-108 0 -104 5 -104 -120 0 -130 -7 -140 -93 -140 -31 0 -58 4 -61 9 -6 8 -11
96 -36 531 -6 96 -17 373 -25 615 -8 242 -17 454 -20 470 -99 508 -328 1258
-505 1650 -5 11 -34 79 -65 150 -102 235 -259 543 -440 860 -58 102 -143 235
-272 429 -646 963 -1519 1799 -2483 2378 -273 163 -354 208 -364 198 -5 -5 -2
-20 8 -35 19 -30 14 -61 -13 -70 -10 -3 -45 2 -77 11 -96 26 -104 27 -104 14
0 -7 38 -52 85 -99 47 -48 85 -93 85 -99 0 -16 -26 -15 -81 2 -24 7 -62 18
-84 24 -112 30 -154 48 -262 113 -106 65 -172 102 -318 184 -27 15 -111 59
-185 97 -74 38 -141 76 -149 83 -20 20 -4 35 38 35 47 0 141 27 164 48 28 25
20 50 -30 100 -59 58 -148 117 -481 318 -272 164 -349 218 -388 270 -33 43
-40 93 -20 132 9 18 15 32 13 32 -9 0 -233 82 -320 116 -287 114 -481 225
-792 454 -185 136 -210 153 -321 209 -197 99 -402 170 -639 221 -55 11 -118
25 -140 30 -100 21 -168 20 -235 -4z m-3943 -1579 c16 -9 35 -23 43 -32 19
-23 2 -36 -95 -73 -100 -38 -322 -133 -357 -152 -63 -35 -63 17 0 64 26 19 88
76 137 126 l90 92 76 -5 c42 -3 89 -12 106 -20z m-1057 -5577 l0 -150 485 0
485 0 0 -270 0 -270 -1245 0 -1245 0 0 270 0 270 485 0 485 0 0 150 0 150 275
0 275 0 0 -150z m2060 -85 l0 -235 -275 0 -275 0 0 235 0 235 275 0 275 0 0
-235z m7530 0 l0 -235 -275 0 -275 0 0 235 0 235 275 0 275 0 0 -235z m-11552
-467 c-4 -403 -5 -427 -26 -496 -46 -152 -130 -289 -243 -398 -116 -111 -218
-172 -359 -214 -126 -38 -119 -29 -69 -86 172 -194 391 -306 642 -329 l77 -7
0 -271 0 -270 -112 6 c-449 26 -875 277 -1140 672 -110 164 -179 321 -225 515
-21 88 -26 139 -30 308 l-6 202 272 0 271 0 0 -115 c0 -136 -2 -133 101 -116
200 33 309 172 309 393 l0 78 -580 0 -580 0 0 -723 c0 -803 2 -778 -68 -911
-49 -94 -146 -191 -238 -239 -105 -54 -167 -67 -326 -67 l-138 0 0 270 0 270
99 0 c77 0 103 4 115 16 14 14 16 91 16 699 l0 684 -112 3 -113 3 -3 273 -2
272 1235 0 1236 0 -3 -422z m7310 -825 l2 -1243 -275 0 -275 0 0 100 0 100
-695 0 -695 0 0 -100 0 -100 -275 0 -275 0 0 1245 0 1245 1243 -2 1242 -3 3
-1242z m1650 975 l-3 -273 -199 -3 c-127 -1 -204 -6 -213 -13 -11 -9 -13 -140
-13 -700 l0 -689 605 0 605 0 0 975 0 975 275 0 275 0 0 -1345 0 -1345 -275 0
-275 0 0 100 0 100 -970 0 -970 0 0 270 0 270 90 0 90 0 0 703 c0 780 0 778
66 915 50 104 160 214 264 266 113 55 173 64 428 65 l222 1 -2 -272z m5790
-150 c-4 -403 -5 -427 -26 -496 -46 -152 -130 -289 -243 -398 -116 -111 -218
-172 -359 -214 -126 -38 -119 -29 -69 -86 172 -194 391 -306 642 -329 l77 -7
0 -271 0 -270 -112 6 c-449 26 -875 277 -1140 672 -110 164 -179 321 -225 515
-21 88 -26 139 -30 308 l-6 202 272 0 271 0 0 -115 c0 -136 -2 -133 101 -116
200 33 309 172 309 393 l0 78 -580 0 -580 0 0 -723 c0 -803 2 -778 -68 -911
-49 -94 -146 -191 -238 -239 -105 -54 -167 -67 -326 -67 l-138 0 0 270 0 270
99 0 c77 0 103 4 115 16 14 14 16 91 16 699 l0 684 -112 3 -113 3 -3 273 -2
272 1235 0 1236 0 -3 -422z m-10375 45 c2 -5 1 -128 -1 -275 l-4 -268 -179 0
-179 0 0 -1036 c0 -1152 3 -1092 -68 -1229 -48 -92 -145 -189 -237 -237 -104
-54 -171 -68 -329 -68 l-136 0 0 270 0 270 99 0 c77 0 103 4 115 16 14 14 16
145 16 1290 l0 1274 449 0 c248 0 452 -3 454 -7z m7529 0 c2 -5 2 -128 0 -275
l-3 -268 -179 0 -180 0 0 -530 c0 -343 -4 -548 -11 -582 -20 -97 -84 -214
-157 -287 -127 -126 -250 -171 -466 -171 l-136 0 0 270 0 270 99 0 c77 0 103
4 115 16 14 14 16 99 16 790 l0 774 449 0 c248 0 451 -3 453 -7z m-8972 -773
l0 -270 -780 0 c-630 0 -780 -2 -780 -13 0 -34 34 -137 65 -196 71 -135 188
-234 340 -288 l80 -28 538 -3 537 -3 0 -270 0 -270 -577 3 -578 4 -100 27
c-202 55 -413 181 -549 329 -161 173 -278 422 -301 643 l-7 65 -189 0 -189 0
0 270 0 270 1245 0 1245 0 0 -270z m4010 -2535 l0 -45 43 0 c78 0 147 -28 198
-79 74 -73 79 -101 79 -443 l0 -288 -405 0 -405 0 0 405 0 405 155 0 155 0 0
38 c0 21 3 42 7 45 3 4 44 7 90 7 l83 0 0 -45z m-804 -72 c23 -12 54 -37 69
-55 52 -62 59 -90 59 -258 l1 -155 -339 -3 c-230 -1 -344 -6 -353 -13 -8 -7
-13 -33 -13 -65 l0 -54 355 0 355 0 0 -90 0 -90 -446 0 -445 0 3 174 3 174 30
43 c19 27 50 54 84 71 l53 28 270 0 271 0 -5 50 c-8 83 3 80 -279 80 l-249 0
0 -30 0 -30 -90 0 -90 0 0 126 0 125 358 -3 c346 -3 358 -4 398 -25z m2060 0
c23 -12 54 -37 69 -55 52 -62 59 -90 59 -258 l1 -155 -339 -3 c-230 -1 -344
-6 -353 -13 -8 -7 -13 -33 -13 -65 l0 -54 355 0 355 0 0 -90 0 -90 -446 0
-445 0 3 174 3 174 30 43 c19 27 50 54 84 71 l53 28 270 0 271 0 -5 50 c-8 83
3 80 -279 80 l-249 0 0 -30 0 -30 -90 0 -90 0 0 126 0 125 358 -3 c346 -3 358
-4 398 -25z m466 -95 c5 -186 19 -198 232 -198 l136 0 0 160 0 161 88 -3 87
-3 3 -312 2 -313 35 0 35 0 0 -90 0 -90 -55 0 c-72 0 -127 28 -162 82 -25 36
-28 53 -31 134 l-4 92 -161 4 c-154 3 -165 4 -219 31 -65 32 -112 81 -141 146
-16 36 -22 73 -25 168 -2 67 -2 129 1 138 5 12 24 15 91 15 l84 0 4 -122z
m5165 -240 c-3 -8 -6 -5 -6 6 -1 11 2 17 5 13 3 -3 4 -12 1 -19z m4633 -17 c0
-6 -4 -13 -10 -16 -5 -3 -10 1 -10 9 0 9 5 16 10 16 6 0 10 -4 10 -9z m200 -1
c0 -5 -4 -10 -10 -10 -5 0 -10 5 -10 10 0 6 5 10 10 10 6 0 10 -4 10 -10z
m-3595 -90 c3 -5 1 -10 -4 -10 -6 0 -11 5 -11 10 0 6 2 10 4 10 3 0 8 -4 11
-10z m2123 -908 l3 -92 -26 0 c-25 0 -25 0 -25 88 0 92 4 105 30 100 12 -3 16
-22 18 -96z m252 8 c3 -47 2 -91 -3 -97 -12 -17 -139 -17 -155 -1 -16 16 -16
160 0 176 9 9 37 12 83 10 l70 -3 5 -85z m-8773 -1156 c23 -3 47 -12 54 -20 6
-8 21 -14 33 -14 12 0 26 -4 32 -10 14 -14 193 -100 208 -100 7 0 21 -9 31
-20 10 -11 23 -20 30 -20 11 0 49 -19 135 -70 19 -11 42 -24 50 -29 8 -4 24
-13 35 -19 11 -7 30 -17 43 -22 13 -6 38 -21 55 -34 18 -12 39 -26 47 -30 8
-3 29 -15 45 -26 17 -11 37 -23 45 -27 73 -34 384 -251 490 -342 19 -17 39
-31 43 -31 5 0 41 -25 80 -55 40 -30 82 -63 95 -72 13 -10 30 -24 37 -30 8 -7
15 -13 18 -13 2 0 46 -28 98 -63 52 -34 139 -82 194 -106 213 -91 309 -148
425 -255 92 -84 191 -147 370 -236 102 -50 192 -94 200 -99 71 -37 142 -79
235 -139 61 -39 137 -88 170 -108 33 -21 89 -56 125 -79 36 -23 124 -80 195
-125 162 -104 354 -232 505 -336 213 -147 290 -188 433 -233 115 -36 107 -35
107 -16 0 9 22 48 48 88 27 40 61 93 76 120 15 26 32 47 37 47 5 0 9 -73 9
-165 0 -103 -4 -165 -10 -165 -5 0 -10 -3 -10 -8 0 -7 43 -29 155 -78 33 -14
78 -34 100 -44 22 -10 94 -42 160 -70 66 -29 176 -79 244 -111 67 -33 125 -59
127 -59 2 0 55 -25 119 -55 63 -30 117 -55 120 -55 2 0 46 -20 97 -44 148 -70
228 -106 233 -106 2 0 51 -22 107 -49 57 -27 144 -66 193 -87 103 -44 351
-168 440 -219 33 -19 96 -53 140 -75 44 -23 87 -45 95 -50 8 -5 34 -17 58 -26
23 -10 42 -21 42 -26 0 -4 -15 -1 -32 6 -18 8 -89 37 -158 65 -128 51 -499
205 -535 221 -85 38 -142 62 -220 95 -49 21 -112 48 -140 61 -68 31 -141 63
-260 114 -55 23 -133 58 -173 76 -41 19 -76 34 -79 34 -3 0 -19 6 -36 14 -18
8 -54 24 -82 36 -27 12 -72 32 -100 45 -27 12 -90 39 -140 60 -78 33 -141 60
-220 95 -11 5 -56 23 -100 40 -44 17 -93 37 -110 45 -16 7 -100 41 -185 75
-85 33 -164 65 -175 69 -11 5 -33 14 -50 21 -94 39 -294 66 -309 41 -10 -16 3
-35 39 -58 56 -37 98 -138 70 -167 -22 -21 -60 -6 -126 51 -46 39 -98 68 -204
113 -11 5 -46 20 -78 34 -31 14 -85 37 -120 51 -132 54 -241 107 -304 147 -28
18 -105 73 -170 122 -108 82 -173 126 -408 276 -44 28 -111 73 -150 101 -129
91 -288 182 -430 244 -48 21 -132 42 -235 60 -216 37 -349 120 -419 261 -58
116 -210 292 -331 381 -70 52 -162 100 -270 142 -74 29 -222 103 -355 177
-179 99 -232 136 -331 229 -58 55 -111 103 -118 106 -6 4 -50 10 -98 14 -84 6
-88 6 -88 -14 0 -29 59 -70 139 -95 95 -30 148 -66 201 -137 25 -33 63 -75 85
-93 47 -38 191 -126 206 -126 17 0 139 -64 216 -113 130 -83 181 -144 137
-161 -37 -14 -108 -2 -169 30 -11 6 -45 19 -76 29 l-56 18 -54 -33 c-30 -19
-68 -34 -84 -34 -36 0 -82 32 -127 88 -120 152 -318 341 -453 434 -33 22 -109
84 -170 137 -154 134 -232 168 -305 130 -43 -22 -55 -50 -36 -80 19 -29 68
-67 127 -98 262 -140 246 -130 358 -222 196 -160 284 -241 329 -303 59 -81
101 -125 145 -148 28 -16 60 -18 232 -19 186 -1 203 -2 242 -23 52 -27 63 -46
63 -114 0 -68 16 -97 65 -125 67 -38 127 -27 140 24 12 51 32 63 102 63 88 0
128 -23 197 -112 309 -398 330 -418 561 -548 172 -97 229 -128 295 -160 96
-48 139 -64 147 -56 8 7 -15 26 -77 63 -71 42 -351 239 -394 277 -66 58 -24
92 99 81 160 -15 285 -74 591 -280 197 -133 399 -269 402 -271 2 -1 1 -21 -3
-44 -9 -51 -29 -73 -64 -66 -80 16 -137 17 -155 3 -17 -13 -18 -18 -7 -44 14
-35 46 -59 121 -93 30 -14 78 -39 105 -56 28 -17 102 -58 165 -91 173 -90 269
-148 440 -264 167 -114 318 -207 433 -268 40 -21 106 -57 147 -79 41 -22 100
-50 131 -61 65 -25 112 -67 86 -77 -9 -3 -26 1 -39 10 -12 9 -31 16 -40 16
-10 0 -26 4 -36 10 -9 5 -39 19 -67 31 -71 31 -188 86 -355 167 -154 74 -279
132 -286 132 -2 0 -34 14 -71 31 -38 17 -93 43 -123 56 -140 64 -153 71 -376
219 -61 41 -114 74 -117 74 -4 0 -55 23 -115 51 -127 61 -247 102 -273 94 -11
-4 -26 -20 -35 -37 -13 -25 -14 -38 -4 -76 13 -54 110 -268 152 -336 41 -67
46 -108 18 -136 -19 -19 -23 -20 -44 -7 -12 8 -63 41 -112 72 -232 149 -381
252 -438 303 -121 109 -141 119 -319 163 -52 12 -113 19 -182 19 -92 0 -104
-2 -110 -19 -17 -54 41 -107 204 -186 64 -32 136 -73 161 -93 80 -65 150 -135
150 -150 0 -16 -7 -15 -90 18 -30 12 -64 24 -75 27 -38 10 -250 111 -280 133
-5 4 -50 30 -100 56 -49 27 -108 58 -130 71 -22 12 -47 26 -55 30 -8 3 -31 16
-50 28 -65 40 -180 70 -180 47 0 -16 306 -209 720 -456 25 -14 52 -31 60 -36
180 -116 483 -273 665 -345 66 -26 129 -51 140 -56 40 -17 180 -69 188 -69 5
0 23 -6 40 -14 18 -7 52 -21 77 -31 25 -9 59 -23 75 -30 67 -30 216 -85 325
-121 63 -20 158 -52 210 -70 177 -61 245 -83 285 -93 187 -47 277 -88 283
-128 5 -32 -50 -79 -112 -97 -70 -21 -98 -20 -231 5 -60 11 -135 25 -165 30
-64 11 -83 29 -69 66 31 83 -29 129 -296 224 -49 17 -104 38 -122 45 -17 8
-38 14 -46 14 -9 0 -18 4 -21 9 -3 5 -16 11 -28 14 -25 6 -178 61 -218 78 -29
13 -83 36 -125 54 -16 7 -41 17 -55 23 -14 6 -80 34 -148 62 -68 28 -131 55
-140 59 -9 5 -53 24 -97 41 -105 43 -144 59 -180 75 -52 23 -97 42 -180 75
-44 18 -105 43 -135 57 -69 31 -79 35 -165 71 -38 16 -113 50 -165 75 -98 47
-143 64 -245 93 -80 23 -130 49 -250 128 -218 145 -444 225 -580 207 -63 -9
-75 -7 -204 33 -101 31 -126 32 -169 6 -26 -16 -50 -20 -116 -20 -111 0 -118
8 -105 109 10 87 34 121 83 121 39 0 80 21 84 41 3 19 -24 29 -79 29 -49 0
-90 48 -118 139 -14 44 -14 128 0 137 6 3 32 -14 57 -39 26 -25 88 -69 137
-97 50 -29 101 -60 115 -70 14 -9 52 -32 85 -50 33 -18 101 -60 150 -92 50
-32 128 -77 175 -100 47 -22 99 -47 115 -55 39 -19 130 -14 130 7 0 9 -40 36
-95 65 -439 232 -703 387 -792 464 -22 19 -48 51 -58 71 -11 22 -59 70 -117
117 -140 115 -152 130 -237 288 -46 84 -122 167 -151 163 -18 -3 -20 -10 -19
-69 1 -97 24 -136 170 -280 150 -148 160 -164 139 -215 -21 -51 -20 -57 25
-109 45 -52 49 -77 24 -146 -14 -42 -14 -51 13 -181 21 -104 25 -143 17 -165
-10 -29 -14 -32 -154 -114 -91 -54 -120 -80 -120 -110 0 -11 32 -51 70 -89 39
-38 70 -74 70 -80 0 -5 -10 -19 -22 -31 -19 -17 -31 -20 -75 -16 -140 14 -198
101 -172 259 l13 79 -26 26 c-22 22 -40 27 -120 36 -176 18 -237 -23 -193
-130 32 -76 5 -119 -56 -88 -19 10 -79 20 -157 26 l-126 10 -134 -67 c-73 -37
-140 -77 -147 -88 -7 -12 -17 -38 -20 -58 -4 -21 -11 -38 -16 -38 -5 0 -38 18
-73 40 -35 22 -67 40 -72 40 -17 0 -84 61 -84 76 0 9 14 30 31 47 29 29 31 34
25 81 -20 167 -20 171 8 218 17 30 26 59 26 89 0 84 98 229 155 229 35 0 46
-28 39 -97 -6 -54 -4 -61 21 -91 15 -18 30 -32 34 -32 4 0 37 18 74 40 36 22
76 40 89 40 36 0 166 37 193 54 48 32 38 78 -41 181 -20 27 -43 64 -51 84 -18
43 -28 190 -15 210 17 24 29 4 36 -58 14 -123 85 -253 149 -273 33 -10 41 -9
65 9 15 11 33 37 41 57 l14 38 -42 38 c-48 44 -48 50 17 116 21 22 49 62 62
88 28 58 21 91 -25 116 -27 15 -30 22 -29 63 1 78 56 113 102 65 11 -13 44
-63 73 -113 70 -120 74 -163 28 -250 l-33 -62 18 -67 c10 -36 35 -92 55 -124
61 -94 223 -231 257 -218 16 6 19 147 4 231 -6 32 -5 78 2 127 19 129 -16 192
-144 260 -77 41 -176 140 -212 213 -31 64 -34 130 -10 213 12 40 15 79 12 137
-5 74 -11 90 -66 201 -70 139 -101 180 -143 189 -42 9 -79 -16 -79 -54 0 -54
97 -258 156 -326 47 -55 53 -75 29 -95 -22 -18 -50 -4 -128 66 -78 70 -105 83
-143 65 -31 -14 -50 -57 -59 -134 -5 -39 -15 -68 -30 -85 l-23 -27 -29 21
c-26 20 -28 26 -31 103 -2 58 -7 83 -16 87 -35 14 -139 -64 -308 -231 -217
-213 -262 -267 -321 -387 -41 -84 -54 -102 -114 -150 -37 -30 -90 -70 -118
-88 -105 -70 -169 -128 -242 -220 -41 -52 -101 -117 -134 -143 -98 -80 -116
-149 -42 -163 56 -11 289 4 352 23 31 8 94 39 141 67 101 62 159 86 204 86 70
0 72 -44 8 -180 -72 -155 -76 -194 -27 -291 31 -60 25 -74 -48 -110 -46 -23
-53 -31 -65 -72 -23 -81 -98 -106 -398 -133 -182 -17 -197 -17 -290 -1 -134
24 -198 45 -269 87 -68 41 -116 60 -153 60 -19 0 -59 -34 -163 -137 l-138
-136 -40 13 c-25 8 -70 11 -123 8 -90 -5 -89 -4 -215 -89 -83 -57 -158 -78
-206 -58 -38 15 -47 26 -47 60 0 14 -6 34 -14 45 -14 19 -15 19 -39 -4 -14
-13 -31 -36 -37 -52 -26 -63 -92 -86 -276 -96 l-132 -7 -16 26 c-21 32 -13 46
58 103 52 41 70 79 44 95 -38 24 -139 4 -270 -54 -29 -13 -84 -36 -123 -52
-161 -63 -244 -99 -309 -132 -80 -40 -174 -63 -264 -63 -73 0 -305 -69 -409
-122 -52 -26 -68 -30 -90 -22 -43 15 -40 40 6 63 22 12 47 21 55 21 20 0 155
65 182 88 12 9 31 36 43 59 25 49 38 58 120 77 62 15 137 52 161 80 10 13 10
19 -1 32 -10 13 -27 14 -95 9 -136 -12 -166 16 -66 63 68 32 322 200 322 213
0 5 -11 15 -25 21 -20 9 -57 9 -159 -1 -126 -12 -136 -12 -178 6 -24 11 -51
17 -61 14 -9 -4 -32 -29 -50 -56 -26 -41 -41 -53 -82 -67 -97 -32 -185 -16
-206 38 -20 54 6 101 121 214 58 58 124 132 147 165 50 74 95 116 246 229 229
170 427 279 427 235 0 -6 -21 -44 -46 -85 -49 -79 -139 -169 -195 -195 -68
-33 -110 -49 -127 -49 -24 0 -92 -48 -92 -65 0 -8 10 -21 23 -29 25 -17 43
-12 142 34 77 36 161 37 286 5 136 -34 174 -53 174 -84 0 -18 -10 -29 -40 -45
-36 -19 -58 -21 -225 -21 -136 -1 -196 -5 -225 -15 -66 -25 -67 -38 -4 -70 55
-29 200 -41 311 -27 69 9 89 8 102 -2 23 -20 20 -33 -20 -77 -79 -87 -130
-179 -119 -215 7 -21 48 -26 87 -10 13 6 57 20 98 32 128 38 326 128 418 190
25 17 79 54 121 83 42 29 122 81 179 117 57 35 143 89 191 119 49 30 105 68
125 83 27 21 44 27 62 23 71 -18 -18 -128 -166 -205 -47 -24 -134 -76 -195
-116 -110 -73 -254 -154 -395 -221 -329 -158 -377 -186 -350 -204 23 -16 106
-2 190 32 41 17 80 34 85 39 16 12 123 46 220 69 105 26 166 28 218 7 45 -19
49 -51 12 -95 -28 -33 -32 -57 -11 -65 21 -8 132 108 172 179 20 36 34 75 34
95 0 90 57 192 143 261 100 79 262 135 312 108 58 -31 40 -58 -80 -122 -81
-44 -107 -73 -97 -110 11 -43 55 -33 162 41 84 57 136 81 183 81 88 0 163 64
310 263 186 255 257 323 467 452 125 76 198 133 291 225 115 113 132 150 71
150 -35 0 -61 -18 -147 -100 -66 -63 -109 -99 -313 -260 -86 -68 -205 -140
-233 -140 -90 -1 27 164 186 261 127 79 193 134 235 201 45 72 237 278 298
320 23 16 42 35 42 43 0 19 -51 45 -88 45 -26 0 -52 15 -52 31 0 4 22 23 50
43 27 19 58 52 68 73 47 92 80 226 95 378 4 46 -62 27 -158 -45 -27 -21 -72
-49 -100 -63 -76 -38 -155 -130 -155 -180 0 -42 13 -39 65 18 45 48 56 55 89
55 48 0 76 -15 76 -41 0 -11 -35 -64 -78 -117 -43 -53 -91 -115 -106 -138 -31
-48 -78 -172 -70 -186 11 -18 -6 -55 -31 -66 -14 -7 -51 -12 -81 -12 -68 0
-97 -14 -155 -77 -31 -33 -50 -66 -64 -108 -30 -97 -57 -127 -128 -140 -33 -6
-38 -4 -48 19 -13 29 -12 34 49 137 18 30 46 68 62 84 35 33 38 50 11 64 -14
8 -32 6 -67 -6 -107 -36 -154 -86 -154 -165 -1 -67 -56 -98 -139 -78 -46 11
-49 13 -47 43 1 31 0 32 -46 35 -42 3 -51 -1 -88 -34 -22 -20 -77 -91 -121
-158 -45 -67 -104 -145 -133 -174 l-51 -54 -78 6 -79 7 -43 -43 c-27 -28 -48
-62 -60 -97 l-18 -55 28 -22 c26 -21 27 -24 15 -53 -16 -40 -92 -109 -206
-189 -49 -35 -129 -94 -179 -132 -106 -83 -267 -165 -343 -175 -49 -6 -54 -5
-50 11 2 11 18 23 38 29 103 31 130 67 105 135 -39 105 -32 114 92 124 166 14
228 39 151 61 -18 6 -34 18 -36 27 -2 11 40 66 111 145 81 91 117 138 122 163
13 60 31 84 112 150 43 35 80 67 83 70 21 22 210 189 274 241 50 40 95 88 123
130 24 37 52 69 63 72 10 3 48 2 83 0 74 -6 84 1 66 51 -12 32 -10 37 29 92
70 100 93 141 86 158 -12 30 -33 16 -92 -61 -78 -102 -119 -142 -151 -149 -54
-11 -96 -37 -170 -104 -88 -79 -401 -346 -511 -436 -124 -101 -238 -160 -261
-137 -21 21 26 71 176 188 146 113 184 144 232 188 29 27 49 55 47 62 -8 19
-35 23 -64 11 -22 -10 -159 -97 -280 -179 -255 -174 -360 -241 -408 -263 -31
-14 -69 -32 -83 -39 -14 -8 -51 -17 -82 -21 -50 -6 -56 -4 -67 15 -6 12 -8 30
-5 40 6 20 79 66 220 141 44 24 100 54 125 68 25 14 88 48 140 75 52 28 123
68 158 89 34 21 66 38 70 39 21 2 97 69 100 87 6 42 -66 27 -216 -47 -45 -23
-85 -41 -87 -41 -2 0 -80 -46 -172 -102 -92 -55 -202 -120 -243 -144 -158 -89
-228 -131 -300 -180 -41 -28 -103 -65 -137 -82 -53 -27 -63 -29 -74 -16 -28
34 34 91 196 179 39 20 120 75 182 121 122 91 202 141 303 191 36 17 135 66
220 108 177 86 282 153 277 175 -6 30 -103 6 -237 -57 -375 -178 -583 -298
-668 -385 -65 -69 -93 -83 -125 -67 -91 48 -17 138 243 296 63 38 159 93 214
122 114 61 109 58 331 186 94 53 175 101 180 105 10 7 90 52 155 86 19 11 37
22 40 25 3 3 12 9 20 12 8 4 33 18 55 31 22 13 63 36 90 51 28 15 75 42 106
61 31 19 59 34 62 34 4 0 47 25 97 55 50 30 93 55 96 55 3 0 89 48 192 107
103 58 225 126 272 151 47 24 110 58 140 75 30 18 90 48 134 68 43 21 83 42
89 48 6 6 16 11 21 11 6 0 33 11 61 25 27 13 93 40 145 60 52 20 104 40 115
45 11 4 45 16 75 25 30 10 65 21 78 26 13 5 69 12 125 15 l102 6 80 53 c88 58
159 75 225 55 76 -23 242 -31 370 -18 105 12 220 34 233 47 6 6 32 11 58 11
26 0 51 5 54 10 3 6 16 10 28 10 31 0 285 59 325 76 18 8 43 14 55 14 12 0 32
7 45 15 12 9 36 17 54 19 18 2 53 9 78 16 25 7 52 13 60 14 24 3 103 27 123
37 10 5 21 8 25 5 4 -2 34 2 67 10 33 9 96 22 140 30 44 8 85 16 90 19 10 4
38 2 122 -11z m9780 -86 c-3 -7 -5 -2 -5 12 0 14 2 19 5 13 2 -7 2 -19 0 -25z
m200 -15 c-3 -10 -5 -4 -5 12 0 17 2 24 5 18 2 -7 2 -21 0 -30z m-4421 -144
c-11 -35 -13 -56 -6 -63 12 -12 10 -14 40 52 13 30 32 59 41 65 14 10 261 14
502 8 l37 -1 -2 -337 -3 -338 -35 0 c-32 0 -35 3 -40 35 -3 23 -11 36 -23 38
-17 4 -21 -2 -31 -50 l-6 -28 -95 0 -95 0 -6 28 c-10 49 -14 56 -24 46 -5 -5
-11 -86 -12 -179 -3 -165 -4 -170 -24 -173 -12 -2 -30 -12 -40 -23 -9 -10 -23
-19 -30 -19 -7 0 -26 -11 -42 -25 -17 -14 -45 -31 -64 -37 -18 -6 -47 -21 -65
-34 -17 -13 -35 -24 -39 -24 -4 0 -37 -14 -73 -31 -128 -60 -178 -79 -206 -79
-12 0 -28 -7 -35 -15 -7 -8 -19 -15 -28 -15 -8 0 -23 -6 -31 -13 -9 -7 -36
-19 -61 -26 -25 -7 -55 -17 -68 -22 -13 -5 -34 -9 -47 -9 -13 0 -27 -4 -30
-10 -3 -5 -24 -10 -46 -10 -22 0 -54 -7 -71 -16 -17 -9 -39 -14 -49 -11 -10 3
-26 -1 -36 -9 -17 -13 -103 -20 -103 -8 0 3 44 67 98 142 179 249 401 595 517
807 21 39 52 95 69 125 16 30 60 114 96 185 l67 130 49 5 c27 3 53 3 57 -1 5
-4 1 -30 -7 -60z m-19209 -465 c-3 -3 -12 -4 -19 -1 -8 3 -5 6 6 6 11 1 17 -2
13 -5z m163 -63 c0 -6 -4 -13 -10 -16 -5 -3 -10 1 -10 9 0 9 5 16 10 16 6 0
10 -4 10 -9z m-46 -27 c21 -8 20 -21 -4 -51 -13 -17 -18 -34 -14 -46 4 -11 1
-23 -7 -28 -21 -13 -27 -11 -25 9 1 12 -8 18 -27 20 l-27 3 17 32 c36 65 51
75 87 61z m-331 -21 c32 -10 19 -33 -18 -33 -31 0 -35 3 -35 26 0 21 3 25 18
19 9 -4 25 -10 35 -12z m983 0 c13 -17 15 -17 28 0 15 20 26 22 26 5 0 -6 6
-19 14 -27 13 -14 12 -19 -5 -40 l-20 -24 -44 21 c-43 21 -43 22 -32 52 13 35
15 36 33 13z m-1272 -75 c15 -25 1 -32 -34 -18 -27 11 -34 11 -48 -4 -20 -19
-7 -47 25 -56 20 -5 73 -44 73 -53 0 -9 -31 -37 -40 -37 -5 0 -10 10 -12 23
-2 17 -9 22 -35 22 -44 0 -57 15 -42 49 10 21 10 32 2 45 -9 14 -8 22 5 35 22
22 91 18 106 -6z m20184 -40 c14 -14 16 -166 3 -187 -6 -10 -32 -14 -90 -14
-45 0 -83 2 -85 4 -8 8 -10 185 -3 197 11 16 158 17 175 0z m130 0 c19 -19 16
-173 -4 -192 -19 -20 -23 -20 -46 1 -24 22 -26 163 -2 187 19 19 36 20 52 4z
m-16400 -7 c9 -5 12 -24 10 -52 -3 -40 -6 -44 -30 -47 -28 -3 -33 5 -29 48 6
57 19 71 49 51z m19004 -19 c5 -5 8 -47 6 -93 l-3 -84 -80 0 -80 0 -3 85 c-4
105 4 114 92 107 32 -3 62 -9 68 -15z m-21282 -2 c0 -5 -4 -10 -10 -10 -5 0
-10 5 -10 10 0 6 5 10 10 10 6 0 10 -4 10 -10z m21038 -82 c-3 -85 -5 -93 -23
-93 -18 0 -20 8 -23 79 -3 93 0 106 28 106 20 0 21 -5 18 -92z m-22459 43 c8
-5 11 -16 8 -25 -10 -25 -97 -3 -97 25 0 12 71 11 89 0z m1471 -103 c0 -15
-28 -9 -34 8 -11 30 -6 37 14 19 11 -10 20 -22 20 -27z m2661 -32 c14 -16 10
-46 -6 -46 -26 0 -40 46 -25 78 l14 27 4 -25 c2 -14 8 -29 13 -34z m-335 -121
c15 -37 -43 -59 -81 -31 -18 13 -17 14 11 29 37 21 63 21 70 2z m403 -20 c12
-13 -20 -26 -55 -23 -29 2 -40 8 -42 22 -6 28 18 36 57 20 19 -8 37 -17 40
-19z m-4539 10 c11 -13 10 -18 -5 -29 -27 -20 -13 -66 21 -66 13 0 38 -10 55
-22 26 -19 33 -21 62 -10 19 7 45 12 58 12 14 0 31 6 38 13 10 10 12 7 9 -13
-2 -17 3 -27 20 -36 22 -11 22 -12 -20 -40 -24 -16 -59 -31 -78 -34 -24 -4
-39 -13 -49 -32 -15 -26 -14 -29 14 -58 l29 -30 -27 0 c-29 0 -43 -15 -30 -33
13 -18 10 -90 -5 -95 -7 -2 -19 12 -28 34 -14 35 -14 39 3 63 26 35 19 61 -16
61 -15 0 -31 -4 -36 -9 -6 -5 -26 -12 -46 -16 -46 -9 -59 7 -68 85 -4 33 -12
64 -17 69 -5 5 -42 16 -82 26 -41 10 -92 28 -115 41 -23 13 -52 28 -64 34 -27
11 -28 14 -7 45 23 34 41 31 48 -8 8 -41 45 -80 65 -68 18 11 6 61 -14 61 -8
0 -15 7 -15 15 0 20 26 19 34 0 3 -8 17 -20 31 -27 20 -9 28 -8 44 6 15 14 23
15 44 5 29 -13 57 0 57 27 0 37 65 59 90 29z m7160 -49 c0 -30 -20 -37 -80
-28 -31 5 -46 12 -48 24 -2 13 6 18 35 21 91 9 93 9 93 -17z m373 0 c24 -19
21 -36 -7 -36 -37 0 -56 10 -56 31 0 23 36 25 63 5z m-6572 -64 c-25 -17 -27
-32 -6 -32 8 0 23 -9 32 -20 10 -11 25 -20 35 -20 9 0 20 -5 24 -11 3 -6 16
-9 28 -7 12 2 30 -6 43 -19 l22 -23 -41 -20 c-51 -24 -48 -24 -48 0 0 11 -12
26 -27 34 -35 19 -123 100 -123 113 0 5 17 22 38 37 l37 26 3 -22 c3 -15 -4
-28 -17 -36z m215 -16 c7 -18 59 -40 79 -32 10 3 17 -3 21 -19 11 -46 -1 -56
-58 -53 -46 3 -53 6 -56 26 -2 12 -10 22 -17 22 -23 0 -27 18 -9 45 18 28 32
32 40 11z m-712 -61 c59 -58 66 -69 66 -103 0 -32 -5 -41 -25 -50 -33 -15 -78
3 -70 28 3 9 -4 25 -15 35 -28 26 -70 11 -90 -32 -8 -18 -23 -33 -32 -33 -38
0 -10 58 45 94 42 27 42 27 59 6 15 -19 57 -27 71 -14 3 4 -1 20 -9 36 -14 26
-20 29 -46 24 -24 -5 -34 -1 -49 18 -10 13 -30 27 -44 30 -38 10 -20 26 29 26
40 0 49 -5 110 -65z m591 55 c-3 -5 -12 -10 -20 -10 -8 0 -17 5 -20 10 -4 6 5
10 20 10 15 0 24 -4 20 -10z m-356 -61 c21 -16 65 -43 97 -59 61 -29 134 -88
134 -108 0 -17 1 -17 -97 39 -174 100 -209 129 -186 152 10 10 11 10 52 -24z
m-920 -33 c10 -11 8 -16 -9 -21 -24 -8 -46 7 -36 24 10 15 31 14 45 -3z m2689
-35 c36 -14 38 -34 5 -39 -23 -3 -66 35 -57 50 3 5 9 7 12 5 4 -2 22 -9 40
-16z m-2603 -10 c3 -6 -3 -14 -12 -20 -17 -9 -16 -11 5 -40 12 -17 22 -37 22
-46 0 -24 -37 -18 -64 11 -20 22 -30 26 -56 21 -26 -6 -31 -4 -28 11 3 13 12
16 41 14 27 -3 38 1 42 12 3 9 7 23 10 31 5 17 31 20 40 6z m363 -3 c8 -8 8
-17 1 -30 -13 -25 -5 -48 17 -48 16 0 16 -1 1 -18 -10 -10 -17 -26 -17 -35 0
-9 -7 -17 -16 -17 -13 0 -15 7 -11 34 4 26 1 38 -13 48 -16 12 -16 16 -4 46
15 34 23 39 42 20z m182 -77 c0 -5 -11 -23 -25 -39 -32 -38 -31 -42 3 -42 15
0 36 -7 46 -15 11 -8 27 -13 37 -10 9 3 22 -1 29 -10 19 -23 49 -18 56 9 3 14
14 32 23 41 17 14 22 13 72 -19 58 -38 71 -49 97 -84 12 -16 31 -25 62 -29 89
-11 90 -43 1 -43 -49 0 -64 -5 -93 -27 -78 -63 -133 -122 -181 -195 -28 -44
-57 -78 -66 -78 -9 0 -41 7 -71 15 -30 8 -67 15 -82 15 -28 0 -37 13 -18 25
22 13 10 46 -20 57 -36 12 -34 35 1 29 65 -11 84 -7 87 19 2 14 10 29 18 33 8
5 14 24 14 47 0 38 2 40 30 40 39 0 47 21 28 74 -15 39 -17 41 -59 41 -40 0
-45 3 -61 35 -28 56 -23 73 25 97 51 26 47 25 47 14z m4415 -29 c12 -9 39 -39
60 -67 22 -27 43 -51 47 -53 5 -2 8 -8 8 -13 0 -5 8 -17 18 -27 9 -10 42 -49
72 -87 30 -37 67 -81 81 -96 15 -15 28 -32 30 -37 2 -6 31 -39 64 -75 33 -36
98 -107 145 -159 149 -164 509 -519 616 -607 16 -13 52 -45 79 -70 50 -46 125
-109 160 -135 26 -19 12 -46 -24 -46 -16 0 -33 -4 -36 -10 -3 -5 -12 -10 -20
-10 -7 0 -64 -24 -126 -54 -63 -29 -125 -57 -139 -61 -14 -4 -31 -12 -37 -17
-7 -6 -24 -7 -38 -4 -23 6 -127 79 -165 116 -9 8 -45 40 -80 70 -35 30 -103
93 -153 140 -106 102 -108 103 -172 110 l-50 5 -11 105 c-6 58 -16 115 -22
127 -7 12 -12 30 -12 41 0 11 -7 25 -15 32 -8 7 -15 25 -15 40 0 15 -7 33 -15
40 -8 7 -15 20 -15 30 0 10 -7 23 -15 30 -8 7 -15 19 -15 26 0 8 -4 14 -10 14
-5 0 -10 6 -10 13 0 12 -9 26 -50 74 -5 7 -10 15 -10 18 0 13 -177 238 -191
243 -5 2 -9 9 -9 16 0 6 -13 26 -29 43 -15 17 -31 38 -34 47 -4 9 -11 16 -17
16 -5 0 -10 5 -10 12 0 6 -22 35 -50 64 -33 35 -50 61 -50 78 0 28 10 32 41
16 23 -13 89 -3 89 13 0 6 -7 18 -16 28 -25 28 -8 39 64 39 49 0 73 -5 87 -18z
m-4460 -212 c-3 -5 -10 -10 -16 -10 -5 0 -9 5 -9 10 0 6 7 10 16 10 8 0 12 -4
9 -10z m-85 -80 c0 -5 -9 -10 -20 -10 -11 0 -20 5 -20 10 0 6 9 10 20 10 11 0
20 -4 20 -10z m-121 -78 c16 -26 20 -41 13 -52 -17 -27 -37 -18 -35 16 2 19
-4 37 -12 44 -18 15 -19 30 -2 30 6 -1 23 -17 36 -38z m18408 -44 c19 -18 23
-32 23 -81 0 -52 3 -62 29 -86 26 -24 28 -32 24 -73 -3 -26 -3 -58 1 -71 6
-24 6 -24 141 -23 74 1 135 -1 135 -4 0 -18 -211 -250 -227 -250 -16 0 -97 42
-101 52 -2 4 -10 8 -19 8 -8 0 -29 11 -46 24 -18 14 -43 29 -57 35 -28 12 -50
26 -95 57 -16 12 -39 24 -50 28 -11 4 -38 23 -60 42 -38 33 -39 36 -25 59 26
40 263 294 279 298 9 3 18 5 20 6 3 0 15 -9 28 -21z m-18309 -40 c18 -18 14
-28 -11 -28 -30 0 -40 10 -26 27 14 16 22 16 37 1z m-1058 -14 c0 -8 -5 -12
-10 -9 -6 4 -8 11 -5 16 9 14 15 11 15 -7z m2168 5 c-2 -6 -8 -10 -13 -10 -5
0 -11 4 -13 10 -2 6 4 11 13 11 9 0 15 -5 13 -11z m-1556 -19 c-24 -23 -38
-25 -48 -9 -8 14 14 29 45 29 l25 0 -22 -20z m-534 -19 c3 -8 -1 -12 -9 -9 -7
2 -15 10 -17 17 -3 8 1 12 9 9 7 -2 15 -10 17 -17z m2154 -8 c24 -22 23 -35
-4 -31 -15 2 -24 11 -26 26 -4 26 5 28 30 5z m-2322 -34 c0 -6 -4 -7 -10 -4
-5 3 -10 11 -10 16 0 6 5 7 10 4 6 -3 10 -11 10 -16z m2288 6 c1 -1 0 -10 -4
-19 -9 -23 -27 -20 -41 9 -11 24 -10 25 15 19 15 -4 28 -8 30 -9z m-944 -16
c4 -3 -6 -32 -20 -64 -23 -51 -26 -66 -21 -126 4 -41 2 -69 -4 -69 -15 0 -97
40 -192 94 -80 45 -86 51 -66 58 13 5 40 6 61 3 30 -5 39 -3 44 9 4 9 22 23
40 31 40 17 43 32 9 45 -23 9 -31 21 -21 31 6 6 163 -5 170 -12z m-1132 -21
c-9 -9 -15 -9 -24 0 -10 10 -10 15 2 22 20 12 38 -6 22 -22z m-170 -13 c0 -5
-5 -11 -11 -13 -6 -2 -11 4 -11 13 0 9 5 15 11 13 6 -2 11 -8 11 -13z m536
-29 c8 -19 8 -27 -2 -35 -19 -16 -50 31 -33 48 16 16 22 14 35 -13z m2510 -11
c11 -23 10 -25 -17 -25 -35 0 -43 8 -30 31 14 26 34 24 47 -6z m342 10 c0 -8
-4 -15 -10 -15 -5 0 -10 7 -10 15 0 8 5 15 10 15 6 0 10 -7 10 -15z m18135 -5
c3 -5 1 -10 -4 -10 -6 0 -11 5 -11 10 0 6 2 10 4 10 3 0 8 -4 11 -10z m-20725
-20 c0 -11 -48 -60 -60 -60 -17 0 -12 58 6 68 18 10 54 5 54 -8z m157 -16 c-9
-9 -28 6 -21 18 4 6 10 6 17 -1 6 -6 8 -13 4 -17z m8460 1 c7 -20 -32 -54
-117 -104 -78 -46 -238 -123 -300 -144 -25 -9 -70 -25 -100 -37 -66 -24 -148
-46 -212 -55 -40 -6 -48 -5 -48 8 0 32 123 117 235 161 57 23 175 78 341 158
62 29 191 38 201 13z m15703 11 c0 -3 -4 -8 -10 -11 -5 -3 -10 -1 -10 4 0 6 5
11 10 11 6 0 10 -2 10 -4z m-22490 -25 c0 -5 -16 -16 -35 -25 -39 -19 -42 -27
-20 -46 14 -12 14 -15 0 -36 -20 -32 -19 -51 5 -59 26 -8 59 11 70 41 10 24
11 24 41 9 35 -19 59 -7 59 29 1 19 2 19 11 4 14 -25 59 -23 66 2 4 15 9 17
23 10 42 -23 84 -4 59 26 -9 11 -9 18 -1 26 15 15 37 4 57 -26 20 -30 13 -46
-20 -46 -13 0 -27 -5 -30 -10 -11 -18 16 -40 48 -40 24 0 28 -3 19 -12 -17
-17 -15 -39 8 -68 11 -14 20 -28 20 -32 0 -4 -21 -9 -47 -13 -220 -26 -448
-68 -483 -88 -148 -84 -221 -112 -419 -162 -90 -23 -101 -8 -39 51 26 24 56
44 68 44 26 0 207 154 261 222 52 66 85 125 94 166 4 17 11 32 16 32 6 0 8 -8
4 -19 -8 -25 20 -48 32 -26 19 34 133 73 133 46z m-1786 -16 c-4 -8 -12 -15
-20 -15 -17 0 -18 17 -1 23 22 9 27 7 21 -8z m2342 -31 c-5 -13 -10 -14 -18
-6 -6 6 -8 18 -4 28 5 13 10 14 18 6 6 -6 8 -18 4 -28z m609 16 c0 -7 -6 -15
-12 -17 -8 -3 -13 4 -13 17 0 13 5 20 13 18 6 -3 12 -11 12 -18z m-3288 4 c-3
-3 -12 -4 -19 -1 -8 3 -5 6 6 6 11 1 17 -2 13 -5z m2607 -3 c3 -5 -6 -16 -20
-26 -14 -9 -30 -30 -36 -46 -5 -16 -14 -29 -19 -29 -14 0 -11 26 5 39 8 6 19
25 26 41 12 29 33 39 44 21z m594 -26 c6 -14 16 -25 22 -25 14 0 13 -20 -2
-53 -12 -25 -17 -27 -51 -21 -29 4 -43 2 -57 -11 -18 -17 -20 -16 -31 9 -11
23 -10 30 9 48 l22 22 28 -27 c18 -18 35 -25 45 -21 18 7 23 29 8 38 -10 7
-20 66 -11 66 4 0 12 -11 18 -25z m21199 -27 c-3 -8 -6 -5 -6 6 -1 11 2 17 5
13 3 -3 4 -12 1 -19z m-21413 -21 c8 -12 7 -20 -2 -29 -10 -10 -15 -10 -22 2
-14 21 -12 52 2 48 6 -2 16 -12 22 -21z m-3486 -15 c2 -7 -3 -12 -12 -12 -9 0
-16 7 -16 16 0 17 22 14 28 -4z m3157 -23 c5 -6 23 -8 49 -3 40 6 41 6 24 -13
-22 -24 -23 -41 -1 -65 15 -17 14 -18 -39 -18 l-56 0 -6 45 c-7 45 -3 65 14
65 5 0 12 -5 15 -11z m313 -50 c-3 -26 -18 -29 -32 -6 -7 10 -5 21 4 32 17 20
33 6 28 -26z m-3053 -29 c3 -5 1 -10 -4 -10 -6 0 -11 5 -11 10 0 6 2 10 4 10
3 0 8 -4 11 -10z m2925 -4 c0 -2 -3 -11 -6 -20 -9 -23 -34 -20 -34 4 0 13 7
20 20 20 11 0 20 -2 20 -4z m210 -19 c0 -17 -9 -26 -33 -35 -38 -14 -57 -15
-57 -4 0 16 18 33 40 37 13 2 28 9 34 15 14 14 16 13 16 -13z m1867 -88 c137
-78 383 -241 427 -283 26 -24 34 -40 34 -66 1 -81 38 -191 128 -375 57 -115
65 -152 37 -161 -10 -3 -41 -17 -68 -30 -28 -13 -60 -24 -72 -24 -12 0 -24 -4
-27 -9 -7 -11 -53 -19 -166 -31 -121 -13 -158 -20 -171 -36 -6 -8 -26 -14 -43
-14 -22 0 -40 -8 -56 -25 -13 -14 -29 -25 -35 -25 -7 0 -34 -9 -60 -21 -26
-11 -51 -17 -55 -12 -7 6 -22 266 -19 323 1 8 3 203 5 433 4 351 7 417 19 417
8 0 63 -28 122 -61z m-1688 -42 c-2 -1 -12 -9 -21 -16 -15 -12 -18 -11 -18 3
0 10 8 16 22 16 12 0 19 -1 17 -3z m-3514 -147 c-3 -5 -13 -10 -21 -10 -8 0
-14 5 -14 10 0 6 9 10 21 10 11 0 17 -4 14 -10z m-125 -161 c0 -6 -9 -13 -20
-16 -11 -3 -20 -12 -20 -19 0 -8 -7 -14 -15 -14 -20 0 -19 5 8 34 23 25 47 33
47 15z m8670 -49 c-14 -11 -34 -22 -45 -26 -11 -3 -48 -19 -83 -35 -34 -16
-67 -29 -72 -29 -6 0 -10 13 -10 29 0 27 5 31 54 45 77 23 128 34 156 35 l25
1 -25 -20z m-8855 -10 c-3 -5 -10 -10 -16 -10 -5 0 -9 5 -9 10 0 6 7 10 16 10
8 0 12 -4 9 -10z m25238 -162 c9 -44 -1 -160 -15 -169 -15 -10 -119 -12 -142
-3 -13 5 -16 23 -16 93 0 48 3 91 7 94 3 4 41 7 84 7 72 0 77 -2 82 -22z m251
-5 c9 -50 0 -154 -15 -164 -21 -13 -133 -11 -147 3 -13 13 -17 169 -5 181 3 4
41 7 84 7 76 0 77 0 83 -27z m-16570 7 c14 -5 26 -16 26 -24 0 -24 -260 -246
-288 -246 -9 0 -12 29 -10 111 3 123 0 118 78 138 123 33 155 36 194 21z
m-1556 -32 c6 -51 -111 -148 -302 -252 -38 -20 -102 -59 -143 -86 -85 -56
-141 -70 -178 -46 -14 9 -25 24 -25 34 0 28 158 173 230 211 169 89 276 141
290 141 8 1 26 7 40 15 14 8 39 14 55 12 24 -2 31 -7 33 -29z m752 -65 c0 -27
-4 -53 -8 -59 -4 -5 -32 -20 -62 -33 -67 -27 -82 -33 -140 -59 -210 -94 -200
-91 -200 -68 0 40 135 137 325 234 81 42 85 41 85 -15z m-5091 16 c32 -11 39
-23 21 -34 -12 -8 -60 21 -60 35 0 12 0 12 39 -1z m348 -135 c-3 -3 -12 -4
-19 -1 -8 3 -5 6 6 6 11 1 17 -2 13 -5z m-492 -14 c3 -6 23 -19 43 -29 l37
-19 -26 -12 c-21 -9 -39 -9 -80 -1 -141 30 -159 43 -86 59 58 13 105 14 112 2z
m5235 -34 c0 -32 -12 -39 -47 -25 l-28 10 25 19 c34 26 50 25 50 -4z m-820
-71 c17 -21 8 -120 -16 -170 -17 -36 -23 -40 -64 -45 -59 -7 -152 -54 -193
-98 -69 -75 -88 -90 -136 -106 -60 -19 -131 -21 -131 -3 0 24 36 65 135 153
122 109 235 196 318 247 71 42 70 42 87 22z m15335 -515 c3 -5 -1 -10 -9 -10
-8 0 -18 5 -21 10 -3 6 1 10 9 10 8 0 18 -4 21 -10z m81 -25 c10 -8 29 -15 42
-15 12 0 30 -4 40 -9 9 -5 44 -16 77 -26 56 -16 81 -24 173 -59 63 -24 67 -26
82 -34 20 -12 77 -38 123 -56 40 -16 51 -46 16 -46 -11 0 -64 21 -117 46 -53
25 -106 50 -117 54 -11 5 -40 18 -65 28 -25 11 -67 27 -95 37 -27 10 -54 22
-59 27 -6 4 -16 8 -24 8 -8 0 -28 6 -45 14 -18 8 -41 16 -51 18 -23 4 -34 28
-14 28 8 0 23 -7 34 -15z m551 -140 c19 -8 54 -15 77 -15 23 0 57 -5 76 -10
19 -6 73 -15 120 -19 110 -12 136 -19 250 -73 141 -67 157 -74 255 -109 50
-17 94 -36 100 -40 5 -5 18 -9 28 -9 10 0 31 -6 45 -14 15 -8 61 -27 102 -41
104 -37 171 -65 195 -81 11 -8 27 -14 37 -14 10 0 18 -5 18 -11 0 -12 -12 -10
-95 15 -104 31 -163 48 -270 76 -60 15 -135 36 -165 45 -30 9 -71 20 -90 25
-86 22 -296 87 -325 100 -11 5 -45 19 -75 30 -30 11 -64 24 -75 29 -11 5 -56
23 -100 41 -44 18 -92 38 -107 46 -14 8 -33 14 -42 14 -16 0 -21 12 -9 23 9 9
8 9 50 -8z"/>
<path d="M13850 17905 l0 -595 695 0 695 0 0 595 0 595 -695 0 -695 0 0 -595z
m968 33 l2 -278 -275 0 -275 0 0 273 c0 151 3 277 7 280 4 4 126 6 272 5 l266
-3 3 -277z"/>
<path d="M15110 14916 l0 -226 220 0 220 0 0 203 c0 160 -3 207 -14 223 -13
18 -30 19 -220 22 l-206 3 0 -225z"/>
<path d="M22906 12500 c-29 -19 -36 -32 -97 -190 -36 -95 -70 -169 -171 -380
-39 -80 -81 -170 -95 -200 -13 -30 -36 -79 -50 -108 -14 -29 -23 -55 -20 -59
4 -3 11 5 17 18 6 13 19 38 30 54 10 17 38 66 61 110 23 44 50 94 59 110 76
137 217 419 250 505 23 58 46 109 51 115 11 11 12 45 2 44 -5 0 -21 -9 -37
-19z"/>
<path d="M2764 11425 c-7 -17 3 -35 20 -35 17 0 48 35 39 43 -12 13 -54 7 -59
-8z"/>
<path d="M3058 11358 c9 -9 15 -9 24 0 9 9 7 12 -12 12 -19 0 -21 -3 -12 -12z"/>
<path d="M4784 10315 c-13 -20 -20 -23 -30 -14 -8 6 -21 9 -29 5 -19 -7 -19
-42 0 -50 8 -3 15 -12 15 -21 0 -9 9 -15 26 -15 14 0 32 -7 41 -15 16 -17 33
-12 33 10 0 8 18 24 39 35 46 23 58 37 42 53 -7 7 -18 7 -36 -1 -23 -11 -26
-9 -35 13 -12 33 -45 32 -66 0z"/>
<path d="M24450 21030 c0 -18 -6 -33 -15 -36 -17 -7 -21 -44 -5 -44 6 0 10 -6
10 -13 0 -7 5 -18 12 -25 9 -9 16 -8 30 5 22 20 24 85 3 103 -8 7 -15 19 -15
26 0 8 -4 14 -10 14 -5 0 -10 -14 -10 -30z"/>
<path d="M3062 12228 c7 -20 48 -23 48 -4 0 11 -9 16 -26 16 -16 0 -24 -5 -22
-12z"/>
<path d="M3920 12161 c0 -27 19 -36 37 -18 18 18 9 37 -18 37 -12 0 -19 -7
-19 -19z"/>
<path d="M5000 11825 c-10 -12 -9 -16 4 -21 22 -8 46 2 46 21 0 19 -34 20 -50
0z"/>
<path d="M4934 11774 c20 -18 32 -22 39 -15 14 14 -19 40 -48 40 -18 0 -17 -3
9 -25z"/>
<path d="M5212 11713 c4 -23 58 -31 58 -10 0 15 -20 27 -47 27 -8 0 -13 -7
-11 -17z"/>
<path d="M2304 11689 c-10 -17 23 -46 37 -32 7 7 9 19 6 27 -7 18 -33 21 -43
5z"/>
<path d="M2080 11480 c0 -5 7 -10 15 -10 8 0 15 5 15 10 0 6 -7 10 -15 10 -8
0 -15 -4 -15 -10z"/>
<path d="M2320 11392 c0 -25 19 -42 47 -42 28 0 30 21 5 43 -25 22 -52 22 -52
-1z"/>
<path d="M2140 11352 c0 -22 54 -82 73 -82 8 0 20 -7 27 -15 28 -34 -43 -53
-79 -21 -22 20 -50 21 -57 1 -4 -8 -14 -15 -24 -15 -23 0 -53 33 -40 46 13 13
-15 54 -36 54 -11 0 -15 -9 -13 -32 2 -18 -3 -52 -9 -75 -11 -36 -17 -43 -37
-43 -19 0 -25 -5 -25 -21 0 -13 -10 -23 -29 -30 -15 -6 -33 -21 -39 -34 -7
-14 -16 -25 -21 -25 -5 0 -11 -7 -15 -15 -7 -20 20 -45 50 -45 17 0 27 -8 34
-25 10 -26 24 -32 35 -15 11 17 43 11 50 -9 8 -27 29 -32 83 -20 25 5 56 8 67
5 15 -4 33 5 62 32 22 20 62 50 87 66 26 16 52 39 57 53 8 21 13 23 44 17 22
-4 35 -2 35 5 0 5 13 25 29 43 35 40 51 105 30 119 -8 5 -30 7 -50 3 -22 -3
-40 -1 -44 5 -11 18 -44 12 -56 -11 -11 -21 -12 -21 -24 9 -16 38 -32 48 -50
33 -11 -9 -21 -4 -50 24 -39 39 -65 46 -65 18z m140 -182 c0 -5 -4 -10 -10
-10 -5 0 -10 5 -10 10 0 6 5 10 10 10 6 0 10 -4 10 -10z m-150 -95 c11 -3 29
-4 40 0 11 3 30 -1 45 -11 30 -20 26 -31 -5 -14 -18 10 -28 8 -58 -13 -28 -18
-43 -22 -60 -16 -12 5 -22 10 -22 11 0 2 -4 18 -9 36 -8 25 -6 35 6 48 15 15
18 14 30 -9 7 -14 22 -28 33 -32z m-81 -34 c9 -6 10 -10 2 -16 -15 -8 -41 1
-41 15 0 12 20 13 39 1z"/>
<path d="M4410 11100 c0 -5 9 -10 19 -10 11 0 23 5 26 10 4 6 -5 10 -19 10
-14 0 -26 -4 -26 -10z"/>
<path d="M4460 10906 c0 -8 7 -22 16 -31 22 -22 40 -5 25 24 -13 24 -41 28
-41 7z"/>
<path d="M4325 10900 c-3 -5 -3 -14 0 -20 3 -6 -4 -10 -17 -10 -14 0 -33 -6
-44 -14 -18 -14 -18 -15 -1 -22 26 -10 59 9 80 45 15 26 16 31 3 31 -8 0 -18
-4 -21 -10z"/>
<path d="M4585 10880 c-8 -12 20 -24 35 -15 5 3 10 10 10 16 0 12 -37 12 -45
-1z"/>
<path d="M2336 10863 c-12 -12 -5 -23 14 -23 11 0 20 4 20 9 0 11 -26 22 -34
14z"/>
<path d="M2430 10850 c0 -24 26 -38 42 -22 8 8 8 15 -2 27 -18 21 -40 19 -40
-5z"/>
<path d="M4796 10855 c-6 -17 17 -31 34 -20 5 3 10 13 10 21 0 19 -36 18 -44
-1z"/>
<path d="M2182 10823 c2 -13 14 -19 41 -21 40 -3 49 11 18 28 -32 16 -63 13
-59 -7z"/>
<path d="M5102 10829 c2 -6 8 -10 13 -10 5 0 11 4 13 10 2 6 -4 11 -13 11 -9
0 -15 -5 -13 -11z"/>
<path d="M5286 10788 c-21 -30 -20 -48 3 -48 25 0 51 26 51 51 0 27 -35 25
-54 -3z"/>
<path d="M4775 10790 c-3 -5 1 -10 9 -10 9 0 16 5 16 10 0 6 -4 10 -9 10 -6 0
-13 -4 -16 -10z"/>
<path d="M5381 10746 c-14 -17 -1 -28 19 -16 11 7 12 12 4 20 -8 8 -14 7 -23
-4z"/>
<path d="M4112 10739 c2 -7 10 -15 17 -17 8 -3 12 1 9 9 -2 7 -10 15 -17 17
-8 3 -12 -1 -9 -9z"/>
<path d="M5457 10684 c-4 -4 -7 -11 -7 -16 0 -13 50 -6 53 7 2 12 -36 19 -46
9z"/>
<path d="M1530 10620 c0 -5 5 -10 10 -10 6 0 10 5 10 10 0 6 -4 10 -10 10 -5
0 -10 -4 -10 -10z"/>
<path d="M1450 10441 c0 -12 6 -21 16 -21 9 0 14 7 12 17 -5 25 -28 28 -28 4z"/>
<path d="M6038 10243 c7 -3 16 -2 19 1 4 3 -2 6 -13 5 -11 0 -14 -3 -6 -6z"/>
<path d="M2550 10135 c0 -9 5 -15 11 -13 6 2 11 8 11 13 0 5 -5 11 -11 13 -6
2 -11 -4 -11 -13z"/>
<path d="M2445 10130 c3 -5 10 -10 16 -10 5 0 9 5 9 10 0 6 -7 10 -16 10 -8 0
-12 -4 -9 -10z"/>
<path d="M2400 10040 c-9 -17 -8 -26 7 -48 10 -15 18 -38 18 -52 0 -22 4 -25
40 -25 29 0 40 -4 40 -15 0 -8 -6 -14 -14 -12 -33 7 -61 -8 -61 -33 0 -25 35
-70 48 -63 40 20 72 46 72 60 0 10 9 18 23 20 18 2 21 8 19 36 -3 24 1 32 13
32 13 0 16 -6 11 -24 -7 -29 6 -40 40 -32 31 8 31 30 -1 44 -31 14 -32 35 -3
54 28 19 18 48 -16 48 -14 0 -27 -4 -31 -9 -3 -5 -30 -9 -60 -8 -43 1 -56 5
-61 19 -3 10 -14 18 -24 18 -10 0 -25 3 -33 6 -10 3 -20 -3 -27 -16z m90 -50
c0 -5 -7 -10 -15 -10 -8 0 -15 5 -15 10 0 6 7 10 15 10 8 0 15 -4 15 -10z"/>
<path d="M2817 10053 c-13 -12 -7 -23 13 -23 11 0 20 7 20 15 0 15 -21 21 -33
8z"/>
<path d="M1984 10007 c-7 -20 3 -37 22 -37 18 0 18 24 -1 40 -12 10 -16 9 -21
-3z"/>
<path d="M1755 9930 c-3 -5 1 -10 10 -10 9 0 13 5 10 10 -3 6 -8 10 -10 10 -2
0 -7 -4 -10 -10z"/>
<path d="M2944 9925 c-8 -21 3 -33 44 -51 34 -14 38 -14 49 2 18 25 17 27 -26
47 -46 21 -60 21 -67 2z"/>
<path d="M1867 9916 c-10 -26 34 -49 48 -26 8 13 -13 40 -30 40 -7 0 -15 -6
-18 -14z"/>
<path d="M3093 9848 c2 -7 10 -13 17 -13 7 0 15 6 18 13 2 7 -5 12 -18 12 -13
0 -20 -5 -17 -12z"/>
<path d="M4612 9674 c4 -21 22 -23 26 -1 2 10 -3 17 -13 17 -10 0 -15 -6 -13
-16z"/>
<path d="M4518 9633 c-2 -20 -9 -29 -25 -31 -12 -2 -33 -16 -46 -31 -23 -28
-24 -28 -46 -10 -44 36 -55 23 -25 -31 30 -55 49 -63 66 -25 12 27 37 32 70
14 29 -16 68 -3 68 22 0 11 5 29 11 41 9 17 6 25 -17 49 -35 36 -52 37 -56 2z
m25 -57 c7 -16 -1 -26 -20 -26 -7 0 -13 9 -13 20 0 23 25 27 33 6z"/>
<path d="M5075 9576 c-15 -11 -17 -18 -9 -26 16 -16 56 -2 52 18 -4 22 -20 25
-43 8z"/>
<path d="M5520 9530 c0 -5 7 -10 15 -10 8 0 15 5 15 10 0 6 -7 10 -15 10 -8 0
-15 -4 -15 -10z"/>
<path d="M4730 9512 c0 -20 34 -52 55 -52 28 0 45 37 24 51 -17 11 -79 12 -79
1z"/>
<path d="M4500 9470 c0 -5 7 -10 15 -10 8 0 15 5 15 10 0 6 -7 10 -15 10 -8 0
-15 -4 -15 -10z"/>
<path d="M4350 9460 c0 -5 7 -10 15 -10 8 0 15 5 15 10 0 6 -7 10 -15 10 -8 0
-15 -4 -15 -10z"/>
<path d="M4380 9404 c0 -8 5 -12 10 -9 6 3 10 10 10 16 0 5 -4 9 -10 9 -5 0
-10 -7 -10 -16z"/>
</g>
</svg>
