<svg id="OBJECTS" xmlns="http://www.w3.org/2000/svg" xmlns:xlink="http://www.w3.org/1999/xlink" viewBox="0 0 596.47 422.03"><defs><style>.cls-1{fill:none;}.cls-2{clip-path:url(#clip-path);}.cls-3{fill:#f2ede7;}.cls-4{fill:#331e10;}</style><clipPath id="clip-path" transform="translate(-318.92 -85.09)"><rect class="cls-1" width="750" height="500"/></clipPath></defs><g class="cls-2"><path class="cls-3" d="M413.24,476.85a4.71,4.71,0,0,0,1-.51c8.05-6.86,17.48-10.74,27.68-13.08a136.77,136.77,0,0,1,27.34-3.16c11.91-.3,23.83-.18,35.73-.56,18.27-.58,36.09-3.68,53.08-10.6,12.7-5.17,24.24-12.23,34-22A80.5,80.5,0,0,0,602.4,414c3.71-5.7,7.24-11.5,11.08-17.11,3-4.41,6.21-8.72,9.61-12.85,9.6-11.62,22-18.83,36.55-22.4a150.9,150.9,0,0,1,26.05-3.83c7.74-.51,15.49-.78,23.21-1.5,17.3-1.61,33-7.52,46.51-18.54,8.23-6.7,14-15,16.65-25.41a49.49,49.49,0,0,0,1.22-11.65c.07-7.18,0-14.38.56-21.54a53.4,53.4,0,0,1,7.35-23.82,19.91,19.91,0,0,0,1-2.15l.72-.71,1.5-2.24-.08.1,4.88-5.85-.09.09a21.52,21.52,0,0,0,1.79-1.5A87.84,87.84,0,0,1,803.46,232c12-8.43,25.46-11.47,40-10.21,11,1,21.19,4.64,31.46,8.19a77.86,77.86,0,0,0,17.18,4.27c5.9.62,11.81.87,17.63-.7,1.29-.35,2.55-.84,4-1.32v29c-.55,0-1.07,0-1.59,0-10.59-.29-19.95,2.68-27.06,10.87s-9.28,17.91-6.89,28.47c1.14,5.05,2.85,10,4.33,14.95,1.24,4.13,2.7,8.25,2.73,12.61.07,8.48-2.15,16.3-7.52,23-4.44,5.52-10.47,8.23-17.39,9.13-10.11,1.32-19.13-1.75-27.53-7-3.47-2.18-7-4.21-11-5.19-14.71-3.59-28-.6-40,8.48a31.67,31.67,0,0,0-8.4,9.76,21.72,21.72,0,0,0-2,17.58A37.81,37.81,0,0,0,779.21,398c1.37,1.56,2.78,3.09,4.15,4.65,6,6.87,7.79,14.67,5.06,23.44a58.32,58.32,0,0,1-19.86,29c-10.32,8.19-22,13.48-34.71,16.81a149,149,0,0,1-37.2,5.12c-6.31,0-12.63-.46-18.92-1-15.85-1.36-31.64-3.41-47.57-3.78-9-.22-17.92-.2-26.81,1.15a116.34,116.34,0,0,0-28.85,7.78,56.24,56.24,0,0,0-22.68,17.59,32.25,32.25,0,0,0-1.85,3l.08-.08-2.64,3.93H396.65c-.68-3.36.28-6.3,1.42-9.22.32-.8.57-1.64.85-2.46l-.08.12c.35-.41.72-.8,1-1.23q2.58-3.57,5.12-7.18c.41-.57.76-1.17,1.13-1.76L406,484c1.76-1.68,3.54-3.34,5.28-5,.72-.7,1.34-1.49,2-2.25Z" transform="translate(-318.92 -85.09)"/><path class="cls-3" d="M391.78,505.71H335.12A33.6,33.6,0,0,1,336.83,495a56.82,56.82,0,0,1,15.38-22.85c8-7.41,17.36-12.44,27.57-16.07a141.43,141.43,0,0,0,20.62-9,46.78,46.78,0,0,0,15.92-13.94,28.76,28.76,0,0,0,5.52-17.53c-.07-5.2-.26-10.39-.48-15.58-.68-15.76,6.59-27.11,19.71-35,9.74-5.9,20.45-9.37,31.6-11.51a148.78,148.78,0,0,1,36.56-2c10.14.57,20.28,1.15,30.42,1.68a206,206,0,0,0,27.33-.52c8-.64,15.93-1.41,23.83-2.61,13.54-2.06,26.83-5.21,39.54-10.45a72.44,72.44,0,0,0,18.3-10.85,58.43,58.43,0,0,0,21.41-37.66c1.53-10.06,1.55-20.1-1-30a57.28,57.28,0,0,0-13.85-24.89,30.55,30.55,0,0,0-11.89-7.9c-4.33-1.63-8.77-3-13.19-4.38a86.31,86.31,0,0,1-15.55-6.23,45.77,45.77,0,0,1-9.88-7.15,22.74,22.74,0,0,1-7-14.08,62.36,62.36,0,0,1,3.78-29.91,42.61,42.61,0,0,1,9.2-14.22A96.43,96.43,0,0,1,656.89,125a38.49,38.49,0,0,1,19.93-.34,18.72,18.72,0,0,1,5.82,2.69c3.76,2.65,4.42,6.64,2,10.52a22.64,22.64,0,0,1-2.53,3.18c-1.66,1.84-3.55,3.5-5,5.47a52.79,52.79,0,0,0-4.46,7.06,7.11,7.11,0,0,0,1,8.29,16.09,16.09,0,0,0,4.54,3.8,34.41,34.41,0,0,0,20.1,4.27c1.75-.18,3.5-.34,5.26-.47a37.83,37.83,0,0,0,15-4.7,46.72,46.72,0,0,1,13-4.86,25.82,25.82,0,0,1,4.27-.6c2.89-.08,3.63,1.12,2.39,3.71-1,2-2.08,4-2.93,6-2.62,6.36-.15,12.68,6,15.71a30.26,30.26,0,0,0,10.67,2.5,45.16,45.16,0,0,0,16.65-1.15c7.47-2.1,12-6.95,13.87-14.43.23-.93.46-1.86.61-2.81a12.18,12.18,0,0,1,8-9.76,38.6,38.6,0,0,1,8.3-2.19,59.47,59.47,0,0,1,8.13-.52c10.61-.26,19-4.9,25.75-12.85,3.1-3.66,5.81-7.65,8.89-11.31,3.71-4.4,7.5-8.75,11.51-12.87a64.72,64.72,0,0,1,8.07-6.77c6.35-4.69,13.55-5.87,21.19-4.46a34.25,34.25,0,0,1,6.64,2,16.11,16.11,0,0,1,8.31,7.31c1.87,3.52,3.55,7.16,5.11,10.83a24.28,24.28,0,0,0,7.22,9.7c1.11.89,2.36,1.63,3.75,2.57v1.92c0,10.48,0,21,0,31.43A3.18,3.18,0,0,1,912,177.2a25.68,25.68,0,0,0-8.19,7.27c-2.48,3.14-5,6.27-7.54,9.33a21.19,21.19,0,0,1-8.9,6.32,11.14,11.14,0,0,1-3.49.62,42,42,0,0,1-21.13-5.39q-7.62-4.08-15.24-8.13a80.49,80.49,0,0,0-19.64-7.53,45,45,0,0,0-19.73-.37A136.45,136.45,0,0,0,787.59,185c-6.19,2.35-12,5.4-16.81,10-6.53,6.25-14.54,8.41-23.13,9.22a107.46,107.46,0,0,0-22.15,4,30.46,30.46,0,0,0-21.66,29.09A24.39,24.39,0,0,0,706,247.55a44.59,44.59,0,0,0,9,13.18c2.62,2.69,5.44,5.18,8.2,7.73,7.57,7,15.18,14,22.71,21,1.81,1.69,3.42,3.59,5.08,5.43,5.14,5.67,6.16,12.24,4.24,19.46A33.31,33.31,0,0,1,726.8,339a123.1,123.1,0,0,1-14.6.94c-21.27-.15-42.06,3.16-62.55,8.52q-14.25,3.72-28.23,8.46c-9.87,3.34-19.07,8.2-28,13.52a77.17,77.17,0,0,0-23.14,21.29q-3.74,5.14-7.28,10.42A60.14,60.14,0,0,1,542.49,421a116.41,116.41,0,0,1-45.8,14.64c-7.31.8-14.66,1.31-21.93,2.36-12.21,1.76-24.25,4.4-35.71,9.07-19.27,7.85-34.11,20.56-42.64,39.93A48.13,48.13,0,0,0,392,504.53C392,504.84,391.87,505.15,391.78,505.71Zm276.29-335.4c2.73-1.5,3.16-2.95,1.41-5.26a12.32,12.32,0,0,1-3-6.61,3.85,3.85,0,0,0-5.19-3.12,15.32,15.32,0,0,0-3.05,1.33,6.08,6.08,0,0,0-3,4.37,9.17,9.17,0,0,0,6.45,10.38,6.78,6.78,0,0,0,6.47-1.18Zm-45,8.88c0-.8.06-1.6,0-2.39a9.83,9.83,0,0,0-11.37-9A6.9,6.9,0,0,0,606,173c-.27.92-.58,1.82-.9,2.72-3.09,8.58-3,16.92,1.87,24.89,3.81,6.29,9.47,9.09,16.75,8.51,3.56-.29,5.81-2.41,7-5.73A9,9,0,0,0,630,196c-1.24-2.32-2.64-4.56-4-6.79A17.19,17.19,0,0,1,623.06,179.19Zm18.78-22.26a19,19,0,0,0,11.24-3.63c3.29-2.27,6.47-4.7,9.61-7.17a14.37,14.37,0,0,0,5-7.69,6.34,6.34,0,0,0-2.38-7c-2.29-1.86-4.87-2.67-7.8-1.43-4.93,2.08-9.89,4.1-14.81,6.21a37.7,37.7,0,0,0-4.93,2.45,11.93,11.93,0,0,0-5.31,6.86A8.48,8.48,0,0,0,639,156.65,22.52,22.52,0,0,0,641.84,156.93Z" transform="translate(-318.92 -85.09)"/><path class="cls-3" d="M415.42,341.92c6.92-5.44,15.17-7.27,23.59-8.57,11-1.7,22-1.38,33.05-1.35,12.4,0,24.8.09,37.19-.14a90.62,90.62,0,0,0,32.58-6.22c17.51-7.06,28.55-19.76,32.5-38.33a66.58,66.58,0,0,0,.51-22.44c-1.07-8.33-2.3-16.63-3.48-24.93a153,153,0,0,1-1.43-25.12A247.45,247.45,0,0,1,571.59,188c4.11-30.41,18.76-54.14,44.68-70.76,14.49-9.3,30.14-16,47.13-18.8,31.19-5.18,59.77,1.11,85,20.67,3.6,2.8,7.08,5.76,10.58,8.67a94.23,94.23,0,0,0,16.34,11.31,46.36,46.36,0,0,0,22.55,5.7c10.81-.19,20-4.13,26.8-12.71,5.65-7.15,10.87-14.63,16.31-22,2.43-3.27,4.91-6.5,7.41-9.73,6-7.81,14.18-12,23.73-13.69a39.14,39.14,0,0,1,11.93-.68,18.56,18.56,0,0,1,11.51,5.85,52.93,52.93,0,0,1,3.81,4.63,18.74,18.74,0,0,0,8,6.32,17.09,17.09,0,0,1,2.15,1c4.08,2.36,4.36,2.85,4.36,7.53q0,12.36,0,24.71v3.1a17.88,17.88,0,0,1-2.22-1.19,22.65,22.65,0,0,1-7.39-9c-1.07-2.49-2-5.07-3.23-7.48a42.44,42.44,0,0,0-4.47-7.34,19.39,19.39,0,0,0-12.6-6.81,58.48,58.48,0,0,0-10.5-.51A20.37,20.37,0,0,0,862.58,111a79.21,79.21,0,0,0-9.69,7.81c-7.13,6.82-13.16,14.61-19,22.52A36.08,36.08,0,0,1,822,151.61a30.76,30.76,0,0,1-14.17,3.93c-4.31.12-8.65.1-12.87,1.22a20.09,20.09,0,0,0-8.34,4,12.13,12.13,0,0,0-4.26,7.29,40.72,40.72,0,0,1-1,4.21A17.54,17.54,0,0,1,769,185.1c-6,1.86-12.15,1.87-18.29,1.15a37,37,0,0,1-7.92-1.79,10.92,10.92,0,0,1-7.58-8.55,9.68,9.68,0,0,1,.49-5.88c.83-1.91,1.76-3.76,2.64-5.64a19.12,19.12,0,0,0,1.16-2.63,2.2,2.2,0,0,0-1.61-3,9.4,9.4,0,0,0-3.08-.22,38.2,38.2,0,0,0-11.12,2.81,33.81,33.81,0,0,0-3.92,1.78A47.26,47.26,0,0,1,699.18,169a37.62,37.62,0,0,1-17.59-2.7,25.19,25.19,0,0,1-5.4-3.05c-3.64-2.77-4.47-6.29-2.42-10.35a36.34,36.34,0,0,1,3.94-6c1.49-1.87,3.28-3.5,4.88-5.29a25.12,25.12,0,0,0,2.81-3.56c2.53-4.1,1.75-8.28-2-11.29a19,19,0,0,0-9.28-3.62,46.25,46.25,0,0,0-21.31,2,100.85,100.85,0,0,0-40.57,24.28,50.28,50.28,0,0,0-15.12,30.8,61,61,0,0,0-.06,17.44,23.49,23.49,0,0,0,6.84,13.17A49.74,49.74,0,0,0,622,222c4.33,1.62,8.8,2.89,13.21,4.32,1,.32,2,.65,3,.94,10,2.86,17.44,9,22.92,17.8a56.54,56.54,0,0,1,8.88,26.3,81.77,81.77,0,0,1-2,25.95c-3.53,13.92-11.39,24.85-23,33.24-8,5.8-17,9.55-26.35,12.38a216.49,216.49,0,0,1-38.73,7.8,290.46,290.46,0,0,1-51.75,1.08c-8.22-.56-16.44-1.07-24.67-1.34-15.37-.51-30.51,1-45.19,5.9a89.56,89.56,0,0,0-19.54,9c-8.94,5.64-14.58,13.74-17.43,23.8a23.75,23.75,0,0,0-.8,6.4c0,5.11.3,10.23.34,15.34,0,3.35-.08,6.71-.36,10.05a21.43,21.43,0,0,1-3.17,9,42.88,42.88,0,0,1-15.1,15.12,127.06,127.06,0,0,1-19.75,9.21c-3.58,1.38-7.2,2.67-10.7,4.24-12.47,5.57-22.85,13.71-30.26,25.34a42.72,42.72,0,0,0-6.25,14.44c-.47,2.34-.67,4.73-1,7.1-2.72.93-3.68.59-4.65-1.9a9,9,0,0,1-.67-3.25c.18-8.33.68-16.59,3.73-24.52A47.39,47.39,0,0,1,348.52,455c4.43-3.41,9.12-6.49,13.81-9.54a66.67,66.67,0,0,0,13.73-11.15,39.56,39.56,0,0,0,9.83-22.47c.78-6.67,1.21-13.38,2-20,1.48-13,5.12-25.23,13.13-35.8,2.35-3.11,5.14-5.89,7.72-8.83.51-.58.95-1.23,1.42-1.85h0a2.52,2.52,0,0,0,2.25-1.5l-.1.08,2.14-1.51Zm-6.92,74.44-1.44,1.92c-.14,0-.34,0-.43.11-3.55,3.44-7.18,6.81-10.58,10.39a21.41,21.41,0,0,0-3.75,5.48c-1.69,3.57.65,6.68,4.61,6.23a11.7,11.7,0,0,0,4.5-1.47,35.2,35.2,0,0,0,15.5-17,20,20,0,0,0,1.55-10.06,4.35,4.35,0,0,0-3.55-4c-1.58-.22-3,.82-3.91,2.92a2.35,2.35,0,0,0-.07.71ZM712.09,159.59c.7-.11,1.26-.16,1.8-.28,4.5-1,9-2.05,13.5-3.12a7.71,7.71,0,0,0,2.18-1c3.23-2,3.1-5-.23-6.85a11.6,11.6,0,0,0-6.72-1.1c-3.74.27-7.32,1-10.33,3.29a16.86,16.86,0,0,0-3.84,4.15c-1.17,1.82-.34,3.65,1.68,4.41A14,14,0,0,0,712.09,159.59Z" transform="translate(-318.92 -85.09)"/><path class="cls-3" d="M550,501.83a5.84,5.84,0,0,0,1-.88c7.15-10.07,16.82-16.72,28.33-20.83a122.07,122.07,0,0,1,39-7.09A307.18,307.18,0,0,1,655,474.72c10.34,1,20.69,2.08,31,2.86a140.28,140.28,0,0,0,34.65-2,124.39,124.39,0,0,0,29.41-8.46A79.58,79.58,0,0,0,775,450.38a57.3,57.3,0,0,0,14.63-25.78c2.13-8,.29-15.19-4.91-21.55-1.46-1.8-3.07-3.48-4.6-5.22a38.19,38.19,0,0,1-8-14.08A21.06,21.06,0,0,1,774.35,366a32.79,32.79,0,0,1,10.19-10.67c11.25-7.39,23.4-9.91,36.62-6.7a31.8,31.8,0,0,1,10.61,4.87,45.07,45.07,0,0,0,18.57,7.39,32.58,32.58,0,0,0,18.79-2.27,26.15,26.15,0,0,0,13.6-14.21,45.94,45.94,0,0,0,3.24-12A27.92,27.92,0,0,0,884.9,321c-1.2-4.23-2.58-8.4-3.81-12.62-.82-2.84-1.62-5.69-2.24-8.58a30.88,30.88,0,0,1,13.47-32.92c4.09-2.69,8.78-3.78,13.52-4.58a29.3,29.3,0,0,1,4.77-.36,21.51,21.51,0,0,1,3.15.42V505.45c-1.77.52-361.31.69-365.2.15l1.49-3.85ZM782.48,379.9c.15,3.94,1.78,8.74,3.95,13.43,3,6.36,8.05,9.26,14.89,9.43,4.72.13,8.45-1.47,10.43-6.08a21.91,21.91,0,0,1,1.4-2.78c2.14-3.47,4.25-6.95,6.5-10.34,1.28-1.93,2.93-3.61,4.18-5.55a33.06,33.06,0,0,0,3.38-6.31,12.46,12.46,0,0,0-.66-10.89,15.23,15.23,0,0,0-16.75-6.88c-2.77.77-5.52,1.61-8.24,2.55A33.41,33.41,0,0,0,788.61,364C784.52,368,782.5,372.9,782.48,379.9Zm40,13c0,.55,0,.87.06,1.19.28,3.61,2.13,4.79,5.52,3.51.22-.09.44-.18.66-.29,4.89-2.32,7.7-6.33,9.14-11.39a5.58,5.58,0,0,0-1.34-5.14,4.2,4.2,0,0,0-5.39-1.14C826,382.67,822.87,387.06,822.5,392.94Z" transform="translate(-318.92 -85.09)"/><path class="cls-3" d="M398.92,494a16.5,16.5,0,0,0-2.93,8.92c-.06.86,0,1.73,0,2.75h-3.2a15.56,15.56,0,0,1,.57-6.72,68.26,68.26,0,0,1,24.2-38.42c10.1-8.22,21.69-13.44,34.17-16.81a187.21,187.21,0,0,1,35.84-6.33c12-.84,23.82-2.67,35.27-6.52a115.8,115.8,0,0,0,23.13-11,54.41,54.41,0,0,0,16.21-15.12c2.13-3,4.23-6,6.26-9.08a84.86,84.86,0,0,1,31.51-28.14,194.72,194.72,0,0,1,38.9-15.46,317.83,317.83,0,0,1,48.55-10c7.24-.87,14.51-1,21.79-1.24,6.62-.2,13.28-.51,19.84-1.36,16.39-2.12,27.7-18.18,28-31a17.71,17.71,0,0,0-3.54-11.7,71.06,71.06,0,0,0-7.13-8.07c-7.6-7.21-15.33-14.28-23.08-21.33-3.78-3.45-7.72-6.77-10.76-10.91a66,66,0,0,1-5.34-8.51,23.13,23.13,0,0,1-1.88-16.1,35.55,35.55,0,0,1,5.53-12.67,25.91,25.91,0,0,1,13.35-9.69,89.42,89.42,0,0,1,21.59-4.26,68,68,0,0,0,13.42-2.42,24.67,24.67,0,0,0,9.26-4.89c.67-.57,1.37-1.11,2-1.7a53.63,53.63,0,0,1,20.11-11.37c6.18-1.89,12.45-3.53,18.76-4.92,6.84-1.5,13.68-.76,20.42,1a76.21,76.21,0,0,1,16,6.3c5.09,2.68,10.15,5.42,15.24,8.12a50.93,50.93,0,0,0,13.34,5.25c2,.4,3.93.64,6.36,1a35,35,0,0,1-16.81-2c-2.76-1.08-5.48-2.24-8.21-3.38a73.82,73.82,0,0,0-46.29-3.79A89.51,89.51,0,0,0,789.89,199a45.29,45.29,0,0,0-18.07,16c-8.75,13.23-11.35,27.68-8.32,43.09,1.54,7.83,3.77,15.53,5.69,23.28,1.62,6.61,3,13.23,3.2,20.08.23,10.36-3.16,19.45-9.45,27.56a51.3,51.3,0,0,1-9.21,9.06,80.88,80.88,0,0,1-40.23,16.78c-8.09,1-16.25,1.4-24.39,1.91-12.08.76-24,2.1-35.63,5.83a65.37,65.37,0,0,0-28.45,18A113.65,113.65,0,0,0,613,396.16c-2.93,4.49-5.93,8.93-8.65,13.54-10.75,18.16-26.62,30.16-45.76,38.23a141,141,0,0,1-34.91,9.22A217.76,217.76,0,0,1,493,459c-9.51,0-19,.17-28.54.53a107.82,107.82,0,0,0-33.58,6.22,54.25,54.25,0,0,0-16.29,9.49,12.88,12.88,0,0,0-1.36,1.57l.08-.1c-1.71,1.5-3.48,2.95-5.13,4.53A23.41,23.41,0,0,0,406,484l.08-.09a26.47,26.47,0,0,0-7.28,10.17Z" transform="translate(-318.92 -85.09)"/><path class="cls-3" d="M782.89,252.52l-.72.71a22.22,22.22,0,0,0-1.57,2.08,54.58,54.58,0,0,0-7.26,23.85c-.32,4.13-.5,8.28-.75,12.72-.25-.66-.46-1.07-.57-1.5q-3.12-12.56-6.21-25.12a77.68,77.68,0,0,1-2.61-20.86c.42-14,5.74-25.92,15.11-36.11a41.45,41.45,0,0,1,15.54-10.17,90.26,90.26,0,0,1,36.51-6.76,69.66,69.66,0,0,1,23.08,5c3.2,1.25,6.34,2.64,9.54,3.91a36.65,36.65,0,0,0,19.3,2.15,22.89,22.89,0,0,0,14.1-7.52c2.81-3.16,5.29-6.62,8.08-9.8a75.86,75.86,0,0,1,6.13-6,19.45,19.45,0,0,1,3.06-1.9c.1.92.22,1.51.22,2.1q0,24.83,0,49.64c0,2.18-.1,2.37-2.18,3.13-4.66,1.72-9.52,2-14.42,1.77a74.71,74.71,0,0,1-22.42-4.75,164.7,164.7,0,0,0-22.71-6.8c-13.85-2.82-27.35-2-40.31,4.06-8.87,4.13-16,10.49-22.5,17.63a2.09,2.09,0,0,0-.24.65l.09-.09a16.44,16.44,0,0,0-4.88,5.85l.08-.1A2.35,2.35,0,0,0,782.89,252.52Z" transform="translate(-318.92 -85.09)"/><path class="cls-3" d="M410.12,345.35h0a50.7,50.7,0,0,0-9.82,10.45,64.2,64.2,0,0,0-11.92,28.48c-1.09,6.78-1.71,13.63-2.44,20.46-.51,4.68-.83,9.39-2.11,14-2.43,8.65-7.53,15.45-14.49,20.93-2.13,1.68-4.45,3.13-6.69,4.66-4.68,3.2-9.5,6.24-14,9.61-12.82,9.52-19.38,22.42-20.23,38.29-.1,1.84-.11,3.68-.28,5.51a12.5,12.5,0,0,0,1.55,8,29.88,29.88,0,0,1-6.53.09c-.42,0-.91-.81-1.13-1.35a33.12,33.12,0,0,1-2.12-16.24c1.77-16.11,9-29.12,22.19-38.72,4.33-3.16,8.7-6.26,13-9.46a66.4,66.4,0,0,0,12-11.7,43.6,43.6,0,0,0,8.34-16.06c2.45-9.1,4.81-18.23,7.18-27.35a78.74,78.74,0,0,1,17.14-31.81,51.19,51.19,0,0,1,13.67-11.18c.67-.38,1.37-.71,2.25-1.16l-.2,1.19-1,.5-2.14,1.51.1-.08Z" transform="translate(-318.92 -85.09)"/><path class="cls-3" d="M603.77,185.7a39,39,0,0,1,3.17-13c2.13-5.07,8.62-5.05,11.52-2.59,2.45,2.08,4.07,4.65,3.89,7.87-.28,5.14,1.41,9.53,4.25,13.66a50.89,50.89,0,0,1,2.85,5,8.56,8.56,0,0,1,.77,5.36c-.62,4.1-3.91,6.74-8.41,6.55-5.57-.24-10.26-2.37-13.42-7.12A25.66,25.66,0,0,1,603.77,185.7Z" transform="translate(-318.92 -85.09)"/><path class="cls-3" d="M641.7,156.14l-.74-.06c-8.3-.55-9.7-8.16-6.41-13.18a13.39,13.39,0,0,1,6-4.92c2.63-1.16,5.31-2.18,8-3.3s5.28-2.24,7.87-3.48a7.57,7.57,0,0,1,7.13,0,6,6,0,0,1,3.22,7.61,13.47,13.47,0,0,1-4.84,7c-3,2.27-6,4.53-9,6.7A19.63,19.63,0,0,1,641.7,156.14Z" transform="translate(-318.92 -85.09)"/><path class="cls-3" d="M668.16,170.22c-.53.15-1.08.26-1.59.45-5.27,1.92-10.74-2.59-10.77-8.2a6.71,6.71,0,0,1,6.89-6.54,3.23,3.23,0,0,1,3.1,3.07,10.85,10.85,0,0,0,2.54,5.82c2,2.53,1.95,2.55-.08,5.06a1.69,1.69,0,0,0-.18.43Z" transform="translate(-318.92 -85.09)"/><path class="cls-3" d="M407,418.24l1.44-1.92c1.57-1.21,2.06-3,2.39-4.8.56-.55,1.13-1.1,1.69-1.67,1.54-1.56,3.46-1.37,4.51.59a6.3,6.3,0,0,1,.6,2.51,20.45,20.45,0,0,1-2.06,10,35.22,35.22,0,0,1-14,15,16,16,0,0,1-4.2,1.64,4.89,4.89,0,0,1-2.56-.2c-2-.67-2.82-2.12-2.07-4.1a15.66,15.66,0,0,1,2.3-4.16,55.77,55.77,0,0,1,4.42-4.69c2.07-2.1,4.21-4.13,6.26-6.24A11.13,11.13,0,0,0,407,418.24Z" transform="translate(-318.92 -85.09)"/><path class="cls-3" d="M712.1,158.76a7.5,7.5,0,0,1-1.32-.16c-1.84-.5-2.58-2-1.62-3.69a10.37,10.37,0,0,1,2.45-2.9c4.34-3.41,9.24-5,14.76-3.82a11,11,0,0,1,3.48,1.51,2.38,2.38,0,0,1,.51,3.89,5.2,5.2,0,0,1-2.3,1.62c-4.95,1.25-9.93,2.35-14.9,3.49A6.67,6.67,0,0,1,712.1,158.76Z" transform="translate(-318.92 -85.09)"/><path class="cls-3" d="M783.31,378.6a18.27,18.27,0,0,1,6.12-14.3,30.62,30.62,0,0,1,5.74-4.28,45,45,0,0,1,16.19-5.58,14.44,14.44,0,0,1,13.42,5.32c2.67,3.14,3,6.88,1.91,10.63a28.21,28.21,0,0,1-3.22,6.63,57,57,0,0,1-4.18,5.54,59.79,59.79,0,0,0-7.22,11.55c-.35.72-.75,1.41-1.06,2.14-1.77,4.17-5.1,5.72-9.39,5.65-6.34-.11-11.28-2.53-14.17-8.45C785.16,388.74,783.37,383.92,783.31,378.6Z" transform="translate(-318.92 -85.09)"/><path class="cls-3" d="M837.21,384.85a6.92,6.92,0,0,1-.11,1c-1.55,5.05-4.39,9-9.46,11-2.66,1.05-4.12,0-4.31-2.88a13.53,13.53,0,0,1,1.65-7.15,16.65,16.65,0,0,1,5-5.74c1.4-1,2.94-1.65,4.68-.76A4.86,4.86,0,0,1,837.21,384.85Z" transform="translate(-318.92 -85.09)"/><path class="cls-4" d="M915.39,506.54c-1.11.09-2.22.24-3.33.24q-132.25,0-264.49,0-109.22,0-218.42,0c-12.15,0-24.31.28-36.47.29-21.12,0-42.23-.06-63.35-.13-2.39,0-4.77-.2-7.25-.32a31,31,0,0,1-2.88-9.81c-1.22-11.31,1.63-21.71,7.17-31.46a51.07,51.07,0,0,1,14.5-16.11c4.2-3.06,8.44-6.07,12.63-9.16A69.85,69.85,0,0,0,367,426.93c4.49-5.72,7-12.31,8.79-19.27,2.33-9.05,4.55-18.14,7.2-27.09,3.45-11.65,9.86-21.67,18.22-30.37s18.82-13.62,30.42-16.35a114.6,114.6,0,0,1,25.24-2.74c6.15-.06,12.31.14,18.47.11,12.24-.06,24.49,0,36.72-.39a82.32,82.32,0,0,0,31.23-6.76C561.45,316,571.81,302,574.2,282.19c.91-7.54.13-15-.84-22.47-1.22-9.35-2.58-18.68-3.8-28a60.08,60.08,0,0,1-.4-6.7,266.27,266.27,0,0,1,1.12-33.54c2.24-20,8.63-38.3,21.61-54,9.33-11.26,20.78-19.87,33.65-26.63S651.69,99.19,666,97.18c31-4.33,59.09,2.45,83.82,22,3.7,2.92,7.3,6,10.93,9A85.68,85.68,0,0,0,776,138.51c7.77,4,16,6.13,24.76,5.31s16.5-4.38,22.37-11.2c2.6-3,5-6.26,7.35-9.48,4.22-5.73,8.28-11.58,12.56-17.27,2.44-3.25,5.06-6.4,7.8-9.4,5-5.45,11.45-8.3,18.49-10a46.4,46.4,0,0,1,14-1.27,18.65,18.65,0,0,1,12.35,5.69,48,48,0,0,1,4.16,4.95,20.81,20.81,0,0,0,8,6.38,45.07,45.07,0,0,1,6.35,4.21,1.83,1.83,0,0,1,.58,1.2,19,19,0,0,1,0,2.39V258.74q0,122.22,0,244.45c0,1-.51,2.08.54,2.87ZM410.12,345.35c-.47.62-.91,1.27-1.42,1.85-2.58,2.94-5.37,5.72-7.72,8.83-8,10.57-11.65,22.82-13.13,35.8-.75,6.66-1.18,13.37-2,20a39.56,39.56,0,0,1-9.83,22.47,66.67,66.67,0,0,1-13.73,11.15c-4.69,3.05-9.38,6.13-13.81,9.54a47.39,47.39,0,0,0-15.81,20.69c-3,7.93-3.55,16.19-3.73,24.52a9,9,0,0,0,.67,3.25c1,2.49,1.93,2.83,4.65,1.9.33-2.37.53-4.76,1-7.1a42.72,42.72,0,0,1,6.25-14.44c7.41-11.63,17.79-19.77,30.26-25.34,3.5-1.57,7.12-2.86,10.7-4.24a127.06,127.06,0,0,0,19.75-9.21,42.88,42.88,0,0,0,15.1-15.12,21.43,21.43,0,0,0,3.17-9c.28-3.34.38-6.7.36-10.05,0-5.11-.34-10.23-.34-15.34a23.75,23.75,0,0,1,.8-6.4c2.85-10.06,8.49-18.16,17.43-23.8a89.56,89.56,0,0,1,19.54-9c14.68-4.92,29.82-6.41,45.19-5.9,8.23.27,16.45.78,24.67,1.34a290.46,290.46,0,0,0,51.75-1.08,216.49,216.49,0,0,0,38.73-7.8c9.39-2.83,18.35-6.58,26.35-12.38,11.56-8.39,19.42-19.32,23-33.24a81.77,81.77,0,0,0,2-25.95,56.54,56.54,0,0,0-8.88-26.3c-5.48-8.78-12.89-14.94-22.92-17.8-1-.29-2-.62-3-.94-4.41-1.43-8.88-2.7-13.21-4.32a49.74,49.74,0,0,1-18.07-11.08,23.49,23.49,0,0,1-6.84-13.17,61,61,0,0,1,.06-17.44,50.28,50.28,0,0,1,15.12-30.8A100.85,100.85,0,0,1,652.8,125.2a46.25,46.25,0,0,1,21.31-2,19,19,0,0,1,9.28,3.62c3.76,3,4.54,7.19,2,11.29a25.12,25.12,0,0,1-2.81,3.56c-1.6,1.79-3.39,3.42-4.88,5.29a36.34,36.34,0,0,0-3.94,6c-2,4.06-1.22,7.58,2.42,10.35a25.19,25.19,0,0,0,5.4,3.05,37.62,37.62,0,0,0,17.59,2.7,47.26,47.26,0,0,0,20.56-5.88,33.81,33.81,0,0,1,3.92-1.78,38.2,38.2,0,0,1,11.12-2.81,9.4,9.4,0,0,1,3.08.22,2.2,2.2,0,0,1,1.61,3,19.12,19.12,0,0,1-1.16,2.63c-.88,1.88-1.81,3.73-2.64,5.64a9.68,9.68,0,0,0-.49,5.88,10.92,10.92,0,0,0,7.58,8.55,37,37,0,0,0,7.92,1.79c6.14.72,12.28.71,18.29-1.15a17.54,17.54,0,0,0,12.44-12.8,40.72,40.72,0,0,0,1-4.21,12.13,12.13,0,0,1,4.26-7.29,20.09,20.09,0,0,1,8.34-4c4.22-1.12,8.56-1.1,12.87-1.22A30.76,30.76,0,0,0,822,151.61a36.08,36.08,0,0,0,11.86-10.26c5.85-7.91,11.88-15.7,19-22.52a79.21,79.21,0,0,1,9.69-7.81,20.37,20.37,0,0,1,10.88-4.08,58.48,58.48,0,0,1,10.5.51,19.39,19.39,0,0,1,12.6,6.81A42.44,42.44,0,0,1,901,121.6c1.24,2.41,2.16,5,3.23,7.48a22.65,22.65,0,0,0,7.39,9,17.88,17.88,0,0,0,2.22,1.19v-3.1q0-12.34,0-24.71c0-4.68-.28-5.17-4.36-7.53a17.09,17.09,0,0,0-2.15-1,18.74,18.74,0,0,1-8-6.32,52.93,52.93,0,0,0-3.81-4.63,18.56,18.56,0,0,0-11.51-5.85,39.14,39.14,0,0,0-11.93.68c-9.55,1.7-17.7,5.88-23.73,13.69-2.5,3.23-5,6.46-7.41,9.73-5.44,7.32-10.66,14.8-16.31,22-6.77,8.58-16,12.52-26.8,12.71a46.36,46.36,0,0,1-22.55-5.7A94.23,94.23,0,0,1,759,127.81c-3.5-2.91-7-5.87-10.58-8.67-25.24-19.56-53.82-25.85-85-20.67-17,2.83-32.64,9.5-47.13,18.8-25.92,16.62-40.57,40.35-44.68,70.76a247.45,247.45,0,0,0-1.66,26.79,153,153,0,0,0,1.43,25.12c1.18,8.3,2.41,16.6,3.48,24.93a66.58,66.58,0,0,1-.51,22.44c-4,18.57-15,31.27-32.5,38.33a90.62,90.62,0,0,1-32.58,6.22c-12.39.23-24.79.18-37.19.14-11,0-22.08-.35-33.05,1.35-8.42,1.3-16.67,3.13-23.59,8.57.05-.3.1-.61.2-1.19-.88.45-1.58.78-2.25,1.16a51.19,51.19,0,0,0-13.67,11.18,78.74,78.74,0,0,0-17.14,31.81c-2.37,9.12-4.73,18.25-7.18,27.35A43.6,43.6,0,0,1,367,428.29a66.4,66.4,0,0,1-12,11.7c-4.3,3.2-8.67,6.3-13,9.46-13.17,9.6-20.42,22.61-22.19,38.72A33.12,33.12,0,0,0,322,504.41c.22.54.71,1.32,1.13,1.35a29.88,29.88,0,0,0,6.53-.09,12.5,12.5,0,0,1-1.55-8c.17-1.83.18-3.67.28-5.51.85-15.87,7.41-28.77,20.23-38.29,4.55-3.37,9.37-6.41,14-9.61,2.24-1.53,4.56-3,6.69-4.66,7-5.48,12.06-12.28,14.49-20.93,1.28-4.57,1.6-9.28,2.11-14,.73-6.83,1.35-13.68,2.44-20.46A64.2,64.2,0,0,1,400.3,355.8,50.7,50.7,0,0,1,410.12,345.35Zm372-92.12a19.91,19.91,0,0,1-1,2.15,53.4,53.4,0,0,0-7.35,23.82c-.52,7.16-.49,14.36-.56,21.54a49.49,49.49,0,0,1-1.22,11.65c-2.61,10.39-8.42,18.71-16.65,25.41-13.56,11-29.21,16.93-46.51,18.54-7.72.72-15.47,1-23.21,1.5a150.9,150.9,0,0,0-26.05,3.83c-14.58,3.57-26.95,10.78-36.55,22.4-3.4,4.13-6.59,8.44-9.61,12.85-3.84,5.61-7.37,11.41-11.08,17.11a80.5,80.5,0,0,1-10.31,12.9c-9.75,9.78-21.29,16.84-34,22-17,6.92-34.81,10-53.08,10.6-11.9.38-23.82.26-35.73.56A136.77,136.77,0,0,0,442,463.26c-10.2,2.34-19.63,6.22-27.68,13.08a4.71,4.71,0,0,1-1,.51,12.88,12.88,0,0,1,1.36-1.57,54.25,54.25,0,0,1,16.29-9.49,107.82,107.82,0,0,1,33.58-6.22c9.51-.36,19-.51,28.54-.53a217.76,217.76,0,0,0,30.63-1.89,141,141,0,0,0,34.91-9.22c19.14-8.07,35-20.07,45.76-38.23,2.72-4.61,5.72-9.05,8.65-13.54A113.65,113.65,0,0,1,625,380.66a65.37,65.37,0,0,1,28.45-18c11.59-3.73,23.55-5.07,35.63-5.83,8.14-.51,16.3-.91,24.39-1.91a80.88,80.88,0,0,0,40.23-16.78,51.3,51.3,0,0,0,9.21-9.06c6.29-8.11,9.68-17.2,9.45-27.56-.15-6.85-1.58-13.47-3.2-20.08-1.92-7.75-4.15-15.45-5.69-23.28-3-15.41-.43-29.86,8.32-43.09a45.29,45.29,0,0,1,18.07-16,89.51,89.51,0,0,1,19.53-6.46,73.82,73.82,0,0,1,46.29,3.79c2.73,1.14,5.45,2.3,8.21,3.38a35,35,0,0,0,16.81,2c-2.43-.39-4.41-.63-6.36-1A50.93,50.93,0,0,1,861,195.41c-5.09-2.7-10.15-5.44-15.24-8.12a76.21,76.21,0,0,0-16-6.3c-6.74-1.79-13.58-2.53-20.42-1-6.31,1.39-12.58,3-18.76,4.92a53.63,53.63,0,0,0-20.11,11.37c-.65.59-1.35,1.13-2,1.7a24.67,24.67,0,0,1-9.26,4.89,68,68,0,0,1-13.42,2.42,89.42,89.42,0,0,0-21.59,4.26,25.91,25.91,0,0,0-13.35,9.69,35.55,35.55,0,0,0-5.53,12.67,23.13,23.13,0,0,0,1.88,16.1,66,66,0,0,0,5.34,8.51c3,4.14,7,7.46,10.76,10.91,7.75,7.05,15.48,14.12,23.08,21.33a71.06,71.06,0,0,1,7.13,8.07A17.71,17.71,0,0,1,757,308.5c-.31,12.82-11.62,28.88-28,31-6.56.85-13.22,1.16-19.84,1.36-7.28.21-14.55.37-21.79,1.24a317.83,317.83,0,0,0-48.55,10,194.72,194.72,0,0,0-38.9,15.46,84.86,84.86,0,0,0-31.51,28.14c-2,3.06-4.13,6.09-6.26,9.08A54.41,54.41,0,0,1,546,419.9a115.8,115.8,0,0,1-23.13,11c-11.45,3.85-23.26,5.68-35.27,6.52a187.21,187.21,0,0,0-35.84,6.33c-12.48,3.37-24.07,8.59-34.17,16.81A68.26,68.26,0,0,0,393.35,499a15.56,15.56,0,0,0-.57,6.72H396c0-1-.05-1.89,0-2.75a16.5,16.5,0,0,1,2.93-8.92c-.28.82-.53,1.66-.85,2.46-1.14,2.92-2.1,5.86-1.42,9.22H547.41l2.65-3.93c-.5,1.26-1,2.53-1.5,3.85,3.89.54,363.43.37,365.2-.15V262.38a21.51,21.51,0,0,0-3.15-.42,29.3,29.3,0,0,0-4.77.36c-4.74.8-9.43,1.89-13.52,4.58a30.88,30.88,0,0,0-13.47,32.92c.62,2.89,1.42,5.74,2.24,8.58,1.23,4.22,2.61,8.39,3.81,12.62A27.92,27.92,0,0,1,886,332.4a45.94,45.94,0,0,1-3.24,12,26.15,26.15,0,0,1-13.6,14.21,32.58,32.58,0,0,1-18.79,2.27,45.07,45.07,0,0,1-18.57-7.39,31.8,31.8,0,0,0-10.61-4.87c-13.22-3.21-25.37-.69-36.62,6.7A32.79,32.79,0,0,0,774.35,366a21.06,21.06,0,0,0-2.18,17.75,38.19,38.19,0,0,0,8,14.08c1.53,1.74,3.14,3.42,4.6,5.22,5.2,6.36,7,13.52,4.91,21.55A57.3,57.3,0,0,1,775,450.38a79.58,79.58,0,0,1-24.94,16.76,124.39,124.39,0,0,1-29.41,8.46,140.28,140.28,0,0,1-34.65,2c-10.36-.78-20.71-1.82-31-2.86A307.18,307.18,0,0,0,618.33,473a122.07,122.07,0,0,0-39,7.09C567.82,484.23,558.15,490.88,551,501a5.84,5.84,0,0,1-1,.88,32.25,32.25,0,0,1,1.85-3,56.24,56.24,0,0,1,22.68-17.59,116.34,116.34,0,0,1,28.85-7.78c8.89-1.35,17.84-1.37,26.81-1.15,15.93.37,31.72,2.42,47.57,3.78,6.29.54,12.61,1,18.92,1a149,149,0,0,0,37.2-5.12c12.66-3.33,24.39-8.62,34.71-16.81a58.32,58.32,0,0,0,19.86-29c2.73-8.77,1-16.57-5.06-23.44-1.37-1.56-2.78-3.09-4.15-4.65a37.81,37.81,0,0,1-7.84-14.16,21.72,21.72,0,0,1,2-17.58,31.67,31.67,0,0,1,8.4-9.76c12-9.08,25.34-12.07,40-8.48,4,1,7.53,3,11,5.19,8.4,5.26,17.42,8.33,27.53,7,6.92-.9,12.95-3.61,17.39-9.13,5.37-6.69,7.59-14.51,7.52-23,0-4.36-1.49-8.48-2.73-12.61-1.48-5-3.19-9.9-4.33-14.95-2.39-10.56-.25-20.22,6.89-28.47s16.47-11.16,27.06-10.87c.52,0,1,0,1.59,0v-29c-1.44.48-2.7,1-4,1.32-5.82,1.57-11.73,1.32-17.63.7A77.86,77.86,0,0,1,874.93,230c-10.27-3.55-20.49-7.23-31.46-8.19-14.55-1.26-28,1.78-40,10.21a87.84,87.84,0,0,0-12.57,11.1,21.52,21.52,0,0,1-1.79,1.5,2.09,2.09,0,0,1,.24-.65c6.51-7.14,13.63-13.5,22.5-17.63,13-6,26.46-6.88,40.31-4.06a164.7,164.7,0,0,1,22.71,6.8,74.71,74.71,0,0,0,22.42,4.75c4.9.2,9.76-.05,14.42-1.77,2.08-.76,2.18-.95,2.18-3.13q0-24.83,0-49.64c0-.59-.12-1.18-.22-2.1a19.45,19.45,0,0,0-3.06,1.9,75.86,75.86,0,0,0-6.13,6c-2.79,3.18-5.27,6.64-8.08,9.8a22.89,22.89,0,0,1-14.1,7.52,36.65,36.65,0,0,1-19.3-2.15c-3.2-1.27-6.34-2.66-9.54-3.91a69.66,69.66,0,0,0-23.08-5,90.26,90.26,0,0,0-36.51,6.76,41.45,41.45,0,0,0-15.54,10.17c-9.37,10.19-14.69,22.13-15.11,36.11a77.68,77.68,0,0,0,2.61,20.86q3.08,12.57,6.21,25.12c.11.43.32.84.57,1.5.25-4.44.43-8.59.75-12.72a54.58,54.58,0,0,1,7.26-23.85A22.22,22.22,0,0,1,782.17,253.23ZM391.78,505.71c.09-.56.18-.87.2-1.18A48.13,48.13,0,0,1,396.41,487c8.53-19.37,23.37-32.08,42.64-39.93,11.46-4.67,23.5-7.31,35.71-9.07,7.27-1.05,14.62-1.56,21.93-2.36A116.41,116.41,0,0,0,542.49,421,60.14,60.14,0,0,0,563,402.17q3.54-5.28,7.28-10.42a77.17,77.17,0,0,1,23.14-21.29c9-5.32,18.16-10.18,28-13.52q14-4.72,28.23-8.46c20.49-5.36,41.28-8.67,62.55-8.52a123.1,123.1,0,0,0,14.6-.94,33.31,33.31,0,0,0,28.48-24.65c1.92-7.22.9-13.79-4.24-19.46-1.66-1.84-3.27-3.74-5.08-5.43-7.53-7-15.14-14-22.71-21-2.76-2.55-5.58-5-8.2-7.73a44.59,44.59,0,0,1-9-13.18,24.39,24.39,0,0,1-2.17-10.25,30.46,30.46,0,0,1,21.66-29.09,107.46,107.46,0,0,1,22.15-4c8.59-.81,16.6-3,23.13-9.22,4.78-4.58,10.62-7.63,16.81-10a136.45,136.45,0,0,1,20.53-5.72,45,45,0,0,1,19.73.37,80.49,80.49,0,0,1,19.64,7.53q7.63,4,15.24,8.13a42,42,0,0,0,21.13,5.39,11.14,11.14,0,0,0,3.49-.62,21.19,21.19,0,0,0,8.9-6.32c2.58-3.06,5.06-6.19,7.54-9.33A25.68,25.68,0,0,1,912,177.2a3.18,3.18,0,0,0,1.93-3.36c-.06-10.48,0-21,0-31.43v-1.92c-1.39-.94-2.64-1.68-3.75-2.57a24.28,24.28,0,0,1-7.22-9.7c-1.56-3.67-3.24-7.31-5.11-10.83a16.11,16.11,0,0,0-8.31-7.31,34.25,34.25,0,0,0-6.64-2c-7.64-1.41-14.84-.23-21.19,4.46a64.72,64.72,0,0,0-8.07,6.77c-4,4.12-7.8,8.47-11.51,12.87-3.08,3.66-5.79,7.65-8.89,11.31-6.71,8-15.14,12.59-25.75,12.85a59.47,59.47,0,0,0-8.13.52,38.6,38.6,0,0,0-8.3,2.19,12.18,12.18,0,0,0-8,9.76c-.15.95-.38,1.88-.61,2.81-1.83,7.48-6.4,12.33-13.87,14.43a45.16,45.16,0,0,1-16.65,1.15,30.26,30.26,0,0,1-10.67-2.5c-6.19-3-8.66-9.35-6-15.71.85-2.06,2-4,2.93-6,1.24-2.59.5-3.79-2.39-3.71a25.82,25.82,0,0,0-4.27.6,46.72,46.72,0,0,0-13,4.86,37.83,37.83,0,0,1-15,4.7c-1.76.13-3.51.29-5.26.47a34.41,34.41,0,0,1-20.1-4.27,16.09,16.09,0,0,1-4.54-3.8,7.11,7.11,0,0,1-1-8.29,52.79,52.79,0,0,1,4.46-7.06c1.48-2,3.37-3.63,5-5.47a22.64,22.64,0,0,0,2.53-3.18c2.45-3.88,1.79-7.87-2-10.52a18.72,18.72,0,0,0-5.82-2.69,38.49,38.49,0,0,0-19.93.34,96.43,96.43,0,0,0-46.22,27.38,42.61,42.61,0,0,0-9.2,14.22,62.36,62.36,0,0,0-3.78,29.91,22.74,22.74,0,0,0,7,14.08,45.77,45.77,0,0,0,9.88,7.15,86.31,86.31,0,0,0,15.55,6.23c4.42,1.39,8.86,2.75,13.19,4.38a30.55,30.55,0,0,1,11.89,7.9,57.28,57.28,0,0,1,13.85,24.89c2.52,9.9,2.5,19.94,1,30a58.43,58.43,0,0,1-21.41,37.66,72.44,72.44,0,0,1-18.3,10.85c-12.71,5.24-26,8.39-39.54,10.45-7.9,1.2-15.87,2-23.83,2.61a206,206,0,0,1-27.33.52c-10.14-.53-20.28-1.11-30.42-1.68a148.78,148.78,0,0,0-36.56,2c-11.15,2.14-21.86,5.61-31.6,11.51-13.12,7.93-20.39,19.28-19.71,35,.22,5.19.41,10.38.48,15.58a28.76,28.76,0,0,1-5.52,17.53,46.78,46.78,0,0,1-15.92,13.94,141.43,141.43,0,0,1-20.62,9c-10.21,3.63-19.58,8.66-27.57,16.07A56.82,56.82,0,0,0,336.83,495a33.6,33.6,0,0,0-1.71,10.68Z" transform="translate(-318.92 -85.09)"/><path class="cls-4" d="M398.84,494.12A26.47,26.47,0,0,1,406.12,484c-.37.59-.72,1.19-1.13,1.76q-2.55,3.6-5.12,7.18C399.56,493.32,399.19,493.71,398.84,494.12Z" transform="translate(-318.92 -85.09)"/><path class="cls-4" d="M406,484a23.41,23.41,0,0,1,2.15-2.76c1.65-1.58,3.42-3,5.13-4.53-.66.76-1.28,1.55-2,2.25C409.58,480.7,407.8,482.36,406,484Z" transform="translate(-318.92 -85.09)"/><path class="cls-4" d="M784.31,250.38a16.44,16.44,0,0,1,4.88-5.85Z" transform="translate(-318.92 -85.09)"/><path class="cls-4" d="M782.89,252.52a2.35,2.35,0,0,1,1.5-2.24Z" transform="translate(-318.92 -85.09)"/><path class="cls-4" d="M623.06,179.19a17.19,17.19,0,0,0,2.91,10c1.4,2.23,2.8,4.47,4,6.79a9,9,0,0,1,.68,7.43c-1.17,3.32-3.42,5.44-7,5.73-7.28.58-12.94-2.22-16.75-8.51-4.84-8-5-16.31-1.87-24.89.32-.9.63-1.8.9-2.72a6.9,6.9,0,0,1,5.69-5.18,9.83,9.83,0,0,1,11.37,9C623.12,177.59,623.06,178.39,623.06,179.19Zm-19.29,6.51a25.66,25.66,0,0,0,4.62,15.7c3.16,4.75,7.85,6.88,13.42,7.12,4.5.19,7.79-2.45,8.41-6.55a8.56,8.56,0,0,0-.77-5.36,50.89,50.89,0,0,0-2.85-5c-2.84-4.13-4.53-8.52-4.25-13.66.18-3.22-1.44-5.79-3.89-7.87-2.9-2.46-9.39-2.48-11.52,2.59A39,39,0,0,0,603.77,185.7Z" transform="translate(-318.92 -85.09)"/><path class="cls-4" d="M641.84,156.93a22.52,22.52,0,0,1-2.86-.28,8.48,8.48,0,0,1-6.48-11.16,11.93,11.93,0,0,1,5.31-6.86,37.7,37.7,0,0,1,4.93-2.45c4.92-2.11,9.88-4.13,14.81-6.21,2.93-1.24,5.51-.43,7.8,1.43a6.34,6.34,0,0,1,2.38,7,14.37,14.37,0,0,1-5,7.69c-3.14,2.47-6.32,4.9-9.61,7.17A19,19,0,0,1,641.84,156.93Zm-.14-.79a19.63,19.63,0,0,0,11.18-3.64c3.06-2.17,6.07-4.43,9-6.7a13.47,13.47,0,0,0,4.84-7,6,6,0,0,0-3.22-7.61,7.57,7.57,0,0,0-7.13,0c-2.59,1.24-5.23,2.35-7.87,3.48s-5.33,2.14-8,3.3a13.39,13.39,0,0,0-6,4.92c-3.29,5-1.89,12.63,6.41,13.18Z" transform="translate(-318.92 -85.09)"/><path class="cls-4" d="M668.16,170.22a6.78,6.78,0,0,1-6.47,1.18A9.17,9.17,0,0,1,655.24,161a6.08,6.08,0,0,1,3-4.37,15.32,15.32,0,0,1,3.05-1.33,3.85,3.85,0,0,1,5.19,3.12,12.32,12.32,0,0,0,3,6.61c1.75,2.31,1.32,3.76-1.41,5.26a1.69,1.69,0,0,1,.18-.43c2-2.51,2-2.53.08-5.06a10.85,10.85,0,0,1-2.54-5.82,3.23,3.23,0,0,0-3.1-3.07,6.71,6.71,0,0,0-6.89,6.54c0,5.61,5.5,10.12,10.77,8.2C667.08,170.48,667.63,170.37,668.16,170.22Z" transform="translate(-318.92 -85.09)"/><path class="cls-4" d="M410.93,411.57a2.35,2.35,0,0,1,.07-.71c.92-2.1,2.33-3.14,3.91-2.92a4.35,4.35,0,0,1,3.55,4A20,20,0,0,1,416.91,422a35.2,35.2,0,0,1-15.5,17,11.7,11.7,0,0,1-4.5,1.47c-4,.45-6.3-2.66-4.61-6.23a21.41,21.41,0,0,1,3.75-5.48c3.4-3.58,7-6.95,10.58-10.39.09-.09.29-.07.43-.11l0,0a11.13,11.13,0,0,1-1.24,1.95c-2,2.11-4.19,4.14-6.26,6.24a55.77,55.77,0,0,0-4.42,4.69,15.66,15.66,0,0,0-2.3,4.16c-.75,2,0,3.43,2.07,4.1a4.89,4.89,0,0,0,2.56.2,16,16,0,0,0,4.2-1.64,35.22,35.22,0,0,0,14-15,20.45,20.45,0,0,0,2.06-10,6.3,6.3,0,0,0-.6-2.51c-1.05-2-3-2.15-4.51-.59-.56.57-1.13,1.12-1.69,1.67Z" transform="translate(-318.92 -85.09)"/><path class="cls-4" d="M712.09,159.59a14,14,0,0,1-2-.46c-2-.76-2.85-2.59-1.68-4.41a16.86,16.86,0,0,1,3.84-4.15c3-2.28,6.59-3,10.33-3.29a11.6,11.6,0,0,1,6.72,1.1c3.33,1.84,3.46,4.82.23,6.85a7.71,7.71,0,0,1-2.18,1c-4.49,1.07-9,2.09-13.5,3.12C713.35,159.43,712.79,159.48,712.09,159.59Zm0-.83a6.67,6.67,0,0,0,1.06-.06c5-1.14,10-2.24,14.9-3.49a5.2,5.2,0,0,0,2.3-1.62,2.38,2.38,0,0,0-.51-3.89,11,11,0,0,0-3.48-1.51c-5.52-1.16-10.42.41-14.76,3.82a10.37,10.37,0,0,0-2.45,2.9c-1,1.66-.22,3.19,1.62,3.69A7.5,7.5,0,0,0,712.1,158.76Z" transform="translate(-318.92 -85.09)"/><path class="cls-4" d="M408.5,416.36l2.43-4.79-.08-.05c-.33,1.83-.82,3.59-2.39,4.8Z" transform="translate(-318.92 -85.09)"/><path class="cls-4" d="M412.27,343.93l2.14-1.51Z" transform="translate(-318.92 -85.09)"/><path class="cls-4" d="M410.12,345.35l2.25-1.5A2.52,2.52,0,0,1,410.12,345.35Z" transform="translate(-318.92 -85.09)"/><path class="cls-4" d="M407.06,418.28l1.44-1.92,0,0L407,418.24Z" transform="translate(-318.92 -85.09)"/><path class="cls-4" d="M782.48,379.9c0-7,2-11.87,6.13-15.9a33.41,33.41,0,0,1,12.95-7.52c2.72-.94,5.47-1.78,8.24-2.55a15.23,15.23,0,0,1,16.75,6.88,12.46,12.46,0,0,1,.66,10.89,33.06,33.06,0,0,1-3.38,6.31c-1.25,1.94-2.9,3.62-4.18,5.55-2.25,3.39-4.36,6.87-6.5,10.34a21.91,21.91,0,0,0-1.4,2.78c-2,4.61-5.71,6.21-10.43,6.08-6.84-.17-11.93-3.07-14.89-9.43C784.26,388.64,782.63,383.84,782.48,379.9Zm.83-1.3c.06,5.32,1.85,10.14,4.14,14.85,2.89,5.92,7.83,8.34,14.17,8.45,4.29.07,7.62-1.48,9.39-5.65.31-.73.71-1.42,1.06-2.14a59.79,59.79,0,0,1,7.22-11.55,57,57,0,0,0,4.18-5.54,28.21,28.21,0,0,0,3.22-6.63c1.09-3.75.76-7.49-1.91-10.63a14.44,14.44,0,0,0-13.42-5.32A45,45,0,0,0,795.17,360a30.62,30.62,0,0,0-5.74,4.28A18.27,18.27,0,0,0,783.31,378.6Z" transform="translate(-318.92 -85.09)"/><path class="cls-4" d="M822.5,392.94c.37-5.88,3.45-10.27,8.65-13.26a4.2,4.2,0,0,1,5.39,1.14,5.58,5.58,0,0,1,1.34,5.14c-1.44,5.06-4.25,9.07-9.14,11.39-.22.11-.44.2-.66.29-3.39,1.28-5.24.1-5.52-3.51C822.53,393.81,822.52,393.49,822.5,392.94Zm14.71-8.09a4.86,4.86,0,0,0-2.58-4.44c-1.74-.89-3.28-.28-4.68.76a16.65,16.65,0,0,0-5,5.74,13.53,13.53,0,0,0-1.65,7.15c.19,2.91,1.65,3.93,4.31,2.88,5.07-2,7.91-6,9.46-11A6.92,6.92,0,0,0,837.21,384.85Z" transform="translate(-318.92 -85.09)"/></g></svg>