<svg id="OBJECTS" xmlns="http://www.w3.org/2000/svg" xmlns:xlink="http://www.w3.org/1999/xlink" viewBox="0 0 430.81 334.58"><defs><style>.cls-1{fill:none;}.cls-2{clip-path:url(#clip-path);}.cls-3{fill:#f2ede7;}.cls-4{fill:#331e10;}</style><clipPath id="clip-path" transform="translate(7.85 19.21)"><rect class="cls-1" width="750" height="500"/></clipPath></defs><g class="cls-2"><path class="cls-3" d="M201,149.71c1.65,0,3.53-.57,6.53-1.51a44,44,0,0,0,5.93-2.38c1.88-.88,3.24-1.52,4.78-1.52a9.15,9.15,0,0,1,4.8,1.73,22.06,22.06,0,0,1,4.42,3.46,8.65,8.65,0,0,0,3,2.11l1.36.66a22.85,22.85,0,0,1,5.92,4h.07a.09.09,0,0,0,0-.1,6.13,6.13,0,0,0-3.5-4.89,19.11,19.11,0,0,1-7.29-5.64c-.39-.44-.77-.85-1.13-1.23-2.24-2.31-3.86-3.21-5.79-3.21a11.8,11.8,0,0,0-4.65,1.25c-3.13,1.36-6.42,2.57-9.91,3.86l-1.51.56a5.7,5.7,0,0,1-2,.36c-1.91,0-3.83-.94-6.25-2.13-.85-.42-1.78-.87-2.78-1.32a.3.3,0,0,0-.27.17.31.31,0,0,0,0,.32c3.7,4.59,6.5,5.32,6.62,5.32A6.52,6.52,0,0,0,201,149.71Z" transform="translate(7.85 19.21)"/><path class="cls-3" d="M190.66,69.37a.31.31,0,0,0-.09.35c.05.15.2.15.5.15a15.68,15.68,0,0,0,2.55-.37,12.89,12.89,0,0,1,12.62,2.89,71.7,71.7,0,0,1,8.9,8.87,12.26,12.26,0,0,0,9,4.8c2.13.13,5.75.39,9.27.65,4.71.34,9.11.66,9.71.66a5.39,5.39,0,0,0,3.53-1.44l.42-.31A62.79,62.79,0,0,0,254.19,80a10.21,10.21,0,0,1,7.37-3.27,20.47,20.47,0,0,1,4.92.8l1.16.28a5.5,5.5,0,0,0,1.07.14c.56,0,.73-.17.73-.31.19-.9-4.31-2.61-7-3.54a6.61,6.61,0,0,0-2.2-.38,9.13,9.13,0,0,0-5.15,1.86,45.72,45.72,0,0,0-3.73,3.07c-3,2.67-6.1,5.43-10.57,5.43a13.11,13.11,0,0,1-2.65-.29,10.82,10.82,0,0,0-2.34-.25,10.66,10.66,0,0,0-1.38.09,17.09,17.09,0,0,1-1.89.1A19.74,19.74,0,0,1,223,81c-5.92-3.23-9.81-6.31-12.89-10.5s-6.93-6.31-11.46-6.31h0c-1.78,0-1.78,0-5.21,2.86Z" transform="translate(7.85 19.21)"/><path class="cls-3" d="M249,85.57a.27.27,0,0,0-.06.32.3.3,0,0,0,.3.19c.14,0,2.12-.45,2.56-.59a13.57,13.57,0,0,1,4-.66,10.3,10.3,0,0,1,5.36,1.45,14,14,0,0,0,7.21,2c3.47,0,7-1.19,10.91-2.63,1.54-.57,2.08-.94,3.86-2.65,2.28-2.19,4.42-3.65,7.42-3.65,1.55,0,4.47,1.08,6.61,1.87a14.17,14.17,0,0,0,2.7.87c.11,0,.16,0,.2-.1s0-.25-.32-.49c-3.13-2.67-5.57-4.57-9-4.57a10.34,10.34,0,0,0-1.11.07,12.28,12.28,0,0,0-6.85,3.07,19.43,19.43,0,0,1-13.27,5.2,28,28,0,0,1-9.19-1.74,17.41,17.41,0,0,0-5.18-1.13C253,82.4,251,83.36,249,85.57Z" transform="translate(7.85 19.21)"/><path class="cls-3" d="M171,75.59c5.44-2.06,11.79-4.43,18-7.06a21.33,21.33,0,0,0,5.58-3.6c2.72-2.24,5.81-4.78,14.37-7.44a4.8,4.8,0,0,1,1.41-.19,6.23,6.23,0,0,1,3.07.78,34.13,34.13,0,0,1,7,5.73,14.09,14.09,0,0,0,9.17,4.65c4.42.55,7.33,1,9.26,1.27a28.19,28.19,0,0,0,2.89.37c.17,0,.33,0,.39-.13a.22.22,0,0,0,0-.27,8.81,8.81,0,0,0-5.44-4.39c-2.26-.56-4-.93-5.32-1.23-4.84-1.07-4.84-1.07-8.13-4.85-1.2-1.36-2.79-3.22-5.2-5.78a12.83,12.83,0,0,0-9.56-4.35,16.37,16.37,0,0,0-4.4.64,25,25,0,0,0-11.36,6.81,26.73,26.73,0,0,1-14.21,7.51,16.74,16.74,0,0,1-3.23.44h-.84a9.87,9.87,0,0,0-8.81,4.87c-2,3.24-3.72,6.42-5.4,9.49-5,9.16-8.93,16.4-15.11,16.4-4.07,0-9.12-3.47-13.58-6.54l-.38-.26a23.07,23.07,0,0,0-8.36-3.76,18.21,18.21,0,0,1-12.57-9.51c-5.69-11.41-6.09-15.19-6.35-17.69-.22-2.15-.34-3.33-3.48-7.43l-.26-.33c-.62-.74-1.66-2.12-1.51-2.74a.4.4,0,0,1,.24-.28,4,4,0,0,1,2.24-.49c3.69,0,6.27,2.28,7.69,6.82s3.66,9.18,9.53,9.18c3.47,0,5.19-1.45,7.36-3.3l1.2-1c3.21-2.53,6.52-5.1,9.11-8.53a13.79,13.79,0,0,1,4.21-3.65,16.87,16.87,0,0,1,1.93-.77l.55-.13c.44-.1.67-.1.71-.35s-.33-.49-1.33-.84a8.78,8.78,0,0,0-3-.57h0A9.24,9.24,0,0,0,133,45.93c-1,1.14-1.86,2.23-2.69,3.23C127.24,53,125,55.7,119.61,55.7c-.51,0-1-.07-1.61-.07-2.1-.19-3.75-1.7-5-4.63a23.71,23.71,0,0,1-1.31-4.82,12.23,12.23,0,0,0-4.19-7.69,5.33,5.33,0,0,0-3.63-1.22,17.78,17.78,0,0,0-2.72.27,19,19,0,0,1-2.71.26,11.65,11.65,0,0,1-5-.71c-4.4-2.2-7.33-5.08-9-8.81-1.75-3.93-3.82-8.09-6.32-12.72C74.22,8.32,67.31,4,59.63,4c-1.63,0-3.3.18-5,.34-1,.09-2,.22-3,.22a41.14,41.14,0,0,0-7.81,1.08A7.86,7.86,0,0,0,40.17,8.1c-1.51,1.71-2.8,2.51-4.05,2.51-1.8,0-3.44-1.65-5.51-4.31l-.17-.21c-.37-.48-.49-.68-.7-.68s-.29.23-.5.79l-.14.35a20.11,20.11,0,0,1-2,4.12c-.3.46-.44.67-.21.85l1.39,1.07c1.07.81,2.07,1.61,3.07,2.41a7.7,7.7,0,0,0,4.88,1.89A8.87,8.87,0,0,0,39.88,16l.78-.36a40.06,40.06,0,0,1,4-1.64,18.21,18.21,0,0,1,5.53-.92C55,13.12,59.54,15.37,64,20c7.48,7.71,10,16.55,13.58,28.83.57,2,1.17,4,1.81,6.17a20.26,20.26,0,0,0,9.5,12.08,15.55,15.55,0,0,1,1.58,1c.44.29.87.59,1.31.85a21.08,21.08,0,0,1,8.86,10.49c2.72,6.77,7.5,12.61,14.62,17.87A22.3,22.3,0,0,0,129,101.44c1.09,0,2.26-.06,3.46-.17,2.63-.24,5-.35,7.14-.35a51.4,51.4,0,0,1,7.12.47,18.84,18.84,0,0,0,2.49.19c3.36,0,5.13-1.38,6.79-5.3a13.08,13.08,0,0,1,7.54-7.62,4.77,4.77,0,0,0,3.33-4.77,29.38,29.38,0,0,1,.47-3.62l.09-.53A5,5,0,0,1,171,75.59Z" transform="translate(7.85 19.21)"/><path class="cls-3" d="M126.72,127.12h-.08a.24.24,0,0,0-.17.29A4.4,4.4,0,0,0,129,131c3.6,1.55,5.65,4.62,7.18,7.42a12.08,12.08,0,0,0,8.76,6.23c5,1,6.18,2.8,6.74,3.66.2.31.33.52.55.52a.25.25,0,0,0,.2-.09.27.27,0,0,0,.08-.22,6.1,6.1,0,0,0-4.87-6.07,14.58,14.58,0,0,1-7.68-4.41,23.61,23.61,0,0,1-2.94-4.08,9.06,9.06,0,0,0-5.45-4.82,25.24,25.24,0,0,1-3.22-1.36,5.91,5.91,0,0,0-1.67-.67Z" transform="translate(7.85 19.21)"/><path class="cls-3" d="M-6.83,10.58A12.86,12.86,0,0,0-1.22,22.47C2.55,25.23,3.85,29,5.36,33.38A52.11,52.11,0,0,0,10,43.92C12.27,47.6,16.54,49.1,20,50a30.52,30.52,0,0,0,7.6,1.09c7.12,0,11.89-2.49,15.71-4.49.66-.38,1.28-.71,1.87-1A15.22,15.22,0,0,1,51.83,44a14.14,14.14,0,0,1,11.88,6.79c.54.78,1,1.63,1.54,2.48s1,1.29,1.33,1.29c.16,0,.38-.08.53-.46.7-1.69-.48-7.69-3.48-10.69A16.24,16.24,0,0,0,59.9,40.6,9,9,0,0,1,55.56,35C53.24,28.1,48,24.28,40.72,24.28h-.84a38.54,38.54,0,0,0-13,2.56,16.21,16.21,0,0,1-5.73,1.3,10.67,10.67,0,0,1-5.6-1.62,10.55,10.55,0,0,0-2.66-1c-2.48-.7-3.15-1-5.33-4-1.07-1.48-1.61-2.36-2-3a8.33,8.33,0,0,0-1.24-1.7C1,13.41,0,9.35,1.2,4.35c.78-3,1.45-5.93,2-8.4.71-3.16,2-5.25,4.19-6.56A8,8,0,0,1,11.66-12a9.87,9.87,0,0,1,6.71,3.12,9.23,9.23,0,0,1,2.87,6.47A21.45,21.45,0,0,0,21.4.48c.35,3.66.75,7.8-4.58,13.5a2.85,2.85,0,0,1-1.85.53,2.26,2.26,0,0,1-1.09-.21c-1.72-1-3.56-2.22-4.1-3.69a24.9,24.9,0,0,1-1.5-8.84v-.2a2.94,2.94,0,0,1,3.08-2.8,4.5,4.5,0,0,1,2,.48l-.84.06c-1.29.11-2.31.18-3.06,1a2.48,2.48,0,0,0-.61,1.95,61.06,61.06,0,0,0,1.28,7.94,4.85,4.85,0,0,0,1.49,2.16,5,5,0,0,0,3.31,1.78c1.23,0,2.29-.84,3.29-2.56C20,8.49,22,5,20.58.65a6.31,6.31,0,0,1,0-2.45c.23-2,.53-4.49-2.26-6.49l-1-.83a9.24,9.24,0,0,0-5.86-2.5C8-11.62,5.24-8.93,4-4.41,3.12-1.21,2.39,2,1.61,5.49A11.24,11.24,0,0,0,4.55,16.21a16.58,16.58,0,0,1,1.73,2.44,18.43,18.43,0,0,0,4.91,5.7,5.73,5.73,0,0,0,3.39.94c3.4,0,7.51-1.88,8.79-4a6.77,6.77,0,0,0,.84-3.44,11.64,11.64,0,0,1,2.28-7.38c4.08-5.4,3.82-16.14-.54-22.14-3.55-4.87-10.41-6.67-15.64-6.67-3.67,0-6.83,2.07-9.12,6C-3.62-4.1-6.15,3.19-6.83,10.58Z" transform="translate(7.85 19.21)"/><path class="cls-4" d="M67.57,54.07a7.63,7.63,0,0,0,.64,4c1.65,2.94,3.25,6,4.79,9C76.6,74,80.3,81.15,85.1,87.56A19.79,19.79,0,0,0,92.74,94a38.21,38.21,0,0,1,13.68,9.91c2,2.42,4.84,3.29,7.56,4.13l2.46.78c5.16,1.65,8,2.56,21.81,4.31l1.06.14a28.19,28.19,0,0,0,4,.37c2.34,0,5.9-.45,9.72-4.33,3.56-3.64,6.63-6.48,9.33-9,7.83-7.26,11.4-10.58,9.67-16.93a23.77,23.77,0,0,1-.64-4.36c-.06-.72-.13-1.45-.22-2.21,0-.16-.16-.26-.38-.26-.7,0-2.25,1-2.64,3.24-.28,1.64-.51,3.39-.75,5.53A3.77,3.77,0,0,1,165,88.77a14.11,14.11,0,0,0-8.68,8.68,6.92,6.92,0,0,1-6.9,4.86c-.38,0-.77-.07-1.17-.07a77.29,77.29,0,0,0-9-.47c-3.43,0-6.83.17-9.43.32h-1.4c-6.58,0-12.56-2.7-18.28-8.27-5.06-4.94-8.28-9.5-10.28-14.5a19,19,0,0,0-7.54-9.17c-.64-.42-1.27-.86-1.89-1.28-.79-.55-1.58-1.1-2.4-1.62a19.9,19.9,0,0,1-8.71-11.1C78.47,53.54,77.72,51,77,48.54,73.19,35.4,70.14,25,60.66,17.36a16.2,16.2,0,0,0-10.26-3.8,19.44,19.44,0,0,0-7.72,1.73q-.51.23-1.08.51a12.45,12.45,0,0,1-5.38,1.6,8.4,8.4,0,0,1-5.85-2.63,9.64,9.64,0,0,0-2.53-1.54c-.39-.2-.78-.38-1.15-.59h-.25a.39.39,0,0,0-.18.18c-.14.41-.32.82-.49,1.23a8.82,8.82,0,0,0-.85,2.83c-.43,6.36-3.15,7.19-8.57,8.83a.29.29,0,0,0-.21.25.28.28,0,0,0,.14.29,8.38,8.38,0,0,0,4.48,1.33,12.59,12.59,0,0,0,4.61-1,43.81,43.81,0,0,1,15.08-3.11,19,19,0,0,1,11.07,3.62,9.91,9.91,0,0,1,4.19,6,10.83,10.83,0,0,0,5.43,7.53C65.91,43.34,68.08,47.84,67.57,54.07Z" transform="translate(7.85 19.21)"/><path class="cls-3" d="M96.21,97.28a.31.31,0,0,0-.09.33,1.31,1.31,0,0,1,.09.28c.06.19.06.19.53.92.25.33.56.8,1,1.5,3.87,6.07,4.52,6.67,7.64,9.51a9.27,9.27,0,0,0,2.71,1.64c6.09,2.5,10.2,6.35,13.82,9.74,4.77,4.45,8.88,8.3,16,8.3,3.73,0,7.16-1.24,10.8-2.54,1.44-.52,2.08-.73,2.68-.94s1-.33,1.91-.69l.11,0a11.09,11.09,0,0,1,3.75-1c1.68,0,2.92.89,3.92,2.89a7.44,7.44,0,0,1,.79,2.25c.44,3.53,2.16,6.73,5.44,10.37a12.23,12.23,0,0,0,5.54,3.42,39.07,39.07,0,0,0,8.25,1.37c3.24.25,5.56.43,9,3,.5.38,12.15,8.5,13.32,8.5a.15.15,0,0,0,.13,0,.24.24,0,0,0,0-.12,6,6,0,0,0-1.87-2.76,61,61,0,0,0-5.25-4.65,36.06,36.06,0,0,1-3.65-3.22c-3.28-3.4-6.47-3.76-10.89-4.26-1.08-.12-2.24-.25-3.49-.43a11.38,11.38,0,0,1-9.68-8c-.17-.47-.34-1.17-.56-2.06a36.65,36.65,0,0,0-3-8.63,5.91,5.91,0,0,0-5.09-3,4.61,4.61,0,0,0-2.8.9,17.44,17.44,0,0,1-11,3.53,35.89,35.89,0,0,1-6.29-.65c-11-2-14.68-5.55-17.88-8.67-2.57-2.5-4.79-4.67-10.22-5.58-2.47-.42-3.86-1.7-7.56-5.13-1.26-1.17-2.79-2.58-4.73-4.3L97.9,97.54c-.79-.73-.82-.73-.92-.73h0c-.12,0-.18.06-.48.32Z" transform="translate(7.85 19.21)"/><path class="cls-4" d="M-1.45,23.39c3.32,2.47,4.56,6.11,6,10.33A49.92,49.92,0,0,0,9.3,44.48c2.7,4.35,7.82,5.89,11.44,6.68a33.59,33.59,0,0,0,7.07.79h0c7.15,0,12.27-2.66,16-4.6.59-.31,1.16-.61,1.7-.87A14.24,14.24,0,0,1,51.9,44.9a13,13,0,0,1,11,6.52c.43.63,2.89,4.93,6,10.38C73.62,70,80,81.25,82.6,85.64A30.07,30.07,0,0,0,90.44,94c2.94,2.38,5.72,4.62,7.94,8.85a22.54,22.54,0,0,0,11.56,10.65c4.71,2,8.3,5.49,11.78,8.85l1,.94a6.28,6.28,0,0,1,2.19,3.16,7.5,7.5,0,0,0,1,2l.09.14a9.16,9.16,0,0,0,2.88,3.12,14,14,0,0,1,6.12,6.14,13.75,13.75,0,0,0,10.39,7.52,8.76,8.76,0,0,1,6.28,4.08,5.39,5.39,0,0,0,1,1.08l.28.25a7.66,7.66,0,0,0-5.47-8.88c-6.9-1.74-9.33-6.28-10.78-9-.26-.48-.48-.91-.7-1.26l-.21-.32c-.28-.52-.35-.63-.28-.77s.2-.14.35-.14h1c5.2,0,9.83-1.86,13.55-3.35,2.54-1,4.8-1.93,6.54-1.93,2.2,0,3.42,1.4,4,4.4.78,4.05,3,7.24,5.13,10.24a10.22,10.22,0,0,0,6.76,4.28c1.95.32,3.93.58,5.84.83,1.6.21,3.2.42,4.78.66l.49.06a7.07,7.07,0,0,1,3.28,1,83.66,83.66,0,0,0,13.27,8.6,9,9,0,0,1,4.89,5.25,2.63,2.63,0,0,0,.56.76l.08.09c.38-1.67-1.09-4.59-5-10a.32.32,0,0,1,0-.27c0-.14,0-.14,1.86-.75l1.68-.56c6.27-2.09,6.54-2.24,8.54-3.24l.1-.06a10.32,10.32,0,0,1,4.88-1.55c2.95,0,4.87,1.82,6.55,3.42a20.25,20.25,0,0,0,6,4.2,69.11,69.11,0,0,1,8,5.12c.21-2-1.21-5.41-2.92-6.18-4.23-1.89-7.35-5.14-10.35-8.27-1.79-1.86-3.43-2.69-5.33-2.69s-3.87.82-6.37,1.87c-.7.29-1.43.6-2.21.9-1.91.8-3.32,1.35-4.42,1.8-2.83,1.18-3.58,1.49-5.22,1.49a7.78,7.78,0,0,1-3.77-1c-5.32-2.95-11.37-4.7-19-5.48-5.92-.62-9.11-3.84-10.68-10.84a30.38,30.38,0,0,0-2.63-7.44,6.38,6.38,0,0,0-5.61-3.48,6.17,6.17,0,0,0-3.66,1.2,16.07,16.07,0,0,1-9.62,3.27,18.46,18.46,0,0,1-4.79-.67,18.53,18.53,0,0,0-2.09-.33c-4.2-.53-12-1.53-18.93-9.53a.3.3,0,0,1,0-.34c0-.08.12-.08.28-.08.8,0,4,.47,7.65,1,5.19.75,11.64,1.68,13.93,1.68a14.52,14.52,0,0,0,10.82-4.62c3.55-3.6,6.59-6.44,9.28-8.93,8-7.41,11.56-10.88,10-17.69s-1.24-7.43,5.44-9.52c.76-.23,1.62-.58,2.52-.94a24.41,24.41,0,0,1,9.31-2.27,17.14,17.14,0,0,1,1.76.1h.19a6.25,6.25,0,0,0,1.86-.4,11.84,11.84,0,0,1,3.64-.58,11.71,11.71,0,0,1,7.63,3,76.55,76.55,0,0,1,9.29,9.16,13,13,0,0,0,9.27,5l1.84.13c4.44.32,8.62.63,12.7,1.14a19.42,19.42,0,0,0,2.29.14,32.24,32.24,0,0,0,8.66-1.5A26.29,26.29,0,0,1,256,85.5a9,9,0,0,1,4.85,1.35,14.13,14.13,0,0,0,7.46,2.09c3.64,0,7.18-1.21,11.78-2.94a11.24,11.24,0,0,0,3.43-2.61c.38-.32.75-.67,1.13-1a9.12,9.12,0,0,1,6.1-2.57,9.51,9.51,0,0,1,3.79.84A64.67,64.67,0,0,0,301,83a10.24,10.24,0,0,0,2.2.31l.55.06h.36c.1,0,0,.09.1,0s0-.16-.21-.37l-.14-.15c-.67-.66-.67-.66-3.1-2.1l-.52-.31c-.68-.4-1.29-.78-1.87-1.13-2.82-1.74-4.69-2.89-7.82-2.89a11.28,11.28,0,0,0-6.28,2,20.36,20.36,0,0,0-2,1.45,18.41,18.41,0,0,1-12.54,4.83,29.15,29.15,0,0,1-9.68-1.88,24.56,24.56,0,0,0-4.06-1c-1.26-.22-1.82-.33-1.92-.59a.25.25,0,0,1,.06-.26c2.78-3.29,3.9-3.65,7.15-3.65A34.65,34.65,0,0,1,270.75,79a12.84,12.84,0,0,0,2.52.6,1.12,1.12,0,0,0,.65-.14s0-.08-.07-.15a3.28,3.28,0,0,0-.83-.79c-2.29-1.25-5.33-2.9-8.46-4.47a9.24,9.24,0,0,0-4.16-1c-3.95,0-6.53,2.38-9.39,5s-5.81,5.32-10.32,5.32a11.45,11.45,0,0,1-2.33-.24,9.48,9.48,0,0,0-1.91-.22,5.21,5.21,0,0,0-1.06.06,13.71,13.71,0,0,1-2,.08c-9.7,0-16.41-5.92-21.7-11.71A40.28,40.28,0,0,0,205,65.26a11.28,11.28,0,0,0-3.72-1.37c-.69-.16-1.35-.33-2-.54a.28.28,0,0,1-.22-.2c0-.19.2-.36.4-.52a16.07,16.07,0,0,1,3.34-1.74c1.13-.49,2.41-1,3.73-1.78A8.15,8.15,0,0,1,210.47,58a7.82,7.82,0,0,1,5.09,2,41.43,41.43,0,0,1,4.77,4.5A13.06,13.06,0,0,0,228.94,69c9.36,1.25,9.45,1.28,11,1.84.57.2,1.34.48,2.86.92a2.93,2.93,0,0,0,.72.12.58.58,0,0,0,.51-.2c.1-.17,0-.48-.17-.84-2.45-4.17-5.35-6.32-9.12-6.76-.46,0-.91-.14-1.36-.23l-1.11-.2a11.59,11.59,0,0,1-8.39-4.84,50.88,50.88,0,0,0-5.46-6c-3.14-3.12-6.08-4.45-9.81-4.45-4.45,0-11.16,2.32-16.16,7.49a25.86,25.86,0,0,1-14,7.44,17.59,17.59,0,0,1-3.68.48h-.15a9.86,9.86,0,0,0-8.8,4.43c-2.1,3.06-4.59,7.43-7,11.67-1.81,3.37-3.8,6.65-5.94,9.83-2.44,3.15-4.88,4.61-7.7,4.61-4.11,0-8.64-3.21-13.88-6.92a21.32,21.32,0,0,0-8.21-3.57,17.15,17.15,0,0,1-12.52-9.7l-.64-1.37c-2.44-5.24-4.74-10.2-5.22-15.87a12.64,12.64,0,0,0-1.9-4.71c-.21-.36-.41-.72-.6-1.07a13.34,13.34,0,0,0-1.79-2.31c-.72-.8-1-1.07-.89-1.25.14-.42,2.09-.42,2.09-.42A4.89,4.89,0,0,1,106,49.48a20,20,0,0,1,2.3,5.28C109.81,60,113.49,63,118.41,63a9.49,9.49,0,0,0,6.14-1.93A70.23,70.23,0,0,0,135,51.41c3.34-3.59,5.55-6,9.14-6a9.65,9.65,0,0,1,2,.22c.48,0,.83-.15.83-.41a.62.62,0,0,0-.45-.6l-1.53-.5c-2.23-.74-5-1.67-6.89-1.67-3.29,0-5.16,2.32-6.81,4.32l-.55.68-.47.56c-.76.91-1.69,2-2.59,3.15-2,2.48-4.73,3.68-8.4,3.68h-.76c-3.12-.14-5.27-3.33-6.41-9.48a13.41,13.41,0,0,0-4-7.28A5.5,5.5,0,0,0,104,36.57a23.19,23.19,0,0,0-3,.25,28.63,28.63,0,0,1-3.46.27A7.8,7.8,0,0,1,94,36.42c-4.22-2.2-7-4.86-8.66-8.37-1.84-3.79-4-7.82-6.77-12.66a26.55,26.55,0,0,0-14-11.67,9.59,9.59,0,0,0-3.36-.5c-.48,0-1,0-1.42,0-4.63.22-9.69.67-15.47,1.22-2,.19-3.61,1.24-5.26,3.4-1,1.23-1.82,1.81-2.74,1.81a4,4,0,0,1-2.64-1.38c-1.65-1.57-3.5-3.8-3.25-7.13A21.33,21.33,0,0,0,30.15-3c-1.28-10.48-8.39-16.25-20-16.25H9.88C5.81-19.15,2.51-16.79-.19-12A61.23,61.23,0,0,0-7.59,8.72,14.35,14.35,0,0,0-1.45,23.39ZM248.82,85.54c2.12-2.13,4-3.13,6.25-3.13a17.41,17.41,0,0,1,5.18,1.13,28,28,0,0,0,9.19,1.74,19.43,19.43,0,0,0,13.27-5.2A12.32,12.32,0,0,1,289.56,77a10.34,10.34,0,0,1,1.11-.07c3.48,0,5.92,1.9,9,4.57.32.24.35.39.32.49s-.09.1-.2.1a14.17,14.17,0,0,1-2.7-.87c-2.14-.79-5.06-1.87-6.61-1.87-3,0-5.14,1.46-7.42,3.65-1.78,1.71-2.32,2.08-3.86,2.65-3.91,1.44-7.44,2.63-10.91,2.63a14,14,0,0,1-7.21-2,10.3,10.3,0,0,0-5.36-1.45,13.57,13.57,0,0,0-4,.66c-.44.14-2.42.59-2.56.59a.3.3,0,0,1-.3-.19A.27.27,0,0,1,248.82,85.54ZM190.58,69.69a.32.32,0,0,1,.1-.32l2.77-2.29c3.43-2.86,3.43-2.86,5.21-2.86h0c4.53,0,8.47,2.27,11.46,6.31S217.08,77.8,223,81a19.75,19.75,0,0,0,9.54,2.65,17.09,17.09,0,0,0,1.89-.1,10.66,10.66,0,0,1,1.38-.09,10.82,10.82,0,0,1,2.34.25,13.11,13.11,0,0,0,2.65.29c4.47,0,7.57-2.76,10.57-5.43a45.72,45.72,0,0,1,3.73-3.07,9.13,9.13,0,0,1,5.15-1.86,6.61,6.61,0,0,1,2.2.38c2.65.93,7.15,2.64,7,3.54,0,.14-.17.31-.73.31a5.5,5.5,0,0,1-1.07-.14l-1.16-.28a20.47,20.47,0,0,0-4.92-.8,10.21,10.21,0,0,0-7.37,3.27,62.79,62.79,0,0,1-7.12,5.67l-.42.31a5.39,5.39,0,0,1-3.53,1.44c-.6,0-5-.32-9.71-.66-3.52-.26-7.14-.52-9.27-.65a12.26,12.26,0,0,1-9-4.8,71.7,71.7,0,0,0-8.9-8.87,12.89,12.89,0,0,0-12.62-2.89,15.68,15.68,0,0,1-2.55.37c-.3,0-.5,0-.5-.15Zm-1.52-1.14c-6.21,2.63-12.56,5-18.06,7.06a5,5,0,0,0-3.56,4.13l-.09.53a29.38,29.38,0,0,0-.47,3.62,4.77,4.77,0,0,1-3.33,4.77A13.1,13.1,0,0,0,156,96.28c-1.66,3.92-3.43,5.3-6.79,5.3a18.84,18.84,0,0,1-2.49-.19,51.4,51.4,0,0,0-7.12-.47c-2.14,0-4.51.11-7.14.35-1.2.11-2.37.17-3.46.17a22.33,22.33,0,0,1-13.75-4.18c-7.12-5.26-11.9-11.1-14.62-17.87A21.08,21.08,0,0,0,91.77,68.9c-.44-.26-.8-.52-1.31-.85s-1-.69-1.58-1A20.27,20.27,0,0,1,79.39,55c-.64-2.17-1.24-4.17-1.81-6.17C74,36.54,71.48,27.7,64,20c-4.46-4.63-9-6.88-13.86-6.88a18.21,18.21,0,0,0-5.53.92,40.34,40.34,0,0,0-3.92,1.61L40,16a8.87,8.87,0,0,1-3.65.85,7.7,7.7,0,0,1-4.92-1.89c-1-.8-2-1.6-3.07-2.41l-1.39-1.07c-.23-.18-.09-.39.21-.85a20.11,20.11,0,0,0,2-4.12l.14-.35c.21-.56.33-.79.5-.79s.33.2.7.68l.17.21c2.07,2.66,3.71,4.31,5.51,4.31,1.25,0,2.54-.8,4.05-2.51a7.86,7.86,0,0,1,3.69-2.46A41.14,41.14,0,0,1,51.7,4.49c1,0,2-.13,3-.22C56.33,4.14,58,4,59.63,4c7.68,0,14.59,4.36,18.43,11.62,2.5,4.63,4.57,8.79,6.32,12.72,1.7,3.73,4.63,6.61,9,8.81a11.65,11.65,0,0,0,5,.71,19,19,0,0,0,2.71-.26,17.78,17.78,0,0,1,2.72-.27,5.33,5.33,0,0,1,3.63,1.22,12.23,12.23,0,0,1,4.19,7.69A23.52,23.52,0,0,0,113,51c1.22,2.93,2.87,4.44,5,4.63a13.18,13.18,0,0,0,1.61.07c5.42,0,7.63-2.75,10.7-6.54.83-1,1.69-2.09,2.69-3.23a9.24,9.24,0,0,1,6.07-2.84h0a8.78,8.78,0,0,1,3,.57c1,.35,1.36.64,1.33.84s-.27.25-.71.35l-.55.13a16.87,16.87,0,0,0-1.93.77,13.78,13.78,0,0,0-4.18,3.64c-2.59,3.43-5.9,6-9.11,8.53l-1.2,1c-2.17,1.85-3.89,3.3-7.36,3.3-5.87,0-8.11-4.66-9.53-9.18s-4-6.82-7.69-6.82a4,4,0,0,0-2.24.49.4.4,0,0,0-.24.28c-.15.62.89,1.95,1.51,2.74l.26.33c3.14,4.1,3.26,5.28,3.48,7.43.26,2.5.66,6.28,6.35,17.69a18.21,18.21,0,0,0,12.57,9.51,23.07,23.07,0,0,1,8.36,3.76l.38.26c4.46,3.07,9.51,6.54,13.58,6.54,6.18,0,10.11-7.24,15.11-16.4,1.68-3.07,3.4-6.25,5.4-9.49a9.87,9.87,0,0,1,8.81-4.87h.84a16.74,16.74,0,0,0,3.23-.44,26.73,26.73,0,0,0,14.21-7.51,25,25,0,0,1,11.36-6.81,16.37,16.37,0,0,1,4.4-.64,12.83,12.83,0,0,1,9.56,4.35c2.41,2.56,4,4.42,5.2,5.78C226.6,63,226.6,63,231.44,64.1c1.32.3,3.06.67,5.32,1.23a8.81,8.81,0,0,1,5.44,4.39.22.22,0,0,1,0,.27c-.06.13-.22.13-.39.13a28.19,28.19,0,0,1-2.89-.37c-1.93-.27-4.84-.72-9.26-1.27a14.09,14.09,0,0,1-9.17-4.65,34.13,34.13,0,0,0-7-5.73,6.23,6.23,0,0,0-3.07-.78,4.8,4.8,0,0,0-1.41.19c-8.56,2.66-11.65,5.2-14.37,7.44a21.33,21.33,0,0,1-5.58,3.6Zm18.36,79.64c-3,.94-4.88,1.51-6.67,1.5a6.36,6.36,0,0,1-1.51-.17c-.12,0-2.92-.73-6.62-5.32a.31.31,0,0,1,0-.32.3.3,0,0,1,.27-.17c1,.45,1.93.9,2.78,1.32,2.42,1.19,4.34,2.13,6.25,2.13a5.7,5.7,0,0,0,2-.36l1.51-.56c3.49-1.29,6.78-2.5,9.91-3.86a11.8,11.8,0,0,1,4.65-1.25c1.93,0,3.55.9,5.79,3.21.36.38.74.79,1.13,1.23a19.11,19.11,0,0,0,7.29,5.64,6.13,6.13,0,0,1,3.5,4.89.09.09,0,0,1,0,.1h-.07a22.85,22.85,0,0,0-5.92-3.95l-1.36-.66a8.65,8.65,0,0,1-3-2.11,22.06,22.06,0,0,0-4.42-3.46,9.15,9.15,0,0,0-4.8-1.73c-1.54,0-2.9.64-4.78,1.52a44,44,0,0,1-5.93,2.38Zm-81-20.78a.22.22,0,0,1,0-.08.24.24,0,0,1,.26-.22,5.91,5.91,0,0,1,1.67.67,25.24,25.24,0,0,0,3.22,1.36A9.06,9.06,0,0,1,137,134,23.61,23.61,0,0,0,140,138a14.58,14.58,0,0,0,7.68,4.41,6.1,6.1,0,0,1,4.87,6.07.27.27,0,0,1-.08.22.25.25,0,0,1-.2.09c-.22,0-.35-.21-.55-.52-.56-.86-1.74-2.66-6.74-3.66a12.08,12.08,0,0,1-8.76-6.23c-1.53-2.8-3.58-5.87-7.18-7.42A4.4,4.4,0,0,1,126.43,127.41ZM96.15,97.68a.3.3,0,0,1,.08-.27l.26-.22c.3-.26.36-.32.48-.32h0c.1,0,.13,0,.92.73l1.69,1.51c1.94,1.72,3.47,3.13,4.73,4.3,3.7,3.43,5.09,4.71,7.56,5.13,5.43.91,7.65,3.08,10.22,5.58,3.2,3.12,6.88,6.67,17.88,8.67a35.89,35.89,0,0,0,6.29.65,17.44,17.44,0,0,0,11-3.53,4.61,4.61,0,0,1,2.8-.9,5.91,5.91,0,0,1,5.09,3,36.65,36.65,0,0,1,3,8.63c.22.89.39,1.59.56,2.06a11.38,11.38,0,0,0,9.68,8c1.25.18,2.41.31,3.49.43,4.42.5,7.61.86,10.89,4.26a36.06,36.06,0,0,0,3.65,3.22,61,61,0,0,1,5.25,4.65,6,6,0,0,1,1.87,2.76.24.24,0,0,1,0,.12.15.15,0,0,1-.13,0c-1.17,0-12.82-8.12-13.32-8.5-3.46-2.56-5.78-2.74-9-3a39.07,39.07,0,0,1-8.25-1.37,12.23,12.23,0,0,1-5.54-3.42c-3.28-3.64-5-6.84-5.44-10.37a7.44,7.44,0,0,0-.79-2.25c-1-2-2.24-2.89-3.92-2.89a11.09,11.09,0,0,0-3.75,1l-.11,0c-.91.36-1.38.51-1.91.69s-1.24.42-2.68.94c-3.64,1.3-7.07,2.54-10.8,2.54-7.14,0-11.25-3.85-16-8.3-3.62-3.39-7.73-7.24-13.82-9.74a9.27,9.27,0,0,1-2.71-1.64c-3.12-2.84-3.77-3.44-7.64-9.51-.48-.7-.79-1.17-1-1.5-.47-.73-.47-.73-.53-.92a1.31,1.31,0,0,0-.09-.28ZM68.23,58.05a7.63,7.63,0,0,1-.64-4c.49-6.16-1.68-10.66-6.45-13.38a10.83,10.83,0,0,1-5.43-7.53,9.91,9.91,0,0,0-4.19-6,19,19,0,0,0-11.07-3.62,43.81,43.81,0,0,0-15.08,3.11,12.59,12.59,0,0,1-4.61,1,8.38,8.38,0,0,1-4.48-1.33.28.28,0,0,1-.14-.29.29.29,0,0,1,.21-.25c5.42-1.64,8.14-2.47,8.57-8.83a8.82,8.82,0,0,1,.85-2.83c.17-.41.35-.82.49-1.23a.39.39,0,0,1,.18-.18h.25c.37.21.76.39,1.15.59a9.64,9.64,0,0,1,2.53,1.54,8.4,8.4,0,0,0,5.85,2.63,12.45,12.45,0,0,0,5.38-1.6q.57-.28,1.08-.51a19.44,19.44,0,0,1,7.72-1.73,16.2,16.2,0,0,1,10.26,3.8C70.14,25,73.19,35.36,77,48.5c.72,2.45,1.47,5,2.29,7.61A19.92,19.92,0,0,0,88,67.21c.82.52,1.61,1.07,2.4,1.62.62.42,1.25.86,1.89,1.28a19,19,0,0,1,7.54,9.17c2,5,5.22,9.56,10.28,14.5,5.72,5.57,11.7,8.27,18.28,8.27h1.4c2.6-.15,6-.32,9.43-.32a77.29,77.29,0,0,1,9,.47,6.68,6.68,0,0,0,1.17.07,6.92,6.92,0,0,0,6.9-4.86,14.11,14.11,0,0,1,8.68-8.68,3.77,3.77,0,0,0,2.43-3.45c.24-2.14.47-3.89.75-5.53.39-2.24,1.94-3.24,2.64-3.24.22,0,.38.1.38.26.09.76.16,1.49.22,2.21a23.77,23.77,0,0,0,.64,4.36c1.72,6.35-1.85,9.66-9.73,17-2.7,2.54-5.77,5.38-9.33,9-3.82,3.88-7.38,4.33-9.72,4.33a28.19,28.19,0,0,1-4-.37l-1.06-.14c-13.81-1.75-16.65-2.66-21.81-4.31l-2.46-.78c-2.72-.84-5.56-1.71-7.56-4.13A38.28,38.28,0,0,0,92.74,94a19.81,19.81,0,0,1-7.64-6.48C80.3,81.15,76.6,74,73,67q-2.31-4.5-4.79-9ZM-1.16,22.48a12.88,12.88,0,0,1-5.62-11.9c.66-7.4,3.19-14.69,8-22.93,2.29-3.93,5.45-6,9.12-6,5.23,0,12.09,1.8,15.64,6.67,4.36,6,4.62,16.74.54,22.14a11.64,11.64,0,0,0-2.28,7.38,6.77,6.77,0,0,1-.84,3.44c-1.28,2.13-5.39,4-8.79,4a5.73,5.73,0,0,1-3.39-.94,18.43,18.43,0,0,1-4.91-5.7A16.58,16.58,0,0,0,4.58,16.2,11.24,11.24,0,0,1,1.64,5.48C2.42,2,3.15-1.21,4-4.41c1.24-4.52,4-7.21,7.46-7.21a9.24,9.24,0,0,1,5.86,2.5,11.58,11.58,0,0,0,1,.83c2.79,2,2.49,4.49,2.26,6.49a6.31,6.31,0,0,0,0,2.45C22,5,20,8.49,18.26,11.69c-1,1.72-2.06,2.56-3.29,2.56a5,5,0,0,1-3.31-1.78,4.85,4.85,0,0,1-1.49-2.16A61.06,61.06,0,0,1,8.89,2.37,2.48,2.48,0,0,1,9.5.42c.75-.86,1.77-.93,3.06-1l.84-.06a4.5,4.5,0,0,0-2-.48h-.2a2.93,2.93,0,0,0-2.88,3,24.9,24.9,0,0,0,1.5,8.84c.54,1.47,2.38,2.69,4.1,3.69a2.26,2.26,0,0,0,1.09.21,2.85,2.85,0,0,0,1.85-.53c5.33-5.7,4.93-9.84,4.58-13.5a21.45,21.45,0,0,1-.16-2.89,9.23,9.23,0,0,0-2.87-6.47A9.87,9.87,0,0,0,11.66-12a8.14,8.14,0,0,0-4.25,1.36C5.22-9.33,3.93-7.24,3.22-4.08c-.57,2.47-1.24,5.4-2,8.4C0,9.3,1,13.38,4.3,16.67a8.33,8.33,0,0,1,1.24,1.7c.43.68,1,1.56,2,3,2.18,3,2.85,3.32,5.33,4a10.55,10.55,0,0,1,2.66,1A10.67,10.67,0,0,0,21.13,28a16.21,16.21,0,0,0,5.73-1.3,38.54,38.54,0,0,1,13-2.56h.84C48,24.13,53.22,28,55.54,34.88a9,9,0,0,0,4.34,5.57,16.24,16.24,0,0,1,3.73,2.81c3,3,4.18,9,3.48,10.69-.15.38-.37.46-.53.46-.33,0-.79-.4-1.33-1.29s-1-1.7-1.54-2.48a14.12,14.12,0,0,0-11.86-6.73,15.22,15.22,0,0,0-6.65,1.6c-.59.33-1.21.66-1.87,1C39.49,48.51,34.72,51,27.6,51A30.8,30.8,0,0,1,20,50c-3.5-.9-7.77-2.4-10-6.08A52.11,52.11,0,0,1,5.38,33.38C3.87,29,2.57,25.23-1.2,22.47Z" transform="translate(7.85 19.21)"/><path class="cls-3" d="M222.45,91.69a2.56,2.56,0,0,0,.62-.07,26.36,26.36,0,0,0,14.48-8.15,1.29,1.29,0,0,0,.45-1,1.36,1.36,0,0,0-.62-.94c-.64-.47-1-.83-1-1.13s.35-.66,1-1.17a8.81,8.81,0,0,0,1-.83,3.39,3.39,0,0,0,1.27-2.59A3.34,3.34,0,0,0,238,73.53a15.05,15.05,0,0,0-8.66-2.85h-.25a31.62,31.62,0,0,0-14.37,3.46,26.66,26.66,0,0,0-4,2.65c-.57.44-1.15.88-1.73,1.29a.18.18,0,0,0,0,.22l.34.54a.16.16,0,0,0,.14.08h0l.73-.08a10.7,10.7,0,0,1,1.27-.11h.41a34.91,34.91,0,0,1,5,.54,1.89,1.89,0,0,1,1,1.4,1.64,1.64,0,0,1-1,1.17c-.28,0-.68-.39-1-.7l-.28-.27a1,1,0,0,1-.22-.36A1,1,0,0,0,215,80a6.58,6.58,0,0,0-2.86-.62,7.7,7.7,0,0,0-3.13.72.19.19,0,0,0-.1.17.16.16,0,0,0,.11.15c5.52,1.84,8.82,6,11.31,9.9A2.4,2.4,0,0,0,222.45,91.69Z" transform="translate(7.85 19.21)"/><path class="cls-3" d="M222.58,69.23c.91-4.13-.09-8.22-1.09-11.73a24.14,24.14,0,0,0-1.93-4.31l-.2-.39a1.66,1.66,0,0,0-1.26-.61.57.57,0,0,0-.26,0h-.12a4.91,4.91,0,0,1-1.44.49c-.39,0-.55-.37-1.07-1.66a8.59,8.59,0,0,0-.4-.87c-.71-1.28-1.52-1.91-2.46-1.91a3.7,3.7,0,0,0-2.1.84A13.22,13.22,0,0,0,205,56a43.38,43.38,0,0,0-1.69,8.44c-.3,3.22-.44,8,1.81,12.42a10.4,10.4,0,0,0,.56.9c.08.12.16.22.22.33a.16.16,0,0,0,.14.08h0a.18.18,0,0,0,.14-.11c.26-.63.51-1.26.76-1.88.69-1.75,1.35-3.39,2.12-5a1.87,1.87,0,0,1,1.41-.59h.21a1.65,1.65,0,0,1,.82,1.3c0,.27-.59.6-1,.84l-.27.16a1.43,1.43,0,0,1-.46.13,1.14,1.14,0,0,0-.66.25,6.84,6.84,0,0,0-1.71,5.57.18.18,0,0,0,.13.15h0a.2.2,0,0,0,.14-.06c3.56-4.77,8.83-6.6,13.49-7.93A2.67,2.67,0,0,0,222.58,69.23Z" transform="translate(7.85 19.21)"/><path class="cls-3" d="M202.21,95.79a2.78,2.78,0,0,0-.31,3.55,27.29,27.29,0,0,0,11.85,10.86,2.33,2.33,0,0,0,.89.25c.55,0,.93-.4,1.16-1.21s.48-1,.89-1a1.7,1.7,0,0,1,.95.41,8.8,8.8,0,0,0,1.63,1,4.19,4.19,0,0,0,1.76.46c1.13,0,1.92-.74,2.43-2.26a14.69,14.69,0,0,0,.22-8.85,31.63,31.63,0,0,0-8.85-14.26,19.53,19.53,0,0,0-3.25-2.31,17.53,17.53,0,0,1-1.67-1,.14.14,0,0,0-.09,0,.17.17,0,0,0-.1,0,.18.18,0,0,0-.07.18c.19.75.37,1.47.55,2.17.48,1.85.93,3.61,1.26,5.35a1.86,1.86,0,0,1-.84,1.48,1,1,0,0,1-.24,0A2.13,2.13,0,0,1,209,90c-.11-.13.25-1,.38-1.25l.11-.25a1.28,1.28,0,0,1,.29-.37,1.12,1.12,0,0,0,.39-.59A6.68,6.68,0,0,0,208.29,82a.29.29,0,0,0-.13,0h-.06a.18.18,0,0,0-.1.16C207.94,88.09,204.88,92.56,202.21,95.79Z" transform="translate(7.85 19.21)"/><path class="cls-3" d="M189.83,80.1A2.46,2.46,0,0,0,188,81a26.74,26.74,0,0,0-6.82,15,1.15,1.15,0,0,0-.07.61,1.13,1.13,0,0,0,1.3.93c.72,0,1.23.1,1.42.35s.11.77-.1,1.59l-.07.25a7.21,7.21,0,0,0-.24,1.14,2.68,2.68,0,0,0,3.1,3.53,14.48,14.48,0,0,0,8.29-2.47,31.49,31.49,0,0,0,10.92-13,17.89,17.89,0,0,0,1.11-3.65c.14-.6.28-1.22.46-1.85a.17.17,0,0,0-.06-.18.17.17,0,0,0-.1,0h-.09c-.66.41-1.28.8-1.88,1.19-1.6,1-3.11,2-4.65,2.81a1.13,1.13,0,0,1-.51.09,1.76,1.76,0,0,1-1.17-.37,2,2,0,0,1,0-1.7s.07-.07.46-.07.55,0,.82,0h.29a1.5,1.5,0,0,1,.51.15,2,2,0,0,0,.64.16h.16a7.6,7.6,0,0,0,4.71-3.5.21.21,0,0,0,0-.19.15.15,0,0,0-.14-.07h0l-1.68.28c-1.09.19-2.09.37-3.09.45h-1.25a25.27,25.27,0,0,1-9.14-2.08A3.25,3.25,0,0,0,189.83,80.1Z" transform="translate(7.85 19.21)"/><path class="cls-3" d="M183.5,75.45a33,33,0,0,0,13.34,5.9,17.77,17.77,0,0,0,3.85.45,13,13,0,0,0,3.92-.57.16.16,0,0,0,.11-.13.16.16,0,0,0-.05-.16l-1.52-1.26c-1.37-1.11-2.78-2.27-4.08-3.49a1.87,1.87,0,0,1-.25-1.7c.14-.24.62-.35,1.07-.45a2.56,2.56,0,0,1,.49-.13,1.49,1.49,0,0,1,.13.39c.15.42.3.85.41,1.29a2.09,2.09,0,0,1,0,.5,1.42,1.42,0,0,0,.15.81,7.5,7.5,0,0,0,4.73,3.3h0a.16.16,0,0,0,.13-.06.17.17,0,0,0,0-.19c-.26-.48-.52-1-.76-1.48-.51-1-1-1.86-1.37-2.79-1.47-3.49-1.44-7.26-1.29-10.82a2.1,2.1,0,0,0-1.25-2.28,24.41,24.41,0,0,0-11-2.59,28.82,28.82,0,0,0-5.79.61,1.54,1.54,0,0,0-.89,1.32v.13c.11.94.18,1.44,0,1.66s-.71.28-1.71.28a8.34,8.34,0,0,0-1.11.11,3.34,3.34,0,0,0-2.46,1.35,3.3,3.3,0,0,0,0,2.75A15,15,0,0,0,183.5,75.45Z" transform="translate(7.85 19.21)"/><path class="cls-4" d="M188.33,79.69a27.12,27.12,0,0,0-7.65,15.16c-.48,2.73-.32,3,2.39,3.65.48.12-1.31,3.3.26,5.3a4.14,4.14,0,0,0,3.41,1.24c8.27-.06,13-6.76,13.63-6.76s2.26,6.77,12.1,12.07c2.57,1.38,2.92,1.28,4.36-1.08.14-.24.32,0,1.25.58,3.36,2,5.27,1,6.27-2.54,1.46-5.31,0-9.23-1.83-13.31-.47-1.17-.53-1.16-.47-1.26a.16.16,0,0,1,.12-.09,27.22,27.22,0,0,0,15-7.68c2.07-2,2.1-2.24.52-4.24-.12-.09-.18.08,2.82-4.09,0-.09.62-1.42-2.11-3.51a14.35,14.35,0,0,0-8.89-3c-5.09,0-6.27.49-6.19,0a27.06,27.06,0,0,0-2.72-16.7c-1.24-2.53-1.6-2.63-4.09-1.48-.67.3-1.3-7.43-7.2-2.88-4.44,3.43-5.3,7.43-6.3,11.5-.39,1.62-.36,1.62-.46,1.62a.2.2,0,0,1-.15,0,27.16,27.16,0,0,0-16.65-2.61c-2.85.4-3,.56-2.91,3.4,0,.31-.53.11-2.12.4-2.91.54-3.88,2.14-3,4.92a15.46,15.46,0,0,0,6,8.16C187.5,79.1,188.61,79.3,188.33,79.69Zm33.12-22.24c1,3.55,2,7.6,1.11,11.69a2.63,2.63,0,0,1-1.38,1.8c-4.66,1.33-9.93,3.16-13.49,7.93a.17.17,0,0,1-.13.07.16.16,0,0,1-.18-.16,6.84,6.84,0,0,1,1.71-5.57,1.14,1.14,0,0,1,.66-.25,1.47,1.47,0,0,0,.73-.29c.41-.24,1-.57,1-.84a1.65,1.65,0,0,0-.82-1.3,1.89,1.89,0,0,0-1.62.57c-1,2.16-1.88,4.37-2.88,6.87a.18.18,0,0,1-.14.11h0c-.12,0-.15-.11-.36-.41C201.79,72,203,62.62,205,56a13.27,13.27,0,0,1,5.21-6.87c1.93-1.39,3.38-1.06,4.56,1.07.59,1.08.84,2.53,1.47,2.53a5.78,5.78,0,0,0,1.56-.54,1.58,1.58,0,0,1,1.52.57,26.16,26.16,0,0,1,2.13,4.7Zm1.61,34.14a2.37,2.37,0,0,1-2.75-1.3c-2.49-3.9-5.79-8.06-11.31-9.9a.14.14,0,0,1-.1-.1.17.17,0,0,1,.1-.22,6.8,6.8,0,0,1,6-.07,1,1,0,0,1,.35.54c.16.35.16.32.5.63s.74.7,1,.7a1.64,1.64,0,0,0,1-1.17,1.89,1.89,0,0,0-1-1.4,34.91,34.91,0,0,0-5-.54c-1.46-.09-2.41.34-2.56.09-.29-.52-.46-.64-.29-.76a48.69,48.69,0,0,1,5.72-3.93,31.6,31.6,0,0,1,14.62-3.46A15.06,15.06,0,0,1,238,73.54c2.6,1.85,1.94,3.7-.58,5.7-1.34,1.06-1.37,1.3-.08,2.3.79.64.81,1.22.17,1.91a26.36,26.36,0,0,1-14.48,8.15ZM201.9,99.34a2.77,2.77,0,0,1,.31-3.58c2.67-3.23,5.73-7.7,5.81-13.59a.18.18,0,0,1,0-.12.16.16,0,0,1,.24,0,6.68,6.68,0,0,1,1.91,5.51c-.05.45-.54.67-.68,1-.41.94-.58,1.4-.49,1.5a1.92,1.92,0,0,0,1.59.56,1.86,1.86,0,0,0,.84-1.48c-.92-4.85-2.29-8.2-1.55-7.7a36.53,36.53,0,0,1,4.92,3.36A31.62,31.62,0,0,1,223.68,99a14.69,14.69,0,0,1-.22,8.85c-.76,2.27-2.14,2.74-4.19,1.8-1.47-.68-1.88-1.4-2.58-1.4-1.3,0-.55,3.1-2.94,1.94A27.18,27.18,0,0,1,201.9,99.35ZM189.81,80.17c1.31,0,5.28,2.36,10.4,2.36,3.61,0,6.71-1.29,6.19-.51a7.6,7.6,0,0,1-4.71,3.5c-.44.11-.89-.29-1.31-.29-1-.08-1.46-.11-1.57,0a2,2,0,0,0,0,1.7,1.87,1.87,0,0,0,1.68.28c2.11-1.16,4.19-2.54,6.53-4a.17.17,0,0,1,.19,0c.13.07.06,0-.4,2a17.89,17.89,0,0,1-1.11,3.65,31.49,31.49,0,0,1-10.92,13,14.48,14.48,0,0,1-8.29,2.47c-5.49,0-2-5.58-2.69-6.51-.54-.74-2.94.35-2.66-1.82A26.74,26.74,0,0,1,188,81,2.47,2.47,0,0,1,189.81,80.17Zm6.92,1.17a33.14,33.14,0,0,1-13.41-5.89,15,15,0,0,1-5.09-7.24c-1.71-5.16,4.73-3.82,5.29-4.49.15-.15.19-.3,0-1.79a1.54,1.54,0,0,1,.89-1.32,25.33,25.33,0,0,1,16.8,2,2.1,2.1,0,0,1,1.25,2.28c-.34,7.61.66,9.75,2.66,13.61.81,1.54.84,1.55.74,1.67a.17.17,0,0,1-.17,0,7.5,7.5,0,0,1-4.73-3.3,1.42,1.42,0,0,1-.15-.81,6.35,6.35,0,0,0-.58-2.18c-.56.18-1.37.26-1.56.58a1.87,1.87,0,0,0,.25,1.7c1.76,1.64,3.67,3.15,5.6,4.75a.22.22,0,0,1,0,.08.16.16,0,0,1-.11.21,15,15,0,0,1-7.77.12Z" transform="translate(7.85 19.21)"/><path class="cls-3" d="M70.56,117.29a3.18,3.18,0,0,0,.62-.06,26.5,26.5,0,0,0,14.49-8.16,1.32,1.32,0,0,0,.45-1,1.36,1.36,0,0,0-.62-.94c-.63-.48-1-.82-1-1.13s.34-.66,1-1.18a11.17,11.17,0,0,0,1-.82,3.42,3.42,0,0,0,1.23-2.61,3.27,3.27,0,0,0-1.66-2.28,15,15,0,0,0-8.69-2.84h-.24a31.5,31.5,0,0,0-14.37,3.47,26.66,26.66,0,0,0-4,2.65c-.58.43-1.15.87-1.73,1.28h0a.16.16,0,0,0,0,.23l.33.53a.18.18,0,0,0,.15.08h0l.72-.08a10.86,10.86,0,0,1,1.28-.1h.41a34.91,34.91,0,0,1,5,.54,1.89,1.89,0,0,1,1,1.4,1.62,1.62,0,0,1-1,1.17c-.27,0-.67-.39-1-.7a2.37,2.37,0,0,0-.28-.27,1.13,1.13,0,0,1-.21-.35.94.94,0,0,0-.39-.51,6.42,6.42,0,0,0-2.82-.66,7.56,7.56,0,0,0-3.13.73.18.18,0,0,0-.1.16.17.17,0,0,0,.12.15c5.52,1.85,8.81,6,11.3,9.91A2.42,2.42,0,0,0,70.56,117.29Z" transform="translate(7.85 19.21)"/><path class="cls-3" d="M70.64,94.73c.9-4.14-.1-8.23-1.1-11.73a23.49,23.49,0,0,0-1.92-4.21l-.21-.38a1.64,1.64,0,0,0-1.25-.62.75.75,0,0,0-.26,0h-.12a4.89,4.89,0,0,1-1.44.48c-.39,0-.56-.37-1.08-1.66-.12-.29-.25-.58-.4-.86-.71-1.29-1.46-1.91-2.46-1.91a3.64,3.64,0,0,0-2.09.83,13.22,13.22,0,0,0-5.25,6.92A43.22,43.22,0,0,0,51.35,90c-.35,3.18-.44,8,1.86,12.42a7.07,7.07,0,0,0,.56.9l.22.33a.16.16,0,0,0,.14.08h0a.19.19,0,0,0,.15-.11c.25-.63.51-1.26.75-1.88.7-1.75,1.36-3.39,2.13-5a1.85,1.85,0,0,1,1.4-.59h.22a1.68,1.68,0,0,1,.82,1.31c0,.26-.58.59-1,.83l-.26.16a1.51,1.51,0,0,1-.46.13,1.14,1.14,0,0,0-.66.25,6.76,6.76,0,0,0-1.71,5.57.17.17,0,0,0,.12.15h0a.17.17,0,0,0,.13-.07c3.57-4.77,8.84-6.59,13.5-7.93A2.66,2.66,0,0,0,70.64,94.73Z" transform="translate(7.85 19.21)"/><path class="cls-3" d="M50.32,121.37a2.75,2.75,0,0,0-.32,3.54,27.18,27.18,0,0,0,11.81,10.88,1.94,1.94,0,0,0,.88.25c.56,0,.94-.39,1.16-1.21s.48-1,.89-1a1.75,1.75,0,0,1,1,.41,9.29,9.29,0,0,0,1.62,1,4.19,4.19,0,0,0,1.76.46c1.13,0,1.93-.74,2.43-2.26a14.62,14.62,0,0,0,.22-8.85A31.43,31.43,0,0,0,63,110.43a18.66,18.66,0,0,0-3.26-2.31c-.55-.34-1.11-.68-1.67-1.06h-.09a.17.17,0,0,0-.1,0,.17.17,0,0,0-.06.18c.18.75.37,1.47.55,2.16.48,1.86.93,3.61,1.26,5.35a1.86,1.86,0,0,1-.84,1.48.49.49,0,0,1-.24,0,2.13,2.13,0,0,1-1.35-.6c-.11-.12.24-.94.38-1.25l.1-.25a1.52,1.52,0,0,1,.3-.37,1,1,0,0,0,.38-.59,6.65,6.65,0,0,0-1.91-5.5.14.14,0,0,0-.12-.06h-.06a.17.17,0,0,0-.11.16C56,113.67,53,118.13,50.32,121.37Z" transform="translate(7.85 19.21)"/><path class="cls-3" d="M38,105.79a2.42,2.42,0,0,0-1.83.91,26.74,26.74,0,0,0-6.86,15,1.31,1.31,0,0,0,.2,1.07,1.39,1.39,0,0,0,1,.39c.72,0,1.24.1,1.42.35s.1.78-.11,1.59l-.06.26a8.77,8.77,0,0,0-.25,1.13A2.69,2.69,0,0,0,34.62,130a14.55,14.55,0,0,0,8.29-2.46,31.63,31.63,0,0,0,10.92-13,19.45,19.45,0,0,0,1.11-3.65c.14-.61.28-1.23.45-1.86a.16.16,0,0,0-.06-.18.17.17,0,0,0-.1,0h-.09l-1.88,1.19c-1.64,1-3.1,2-4.64,2.81a1.15,1.15,0,0,1-.52.1,1.74,1.74,0,0,1-1.16-.37,2,2,0,0,1,0-1.71,1.62,1.62,0,0,1,.46-.07h1.12A1.75,1.75,0,0,1,49,111a2,2,0,0,0,.63.17h.17a7.56,7.56,0,0,0,4.7-3.51.15.15,0,0,0,0-.18.16.16,0,0,0-.14-.08h0l-1.68.28c-1.09.19-2.09.37-3.09.45H48.36A25.23,25.23,0,0,1,39.23,106,3.22,3.22,0,0,0,38,105.79Z" transform="translate(7.85 19.21)"/><path class="cls-3" d="M31.6,101a33.34,33.34,0,0,0,13.34,5.9,17.75,17.75,0,0,0,3.84.45,13,13,0,0,0,3.92-.58.18.18,0,0,0,.12-.13.17.17,0,0,0-.06-.16l-1.52-1.25c-1.36-1.12-2.77-2.28-4.07-3.49a1.85,1.85,0,0,1-.25-1.7c.14-.24.61-.35,1.07-.46l.49-.12a1.43,1.43,0,0,1,.13.38c.14.42.29.86.4,1.29a2.17,2.17,0,0,1,0,.51,1.57,1.57,0,0,0,.15.8,7.62,7.62,0,0,0,4.73,3.31h0a.16.16,0,0,0,.13-.06.19.19,0,0,0,0-.18c-.26-.48-.52-1-.77-1.48-.5-1-1-1.87-1.37-2.79C50.41,97.77,50.44,94,50.6,90.43a2.12,2.12,0,0,0-1.25-2.28,24.54,24.54,0,0,0-11-2.59,28.8,28.8,0,0,0-5.78.61,1.53,1.53,0,0,0-.89,1.33v.12c.11.94.18,1.46,0,1.67s-.7.27-1.7.27a10.46,10.46,0,0,0-1.11.12A3.34,3.34,0,0,0,26.4,91a3.23,3.23,0,0,0,0,2.75A14.92,14.92,0,0,0,31.6,101Z" transform="translate(7.85 19.21)"/><path class="cls-4" d="M36.44,105.24a27.09,27.09,0,0,0-7.65,15.16c-.48,2.72-.33,3,2.39,3.64.47.12-1.31,3.3.25,5.3a4.16,4.16,0,0,0,3.42,1.24c8.26-.05,13-6.76,13.62-6.76s2.26,6.78,12.11,12.07c2.57,1.39,2.91,1.29,4.36-1.08.14-.23.32.05,1.25.59,3.35,1.95,5.26,1,6.26-2.55,1.47-5.3,0-9.23-1.82-13.3-.48-1.18-.53-1.17-.48-1.27a.13.13,0,0,1,.12-.08,27.37,27.37,0,0,0,15-7.69c2.07-2,2.1-2.23.51-4.23-.11-.15-.18.07,2.82-4.1,0-.09.63-1.41-2.11-3.51a14.34,14.34,0,0,0-8.88-3c-5.09,0-6.27.49-6.19,0A27.09,27.09,0,0,0,68.7,79c-1.24-2.48-1.6-2.63-4.1-1.48-.67.3-1.29-7.42-7.19-2.87C53,78,52.1,82,51.1,86.1c-.38,1.62-.35,1.62-.46,1.62a.17.17,0,0,1-.14,0,27.16,27.16,0,0,0-16.65-2.61c-2.86.4-3,.56-2.92,3.4,0,.32-.53.11-2.11.4-2.92.54-3.89,2.14-3,4.93a15.46,15.46,0,0,0,6,8.16C35.6,104.68,36.71,104.87,36.44,105.24Zm34.2-10.51a2.67,2.67,0,0,1-1.38,1.79c-4.66,1.34-9.93,3.16-13.5,7.93a.17.17,0,0,1-.11.06.17.17,0,0,1-.19-.15,6.76,6.76,0,0,1,1.71-5.57,1.14,1.14,0,0,1,.66-.25,1.27,1.27,0,0,0,.72-.29c.41-.24,1-.57,1-.83a1.68,1.68,0,0,0-.82-1.31,2,2,0,0,0-1.62.57c-1,2.17-1.88,4.37-2.88,6.87a.19.19,0,0,1-.15.11h0c-.13,0-.16-.1-.36-.41-3.88-5.67-2.66-15-.66-21.67a13.22,13.22,0,0,1,5.25-6.92c1.92-1.38,3.37-1.06,4.55,1.08.6,1.07.85,2.52,1.48,2.52a6.12,6.12,0,0,0,1.56-.53,1.54,1.54,0,0,1,1.51.57A24.55,24.55,0,0,1,69.54,83C70.56,86.53,71.57,90.62,70.64,94.73Zm.51,22.44a2.4,2.4,0,0,1-2.69-1.28C66,112,62.68,107.83,57.16,106a.2.2,0,0,1-.09-.09.17.17,0,0,1,.09-.22,6.76,6.76,0,0,1,6-.07.94.94,0,0,1,.39.51,1.26,1.26,0,0,0,.49.62c.35.31.75.7,1,.7a1.62,1.62,0,0,0,1-1.17,1.89,1.89,0,0,0-1-1.4,34.91,34.91,0,0,0-5-.54c-1.46-.09-2.41.34-2.57.09-.28-.51-.45-.64-.28-.76a48.23,48.23,0,0,1,5.68-3.93,31.56,31.56,0,0,1,14.61-3.46,15,15,0,0,1,8.69,2.84c2.61,1.84,1.95,3.69-.57,5.69-1.35,1.06-1.37,1.31-.08,2.31.79.63.81,1.22.17,1.9a26.47,26.47,0,0,1-14.49,8.14Zm-20.86,4.16c2.66-3.24,5.73-7.7,5.8-13.6a.16.16,0,0,1,0-.11.16.16,0,0,1,.24,0,6.65,6.65,0,0,1,1.91,5.5c0,.45-.54.68-.68,1-.4.95-.57,1.4-.48,1.5a1.32,1.32,0,0,0,2.43-.92c-.92-4.85-2.3-8.19-1.56-7.7a38,38,0,0,1,5,3.37,31.43,31.43,0,0,1,8.82,14.16,14.62,14.62,0,0,1-.22,8.85c-.75,2.27-2.13,2.74-4.19,1.8-1.46-.67-1.87-1.4-2.58-1.4-1.29,0-.55,3.1-2.93,1.94A27.14,27.14,0,0,1,50,124.91,2.75,2.75,0,0,1,50.29,121.33ZM36.14,106.6a2.43,2.43,0,0,1,1.83-.84c1.31,0,5.28,2.37,10.39,2.37,3.62,0,6.71-1.3,6.19-.52a7.56,7.56,0,0,1-4.7,3.51c-.45.1-.89-.29-1.31-.29a3.82,3.82,0,0,0-1.58,0,2,2,0,0,0,0,1.71,1.84,1.84,0,0,0,1.68.27c2.11-1.16,4.19-2.54,6.52-4a.21.21,0,0,1,.19,0c.14.07.06,0-.39,2a19.45,19.45,0,0,1-1.11,3.65,31.63,31.63,0,0,1-10.92,13,14.55,14.55,0,0,1-8.29,2.46c-5.49,0-2-5.58-2.69-6.51-.55-.73-2.95.35-2.66-1.81a26.74,26.74,0,0,1,6.86-15Zm8.69.32A33.28,33.28,0,0,1,31.48,101a14.91,14.91,0,0,1-5.09-7.25c-1.72-5.15,4.72-3.82,5.28-4.48.15-.15.19-.31,0-1.79a1.53,1.53,0,0,1,.89-1.33,25.34,25.34,0,0,1,16.8,2,2.12,2.12,0,0,1,1.25,2.28c-.35,7.62.65,9.76,2.65,13.62.81,1.54.84,1.54.75,1.66a.19.19,0,0,1-.18.06,7.62,7.62,0,0,1-4.73-3.31,1.57,1.57,0,0,1-.15-.8,6.07,6.07,0,0,0-.57-2.18c-.56.17-1.37.25-1.56.58a1.85,1.85,0,0,0,.25,1.7c1.75,1.64,3.67,3.14,5.59,4.74a.22.22,0,0,1,.05.08.16.16,0,0,1-.11.21,15,15,0,0,1-7.76.13Z" transform="translate(7.85 19.21)"/><path class="cls-3" d="M92.25,78.2a3.08,3.08,0,0,0,.61-.07A26.49,26.49,0,0,0,107.35,70a1.32,1.32,0,0,0,.45-1,1.36,1.36,0,0,0-.62-.94c-.63-.47-1-.83-1-1.13s.35-.66,1-1.17a11.28,11.28,0,0,0,1-.83,3.42,3.42,0,0,0,1.27-2.59A3.34,3.34,0,0,0,107.8,60a15,15,0,0,0-8.7-2.84h-.24a31.49,31.49,0,0,0-14.37,3.46,27.52,27.52,0,0,0-3.95,2.65c-.58.44-1.15.87-1.73,1.29h0a.16.16,0,0,0,0,.21l.33.54a.18.18,0,0,0,.15.08h0l.73-.08a8.94,8.94,0,0,1,1.27-.11h.41a34.91,34.91,0,0,1,5,.54,1.89,1.89,0,0,1,1,1.4,1.64,1.64,0,0,1-1,1.17c-.27,0-.67-.39-1-.71l-.28-.26a1.31,1.31,0,0,1-.21-.36.9.9,0,0,0-.39-.51A6.56,6.56,0,0,0,82,65.86a7.67,7.67,0,0,0-3.12.73.18.18,0,0,0-.1.16.19.19,0,0,0,.11.16c5.52,1.84,8.81,6,11.31,9.9A2.4,2.4,0,0,0,92.25,78.2Z" transform="translate(7.85 19.21)"/><path class="cls-3" d="M92.33,55.72c.9-4.13-.1-8.22-1.1-11.73a22.85,22.85,0,0,0-1.92-4.32l-.21-.38a1.64,1.64,0,0,0-1.25-.62.75.75,0,0,0-.26,0h-.12A4.89,4.89,0,0,1,86,39.2c-.39,0-.56-.37-1.08-1.65a5.69,5.69,0,0,0-.4-.87c-.71-1.28-1.46-1.91-2.46-1.91A3.64,3.64,0,0,0,80,35.6a13.28,13.28,0,0,0-5.16,6.92,44,44,0,0,0-1.71,8.36c-.3,3.21-.44,8,1.81,12.42.17.32.38.63.56.9l.22.33a.17.17,0,0,0,.14.07h0a.15.15,0,0,0,.14-.1l.74-1.85c.69-1.75,1.35-3.4,2.12-5a1.85,1.85,0,0,1,1.4-.59h.22a1.65,1.65,0,0,1,.82,1.3c0,.27-.59.6-1,.84l-.27.16a1.21,1.21,0,0,1-.46.12,1.07,1.07,0,0,0-.66.26,6.77,6.77,0,0,0-1.71,5.57.19.19,0,0,0,.12.15h.05a.16.16,0,0,0,.13-.06c3.57-4.77,8.84-6.6,13.5-7.94A2.61,2.61,0,0,0,92.33,55.72Z" transform="translate(7.85 19.21)"/><path class="cls-3" d="M72,82.27a2.75,2.75,0,0,0-.31,3.55A27.18,27.18,0,0,0,83.5,96.63a2.15,2.15,0,0,0,.89.24c.55,0,.93-.39,1.15-1.2s.48-1,.89-1a1.68,1.68,0,0,1,1,.41,8.41,8.41,0,0,0,1.62,1,4.19,4.19,0,0,0,1.77.46c1.12,0,1.92-.74,2.42-2.26a14.51,14.51,0,0,0,.22-8.84,31.46,31.46,0,0,0-8.82-14.17A20,20,0,0,0,81.38,69a16.25,16.25,0,0,1-1.66-1h-.19a.16.16,0,0,0-.07.18c.19.75.37,1.47.55,2.17.48,1.85.93,3.6,1.26,5.34a1.87,1.87,0,0,1-.84,1.49,1,1,0,0,1-.24,0,2.15,2.15,0,0,1-1.35-.6c-.11-.13.25-1,.38-1.26l.11-.24a1.16,1.16,0,0,1,.29-.37,1,1,0,0,0,.38-.59,6.65,6.65,0,0,0-1.88-5.55.24.24,0,0,0-.12,0h-.06a.16.16,0,0,0-.11.15C77.76,74.58,74.69,79.05,72,82.27Z" transform="translate(7.85 19.21)"/><path class="cls-3" d="M59.73,66.66a2.39,2.39,0,0,0-1.83.9,26.74,26.74,0,0,0-6.86,15,1.31,1.31,0,0,0,.2,1.07,1.4,1.4,0,0,0,1,.4c.72,0,1.23.1,1.42.35s.1.77-.11,1.59l-.06.25a8.77,8.77,0,0,0-.25,1.13,2.7,2.7,0,0,0,3.11,3.54,14.48,14.48,0,0,0,8.29-2.47,31.49,31.49,0,0,0,10.92-13,17.89,17.89,0,0,0,1.11-3.65c.14-.6.28-1.22.45-1.85a.16.16,0,0,0-.06-.18h-.19L75,70.92c-1.64,1-3.1,2-4.64,2.81a1,1,0,0,1-.52.1,1.74,1.74,0,0,1-1.16-.37,2,2,0,0,1,0-1.71.9.9,0,0,1,.46-.06,7.7,7.7,0,0,1,.83,0h.29a1.5,1.5,0,0,1,.51.15,1.77,1.77,0,0,0,.64.16h.16a7.58,7.58,0,0,0,4.7-3.5.21.21,0,0,0,0-.19.18.18,0,0,0-.15-.08h0l-1.68.28a29.09,29.09,0,0,1-3.09.44H70.09A25.32,25.32,0,0,1,61,66.88,3.61,3.61,0,0,0,59.73,66.66Z" transform="translate(7.85 19.21)"/><path class="cls-3" d="M53.34,62a33,33,0,0,0,13.34,5.9,17.75,17.75,0,0,0,3.84.45,13.07,13.07,0,0,0,3.93-.57.16.16,0,0,0,.11-.13.17.17,0,0,0-.06-.16L73,66.21c-1.36-1.12-2.77-2.27-4.07-3.49a1.87,1.87,0,0,1-.25-1.7c.14-.24.61-.35,1.07-.46a3.89,3.89,0,0,0,.49-.12,1.49,1.49,0,0,1,.13.39c.15.42.3.85.41,1.28a2.18,2.18,0,0,1,0,.51,1.42,1.42,0,0,0,.15.81,7.57,7.57,0,0,0,4.73,3.3h0a.17.17,0,0,0,.13-.07.19.19,0,0,0,0-.18c-.26-.48-.52-1-.77-1.48-.53-1-1-1.91-1.41-2.83-1.46-3.49-1.44-7.26-1.28-10.82a2.14,2.14,0,0,0-1.25-2.29,24.69,24.69,0,0,0-11-2.58,29.53,29.53,0,0,0-5.78.6,1.54,1.54,0,0,0-.89,1.33v.13c.12.93.18,1.45,0,1.66s-.7.28-1.7.28a8.34,8.34,0,0,0-1.11.11,3.36,3.36,0,0,0-2.46,1.34,3.25,3.25,0,0,0,0,2.76A14.89,14.89,0,0,0,53.34,62Z" transform="translate(7.85 19.21)"/><path class="cls-4" d="M58.16,66.22a27.09,27.09,0,0,0-7.65,15.16c-.48,2.73-.33,3,2.39,3.65.47.12-1.31,3.3.25,5.3a4.19,4.19,0,0,0,3.42,1.24c8.27-.06,13-6.76,13.63-6.76s2.26,6.77,12.1,12.07c2.57,1.38,2.92,1.28,4.36-1.09.14-.23.32,0,1.25.59,3.35,2,5.27,1,6.27-2.55,1.46-5.3-.06-9.22-1.83-13.3-.48-1.17-.48-1.16-.48-1.27a.2.2,0,0,1,.12-.08,27.26,27.26,0,0,0,15-7.68c2.07-2,2.1-2.24.51-4.24-.11-.1-.17.08,2.83-4.1,0-.08.62-1.41-2.12-3.5a14.34,14.34,0,0,0-8.88-3c-5.09,0-6.27.49-6.19,0A27.06,27.06,0,0,0,90.42,40c-1.24-2.48-1.6-2.63-4.1-1.48-.66.3-1.29-7.43-7.19-2.88C74.69,39,73.83,43,72.83,47.1c-.39,1.62-.36,1.62-.47,1.62a.12.12,0,0,1-.14,0,27.31,27.31,0,0,0-16.65-2.61c-2.85.4-3,.56-2.92,3.4,0,.32-.52.12-2.11.41-2.92.53-3.89,2.14-3,4.92a15.46,15.46,0,0,0,6,8.16C57.32,65.59,58.43,65.79,58.16,66.22Zm33.1-22.28c1,3.51,2,7.6,1.08,11.79A2.64,2.64,0,0,1,91,57.52c-4.66,1.34-9.93,3.17-13.5,7.94a.17.17,0,0,1-.11.06.17.17,0,0,1-.19-.15,6.77,6.77,0,0,1,1.71-5.57,1.07,1.07,0,0,1,.66-.26,1.37,1.37,0,0,0,.73-.28c.41-.24,1-.57,1-.84a1.65,1.65,0,0,0-.82-1.3,1.89,1.89,0,0,0-1.62.57c-1,2.16-1.88,4.37-2.88,6.87a.15.15,0,0,1-.14.1h0c-.13,0-.15-.1-.36-.4-3.88-5.68-2.66-15.06-.66-21.68A13.22,13.22,0,0,1,80,35.66c1.92-1.38,3.38-1,4.55,1.08.6,1.08.85,2.52,1.48,2.52a6.12,6.12,0,0,0,1.56-.53,1.54,1.54,0,0,1,1.51.57A25.18,25.18,0,0,1,91.26,44Zm1.61,34.14a2.38,2.38,0,0,1-2.67-1.21C87.7,73,84.41,68.81,78.89,67a.14.14,0,0,1-.1-.1.17.17,0,0,1,.1-.22,6.74,6.74,0,0,1,5.94-.07.9.9,0,0,1,.39.51c.16.35.14.3.49.62s.75.71,1,.71a1.64,1.64,0,0,0,1-1.17,1.89,1.89,0,0,0-1-1.4,34.91,34.91,0,0,0-5-.54c-1.46-.09-2.41.34-2.57.09-.28-.52-.45-.65-.28-.76a46.36,46.36,0,0,1,5.68-3.94,31.56,31.56,0,0,1,14.61-3.46,15,15,0,0,1,8.7,2.84c2.6,1.85,1.94,3.7-.58,5.7-1.35,1-1.37,1.3-.08,2.3.79.64.81,1.22.17,1.91a26.49,26.49,0,0,1-14.49,8.15ZM71.72,85.83A2.76,2.76,0,0,1,72,82.3c2.66-3.23,5.73-7.7,5.8-13.6a.16.16,0,0,1,0-.11.16.16,0,0,1,.24,0A6.64,6.64,0,0,1,80,74.1c0,.45-.54.67-.67,1-.41.94-.58,1.4-.49,1.5a1.92,1.92,0,0,0,1.59.56,1.87,1.87,0,0,0,.84-1.49C80.38,70.83,79,67.48,79.75,68a36.53,36.53,0,0,1,4.92,3.36,31.46,31.46,0,0,1,8.82,14.17,14.51,14.51,0,0,1-.22,8.84c-.75,2.28-2.13,2.8-4.19,1.8-1.46-.67-1.87-1.39-2.58-1.39-1.29,0-.54,3.1-2.93,1.94A27.18,27.18,0,0,1,71.72,85.89ZM57.86,67.51a2.38,2.38,0,0,1,1.82-.77c1.31,0,5.28,2.36,10.4,2.36,3.61,0,6.7-1.29,6.18-.51a7.58,7.58,0,0,1-4.7,3.5c-.45.11-.89-.29-1.31-.29a3.82,3.82,0,0,0-1.58,0,2,2,0,0,0,0,1.71,1.84,1.84,0,0,0,1.68.27c2.11-1.16,4.19-2.55,6.52-4a.14.14,0,0,1,.19,0c.14.07.06,0-.39,2a17.89,17.89,0,0,1-1.11,3.65,31.49,31.49,0,0,1-10.92,13,14.48,14.48,0,0,1-8.29,2.47c-5.49,0-2-5.58-2.69-6.51-.55-.74-2.95.35-2.66-1.82a26.74,26.74,0,0,1,6.86-15Zm8.69.32A33.14,33.14,0,0,1,53.14,62a14.88,14.88,0,0,1-5.09-7.24c-1.72-5.16,4.72-3.82,5.28-4.49.15-.15.19-.3,0-1.79a1.54,1.54,0,0,1,.89-1.33,25.46,25.46,0,0,1,16.8,2,2.14,2.14,0,0,1,1.25,2.29c-.35,7.61.65,9.75,2.65,13.61.81,1.54.85,1.55.75,1.66a.16.16,0,0,1-.17.06,7.57,7.57,0,0,1-4.73-3.3,1.42,1.42,0,0,1-.15-.81A6.41,6.41,0,0,0,70,60.45c-.56.17-1.37.26-1.56.58a1.87,1.87,0,0,0,.25,1.7c1.75,1.64,3.67,3.14,5.59,4.75a.17.17,0,0,1,.06.06.17.17,0,0,1-.06.23,15.05,15.05,0,0,1-7.77.12Z" transform="translate(7.85 19.21)"/><path class="cls-3" d="M262.84,109.43a3.65,3.65,0,0,0,.74-.08,31.33,31.33,0,0,0,17.21-9.69,1.59,1.59,0,0,0,.54-1.15,1.65,1.65,0,0,0-.74-1.11c-.7-.57-1.15-1-1.14-1.35s.46-.78,1.23-1.39a12,12,0,0,0,1.14-1,4,4,0,0,0,1.51-3.08,3.94,3.94,0,0,0-2-2.71A17.83,17.83,0,0,0,271,84.5h-.29a37.37,37.37,0,0,0-17.07,4.12,30.85,30.85,0,0,0-4.7,3.15c-.68.52-1.36,1-2.06,1.52a.19.19,0,0,0,0,.27l.39.64a.2.2,0,0,0,.17.09h0c.29,0,.57-.09.86-.09a11,11,0,0,1,1.52-.13h.49a43.27,43.27,0,0,1,5.9.64,2.25,2.25,0,0,1,1.16,1.67,1.91,1.91,0,0,1-1.22,1.39c-.3,0-.77-.47-1.16-.84l-.33-.32a1.29,1.29,0,0,1-.26-.42,1.1,1.1,0,0,0-.46-.6,7.63,7.63,0,0,0-3.35-.78,9,9,0,0,0-3.71.86.18.18,0,0,0-.12.19.19.19,0,0,0,.13.18c6.56,2.19,10.44,7.18,13.44,11.77A2.84,2.84,0,0,0,262.84,109.43Z" transform="translate(7.85 19.21)"/><path class="cls-3" d="M262.89,82.69c1.1-4.94-.1-9.77-1.3-13.94a27.32,27.32,0,0,0-2.29-5.12l-.24-.46a2,2,0,0,0-1.49-.73,1.06,1.06,0,0,0-.31.05l-.15.06a5.74,5.74,0,0,1-1.71.57c-.46,0-.66-.47-1.28-2-.14-.34-.3-.68-.47-1-.84-1.53-1.8-2.27-2.93-2.27a4.29,4.29,0,0,0-2.48,1A15.65,15.65,0,0,0,242,67.07,51.72,51.72,0,0,0,240,77c-.37,3.82-.54,9.5,2.08,14.77a12,12,0,0,0,.66,1.08l.26.39a.22.22,0,0,0,.17.09h0a.23.23,0,0,0,.17-.13c.31-.75.6-1.5.9-2.23.82-2.07,1.61-4,2.52-5.93a2.2,2.2,0,0,1,1.67-.7h.26a2,2,0,0,1,1,1.55c0,.32-.7.72-1.19,1l-.32.19a1.33,1.33,0,0,1-.55.15,1.39,1.39,0,0,0-.78.3,8.08,8.08,0,0,0-2,6.63.2.2,0,0,0,.15.17h.11a.21.21,0,0,0,.16-.08c4.2-5.67,10.46-7.84,16-9.43A3.14,3.14,0,0,0,262.89,82.69Z" transform="translate(7.85 19.21)"/><path class="cls-3" d="M238.78,114.34a3.27,3.27,0,0,0-.37,4.21,32.29,32.29,0,0,0,14.08,12.85,2.47,2.47,0,0,0,1.06.29c.66,0,1.11-.43,1.37-1.43.22-.77.57-1.16,1.06-1.16a2,2,0,0,1,1.14.48,10.61,10.61,0,0,0,1.93,1.18,5.06,5.06,0,0,0,2.09.54c1.34,0,2.28-.88,2.88-2.68a17.23,17.23,0,0,0,.26-10.51,37.36,37.36,0,0,0-10.48-16.84,22.76,22.76,0,0,0-3.87-2.74c-.67-.4-1.34-.81-2-1.25a.21.21,0,0,0-.11,0,.24.24,0,0,0-.12,0,.2.2,0,0,0-.08.21l.66,2.58c.57,2.2,1.1,4.28,1.5,6.35a2.21,2.21,0,0,1-1,1.76.71.71,0,0,1-.29,0,2.53,2.53,0,0,1-1.6-.71c-.13-.15.29-1.13.45-1.49l.13-.29a1.51,1.51,0,0,1,.35-.44,1.28,1.28,0,0,0,.45-.71A7.9,7.9,0,0,0,246,98a.2.2,0,0,0-.15,0h-.08a.2.2,0,0,0-.12.19C245.56,105.16,241.92,110.47,238.78,114.34Z" transform="translate(7.85 19.21)"/><path class="cls-3" d="M224,95.64a2.86,2.86,0,0,0-2.16,1.07,31.74,31.74,0,0,0-8.16,17.83,1.55,1.55,0,0,0,.24,1.27,1.6,1.6,0,0,0,1.23.47c.86,0,1.47.11,1.69.41s.12.89-.12,1.89l-.08.31a8.9,8.9,0,0,0-.29,1.34,3.16,3.16,0,0,0-.11,1.75,3.2,3.2,0,0,0,3.8,2.45,17.27,17.27,0,0,0,9.85-2.93,37.67,37.67,0,0,0,13-15.48,21.28,21.28,0,0,0,1.31-4.34c.17-.72.34-1.46.54-2.21a.18.18,0,0,0-.07-.21.24.24,0,0,0-.12,0,.17.17,0,0,0-.1,0c-.78.48-1.52.95-2.24,1.41-1.89,1.2-3.69,2.34-5.52,3.34a1.28,1.28,0,0,1-.61.12,2.13,2.13,0,0,1-1.38-.44,2.33,2.33,0,0,1,0-2s.09-.08.55-.08.68.06,1,.06h.35a2.66,2.66,0,0,1,.61.18,2.18,2.18,0,0,0,.75.19h.19a9,9,0,0,0,5.59-4.17.17.17,0,0,0,0-.21.21.21,0,0,0-.17-.1h0l-2,.33a35.44,35.44,0,0,1-3.68.53,12.38,12.38,0,0,1-1.49.06A30.07,30.07,0,0,1,225.59,96,4,4,0,0,0,224,95.64Z" transform="translate(7.85 19.21)"/><path class="cls-3" d="M216.44,90.07a39.33,39.33,0,0,0,15.86,7,20.68,20.68,0,0,0,4.57.54,15.34,15.34,0,0,0,4.66-.69.18.18,0,0,0,.13-.15.2.2,0,0,0-.06-.19l-1.81-1.49c-1.62-1.33-3.3-2.7-4.84-4.15a2.23,2.23,0,0,1-.3-2c.17-.29.73-.42,1.27-.54l.58-.15c.06.16.11.31.16.46.17.53.35,1,.48,1.53a2,2,0,0,1,0,.6,1.83,1.83,0,0,0,.18,1,8.92,8.92,0,0,0,5.62,3.92H243a.24.24,0,0,0,.16-.07.22.22,0,0,0,0-.22c-.31-.62-.62-1.2-.91-1.76a34.8,34.8,0,0,1-1.63-3.31c-1.74-4.15-1.71-8.63-1.53-12.87a2.53,2.53,0,0,0-1.48-2.71,29.15,29.15,0,0,0-13.09-3.07,34.46,34.46,0,0,0-6.87.72A1.81,1.81,0,0,0,216.58,74v.15c.13,1.14.18,1.74,0,2s-.82.33-2,.33a11.4,11.4,0,0,0-1.31.14,4,4,0,0,0-2.93,1.59,3.89,3.89,0,0,0,0,3.27A17.72,17.72,0,0,0,216.44,90.07Z" transform="translate(7.85 19.21)"/><path class="cls-4" d="M222.19,95.07a32.23,32.23,0,0,0-9.1,18c-.57,3.24-.38,3.53,2.84,4.34.57.14-1.55,4,.31,6.29.78,1,2.15,1.48,4.06,1.48,9.82,0,15.48-8,16.19-8s2.68,8,14.38,14.34c3.06,1.64,3.47,1.52,5.18-1.29.17-.3.38.06,1.49.7,4,2.34,6.29,1.17,7.44-3,1.74-6.3-.06-11-2.17-15.81-.56-1.39-.63-1.38-.56-1.5a.21.21,0,0,1,.14-.1,32.46,32.46,0,0,0,17.86-9.13c2.46-2.35,2.5-2.68.62-5-.14-.18-.25.13,3.35-4.87,0-.1.74-1.68-2.51-4.17a17.06,17.06,0,0,0-10.55-3.55c-6.06,0-7.45.64-7.36.06A32.19,32.19,0,0,0,260.56,64c-1.47-3-1.86-3.12-4.86-1.75-.79.35-1.55-8.83-8.55-3.42-5.28,4.07-6.32,8.82-7.49,13.66-.46,1.92-.43,1.92-.55,1.92a.17.17,0,0,1-.17,0,32.26,32.26,0,0,0-19.79-3.1c-3.38.43-3.55.62-3.46,4,0,.37-.63.13-2.51.48-3.46.64-4.62,2.54-3.57,5.85a18.38,18.38,0,0,0,7.17,9.69C221.27,94.48,222.59,94.71,222.19,95.07Zm40.7-12.37a3.14,3.14,0,0,1-1.64,2.13c-5.5,1.59-11.76,3.76-16,9.43a.2.2,0,0,1-.36-.1,8.08,8.08,0,0,1,2-6.63,1.39,1.39,0,0,1,.78-.3,1.54,1.54,0,0,0,.87-.34c.49-.29,1.19-.69,1.19-1a2,2,0,0,0-1-1.55,2.28,2.28,0,0,0-1.93.68c-1.23,2.57-2.21,5.16-3.42,8.16a.23.23,0,0,1-.17.13h0c-.15,0-.18-.12-.43-.48-4.6-6.76-3.13-17.89-.78-25.76a15.71,15.71,0,0,1,6.26-8.23c2.28-1.65,4-1.26,5.41,1.28.7,1.29,1,3,1.75,3a6.81,6.81,0,0,0,1.86-.63,1.88,1.88,0,0,1,1.8.68,30.81,30.81,0,0,1,2.53,5.58C262.81,72.92,264,77.78,262.89,82.7Zm-2.6,25.11c-3-4.59-6.88-9.58-13.44-11.77a.2.2,0,0,1-.11-.11.2.2,0,0,1,.11-.26,8,8,0,0,1,7.06-.08,1.1,1.1,0,0,1,.46.6c.19.41.2.37.59.74s.86.84,1.16.84a1.91,1.91,0,0,0,1.22-1.39,2.25,2.25,0,0,0-1.16-1.67,43.27,43.27,0,0,0-5.9-.64c-1.74-.11-2.87.41-3.06.11-.34-.61-.53-.77-.34-.91,2.25-1.58,4.34-3.44,6.76-4.67A37.42,37.42,0,0,1,271,84.49a17.77,17.77,0,0,1,10.31,3.37c3.09,2.2,2.31,4.41-.69,6.77-1.6,1.26-1.62,1.5-.09,2.74.94.75,1,1.45.2,2.26a31.33,31.33,0,0,1-17.21,9.69A2.83,2.83,0,0,1,260.29,107.81Zm-21.53,6.48c3.17-3.84,6.81-9.15,6.9-16.15a.2.2,0,0,1,.06-.14.19.19,0,0,1,.28,0,7.9,7.9,0,0,1,2.29,6.55c0,.49-.64.76-.8,1.15-.49,1.12-.69,1.66-.58,1.78a2.25,2.25,0,0,0,1.89.66,2.21,2.21,0,0,0,1-1.76c-1.1-5.76-2.73-9.74-1.85-9.14,2,1.38,4.21,2.45,5.85,4a37.36,37.36,0,0,1,10.48,16.84,17.23,17.23,0,0,1-.26,10.51c-.92,2.7-2.56,3.26-5,2.14-1.75-.8-2.23-1.66-3.07-1.66-1.49,0-.65,3.68-3.49,2.3a32.29,32.29,0,0,1-14.08-12.85A3.27,3.27,0,0,1,238.76,114.29ZM224.08,95.73c1.57,0,6.28,2.81,12.36,2.81,4.29,0,8-1.54,7.35-.62a9,9,0,0,1-5.59,4.17c-.55.12-1.06-.35-1.55-.35-1.16-.09-1.74-.12-1.88,0a2.33,2.33,0,0,0,0,2,2.17,2.17,0,0,0,2,.32c2.51-1.38,5-3,7.76-4.75a.22.22,0,0,1,.22,0c.16.12.07.08-.47,2.42a21.28,21.28,0,0,1-1.31,4.34,37.67,37.67,0,0,1-13,15.48,17.27,17.27,0,0,1-9.85,2.93c-6.53,0-2.38-6.63-3.2-7.74-.65-.87-3.5.42-3.16-2.15a31.74,31.74,0,0,1,8.16-17.83A2.85,2.85,0,0,1,224.08,95.73Zm-7.81-5.56a17.78,17.78,0,0,1-6-8.61c-2.05-6.12,5.61-4.54,6.28-5.33.18-.13.23-.36,0-2.13a1.81,1.81,0,0,1,1.06-1.57,30.18,30.18,0,0,1,20,2.35,2.53,2.53,0,0,1,1.48,2.71c-.39,9,.75,11.59,3.16,16.18,1,1.85,1,1.86.89,2a.19.19,0,0,1-.21.06,8.92,8.92,0,0,1-5.62-3.92,1.83,1.83,0,0,1-.18-1,7.27,7.27,0,0,0-.69-2.59c-.7.21-1.63.31-1.85.69a2.23,2.23,0,0,0,.3,2c2.08,1.95,4.36,3.74,6.65,5.64a.15.15,0,0,1,.06.09.21.21,0,0,1-.13.25,17.73,17.73,0,0,1-9.23.15A39.32,39.32,0,0,1,216.27,90.17Z" transform="translate(7.85 19.21)"/><path class="cls-3" d="M117.74,124.08a3.55,3.55,0,0,0,.73-.08,31.43,31.43,0,0,0,17.27-9.64,1.54,1.54,0,0,0,.53-1.15,1.61,1.61,0,0,0-.73-1.11c-.7-.57-1.14-1-1.14-1.35s.45-.78,1.23-1.39a12,12,0,0,0,1.14-1,4.09,4.09,0,0,0,1.51-3.08,3.94,3.94,0,0,0-2-2.71A17.79,17.79,0,0,0,126,99.19h-.29a37.45,37.45,0,0,0-17.08,4.12,30.27,30.27,0,0,0-4.69,3.15c-.69.52-1.37,1-2.06,1.52a.2.2,0,0,0-.06.27l.4.64a.2.2,0,0,0,.17.09h0c.28,0,.57-.1.86-.1a12.63,12.63,0,0,1,1.51-.12h.49a41.88,41.88,0,0,1,5.91.64,2.25,2.25,0,0,1,1.16,1.67,2,2,0,0,1-1.22,1.39c-.3,0-.78-.47-1.16-.84l-.34-.32a1.38,1.38,0,0,1-.25-.42,1.13,1.13,0,0,0-.46-.61,8,8,0,0,0-3.35-.78,9,9,0,0,0-3.72.87.21.21,0,0,0-.12.19.22.22,0,0,0,.14.18c6.56,2.19,10.43,7.18,13.43,11.77A2.88,2.88,0,0,0,117.74,124.08Z" transform="translate(7.85 19.21)"/><path class="cls-3" d="M117.84,97.39c1.1-4.94-.1-9.77-1.31-13.94a27.7,27.7,0,0,0-2.29-5.13l-.24-.45a2,2,0,0,0-1.49-.74.81.81,0,0,0-.31.06l-.14.06a5.74,5.74,0,0,1-1.71.57c-.46,0-.66-.47-1.28-2a9.18,9.18,0,0,0-.48-1c-.84-1.52-1.79-2.26-2.92-2.26a4.32,4.32,0,0,0-2.49,1,15.79,15.79,0,0,0-6.24,8.22,51.72,51.72,0,0,0-2,9.93c-.36,3.82-.52,9.49,2.15,14.75a9.12,9.12,0,0,0,.67,1.07l.26.39a.2.2,0,0,0,.17.09h0a.17.17,0,0,0,.16-.12c.31-.76.61-1.5.9-2.24.83-2.06,1.61-4,2.53-5.92a2.2,2.2,0,0,1,1.67-.7,1,1,0,0,1,.25,0,2,2,0,0,1,1,1.55c0,.32-.7.71-1.19,1l-.32.19a1.33,1.33,0,0,1-.55.15,1.3,1.3,0,0,0-.78.3,8.1,8.1,0,0,0-2,6.62.22.22,0,0,0,.14.18h.06a.17.17,0,0,0,.16-.09c4.21-5.66,10.47-7.83,16-9.42A3.14,3.14,0,0,0,117.84,97.39Z" transform="translate(7.85 19.21)"/><path class="cls-3" d="M93.73,129.08a3.27,3.27,0,0,0-.38,4.21,32.37,32.37,0,0,0,14.09,12.85,2.39,2.39,0,0,0,1,.29c.66,0,1.11-.43,1.38-1.43.21-.77.57-1.17,1.06-1.17a2,2,0,0,1,1.13.49,10.56,10.56,0,0,0,1.93,1.17,5.12,5.12,0,0,0,2.1.55c1.34,0,2.28-.88,2.88-2.69a17.38,17.38,0,0,0,.26-10.51A37.5,37.5,0,0,0,108.75,116a22.82,22.82,0,0,0-3.87-2.75c-.68-.39-1.34-.8-2-1.25a.24.24,0,0,0-.12,0,.21.21,0,0,0-.11,0,.2.2,0,0,0-.08.21c.22.89.44,1.75.66,2.57.56,2.21,1.1,4.29,1.49,6.36a2.17,2.17,0,0,1-1,1.76.66.66,0,0,1-.28,0,2.54,2.54,0,0,1-1.6-.72c-.14-.14.29-1.12.45-1.48l.12-.3a1.83,1.83,0,0,1,.35-.44,1.24,1.24,0,0,0,.46-.7,7.92,7.92,0,0,0-2.27-6.54.21.21,0,0,0-.15-.07h-.07a.19.19,0,0,0-.13.18C100.52,119.85,96.87,125.16,93.73,129.08Z" transform="translate(7.85 19.21)"/><path class="cls-3" d="M79,110.38a2.87,2.87,0,0,0-2.17,1.08,31.8,31.8,0,0,0-8.15,17.82,1.55,1.55,0,0,0,.24,1.27,1.57,1.57,0,0,0,1.23.47c.86,0,1.47.12,1.69.42s.12.89-.13,1.89l-.08.3a12,12,0,0,0-.29,1.35,4,4,0,0,0,.62,3.18,3.85,3.85,0,0,0,3.07,1,17.18,17.18,0,0,0,9.85-2.93,37.39,37.39,0,0,0,13-15.48,21.67,21.67,0,0,0,1.32-4.33c.17-.72.34-1.46.54-2.21a.21.21,0,0,0-.07-.21.24.24,0,0,0-.12,0,.21.21,0,0,0-.11,0l-2.25,1.38c-1.9,1.2-3.69,2.34-5.52,3.34a1.41,1.41,0,0,1-.61.11,2.12,2.12,0,0,1-1.39-.44,2.33,2.33,0,0,1,0-2s.08-.08.55-.08.68.06,1,.06h.34a2.15,2.15,0,0,1,.61.18,2.24,2.24,0,0,0,.76.19h.19a9,9,0,0,0,5.59-4.17.22.22,0,0,0,0-.22.2.2,0,0,0-.17-.09h0l-2,.34c-1.28.22-2.49.43-3.67.53a12.38,12.38,0,0,1-1.49.06,29.93,29.93,0,0,1-10.86-2.49A4.18,4.18,0,0,0,79,110.38Z" transform="translate(7.85 19.21)"/><path class="cls-3" d="M71.32,104.78a39.42,39.42,0,0,0,15.85,7,21.29,21.29,0,0,0,4.57.53,15.65,15.65,0,0,0,4.66-.68.18.18,0,0,0,.11-.07.19.19,0,0,0,0-.27l-1.8-1.49c-1.63-1.33-3.3-2.71-4.85-4.15a2.23,2.23,0,0,1-.29-2c.16-.29.73-.42,1.27-.55l.58-.14c.05.15.1.31.16.46.17.53.35,1,.48,1.53a3,3,0,0,1,0,.6,1.82,1.82,0,0,0,.17,1,9,9,0,0,0,5.63,3.92h0a.18.18,0,0,0,.15-.08.2.2,0,0,0,0-.21l-.91-1.76a33.79,33.79,0,0,1-1.63-3.32C93.78,101,93.82,96.47,94,92.24a2.52,2.52,0,0,0-1.43-2.73,29.19,29.19,0,0,0-13.1-3.07,34.46,34.46,0,0,0-6.87.72,1.86,1.86,0,0,0-1.06,1.57v.15c.13,1.14.19,1.75,0,2s-.83.33-2,.33a8.45,8.45,0,0,0-1.32.14,4,4,0,0,0-2.93,1.59,3.89,3.89,0,0,0,0,3.27A17.87,17.87,0,0,0,71.32,104.78Z" transform="translate(7.85 19.21)"/><path class="cls-4" d="M77.14,109.7a32.22,32.22,0,0,0-9.09,18c-.57,3.24-.38,3.52,2.84,4.33.57.15-1.55,4,.3,6.3.79,1,2.15,1.48,4.06,1.48,9.83,0,15.5-8,16.2-8s2.68,8.05,14.38,14.35c3,1.64,3.46,1.52,5.18-1.29.17-.3.38.06,1.48.7,4,2.34,6.3,1.17,7.45-3,1.74-6.31-.06-11-2.17-15.81-.57-1.4-.63-1.38-.57-1.5a.2.2,0,0,1,.15-.1A32.46,32.46,0,0,0,135.21,116c2.46-2.34,2.5-2.67.61-5-.14-.17-.25.13,3.36-4.87-.05-.1.74-1.67-2.51-4.16a17,17,0,0,0-10.56-3.55c-6,0-7.45.64-7.35.06a32.19,32.19,0,0,0-3.24-19.85c-1.47-3-1.86-3.12-4.86-1.76-.8.36-1.55-8.82-8.55-3.42-5.28,4.08-6.33,8.83-7.49,13.66-.46,1.93-.43,1.87-.55,1.93a.28.28,0,0,1-.18,0A32.23,32.23,0,0,0,74.11,86c-3.39.44-3.55.63-3.46,4,0,.38-.63.14-2.52.49-3.46.63-4.61,2.53-3.56,5.84a18.35,18.35,0,0,0,7.16,9.7C76.23,109.17,77.55,109.4,77.14,109.7ZM117.9,97.39a3.13,3.13,0,0,1-1.65,2.13c-5.5,1.59-11.76,3.76-16,9.42a.2.2,0,0,1-.36-.1,8.1,8.1,0,0,1,2-6.62,1.3,1.3,0,0,1,.78-.3,1.62,1.62,0,0,0,.87-.34c.49-.3,1.19-.69,1.19-1a2,2,0,0,0-1-1.55,2.23,2.23,0,0,0-1.92.68c-1.24,2.57-2.21,5.16-3.43,8.16a.17.17,0,0,1-.16.12h0c-.15,0-.19-.12-.43-.48-4.61-6.75-3.13-17.89-.79-25.75a15.76,15.76,0,0,1,6.18-8.22c2.29-1.65,4-1.26,5.41,1.27.76,1.28,1,3,1.76,3a6.75,6.75,0,0,0,1.85-.63,1.83,1.83,0,0,1,1.8.68,30.26,30.26,0,0,1,2.56,5.58C117.77,87.61,119,92.47,117.9,97.39Zm-2.69,25.1c-3-4.59-6.87-9.58-13.43-11.77a.2.2,0,0,1-.11-.11.2.2,0,0,1,.11-.26,8.05,8.05,0,0,1,7.07-.09,1.13,1.13,0,0,1,.46.61c.19.41.21.37.59.74s.86.84,1.16.84a2,2,0,0,0,1.22-1.39,2.25,2.25,0,0,0-1.16-1.67,41.88,41.88,0,0,0-5.91-.64c-1.74-.11-2.86.4-3,.11-.34-.62-.54-.77-.34-.91,2.25-1.58,4.33-3.45,6.75-4.67a37.44,37.44,0,0,1,17.37-4.12,17.79,17.79,0,0,1,10.32,3.38c3.1,2.19,2.32,4.41-.68,6.77-1.6,1.25-1.62,1.5-.09,2.74.94.75,1,1.45.2,2.26A31.4,31.4,0,0,1,118.47,124,2.85,2.85,0,0,1,115.21,122.49ZM93.33,133.21a3.27,3.27,0,0,1,.4-4.22c3.16-3.84,6.81-9.16,6.89-16.16a.21.21,0,0,1,.07-.15.2.2,0,0,1,.28,0,7.92,7.92,0,0,1,2.27,6.54c-.06.49-.64.75-.81,1.14-.48,1.12-.68,1.66-.57,1.78a2.21,2.21,0,0,0,1.88.67,2.17,2.17,0,0,0,1-1.76c-1.09-5.76-2.72-9.74-1.84-9.15,2,1.37,4.2,2.44,5.85,4a37.5,37.5,0,0,1,10.48,16.83,17.38,17.38,0,0,1-.26,10.51c-.92,2.7-2.56,3.27-5,2.14-1.74-.8-2.22-1.66-3.06-1.66-1.49,0-.65,3.69-3.49,2.31A32.37,32.37,0,0,1,93.33,133.2ZM76.87,111.45A2.9,2.9,0,0,1,79,110.39c1.56,0,6.28,2.82,12.36,2.82,4.29,0,8-1.54,7.35-.62a9,9,0,0,1-5.59,4.17c-.56.12-1.06-.35-1.56-.35a4.92,4.92,0,0,0-1.87,0,2.33,2.33,0,0,0,0,2,2.2,2.2,0,0,0,2,.33c2.51-1.38,5-3,7.75-4.75a.2.2,0,0,1,.23,0c.16.12.07.08-.47,2.42a21.67,21.67,0,0,1-1.32,4.33,37.39,37.39,0,0,1-13,15.48,17.18,17.18,0,0,1-9.85,2.93c-6.52,0-2.37-6.63-3.19-7.73-.65-.87-3.5.41-3.16-2.16a31.8,31.8,0,0,1,8.15-17.82Zm10.32.38a39.42,39.42,0,0,1-15.92-7,17.81,17.81,0,0,1-6-8.61c-2-6.13,5.62-4.54,6.29-5.33.19-.13.23-.36,0-2.13a1.86,1.86,0,0,1,1.06-1.57,30.05,30.05,0,0,1,20,2.35,2.53,2.53,0,0,1,1.48,2.71c-.39,9,.74,11.59,3.16,16.18,1,1.86,1,1.87.88,2a.2.2,0,0,1-.2.07,9,9,0,0,1-5.63-3.92,1.82,1.82,0,0,1-.17-1A7.48,7.48,0,0,0,91.4,103c-.71.2-1.63.3-1.85.69a2.23,2.23,0,0,0,.29,2c2.09,2,4.37,3.73,6.65,5.64a.15.15,0,0,1,.06.09.21.21,0,0,1-.13.25,17.83,17.83,0,0,1-9.23.15Z" transform="translate(7.85 19.21)"/><path class="cls-3" d="M277.86,232.51a15.91,15.91,0,0,0,1.37-6.93,1.26,1.26,0,0,1,.84-1.31,15.89,15.89,0,0,1,10.71-.42.91.91,0,0,1,.43.77c-.34,1.38-.37,1.38,1,1.54a5.58,5.58,0,0,1,.69.13c1.48.39,1.89,1.19,1.3,2.6a9.48,9.48,0,0,1-3.56,4.35,21,21,0,0,1-8.73,3.1,9.23,9.23,0,0,1-4.88-.46c1.29-.92,2.58-1.77,3.8-2.77a1.36,1.36,0,0,0,.27-1.21c-.12-.29-.73-.37-1.12-.54-.16.38-.39.89-.47,1.15s0,.6-.17.8a4.71,4.71,0,0,1-3.1,1.84C276.83,234.16,277.37,233.37,277.86,232.51Z" transform="translate(7.85 19.21)"/><path class="cls-3" d="M278.72,237a14.81,14.81,0,0,0,6.76-.79,1.45,1.45,0,0,1,1.82.52,17.14,17.14,0,0,1,3.59,9.91c0,.5-.13.77-.75.77-1.09,0-1.2.15-1,1.31a8.67,8.67,0,0,1,.13.89c.07,1.5-.54,2.11-2,2a9.08,9.08,0,0,1-5.13-2,20.07,20.07,0,0,1-6.26-8.87,22.16,22.16,0,0,1-.72-3.59c1.49,1.08,2.7,2,4,2.89a1.25,1.25,0,0,0,1.21-.1,1.38,1.38,0,0,0,.1-1.22c-.1-.14-.83-.14-1.1-.14s-.58.2-.82.13a4.73,4.73,0,0,1-2.75-2.44C276.94,236.58,277.86,236.87,278.72,237Z" transform="translate(7.85 19.21)"/><path class="cls-3" d="M266.9,228.46a1.55,1.55,0,0,1-.72-1.13,15,15,0,0,1,1.27-7.42A16.88,16.88,0,0,1,269,217a.9.9,0,0,1,.85-.26c1.25.65,1.23.68,1.88-.63a5.45,5.45,0,0,1,.29-.53c.79-1.24,1.67-1.39,2.79-.44a8.48,8.48,0,0,1,3,4.65,28.29,28.29,0,0,1,.67,5.43,14.3,14.3,0,0,1-1.76,7.82c-.17.28-.39.53-.55.75-.49-1.57-.93-3.11-1.49-4.57a1.28,1.28,0,0,0-1.12-.51,1.12,1.12,0,0,0-.67.9c0,.27.61.65.8.79s.54.11.67.28a4.33,4.33,0,0,1,.79,3.58C273.22,231.15,270.17,229.69,266.9,228.46Z" transform="translate(7.85 19.21)"/><path class="cls-3" d="M273.92,234.15a10.18,10.18,0,0,0-1.45-.23,22.75,22.75,0,0,0-3.3.1,1.31,1.31,0,0,0-.78.94,1.15,1.15,0,0,0,.65.92c.29.07.69-.34,1-.57.16-.13.22-.45.39-.51a4.18,4.18,0,0,1,3.69.33c-3.42.84-5.74,3.17-7.74,5.84a1.43,1.43,0,0,1-1.68.64,16.74,16.74,0,0,1-8.75-5.93c-.33-.41-.32-.72.17-1.06.95-.65.93-.86.08-1.65a7.53,7.53,0,0,1-.56-.57c-1-1.22-.88-2.14.46-2.94a9.38,9.38,0,0,1,5.61-1.38,19.89,19.89,0,0,1,9.07,2.94,30.47,30.47,0,0,1,3.41,2.81Z" transform="translate(7.85 19.21)"/><path class="cls-3" d="M277.62,245.52a1.67,1.67,0,0,1,0,2.16,17.26,17.26,0,0,1-8,6.31c-.63.25-1,.13-1.11-.64s-.6-1-1.3-.53a5.92,5.92,0,0,1-1.06.55c-1.34.49-2.1.09-2.44-1.3a9.31,9.31,0,0,1,.3-5.62,20.1,20.1,0,0,1,6.28-8.61,23.3,23.3,0,0,1,3.28-1.9c-.58,1.74-1.12,3.23-1.52,4.74a1.28,1.28,0,0,0,.51,1.12,1.26,1.26,0,0,0,1.16-.3c.15-.1-.12-.87-.2-1.1s-.38-.41-.38-.62a4.2,4.2,0,0,1,1.45-3.36C274.37,239.91,275.75,242.81,277.62,245.52Z" transform="translate(7.85 19.21)"/><path class="cls-4" d="M273.67,213.74a14,14,0,0,1,1.88,1.26,10.11,10.11,0,0,1,3.13,5.69c.19,1,.33,2,.51,3.06A17.4,17.4,0,0,1,290,222.9c1.85.45,2,.58,1.77,2.45.41.08.83.14,1.24.25,1.89.5,2.46,1.64,1.74,3.45a10,10,0,0,1-4.29,5c-1,.59-2,1.1-3,1.65a17.78,17.78,0,0,1,4.13,10.18c.21,1.83,0,2-1.79,2.33a5.25,5.25,0,0,1,.14.87c.32,2.23-.68,3.34-2.86,3.15a11.37,11.37,0,0,1-7.49-4.14c-.26-.28-.52-.56-.8-.88a17.68,17.68,0,0,1-8.25,7.13c-1.75.75-2,.66-2.86-1-.22.13-.45.26-.68.37-2.22,1.11-3.53.44-4-2a11,11,0,0,1,1.06-7c.36-.74.75-1.46,1.14-2.21a17.48,17.48,0,0,1-9.24-5.72c-1.25-1.43-1.25-1.68-.11-2.89l-1.61-2.64v-.6a10.12,10.12,0,0,1,1.58-1.69,9.16,9.16,0,0,1,5.87-1.49c1.27.09,2.53.3,3.82.46a17.82,17.82,0,0,1,2.58-10.66c.94-1.6,1.22-1.68,2.82-.78a4.28,4.28,0,0,1,2.45-2.71Zm5.62,19.57c.17-.2,0-.41.17-.8s.31-.77.47-1.15c.39.17,1,.25,1.12.54a1.36,1.36,0,0,1-.27,1.21c-1.22,1-2.51,1.85-3.8,2.77a9.23,9.23,0,0,0,4.88.46,21,21,0,0,0,8.73-3.1,9.48,9.48,0,0,0,3.56-4.35c.59-1.41.18-2.21-1.3-2.6a5.58,5.58,0,0,0-.69-.13c-1.32-.16-1.29-.16-1-1.54a.91.91,0,0,0-.43-.77,15.89,15.89,0,0,0-10.71.42,1.26,1.26,0,0,0-.84,1.31,15.91,15.91,0,0,1-1.37,6.93c-.44.86-1,1.64-1.57,2.64A4.71,4.71,0,0,0,279.29,233.31Zm-.66,5.42c.24.07.44-.13.82-.13s1,0,1.1.14a1.38,1.38,0,0,1-.1,1.22,1.25,1.25,0,0,1-1.21.1c-1.34-.89-2.55-1.81-4-2.89a22.16,22.16,0,0,0,.72,3.59,20.07,20.07,0,0,0,6.26,8.87,9.08,9.08,0,0,0,5.13,2c1.46.11,2.07-.5,2-2a8.67,8.67,0,0,0-.13-.89c-.24-1.16-.13-1.31,1-1.31.62,0,.75-.27.75-.77a17.14,17.14,0,0,0-3.59-9.91,1.45,1.45,0,0,0-1.82-.52,14.81,14.81,0,0,1-6.76.79c-.94-.15-1.86-.44-3-.71A4.69,4.69,0,0,0,278.63,238.73Zm-3.45-4.45a4.33,4.33,0,0,0-.75-3.55c-.13-.17-.36,0-.67-.28s-.8-.52-.8-.79a1.12,1.12,0,0,1,.67-.9,1.28,1.28,0,0,1,1.12.51c.56,1.46,1,3,1.49,4.57.16-.22.38-.47.55-.75a14.3,14.3,0,0,0,1.76-7.82,28.29,28.29,0,0,0-.67-5.43,8.48,8.48,0,0,0-3-4.65c-1.12-.95-2-.8-2.79.44a5.45,5.45,0,0,0-.29.53c-.65,1.31-.63,1.28-1.88.63a.9.9,0,0,0-.85.26,16.88,16.88,0,0,0-1.58,2.89,15,15,0,0,0-1.27,7.42,1.55,1.55,0,0,0,.72,1.13c3.24,1.23,6.24,2.69,8.24,5.82Zm-1-.45a31.12,31.12,0,0,0-3.39-2.78,19.89,19.89,0,0,0-9.07-2.94,9.38,9.38,0,0,0-5.61,1.38c-1.34.8-1.46,1.72-.46,2.94a7.53,7.53,0,0,0,.56.57c.85.79.87,1-.08,1.65-.49.34-.5.65-.17,1.06a16.74,16.74,0,0,0,8.75,5.93,1.43,1.43,0,0,0,1.68-.64c2-2.67,4.32-5,7.74-5.84a4.18,4.18,0,0,0-3.69-.33c-.17.06-.23.38-.39.51-.34.23-.74.64-1,.57a1.15,1.15,0,0,1-.65-.92,1.31,1.31,0,0,1,.78-.94,22.75,22.75,0,0,1,3.3-.1,10.18,10.18,0,0,1,1.45.23l.24-.32Zm.4,2.59a4.2,4.2,0,0,0-1.49,3.39c0,.21.26.25.38.62s.35,1,.2,1.1a1.26,1.26,0,0,1-1.16.3,1.28,1.28,0,0,1-.51-1.12c.4-1.51.94-3,1.52-4.74a23.3,23.3,0,0,0-3.28,1.9,20.1,20.1,0,0,0-6.28,8.61,9.31,9.31,0,0,0-.3,5.62c.34,1.39,1.1,1.79,2.44,1.3a5.92,5.92,0,0,0,1.06-.55c.7-.47,1.19-.19,1.3.53s.48.89,1.11.64a17.26,17.26,0,0,0,8-6.31,1.67,1.67,0,0,0,0-2.16c-1.84-2.71-3.22-5.61-3-9.1Z" transform="translate(7.85 19.21)"/><path class="cls-3" d="M167.3,205.86a15.92,15.92,0,0,0,1.37-6.94,1.25,1.25,0,0,1,.84-1.3,15.89,15.89,0,0,1,10.71-.42.93.93,0,0,1,.43.77c-.34,1.38-.37,1.37,1,1.54l.69.12c1.48.39,1.89,1.19,1.3,2.61a9.53,9.53,0,0,1-3.56,4.35,21,21,0,0,1-8.73,3.1,9.43,9.43,0,0,1-4.88-.46c1.29-.93,2.58-1.77,3.8-2.77a1.36,1.36,0,0,0,.27-1.21c-.12-.3-.73-.38-1.12-.55-.16.38-.39.89-.47,1.15s0,.61-.17.81a4.71,4.71,0,0,1-3.1,1.84C166.27,207.51,166.81,206.71,167.3,205.86Z" transform="translate(7.85 19.21)"/><path class="cls-3" d="M168.16,210.39a14.67,14.67,0,0,0,6.76-.79,1.49,1.49,0,0,1,1.82.52,17.12,17.12,0,0,1,3.59,9.92c0,.5-.13.76-.75.76-1.09,0-1.2.16-1,1.31a5.62,5.62,0,0,1,.13.89c.07,1.51-.54,2.12-2,2a8.94,8.94,0,0,1-5.13-2,20.2,20.2,0,0,1-6.26-8.87,22.07,22.07,0,0,1-.72-3.6c1.49,1.08,2.71,2.05,4,2.9a1.25,1.25,0,0,0,1.21-.1,1.38,1.38,0,0,0,.1-1.22c-.1-.14-.83-.14-1.1-.14s-.58.2-.82.12a4.77,4.77,0,0,1-2.75-2.43C166.38,209.93,167.3,210.21,168.16,210.39Z" transform="translate(7.85 19.21)"/><path class="cls-3" d="M156.34,201.81a1.66,1.66,0,0,1-.72-1.13,15,15,0,0,1,1.27-7.43,16.88,16.88,0,0,1,1.58-2.89.89.89,0,0,1,.85-.25c1.25.65,1.23.67,1.88-.64a3.81,3.81,0,0,1,.29-.52c.79-1.25,1.68-1.39,2.79-.44a8.48,8.48,0,0,1,3,4.65,28.29,28.29,0,0,1,.67,5.43,14.4,14.4,0,0,1-1.75,7.82c-.18.28-.4.53-.55.74-.5-1.56-.94-3.1-1.5-4.56a1.31,1.31,0,0,0-1.11-.52,1.15,1.15,0,0,0-.68.91c0,.27.61.65.8.79s.54.11.67.28a4.33,4.33,0,0,1,.79,3.58C162.66,204.49,159.61,203,156.34,201.81Z" transform="translate(7.85 19.21)"/><path class="cls-3" d="M163.36,207.5a10.18,10.18,0,0,0-1.45-.23,22.74,22.74,0,0,0-3.3.09,1.22,1.22,0,0,0-.78.95,1.15,1.15,0,0,0,.65.92c.29.07.69-.34,1-.58.16-.13.22-.44.39-.51a4.15,4.15,0,0,1,3.69.34c-3.41.83-5.74,3.16-7.74,5.83a1.4,1.4,0,0,1-1.68.64,16.59,16.59,0,0,1-8.75-5.93c-.33-.41-.32-.71.17-1.05.95-.66.93-.87.08-1.66a7.4,7.4,0,0,1-.56-.56c-1-1.23-.88-2.14.46-2.95a9.31,9.31,0,0,1,5.61-1.37,19.65,19.65,0,0,1,9.07,2.94,31.52,31.52,0,0,1,3.41,2.8Z" transform="translate(7.85 19.21)"/><path class="cls-3" d="M167,218.86a1.68,1.68,0,0,1,0,2.17,17.13,17.13,0,0,1-8,6.31c-.63.25-1,.13-1.11-.64s-.6-1-1.3-.53a7,7,0,0,1-1.06.54c-1.34.5-2.1.1-2.44-1.29a9.34,9.34,0,0,1,.3-5.63,20.07,20.07,0,0,1,6.28-8.6,23.89,23.89,0,0,1,3.29-1.91c-.59,1.74-1.13,3.23-1.53,4.74a1,1,0,0,0,.34,1,1,1,0,0,0,1.33-.18c.15-.15-.13-.87-.2-1.1s-.38-.41-.38-.62a4.23,4.23,0,0,1,1.45-3.36C163.81,213.26,165.19,216.16,167,218.86Z" transform="translate(7.85 19.21)"/><path class="cls-4" d="M163.1,187.08a17.24,17.24,0,0,1,1.89,1.26,10.16,10.16,0,0,1,3.12,5.7c.19,1,.33,2.05.51,3.05a17.4,17.4,0,0,1,10.78-.84c1.85.44,2,.57,1.77,2.44.41.09.83.14,1.24.25,1.89.51,2.47,1.65,1.74,3.46a10,10,0,0,1-4.29,5c-1,.58-2,1.1-3,1.64A17.78,17.78,0,0,1,181,219.22c.21,1.84,0,2-1.79,2.34a5.25,5.25,0,0,1,.14.87c.32,2.22-.68,3.33-2.86,3.14a11.32,11.32,0,0,1-7.49-4.13l-.8-.89a17.7,17.7,0,0,1-8.25,7.14c-1.75.75-2,.65-2.86-1-.22.12-.45.25-.68.36-2.22,1.11-3.53.43-4-2a11,11,0,0,1,1.06-7c.36-.73.75-1.45,1.14-2.2a17.52,17.52,0,0,1-9.24-5.72c-1.25-1.44-1.25-1.68-.11-2.89l-1.6-2.65V204a9.43,9.43,0,0,1,1.59-1.69,9.26,9.26,0,0,1,5.86-1.49c1.27.1,2.53.3,3.82.46a17.8,17.8,0,0,1,2.58-10.65c.94-1.61,1.22-1.68,2.82-.78a4.31,4.31,0,0,1,2.45-2.71Zm5.63,19.58c.17-.2,0-.42.17-.81s.31-.77.47-1.15c.39.17,1,.25,1.12.55a1.33,1.33,0,0,1-.27,1.21c-1.22,1-2.51,1.84-3.8,2.77a9.43,9.43,0,0,0,4.88.46,21,21,0,0,0,8.73-3.1,9.53,9.53,0,0,0,3.56-4.35c.59-1.42.18-2.22-1.3-2.61l-.69-.12c-1.32-.17-1.29-.16-1-1.54a.91.91,0,0,0-.43-.77,15.89,15.89,0,0,0-10.71.42,1.25,1.25,0,0,0-.84,1.3,15.92,15.92,0,0,1-1.37,6.94c-.44.85-1,1.64-1.57,2.64A4.71,4.71,0,0,0,168.73,206.66Zm-.66,5.4c.24.08.44-.12.82-.12s1,0,1.1.14a1.38,1.38,0,0,1-.1,1.22,1.25,1.25,0,0,1-1.21.1c-1.33-.85-2.55-1.82-4-2.9a22.07,22.07,0,0,0,.72,3.6,20.2,20.2,0,0,0,6.26,8.87,8.94,8.94,0,0,0,5.13,2c1.46.12,2.07-.49,2-2,0-.29-.13-.59-.13-.89-.24-1.15-.13-1.31,1-1.31.62,0,.75-.26.75-.76a17.12,17.12,0,0,0-3.59-9.92,1.49,1.49,0,0,0-1.82-.52,14.67,14.67,0,0,1-6.76.79c-.94-.15-1.86-.43-3-.7A4.74,4.74,0,0,0,168.07,212.06Zm-3.45-4.43a4.33,4.33,0,0,0-.75-3.55c-.13-.17-.36-.05-.67-.28s-.8-.52-.8-.79a1.15,1.15,0,0,1,.68-.91,1.31,1.31,0,0,1,1.11.52c.56,1.46,1,3,1.5,4.56.15-.21.37-.46.55-.74a14.4,14.4,0,0,0,1.75-7.82,28.29,28.29,0,0,0-.67-5.43,8.48,8.48,0,0,0-3-4.65c-1.11-.95-2-.81-2.79.44a3.81,3.81,0,0,0-.29.52c-.65,1.31-.63,1.29-1.88.64a.89.89,0,0,0-.85.25,16.88,16.88,0,0,0-1.58,2.89,15,15,0,0,0-1.27,7.43,1.66,1.66,0,0,0,.72,1.13c3.24,1.22,6.24,2.68,8.24,5.82Zm-1-.46a31,31,0,0,0-3.39-2.77,19.65,19.65,0,0,0-9.07-2.94,9.31,9.31,0,0,0-5.61,1.37c-1.34.81-1.46,1.72-.46,2.95a7.4,7.4,0,0,0,.56.56c.85.79.92,1-.08,1.66-.49.34-.5.64-.17,1.05a16.59,16.59,0,0,0,8.75,5.93,1.4,1.4,0,0,0,1.68-.64c2-2.67,4.33-5,7.74-5.83a4.15,4.15,0,0,0-3.69-.34c-.17.07-.23.38-.39.51-.34.24-.74.65-1,.58a1.15,1.15,0,0,1-.65-.92c.05-.36.47-1,.78-1a22.74,22.74,0,0,1,3.3-.09,10.18,10.18,0,0,1,1.45.23l.24-.33Zm.37,2.6a4.23,4.23,0,0,0-1.46,3.39c0,.21.26.26.38.62s.35.95.2,1.1a.95.95,0,0,1-1.67-.83c.4-1.51.94-3,1.53-4.74a23.89,23.89,0,0,0-3.29,1.91,20.07,20.07,0,0,0-6.28,8.6,9.34,9.34,0,0,0-.3,5.63c.34,1.39,1.1,1.79,2.44,1.29a7,7,0,0,0,1.06-.54c.7-.47,1.19-.19,1.3.53s.48.89,1.11.64a17.13,17.13,0,0,0,8-6.31,1.68,1.68,0,0,0,0-2.17c-1.84-2.7-3.22-5.6-3-9.09Z" transform="translate(7.85 19.21)"/><path class="cls-3" d="M249.18,169a18.86,18.86,0,0,0,1.62-8.21,1.51,1.51,0,0,1,1-1.55,18.82,18.82,0,0,1,12.69-.5,1.08,1.08,0,0,1,.5.91c-.34,1.64-.37,1.63,1.25,1.82a7.73,7.73,0,0,1,.81.16c1.76.45,2.24,1.41,1.54,3.08a11.23,11.23,0,0,1-4.21,5.15A24.61,24.61,0,0,1,254,173.54a11,11,0,0,1-5.77-.54c1.5-1.1,3.06-2.13,4.5-3.28a1.57,1.57,0,0,0,.32-1.44c-.17-.35-.86-.44-1.32-.64a14.69,14.69,0,0,0-.56,1.36c-.1.36,0,.77-.2,1a5.64,5.64,0,0,1-3.72,2.15C248,171,248.63,170,249.18,169Z" transform="translate(7.85 19.21)"/><path class="cls-3" d="M250.32,174.32a17.57,17.57,0,0,0,8-.94,1.72,1.72,0,0,1,2.15.62,20.26,20.26,0,0,1,4.27,11.78c0,.59-.15.9-.89.9-1.33,0-1.47.19-1.23,1.55a9.32,9.32,0,0,1,.15,1.06c.09,1.78-.63,2.5-2.37,2.37a10.76,10.76,0,0,1-6.07-2.34,23.89,23.89,0,0,1-7.42-10.51,26.77,26.77,0,0,1-.85-4.26c1.69,1.28,3.16,2.43,4.69,3.43a1.45,1.45,0,0,0,1.44-.12,1.63,1.63,0,0,0,.11-1.44c-.08-.17-1-.17-1.3-.17s-.72.24-1,.15a5.64,5.64,0,0,1-3.24-2.88A35.37,35.37,0,0,0,250.32,174.32Z" transform="translate(7.85 19.21)"/><path class="cls-3" d="M236.25,164.22a1.87,1.87,0,0,1-.85-1.34c-.44-3.08.51-6,1.51-8.79a19.66,19.66,0,0,1,1.87-3.43,1.09,1.09,0,0,1,1-.3c1.47.77,1.46.8,2.22-.75.11-.21.22-.42.35-.62,1-1.52,2-1.65,3.3-.52a10,10,0,0,1,3.51,5.5,33.26,33.26,0,0,1,.79,6.44,16.8,16.8,0,0,1-2.08,9.26c-.2.3-.42.6-.65.88-.6-1.89-1.1-3.68-1.77-5.41a1.58,1.58,0,0,0-1.32-.61,1.36,1.36,0,0,0-.8,1.08c0,.32.58.66.95.93.22.17.64.14.79.33a5.07,5.07,0,0,1,.93,4.24C243.7,167.4,240.1,165.67,236.25,164.22Z" transform="translate(7.85 19.21)"/><path class="cls-3" d="M244.6,171a12.55,12.55,0,0,0-1.72-.27,28.23,28.23,0,0,0-3.9.11,1.6,1.6,0,0,0-.93,1.12,1.38,1.38,0,0,0,.77,1.09c.3.08.78-.4,1.15-.68.19-.16.26-.53.47-.61a4.92,4.92,0,0,1,4.37.4c-4.05,1-6.79,3.75-9.17,6.91a1.69,1.69,0,0,1-2,.76,19.7,19.7,0,0,1-10.36-7c-.39-.49-.38-.85.21-1.25,1.09-.82,1.09-1.07.09-2a8.5,8.5,0,0,1-.66-.68c-1.21-1.48-1-2.48.54-3.48a11,11,0,0,1,6.64-1.63,23.75,23.75,0,0,1,10.75,3.48,37.27,37.27,0,0,1,4,3.32Z" transform="translate(7.85 19.21)"/><path class="cls-3" d="M249,184.45a2,2,0,0,1,0,2.57,20.39,20.39,0,0,1-9.5,7.47c-.76.3-1.15.15-1.32-.76s-.72-1.16-1.55-.62a7,7,0,0,1-1.25.64c-1.59.59-2.48.11-2.89-1.53a11.1,11.1,0,0,1,.36-6.67,23.82,23.82,0,0,1,7.44-10.19,26.39,26.39,0,0,1,3.89-2.25c-.69,2.07-1.33,3.82-1.81,5.61a1.56,1.56,0,0,0,.61,1.33,1.52,1.52,0,0,0,1.37-.36c.18-.17-.1-.86-.24-1.3-.09-.27-.45-.49-.45-.74a5,5,0,0,1,1.72-4C245.06,177.78,246.71,181.22,249,184.45Z" transform="translate(7.85 19.21)"/><path class="cls-4" d="M244.27,146.77a16.72,16.72,0,0,1,2.23,1.5,12,12,0,0,1,3.7,6.74c.23,1.19.4,2.38.6,3.62a20.49,20.49,0,0,1,12.77-1c2.2.49,2.33.68,2.1,2.9.48.09,1,.16,1.48.29,2.23.6,2.91,2,2.05,4.1a11.84,11.84,0,0,1-5.08,5.91c-1.16.69-2.38,1.29-3.58,1.94a21,21,0,0,1,4.9,12.06c.21,2.17,0,2.4-2.12,2.77a5.5,5.5,0,0,1,.17,1c.38,2.64-.81,4-3.4,3.73-3.67-.31-6.46-2.26-8.87-4.9a13.43,13.43,0,0,1-.95-1,20.84,20.84,0,0,1-9.77,8.45c-2.07.93-2.38.86-3.38-1.14-.27.14-.53.3-.81.43-2.64,1.28-4.19.49-4.75-2.4a13,13,0,0,1,1.26-8.31c.42-.87.88-1.72,1.34-2.61a20.77,20.77,0,0,1-10.93-6.78c-1.49-1.69-1.49-2-.14-3.42l-1.9-3.13v-.71A8.94,8.94,0,0,1,230,163c1.53.12,3,.36,4.53.55A21.05,21.05,0,0,1,237.59,151c1.12-1.93,1.45-2,3.34-.93a5.12,5.12,0,0,1,2.91-3.21ZM251,170c.2-.28,0-.54.2-1s.37-.91.56-1.36c.46.2,1.15.29,1.32.64a1.57,1.57,0,0,1-.32,1.44c-1.44,1.15-3,2.18-4.5,3.28a11,11,0,0,0,5.77.54,24.71,24.71,0,0,0,10.34-3.67,11.23,11.23,0,0,0,4.21-5.15c.7-1.67.22-2.63-1.54-3.08a7.73,7.73,0,0,0-.81-.16c-1.62-.19-1.59-.18-1.25-1.82a1.08,1.08,0,0,0-.5-.91,18.82,18.82,0,0,0-12.69.5,1.51,1.51,0,0,0-1,1.55,18.86,18.86,0,0,1-1.62,8.21c-.51,1-1.16,1.95-1.86,3.13A5.63,5.63,0,0,0,251,170Zm-4.21,3.51A5.62,5.62,0,0,0,250,176.4c.31.09.54-.16,1-.15s1.22,0,1.3.17a1.63,1.63,0,0,1-.11,1.44,1.45,1.45,0,0,1-1.44.12c-1.53-1-3-2.15-4.69-3.43a26.77,26.77,0,0,0,.85,4.26,23.89,23.89,0,0,0,7.42,10.51,10.76,10.76,0,0,0,6.07,2.34c1.74.13,2.46-.59,2.37-2.37a9.32,9.32,0,0,0-.15-1.06c-.24-1.36-.1-1.55,1.23-1.55.74,0,.89-.31.89-.9A20.3,20.3,0,0,0,260.47,174a1.72,1.72,0,0,0-2.15-.62,17.57,17.57,0,0,1-8,.94c-1.12-.18-2.21-.52-3.56-.84Zm-.76-2.41a5.11,5.11,0,0,0-.92-4.24c-.15-.19-.57-.16-.79-.33-.37-.27-.95-.61-.95-.93a1.36,1.36,0,0,1,.8-1.08,1.58,1.58,0,0,1,1.32.61c.67,1.73,1.17,3.52,1.77,5.41.23-.28.45-.58.65-.88a16.8,16.8,0,0,0,2.08-9.26,33.26,33.26,0,0,0-.79-6.44,10,10,0,0,0-3.51-5.5c-1.3-1.13-2.3-1-3.3.52-.13.2-.24.41-.35.62-.76,1.55-.75,1.52-2.22.75a1.09,1.09,0,0,0-1,.3,19.66,19.66,0,0,0-1.87,3.43c-1,2.79-1.95,5.71-1.51,8.79a1.87,1.87,0,0,0,.85,1.34c3.84,1.45,7.44,3.18,9.76,6.89Zm-1.15-.54a39,39,0,0,0-4-3.34,23.75,23.75,0,0,0-10.75-3.48,11,11,0,0,0-6.64,1.63c-1.54,1-1.75,2-.54,3.48a8.5,8.5,0,0,0,.66.68c1,1,1,1.22-.09,2-.59.4-.6.76-.21,1.25a19.7,19.7,0,0,0,10.36,7,1.69,1.69,0,0,0,2-.76c2.38-3.16,5.17-5.91,9.17-6.91a4.92,4.92,0,0,0-4.37-.4c-.21.08-.28.45-.47.61-.37.28-.85.76-1.15.68a1.38,1.38,0,0,1-.77-1.09,1.6,1.6,0,0,1,.93-1.12,28.23,28.23,0,0,1,3.9-.11,12.55,12.55,0,0,1,1.72.27l.28-.39Zm.48,3.08a5,5,0,0,0-1.74,4c0,.25.36.47.45.74.14.44.42,1.13.24,1.3a1.52,1.52,0,0,1-1.37.36,1.56,1.56,0,0,1-.61-1.33c.48-1.79,1.12-3.54,1.81-5.61a26.39,26.39,0,0,0-3.89,2.25,23.82,23.82,0,0,0-7.44,10.19,11.1,11.1,0,0,0-.36,6.67c.41,1.64,1.3,2.12,2.89,1.53a7,7,0,0,0,1.25-.64c.83-.54,1.38-.23,1.55.62s.56,1.06,1.32.76a20.39,20.39,0,0,0,9.5-7.47,2,2,0,0,0,0-2.57c-2.22-3.2-3.87-6.64-3.6-10.77Z" transform="translate(7.85 19.21)"/><path class="cls-3" d="M405.75,293.1a15.91,15.91,0,0,0,1.37-6.93,1.26,1.26,0,0,1,.84-1.31,15.89,15.89,0,0,1,10.71-.42.91.91,0,0,1,.43.77c-.29,1.38-.32,1.37,1.06,1.54a5.1,5.1,0,0,1,.68.13c1.48.38,1.89,1.19,1.3,2.6a9.48,9.48,0,0,1-3.56,4.35,21,21,0,0,1-8.73,3.1,9.43,9.43,0,0,1-4.88-.46c1.29-.93,2.58-1.77,3.8-2.77a1.36,1.36,0,0,0,.27-1.21c-.12-.3-.73-.37-1.12-.55-.16.39-.39.9-.47,1.16s0,.6-.17.8a4.68,4.68,0,0,1-3.1,1.84C404.77,294.75,405.31,294,405.75,293.1Z" transform="translate(7.85 19.21)"/><path class="cls-3" d="M406.66,297.63a14.81,14.81,0,0,0,6.76-.79,1.45,1.45,0,0,1,1.82.52,17.14,17.14,0,0,1,3.59,9.91c0,.5-.13.77-.75.77-1.09,0-1.2.15-1,1.3a5.58,5.58,0,0,1,.13.9c.07,1.5-.54,2.11-2,2a9.1,9.1,0,0,1-5.13-2,20.2,20.2,0,0,1-6.26-8.87,22.07,22.07,0,0,1-.72-3.6c1.49,1.08,2.71,2.05,4,2.9a1.25,1.25,0,0,0,1.21-.1,1.38,1.38,0,0,0,.1-1.22c-.1-.14-.83-.14-1.1-.14s-.58.2-.81.13a4.78,4.78,0,0,1-2.76-2.44C404.88,297.17,405.8,297.46,406.66,297.63Z" transform="translate(7.85 19.21)"/><path class="cls-3" d="M394.84,289.05a1.66,1.66,0,0,1-.72-1.13,15.07,15.07,0,0,1,1.27-7.43A16.88,16.88,0,0,1,397,277.6a.92.92,0,0,1,.85-.25c1.25.65,1.23.68,1.88-.63a5.45,5.45,0,0,1,.29-.53c.79-1.24,1.68-1.39,2.79-.44a8.43,8.43,0,0,1,3,4.65,28.29,28.29,0,0,1,.67,5.43,14.31,14.31,0,0,1-1.75,7.82c-.17.28-.4.53-.55.74-.5-1.56-.94-3.1-1.5-4.56a1.27,1.27,0,0,0-1.11-.51,1.14,1.14,0,0,0-.68.9c0,.27.61.65.8.79s.54.11.67.28a4.33,4.33,0,0,1,.79,3.58C401.16,291.74,398.11,290.27,394.84,289.05Z" transform="translate(7.85 19.21)"/><path class="cls-3" d="M401.82,294.7a10.18,10.18,0,0,0-1.45-.23,22.75,22.75,0,0,0-3.3.1,1.31,1.31,0,0,0-.78.94,1.15,1.15,0,0,0,.65.92c.29.07.69-.34,1-.58s.22-.44.39-.51a4.15,4.15,0,0,1,3.69.34c-3.41.83-5.74,3.17-7.74,5.83a1.4,1.4,0,0,1-1.68.64,16.67,16.67,0,0,1-8.75-5.92c-.33-.41-.32-.72.17-1.06,1-.65.93-.86.08-1.65a7.53,7.53,0,0,1-.56-.57c-1-1.22-.88-2.14.46-2.95a9.42,9.42,0,0,1,5.65-1.33,19.89,19.89,0,0,1,9.07,2.94,31.52,31.52,0,0,1,3.41,2.8Z" transform="translate(7.85 19.21)"/><path class="cls-3" d="M405.56,306.09a1.68,1.68,0,0,1,0,2.17,17.13,17.13,0,0,1-8,6.31c-.63.25-.95.13-1.1-.64s-.61-1-1.31-.53a5.29,5.29,0,0,1-1.06.54c-1.34.5-2.1.1-2.44-1.29A9.38,9.38,0,0,1,392,307a20.1,20.1,0,0,1,6.28-8.61,22.85,22.85,0,0,1,3.29-1.9c-.58,1.74-1.12,3.23-1.53,4.74a1.29,1.29,0,0,0,.52,1.12,1.33,1.33,0,0,0,1.16-.3c.14-.1-.14-.87-.21-1.1s-.38-.41-.38-.62a4.23,4.23,0,0,1,1.45-3.36C402.31,300.5,403.69,303.4,405.56,306.09Z" transform="translate(7.85 19.21)"/><path class="cls-4" d="M401.6,274.32a14.79,14.79,0,0,1,1.89,1.26,10.1,10.1,0,0,1,3.12,5.69c.19,1,.33,2.05.51,3.05a17.47,17.47,0,0,1,10.78-.84c1.85.45,2,.58,1.77,2.45.41.08.83.14,1.24.25,1.89.45,2.47,1.64,1.74,3.45a10,10,0,0,1-4.29,5c-1,.59-2,1.1-3,1.65a17.76,17.76,0,0,1,4.14,10.17c.21,1.84,0,2-1.79,2.34a6.56,6.56,0,0,1,.14.87c.32,2.22-.69,3.33-2.87,3.15a11.37,11.37,0,0,1-7.49-4.14l-.8-.88a17.68,17.68,0,0,1-8.25,7.13c-1.75.75-2,.65-2.86-1l-.68.37c-2.22,1.11-3.53.44-4-2a11,11,0,0,1,1.06-7c.36-.73.75-1.45,1.14-2.2a17.58,17.58,0,0,1-9.24-5.72c-1.25-1.43-1.25-1.68-.11-2.89-.55-.9-1.08-1.77-1.6-2.64v-.6a7.56,7.56,0,0,1,7.45-3.19c1.27.1,2.53.31,3.82.47A17.82,17.82,0,0,1,396,277.86c.94-1.61,1.22-1.68,2.82-.78a4.31,4.31,0,0,1,2.45-2.71Zm5.68,19.58c.17-.2,0-.4.17-.8s.31-.77.47-1.16c.39.18,1,.25,1.12.55a1.36,1.36,0,0,1-.27,1.21c-1.22,1-2.51,1.84-3.8,2.77a9.43,9.43,0,0,0,4.88.46,21,21,0,0,0,8.73-3.1,9.48,9.48,0,0,0,3.56-4.35c.59-1.41.18-2.22-1.3-2.6a5.1,5.1,0,0,0-.68-.13c-1.38-.17-1.35-.16-1.06-1.54a.93.93,0,0,0-.43-.77,15.89,15.89,0,0,0-10.71.42,1.26,1.26,0,0,0-.84,1.31,15.91,15.91,0,0,1-1.37,6.93c-.44.85-1,1.64-1.57,2.64A4.68,4.68,0,0,0,407.28,293.9Zm-.7,5.42c.23.07.43-.13.81-.13s1,0,1.1.14a1.38,1.38,0,0,1-.1,1.22,1.25,1.25,0,0,1-1.21.1c-1.33-.85-2.55-1.82-4-2.9a22.07,22.07,0,0,0,.72,3.6,20.2,20.2,0,0,0,6.26,8.87,9.1,9.1,0,0,0,5.13,2c1.46.11,2.07-.5,2-2,0-.3-.08-.6-.13-.9-.24-1.15-.13-1.3,1-1.3.62,0,.75-.27.75-.77a17.14,17.14,0,0,0-3.59-9.91,1.45,1.45,0,0,0-1.82-.52,14.81,14.81,0,0,1-6.76.79c-.94-.15-1.86-.44-3-.71A4.77,4.77,0,0,0,406.58,299.32Zm-3.46-4.45a4.32,4.32,0,0,0-.76-3.58c-.13-.17-.36-.05-.67-.28s-.8-.52-.8-.79a1.14,1.14,0,0,1,.68-.9,1.27,1.27,0,0,1,1.11.51c.56,1.46,1,3,1.5,4.56.15-.21.38-.46.55-.74a14.31,14.31,0,0,0,1.75-7.82,28.29,28.29,0,0,0-.67-5.43,8.43,8.43,0,0,0-3-4.65c-1.11-.95-2-.8-2.79.44a5.45,5.45,0,0,0-.29.53c-.65,1.31-.63,1.28-1.88.63a.92.92,0,0,0-.85.25,16.43,16.43,0,0,0-1.57,2.92,15.07,15.07,0,0,0-1.27,7.43,1.66,1.66,0,0,0,.72,1.13c3.24,1.22,6.24,2.69,8.24,5.82Zm-1-.46a31,31,0,0,0-3.39-2.77,19.89,19.89,0,0,0-9.07-2.94,9.45,9.45,0,0,0-5.61,1.37c-1.34.81-1.46,1.73-.46,2.95a7.53,7.53,0,0,0,.56.57c.85.79.87,1-.08,1.65-.49.34-.5.65-.17,1.06a16.67,16.67,0,0,0,8.75,5.92,1.4,1.4,0,0,0,1.68-.64c2-2.66,4.33-5,7.74-5.83a4.15,4.15,0,0,0-3.69-.34c-.17.07-.23.38-.39.51-.34.24-.74.65-1,.58a1.15,1.15,0,0,1-.65-.92,1.31,1.31,0,0,1,.78-.94,22.75,22.75,0,0,1,3.3-.1,10.18,10.18,0,0,1,1.45.23l.24-.33Zm.4,2.59a4.25,4.25,0,0,0-1.49,3.4c0,.21.26.25.38.62s.35,1,.21,1.1a1.33,1.33,0,0,1-1.16.3,1.29,1.29,0,0,1-.52-1.12c.41-1.51.95-3,1.53-4.74a22.85,22.85,0,0,0-3.29,1.9,20.1,20.1,0,0,0-6.28,8.61,9.38,9.38,0,0,0-.3,5.62c.34,1.39,1.1,1.79,2.44,1.29a5.29,5.29,0,0,0,1.06-.54c.7-.47,1.21-.19,1.31.53s.47.89,1.1.64a17.13,17.13,0,0,0,8-6.31,1.68,1.68,0,0,0,0-2.17c-1.84-2.7-3.22-5.6-3-9.09Z" transform="translate(7.85 19.21)"/><path class="cls-3" d="M88.42,171.82a19.23,19.23,0,0,0-1.82-8.24,1.52,1.52,0,0,1,.29-1.83,19.17,19.17,0,0,1,11.5-5.69,1.1,1.1,0,0,1,.83.64c.35,1.65.31,1.65,1.89,1.16a5.6,5.6,0,0,1,.81-.19c1.8-.3,2.66.38,2.66,2.21a11.43,11.43,0,0,1-1.8,6.48A25,25,0,0,1,94.72,174a11.13,11.13,0,0,1-5.54,1.88c1-1.64,2-3.22,2.82-4.88a1.53,1.53,0,0,0-.21-1.5c-.29-.26-1-.05-1.48-.05v1.48c0,.36.26.7.2,1A5.75,5.75,0,0,1,88,175.45C88.13,174.08,88.34,172.94,88.42,171.82Z" transform="translate(7.85 19.21)"/><path class="cls-3" d="M91.62,176.24a17.84,17.84,0,0,0,7-4.16,1.73,1.73,0,0,1,2.23-.32,20.28,20.28,0,0,1,8.67,9.07c.26.53.23.92-.46,1.2-1.25.51-1.28.77-.51,1.94a8.64,8.64,0,0,1,.57.91c.77,1.61.42,2.56-1.23,3.16a10.91,10.91,0,0,1-6.54.34,23.83,23.83,0,0,1-11.08-6.63,26.08,26.08,0,0,1-2.5-3.58c2.1.48,3.88.94,5.7,1.24a1.52,1.52,0,0,0,1.28-.71,1.62,1.62,0,0,0-.48-1.38c-.16-.15-1,.26-1.27.39s-.53.53-.82.53A5.63,5.63,0,0,1,88,176.93C89.41,176.67,90.55,176.53,91.62,176.24Z" transform="translate(7.85 19.21)"/><path class="cls-3" d="M74.61,172.63a1.88,1.88,0,0,1-1.33-.89c-1.65-2.66-2-5.72-2.16-8.72a19.94,19.94,0,0,1,.34-3.93,1.11,1.11,0,0,1,.81-.69c1.67.1,1.67.14,1.75-1.61a4.25,4.25,0,0,1,.06-.71c.29-1.76,1.17-2.34,2.84-1.84a10,10,0,0,1,5.45,3.63,33,33,0,0,1,3.33,5.6,17.06,17.06,0,0,1,1.82,9.39,10.46,10.46,0,0,1-.24,1.08c-1.32-1.49-2.51-2.93-3.82-4.25a1.57,1.57,0,0,0-1.46,0,1.42,1.42,0,0,0-.31,1.32c.14.29.81.37,1.26.47.27.08.64-.12.86,0A5.08,5.08,0,0,1,86.38,175C82.74,172.55,78.72,172.44,74.61,172.63Z" transform="translate(7.85 19.21)"/><path class="cls-3" d="M85,175.47a12.17,12.17,0,0,0-1.7.46,27.46,27.46,0,0,0-3.54,1.71,1.56,1.56,0,0,0-.41,1.41,1.37,1.37,0,0,0,1.15.69c.31-.05.56-.69.78-1.1.12-.22,0-.6.19-.75a5,5,0,0,1,4.19-1.43c-3.32,2.6-4.74,6.24-5.66,10.14a1.7,1.7,0,0,1-1.55,1.52,19.7,19.7,0,0,1-12.39-2.21c-.55-.24-.69-.63-.31-1.24.72-1.17.6-1.39-.71-1.84a6.72,6.72,0,0,1-.88-.35c-1.7-.83-2-1.9-.91-3.44a11.42,11.42,0,0,1,5.46-4.23A23.69,23.69,0,0,1,80,173.6a37.06,37.06,0,0,1,5,1.4Z" transform="translate(7.85 19.21)"/><path class="cls-3" d="M94.42,186.08a2,2,0,0,1,1.06,2.36,20.67,20.67,0,0,1-5.75,10.8c-.57.58-1,.61-1.51-.16s-1.13-.77-1.68.06a6.83,6.83,0,0,1-.9,1.11c-1.27,1.19-2.27,1.13-3.27-.22A11.17,11.17,0,0,1,80,193.74a24.29,24.29,0,0,1,2.73-12.49,30.06,30.06,0,0,1,2.68-3.68c.2,2.2.32,4.07.6,5.92a1.51,1.51,0,0,0,1.09,1c.38,0,1-.48,1.13-.89.09-.23-.56-.89-.75-1.1s-.6-.27-.71-.49a5,5,0,0,1,0-4.37C88.19,181.56,91.09,184.05,94.42,186.08Z" transform="translate(7.85 19.21)"/><path class="cls-4" d="M75,153.35a18.26,18.26,0,0,1,2.66.46,11.9,11.9,0,0,1,6.13,4.7c.67,1,1.31,2,2,3.08a20.94,20.94,0,0,1,11.36-6.18c2.22-.45,2.42-.32,3.1,1.81.48-.11,1-.25,1.48-.33,2.3-.37,3.48.59,3.55,2.93a12.07,12.07,0,0,1-2.29,7.53c-.8,1.12-1.68,2.18-2.52,3.27a21,21,0,0,1,9.39,9.09c1.06,1.92,1,2.22-.84,3.43l.57.88c1.37,2.27.84,4-1.63,4.83-3.51,1.22-6.87.58-10.15-.86l-1.3-.58a21.24,21.24,0,0,1-5.59,11.81c-1.58,1.7-1.88,1.73-3.58.34-.19.24-.37.49-.57.72-1.92,2.27-3.67,2.18-5.35-.25a13,13,0,0,1-2.2-8.18c0-1,.13-2,.19-3a20.74,20.74,0,0,1-12.81-1.74c-2.06-1-2.18-1.22-1.51-3.1l-3-2.1-.32-.64a9.07,9.07,0,0,1,6.61-7.11c1.39-.51,2.9-.9,4.39-1.35a21.2,21.2,0,0,1-2.28-12.89c.26-2.23.53-2.44,2.7-2.23a5.22,5.22,0,0,1,1.39-4.16ZM90.47,172c.06-.33-.2-.67-.2-1v-1.48c.48,0,1.19-.21,1.48.05A1.55,1.55,0,0,1,92,171c-.82,1.66-1.82,3.24-2.82,4.88A11.13,11.13,0,0,0,94.75,174a25,25,0,0,0,8.06-7.64,11.43,11.43,0,0,0,1.8-6.48c0-1.83-.86-2.51-2.66-2.21a5.6,5.6,0,0,0-.81.19c-1.58.49-1.54.49-1.89-1.16a1.1,1.1,0,0,0-.83-.64,19.17,19.17,0,0,0-11.5,5.69,1.52,1.52,0,0,0-.29,1.83,19.23,19.23,0,0,1,1.82,8.24c-.07,1.14-.28,2.28-.45,3.65A5.72,5.72,0,0,0,90.47,172Zm-2.47,5a5.62,5.62,0,0,0,4.25,1.31c.29,0,.39-.34.82-.53s1.11-.54,1.27-.39a1.62,1.62,0,0,1,.48,1.38,1.52,1.52,0,0,1-1.28.71c-1.82-.3-3.6-.76-5.7-1.24a26.08,26.08,0,0,0,2.5,3.58,23.83,23.83,0,0,0,11.08,6.63A10.91,10.91,0,0,0,108,188c1.65-.6,2-1.55,1.23-3.16a8.64,8.64,0,0,0-.57-.91c-.77-1.17-.74-1.43.51-1.94.69-.28.72-.67.46-1.2a20.28,20.28,0,0,0-8.67-9.07,1.73,1.73,0,0,0-2.23.32,17.84,17.84,0,0,1-7,4.16c-1.1.29-2.24.43-3.62.69ZM86.38,175a5.06,5.06,0,0,0-2.53-3.47c-.22-.14-.59.06-.86,0-.45-.1-1.12-.18-1.26-.47a1.42,1.42,0,0,1,.31-1.32,1.57,1.57,0,0,1,1.46,0c1.31,1.32,2.5,2.76,3.82,4.25a10.46,10.46,0,0,0,.24-1.08,17.06,17.06,0,0,0-1.82-9.39,33,33,0,0,0-3.33-5.6A10,10,0,0,0,77,154.29c-1.67-.5-2.55.08-2.84,1.84a4.25,4.25,0,0,0-.06.71c-.08,1.75-.08,1.71-1.75,1.61a1.13,1.13,0,0,0-.81.69,19.94,19.94,0,0,0-.34,3.93c.16,3,.51,6.06,2.16,8.72a1.88,1.88,0,0,0,1.33.89c4.11-.24,8.13-.13,11.77,2.33Zm-1.3,0A36.07,36.07,0,0,0,80,173.6a23.67,23.67,0,0,0-11.25,1.22,11.42,11.42,0,0,0-5.46,4.23c-1.09,1.54-.79,2.61.91,3.44a6.72,6.72,0,0,0,.88.35c1.31.45,1.43.67.71,1.84-.38.61-.24.95.31,1.24a19.7,19.7,0,0,0,12.39,2.21A1.7,1.7,0,0,0,80,186.61c.92-3.9,2.34-7.54,5.66-10.14a5,5,0,0,0-4.19,1.43c-.19.15-.07.53-.19.75-.22.41-.47,1-.78,1.1a1.37,1.37,0,0,1-1.15-.69,1.56,1.56,0,0,1,.41-1.41,27.46,27.46,0,0,1,3.54-1.71,12.17,12.17,0,0,1,1.7-.46l.1-.47Zm1.69,2.64a5,5,0,0,0,.06,4.41c.11.22.4.14.71.49s.84.87.75,1.1a1.53,1.53,0,0,1-1.13.89,1.51,1.51,0,0,1-1.09-1c-.28-1.85-.4-3.72-.6-5.92a30.06,30.06,0,0,0-2.68,3.68,24.19,24.19,0,0,0-2.74,12.46A11.17,11.17,0,0,0,82.42,200c1,1.35,2,1.41,3.27.22a6.83,6.83,0,0,0,.9-1.11c.55-.83,1.17-.78,1.68-.06s.94.74,1.51.16a20.67,20.67,0,0,0,5.75-10.8,2,2,0,0,0-1.06-2.36c-3.34-2-6.24-4.52-7.66-8.44Z" transform="translate(7.85 19.21)"/></g></svg>